<?xml version="1.0" standalone="no"?>
<!DOCTYPE svg PUBLIC "-//W3C//DTD SVG 1.1//EN" "http://www.w3.org/Graphics/SVG/1.1/DTD/svg11.dtd" >
<svg>
<metadata>
Created by FontForge 20090622 at Wed Jan 27 11:04:14 2016
 By deploy user
Copyright (c) 2012 by Kimberly Geswein. All rights reserved.
</metadata>
<defs>
<font id="FromWhereYouAre" horiz-adv-x="712" >
  <font-face 
    font-family="From Where You Are"
    font-weight="400"
    font-stretch="normal"
    units-per-em="1024"
    panose-1="2 0 5 7 0 0 0 2 0 4"
    ascent="819"
    descent="-205"
    x-height="688.5"
    cap-height="959"
    bbox="-167 -583 1354 1405"
    underline-thickness="0"
    underline-position="0"
    unicode-range="U+0020-U+F6C3"
  />
<missing-glyph horiz-adv-x="1000" 
 />
    <glyph glyph-name=".notdef" horiz-adv-x="1000" 
 />
    <glyph glyph-name=".null" horiz-adv-x="0" 
 />
    <glyph glyph-name="nonmarkingreturn" horiz-adv-x="1000" 
 />
    <glyph glyph-name="space" unicode=" " horiz-adv-x="539" 
 />
    <glyph glyph-name="space" unicode="&#xa0;" horiz-adv-x="539" 
 />
    <glyph glyph-name="exclam" unicode="!" horiz-adv-x="337" 
d="M103 66q0 24 13 47t33.5 41.5t46 29.5t49.5 11q12 0 25 -5t24 -14t18 -21t7 -25v-2q-11 -54 -48.5 -90.5t-97.5 -36.5q-26 0 -48 17t-22 48zM85 316q-2 9 -5 27.5l-6.5 42l-7.5 49.5t-8 49.5l-7 42t-4 27.5q0 3 -0.5 10t-1.5 15.5t-1.5 16.5t-0.5 12q0 29 -5.5 61.5
t-6.5 61.5q0 6 1.5 18t2 24.5t0.5 23.5t-3 15l6 56q-1 2 -5.5 8t-5.5 7v3l1 2q0 1 1.5 2.5t1.5 2.5l35.5 20.5t45 24.5t46.5 19.5t40 6.5h2q3 0 8.5 -2t12 -4t12.5 -3.5t9 -2.5q0 -2 1 -3q2 -2 3 -2q25 -18 37 -46.5t11 -60.5q0 -8 -2.5 -18.5t4.5 -15.5
q-8 -55 -13.5 -106.5t-3.5 -105.5l4 -103t-3 -102q-2 -14 -10 -24.5t-18 -20t-19.5 -20.5t-13.5 -25h-1h-3l-2 4q-1 1 -1 3h-1q-1 0 -2 1q-4 0 -5 -3.5t-2 -7.5t-3.5 -7t-8.5 -1q-1 1 -4 6t-5 5q-4 1 -15 -3.5t-13 -8.5q-2 1 -5 4.5t-4 5.5l-2 1q-6 0 -10 -8t-14 -7
q-17 2 -22.5 8.5t-10.5 24.5z" />
    <glyph glyph-name="question" unicode="?" horiz-adv-x="506" 
d="M154 70q0 26 10.5 47t28 36.5t39.5 26.5t45 17q6 2 13 6t15 4q19 0 32.5 -10.5l27.5 -22.5h6q1 0 8.5 -11t9.5 -18v-18q0 -30 -11 -54t-30 -40t-44.5 -24.5t-53.5 -8.5q-16 0 -33 4t-31 12.5t-23 21.5t-9 32zM187 381q-4 2 -12.5 7l-18 11l-18 11t-11.5 7q-4 3 -10 9.5
l-12 13.5t-10.5 13.5t-4.5 10.5q-2 19 11.5 39t35 41.5l46.5 44.5t47 49t37 56t15 64q0 4 -0.5 9.5t-2.5 10t-6 7t-11 0.5q-2 -1 -10 -10.5l-17.5 -20.5l-17.5 -21t-11 -13q-2 -3 -7 -8.5t-11 -11.5l-11.5 -11.5t-8.5 -7.5q0 2 -3.5 2t-4.5 -2q-2 0 -8 -1.5t-13 -3
t-13.5 -2.5t-7.5 -1h-2q-32 0 -52 9.5t-39 32.5v21q0 46 30 82t72.5 63.5t90.5 46.5t84 30h25q75 0 114 -36.5t39 -113.5q-3 -38 -14.5 -76.5t-29.5 -74.5t-41.5 -68.5t-48.5 -57.5q5 0 12 -8t13 -19t10 -22t4 -18q0 -9 -7.5 -29t-18 -40.5t-22.5 -36t-21 -15.5q-8 0 -11 2
t-14 2q-12 0 -21 -2t-20 -2q-26 0 -38 7t-25 31z" />
    <glyph glyph-name="M" unicode="M" horiz-adv-x="1244" 
d="M195 20l-2 -2q-1 -1 -2 -1l-7 -3h-4q-15 0 -24.5 10.5t-14.5 25.5t-7.5 31t-2.5 26q-2 48 -9 100.5t-5 101.5l-47 343q2 17 -3 36t-7 34l-4 4q-3 3 -14.5 10.5l-14.5 9.5q3 0 8.5 5.5t5.5 8.5q1 1 -0.5 10t-3.5 14l-2 4q-1 2 -1 4l-3 3l3 4l6.5 9t6.5 10t4 8q3 10 4 21
l2 22t3.5 21.5t9.5 19.5q18 28 49 42t62 14q10 0 14.5 -7.5t13.5 -7.5q5 0 9.5 5.5t11.5 5.5h4q0 -1 2 -5q1 -2 3 -5q2 -1 11.5 -2t10.5 -3q2 0 3 -5.5t3 -7.5l7 -30.5t5 -27t2.5 -28t-0.5 -32.5q2 -3 9 -12t11 -12q17 -19 37.5 -39l41.5 -41.5l41 -44t38 -45.5l86 -107.5
t94 -102.5h1q6 0 14.5 10.5t17 27t17.5 36.5t16 37.5l12.5 31t8.5 17.5q5 6 11 6.5t9 7.5q7 15 18.5 43.5t22 60.5t18 61t7.5 45h-4v14h9q0 2 0.5 8t0.5 7l-4 9q0 1 1.5 3t2.5 2l4 -5q5 1 5.5 4.5t0.5 6.5q0 5 -0.5 8t-5.5 3q14 18 17.5 31.5t7 24t11 20t30.5 18.5q7 4 21 9
t17 7h6q11 0 19.5 -5t19.5 -5q5 0 9 1t2 9q0 -2 2 -4t4 -2q3 0 14 -0.5t14 -0.5v-18q11 0 22.5 -2t19.5 -15q5 -11 8.5 -25.5t6 -30.5t4.5 -31t5 -27q4 -20 8 -49l8.5 -60l9 -60.5t9.5 -49.5q17 -66 26 -133.5t17 -133.5q5 -41 17 -84t24 -81q1 -5 2.5 -15.5l3 -21t3.5 -19
t5 -9.5q-2 -2 -9 -6t-9 -4q-8 -3 -14.5 -2.5t-8.5 -7.5q-2 -2 -5 -10t-5 -8q-6 -4 -11 -4.5t-10 -0.5t-9 -2.5t-7 -11.5q-5 3 -6 8.5t-6 5.5q-6 0 -6 -5t-8 -5q-16 0 -26 11.5t-24 17.5q-3 1 -10 -6q-4 -4 -7 -8q-1 -1 -2 -1h-3l-2 1q0 2 -4 9t-6 9q0 2 -5.5 5t-7.5 5
q-3 5 -7 21t-8.5 37t-8.5 44.5t-7 44.5l-5 35.5t-2 18.5l-26 156q2 15 -1.5 29t-8 27.5l-9 27t-4.5 27.5h-7l-6 -16l-4 -13.5t-4 -11.5q-3 -11 -3 -21t-7 -15q-2 -2 -4.5 -6t-5.5 -8q-4 -4 -7 -10q-2 -2 -1 -3t1 -3h6q0 -11 -8.5 -16.5t-12.5 -16.5q-3 -8 -3.5 -18.5
t-4.5 -18.5q-55 -81 -137 -121l-7 -7q10 -5 20 -6.5t20 -1.5v-7q-25 0 -47.5 7t-45.5 8q-47 3 -83 15t-66.5 32t-58 49t-56.5 66q-15 17 -29.5 37.5t-31.5 35.5q0 -2 -1 -6.5t-1 -6.5q0 -43 4.5 -86t10 -86.5t10 -87t4.5 -87.5v-1l-4.5 -23.5t-4.5 -27.5q-3 -16 -5 -33h-13
v9q-2 0 -3 -2t-2 -3q-5 -9 -10.5 -13.5l-10.5 -8.5l-10.5 -8t-10.5 -11q-2 0 -7 0.5t-10.5 1.5t-10 1.5t-5.5 0.5q-2 0 -6 -2l-4 -2q-14 0 -21.5 4.5t-15.5 12.5zM267 14q-5 0 -5 -5t5 -5q3 0 3 5t-3 5zM1034 74q-5 0 -5 -4.5t5 -4.5q2 0 2 4.5t-2 4.5zM859 465
q-2 -2 -5.5 -5t-3.5 -5v-3v-1q3 1 5 5t4 9zM847 570q0 -12 -4 -23.5t-9.5 -23t-9.5 -23t-4 -24.5v-17q1 4 4 11.5t7.5 15t10 13t12.5 7.5q0 1 -2 2.5t-2 2.5v3v1q1 2 6.5 8t7.5 6v5v1l-5 4q0 2 2.5 3t2.5 3q1 -1 2 -1q2 0 3 1q10 11 20.5 33.5t10.5 38.5v18.5t-1 28
t-3.5 25.5t-7.5 11q-1 0 -4 -0.5t-5 -0.5l-28 -99v19q-6 -2 -7.5 -5.5t-2 -8t-1 -8.5t-4.5 -6q4 -1 4 -9q0 -9 -7 -10t-7 -10v-3q8 1 12 6t9 5zM882 482q-4 0 -4 -3.5t4 -3.5q3 0 3 3.5t-3 3.5zM872 497q-3 -3 -3 -5h2h1l2 2l3 3h-2h-3zM886 511q-1 0 -1 -2.5t1 -2.5
q3 1 3 2.5t-3 2.5zM882 525q-4 0 -4 -5t4 -5q3 0 3 5t-3 5zM816 535v-1v-5q4 3 4 6l2 2l-2 2zM896 545q0 1 -3 1t-1 -1q0 -3 2 -3t2 3zM906 572q-2 2 -4.5 -0.5t-1.5 -2.5q3 -2 4.5 -0.5t1.5 3.5zM765 619q-4 0 -4 -5t4 -5t4 5t-4 5zM861 692v7h-5zM866 712q-4 0 -4 -5t4 -5
t4 5t-4 5zM888 722q-4 -2 -4 -10v-6zM894 722q-5 0 -5 -5t5 -5q3 0 3 5t-3 5zM874 726q0 3 -2.5 3t-0.5 -3q0 -2 1.5 -2t1.5 2zM822 740q-3 0 -3 -5t3 -5q5 0 5 5t-5 5zM874 750q-2 0 -2 -5t2 -5q4 0 4 5t-4 5zM56 742q-4 0 -4 -5t4 -5q3 0 3 5t-3 5zM842 862q-3 0 -3 -5
t3 -5q5 0 5 5t-5 5zM838 866q-5 0 -5 -5t5 -5q3 0 3 5t-3 5z" />
    <glyph glyph-name="one" unicode="1" horiz-adv-x="355" 
d="M191 24q0 -2 -4 -8q-2 -3 -3 -6l-2 -2q-1 -1 -2 -1q-5 0 -10 4.5t-9.5 11t-7.5 13t-3 10.5h-1h-4q0 -1 -2.5 -4t-2.5 -5l-28 22t-15 26t-6.5 53.5t-3 104t-4.5 178t-10 275.5q0 2 -1 7.5t-3 6.5q0 2 -2 6q-1 2 -1 4v16t-0.5 4t-2 3.5t-4.5 14.5q0 1 2.5 5.5t4.5 4.5v25
q0 20 -3.5 39t-3.5 38q0 28 7 46t20.5 27.5t34 13t46.5 3.5q13 0 31 -6t35.5 -15t32 -19.5t22.5 -19.5h4q3 0 7 -6.5t8 -15t7 -16t3 -10.5q0 -4 -2.5 -6t-2.5 -5v-4l4 -3v-52q5 -2 5.5 -5t0.5 -6q0 -5 -0.5 -8.5t-5.5 -3.5v-50q0 -27 0.5 -49.5l1 -43.5l1 -43t0.5 -49v-9
q0 -3 -2 -16.5t-2 -16.5t0.5 -14t1.5 -24.5t1.5 -25.5t0.5 -16v-27t-0.5 -40.5l-1 -41t-1.5 -26.5v-13q0 -9 -1 -30.5t-2 -45.5t-2.5 -45t-1.5 -29v-7q-10 -13 -15.5 -31t-16.5 -29q-8 -6 -17.5 -10.5t-15.5 -12.5q-2 -2 -3 -5t-2 -5l-5 -4q-11 8 -17.5 16t-22.5 8h-3z
M102 950q-4 0 -4 -4.5t4 -4.5q3 0 3 4.5t-3 4.5z" />
    <glyph glyph-name="two" unicode="2" horiz-adv-x="652" 
d="M56 109q0 19 8 37.5t19 35.5t23 33.5t21 31.5l53.5 96.5t49.5 97.5q12 28 28 69.5t31 86.5t25.5 89.5t10.5 78.5q0 7 -7 7q-32 0 -56.5 -14.5t-46.5 -33.5l-43 -36t-44 -22q-1 0 -6 2t-7 2q-2 1 -12 0.5t-11 -0.5q-2 1 -5 7.5t-5 7.5q-6 5 -11.5 6.5t-10.5 2.5l-10 2
t-11 6q-2 29 -9.5 53.5t-7.5 53.5q0 6 1 9.5t7 11.5q25 27 55 51t63 42t69.5 28.5t75.5 10.5q30 0 61 -9t59.5 -25.5t51.5 -38.5t38 -49q10 -18 14 -39t16 -36v-29q0 -40 -8.5 -89.5t-22.5 -99t-32.5 -96t-38.5 -80.5q-7 -13 -17 -29.5l-20.5 -34t-20 -35t-16.5 -33.5
q-1 0 -1 -3q0 -1 1 -2q21 0 40 3t38 3q34 0 64.5 -2.5t54.5 -12.5t41 -30t24 -55q2 -8 6 -17t4 -19v-7q-2 -2 -10.5 -11.5t-13.5 -11.5q-2 -1 -7 -1h-11t-11.5 0.5t-6.5 0.5q-2 0 -8 -2l-6 -2h-6q-17 0 -39 7t-35 7q-11 1 -36 -4.5t-51.5 -12.5t-49 -14.5t-28.5 -11.5
q-1 0 -2.5 -3.5t-2.5 -3.5q-10 -5 -23.5 -7t-24.5 -3q-13 -3 -27 -13.5t-28 -10.5q-8 0 -11.5 6t-13.5 8q-23 6 -36 7t-22 4.5t-16.5 13t-18.5 31.5q-2 4 -6.5 6.5t-9 6t-8.5 9.5t-4 17z" />
    <glyph glyph-name="K" unicode="K" horiz-adv-x="844" 
d="M200 -113q-8 0 -11.5 -6t-13.5 -6q0 4 -2 7t-5 8l-10 -7q-1 1 -1 2l-2 2l-6 -2q-6 -2 -8 -2q-1 -2 -4.5 -4t-5.5 -2q-4 0 -8 4t-1 9l-27 29q1 12 -2 26t-5 25q0 8 -2 38t-4 64t-4 64t-3 38q0 3 -0.5 8.5t-1.5 10.5l-2 12h-11q0 19 3.5 36t3.5 36q0 74 -4 146t-9.5 144
t-9.5 144.5t-4 146.5q0 33 10 55t28 35t42 18.5t53 5.5q14 0 35 -8.5t28 -18.5q15 -21 21.5 -56.5t8.5 -75.5t2 -79.5t3 -67.5q2 -17 0 -44l-4 -55.5t-1.5 -55t6.5 -42.5h3q4 0 10 10.5t13.5 26l15.5 33l14.5 32t11.5 23t7 6.5l98 146q4 9 10 19t13 20.5t12.5 21t8.5 19.5
q2 8 4 19.5t5 23t8.5 22t14.5 15.5l4 -10q1 1 11 7l22 13t22.5 12.5t13.5 5.5q8 0 17 -2.5t14 -11.5l7 20q8 -3 6 -6t-2 -7l6 -3q2 2 4.5 7.5t2.5 8.5q1 -2 4 -5t3 -5q0 -1 -4 -8t-8.5 -16t-8 -18t-3.5 -14v-4q5 2 8 7t5 10.5t4.5 10.5t6.5 8v-1v-4q0 -2 -1 -7t-3 -7
q7 6 15 19.5t20 13.5h3q1 -1 2.5 -8.5t2.5 -10.5q1 -5 3 -8t4.5 -5t4.5 -5t2 -8q0 -12 -4.5 -23.5t-10 -22t-10 -21t-4.5 -21.5q0 -2 0.5 -6.5t4.5 -6.5q-15 -5 -26 -22.5t-19 -39.5t-13 -44l-8 -36q0 -1 -6 -8.5t-13.5 -16l-14.5 -16.5t-8 -9q-1 -2 -4 -10t-4 -10
q-5 -5 -11.5 -16t-13 -24.5t-11.5 -27.5t-7 -25h2h2q2 1 8 4.5t8 4.5v-1q0 -3 -9.5 -17l-24 -34l-31.5 -42.5l-31.5 -42t-25.5 -33t-12 -14.5q4 -5 14.5 -8t15.5 -4q5 -2 18.5 -6l28.5 -8.5t28.5 -9t18.5 -6.5q8 2 11 0t13 -4q45 -12 83 -24t80 -36q3 0 8.5 -2l12 -4.5
l12.5 -5t10 -2.5v-5v-1q-1 0 -3 -2l-2 -2q0 -2 2 -6t3 -4l41 -34q3 -2 4.5 -8t1.5 -9h-3q0 -8 1.5 -14t1.5 -14l-8 -6.5l-18 -15l-19.5 -16t-11.5 -10.5q-2 -4 -5 -4q-2 0 -9 2t-9 2h-8h-5q-2 0 -6 -2l-4 -2q-2 0 -3.5 2t-3.5 2h-3q-5 0 -7.5 -1t-2.5 -8q-2 6 -10.5 9t-19 5
t-21 3.5t-16.5 4.5q-70 39 -142 59l-153 41q-2 0 -10.5 2t-11.5 2h-13q0 -45 6.5 -87t6.5 -87v-27q-4 -13 -7.5 -17t-8 -5t-9 -1t-9.5 -6q-8 -8 -12 -15.5t-9 -13t-12.5 -9t-22.5 -3.5h-4q-2 0 -5.5 6t-4.5 8h-2zM198 -100q-5 0 -5 -5t5 -5q3 0 3 5t-3 5zM400 299q1 1 4 4.5
t4 4.5v5v1zM418 324h4l28 38v3zM408 332q-4 0 -4 -4t4 -4q3 0 3 4t-3 4zM460 375q2 0 3 2t3 2v4v1zM475 398q-4 0 -4 -5t4 -5t4 5t-4 5zM498 425q-8 -1 -13 -6.5t-5 -11.5v-5l22 23h-1h-3zM522 464q-5 0 -5 -4.5t5 -4.5q3 0 3 4.5t-3 4.5zM601 625l4 4h-4v-4zM615 642
q0 3 -3 3t-3 -3q4 -2 6 0zM492 840q-2 0 -2 -5t2 -5q4 0 4 5t-4 5zM502 864q-4 0 -4 -5t4 -5t4 5t-4 5zM605 870q-3 0 -3 -5t3 -5t3 5t-3 5zM511 882q-3 0 -3 -4t3 -4t3 4t-3 4zM632 916q-2 0 -2 -5t2 -5q5 0 5 5t-5 5z" />
    <glyph glyph-name="R" unicode="R" horiz-adv-x="760" 
d="M130 -86q-1 0 -4.5 -3.5t-5.5 -3.5q-22 0 -30 12.5t-16 26.5h-4q-2 0 -4 2l-2 2l2 385q-8 57 -12.5 117.5t-11.5 116.5q-6 50 -9.5 98.5t-8.5 98.5q-2 26 -5 48.5t-3 48.5v40l14.5 32t25.5 23q13 6 22.5 9t18 4.5t18 2t21.5 0.5q5 0 4.5 -1.5t1.5 -1.5q11 -8 25 -14
t28 -6q9 0 20.5 2.5t23.5 5.5t23.5 6.5t19.5 5.5q20 3 42 3.5t41 0.5q26 0 49.5 -6t47.5 -14q37 -9 69 -25t56 -45q3 0 5 -4l2 -4q5 -23 14 -52.5t9 -58.5q0 -11 -1.5 -17.5t-3.5 -12t-4 -12.5t-4 -17q-11 -46 -34.5 -84t-55.5 -76q-1 -1 -5 -4.5t-8.5 -8t-9 -8.5t-5.5 -6
q-2 -2 -8.5 -7.5l-13.5 -11.5t-13 -12l-7 -7q-7 -5 -15.5 -9.5t-8.5 -14.5q6 -19 25 -48.5t46 -62t60.5 -65.5t68 -59.5t69 -43t63.5 -15.5q3 -6 7.5 -8t9 -4.5t7.5 -6t3 -12.5v-2q0 -2 -2 -6l-2 -4q-1 0 -1 -1q-1 -1 -1 -3h2q0 -1 4 -2.5t4 -2.5q2 -2 6 -7.5t4 -6.5
q-2 -5 -8.5 -7t-9.5 -3q8 -3 9 -8t1 -12q0 -8 -7.5 -13t-17.5 -7.5t-20.5 -3.5t-16.5 -1v-10h19l-5 -6h-32q-2 -4 -5.5 -4.5t-6.5 -0.5q-53 4 -101 27.5t-91 57.5t-80 73.5t-68 76l-55.5 65t-41.5 39.5l-2 -414q0 -10 -3.5 -12.5t-8 -3.5l-9 -2t-5.5 -8v12q-2 -6 -4 -7
t-4.5 -2t-5.5 -4.5t-7 -15.5q-2 -5 -5.5 -4t-6.5 1q-6 0 -9.5 0.5t-7.5 2.5q-10 -5 -22 -10t-26 -7q7 5 5 16t-5 11zM140 -99q-2 0 -2 -5t2 -5q3 0 3 5t-3 5zM84 -54q-5 0 -5 -5t5 -5q2 0 2 5t-2 5zM222 736q0 -45 7 -92t13 -92h2h2q11 3 21.5 13.5l14.5 14.5l44 43.5t40 48
t29 54.5t11 61q0 35 -20 45.5t-50 10.5q-13 0 -21 -1t-14 -3t-12 -7l-15 -12q-13 -10 -22.5 -18t-16 -16.5t-10 -20t-3.5 -29.5zM584 871q-3 0 -3 -5t3 -5q2 0 2 5t-2 5z" />
    <glyph glyph-name="four" unicode="4" horiz-adv-x="690" 
d="M596 24q-4 0 -4 -4.5t2 -5.5q-11 -7 -12 -10h-33q0 2 -2.5 3t-4.5 3h-3q0 -2 -4 -6t-6 -4l-6 2q-6 2 -8 2h-4q-1 0 -5 -2l-4 -2h-6q-2 1 -6 6t-9.5 10t-10 10t-5.5 8q-2 1 -4 6t-2 6v85q-1 35 -1.5 58t-1 40t-2 31.5t-4 31.5t-7 39.5l-11.5 56.5h-5q-8 0 -21.5 -4.5
t-15.5 -15.5q-29 -11 -64 -18t-64 -7v6q-5 -5 -16 -5.5t-16 1.5l6 -5h-16v7q-29 0 -55.5 -0.5t-52.5 17.5q-34 22 -52 45t-28 63v66q0 63 9.5 124t14.5 125q3 30 5 59.5t11 54t29 42.5t59 27h36q22 0 37.5 -2t26.5 -9t18 -20.5t12 -35.5q1 -2 2 -7t2 -11t1.5 -11.5t0.5 -6.5
q0 -2 2 -8l2 -6v-4q0 -31 -8.5 -63t-15.5 -61q-7 -39 -13 -82t-6 -85q0 -3 1 -17t1 -18q5 -15 20.5 -19.5t30.5 -4.5q4 0 21.5 2.5t36.5 7t34 10.5t15 14q0 37 -3 75.5t-14 74.5v4q-1 4 -3 21.5t-3.5 37.5t-2.5 37.5t-1 21.5l2 75q1 8 3.5 21l5.5 27.5t7.5 28t10.5 23.5h7
q8 3 14 9l12 12.5t14 11t20 4.5q6 0 9 -3t5.5 -6.5t5 -6.5t7.5 -3q11 0 14 9t10 13q1 -1 2.5 -8t2.5 -9q0 -1 2 -3l2 -2q0 -2 -1 -7.5t-3 -6.5q2 1 9 5.5t8 4.5q2 0 6 -2.5t4 -3.5q3 0 10.5 -2t9.5 -2q0 -3 2 -14t2 -13v-10q0 -4 -2 -17t-5 -28t-5 -28t-2 -17
q0 -3 0.5 -12.5t1.5 -20.5t1.5 -21t0.5 -13q1 -3 1.5 -0.5t0 6t-1.5 5.5t-2 -1q6 -6 8 -15.5t2 -17.5l15.5 -125t13.5 -123q2 -28 8 -62t6 -63q0 -8 -1.5 -11.5t-2.5 -8.5q-2 -4 0 -7v-3h4v-31q-2 -3 -2 -5.5v-3.5q0 -41 8 -87q-2 -2 -1.5 -4.5t3.5 -4.5q2 -13 4.5 -26
t5.5 -25l10 4v-17q0 -14 -1.5 -23.5t-1.5 -23.5h3q0 -10 -2.5 -16t-6.5 -10.5t-7.5 -9t-6.5 -11.5q-2 -3 -3.5 -14.5t-3.5 -14.5q-2 -8 -12.5 -14t-21.5 -11q1 2 0.5 5t-2.5 3zM639 341h3v11q1 -8 3 -25.5l4 -36.5q3 -22 5 -48h-10v10h6q0 13 -0.5 27.5t-5.5 28.5l-7 4
q0 2 3.5 5t3.5 5v3l-10 -3v11q2 8 5 8zM644 274q2 0 2 -5t-2 -5q-5 0 -5 5t5 5zM622 84q-2 0 -2 -5t2 -5q5 0 5 5t-5 5zM632 375q5 0 5 -5t-5 -5q-2 0 -2 2v7q1 0 1 0.5t1 0.5zM644 238q2 0 2 -5t-2 -5h-2q-1 2 -1 4.5t-1 4.5q1 0 1.5 0.5t2.5 0.5zM637 302q4 0 4 -4t-4 -4
q-1 -2 -1 4t1 4zM652 167q-2 2 -2 -1.5t2 -1.5q2 0 2 1.5t-2 1.5zM598 16q0 -2 -2 -2h-2q2 0 4 2z" />
    <glyph glyph-name="zero" unicode="0" 
d="M46 215q0 11 -5.5 28t-6.5 28v6q-1 4 -2 13t-2 19.5t-1.5 19.5t-1.5 12q2 2 3.5 5.5t3.5 4.5v3v1q-7 76 -8.5 148t10 140.5t38.5 133t77 124.5q10 7 24.5 13.5t31 11.5t32.5 8t29 3q3 0 12.5 -2t19 -6t17.5 -8.5t8 -8.5v-2q-2 -1 -3 -2.5t-2 -2.5q10 0 16.5 -6t11 -13.5
t7.5 -14t7 -7.5q2 -2 10 -1t10 1q3 -2 10 -3.5t14 -3.5t13 -3.5t9 -2.5q94 -23 149 -74.5t82 -125t32 -165.5t-1 -195h-9q0 -2 -0.5 -3t-0.5 -3q1 0 2.5 -4t2.5 -4q-2 -14 -5 -31t-8 -33.5t-12.5 -31.5t-17.5 -27q0 2 -4 5t-6 5l-1 -1q-1 -1 -2 -1q0 -5 3 -6.5t3 -6.5l-3 -4
l-23 -10q8 -7 -2 -11q-4 -2 -11 -3l-4 -6q-4 -6 -6 -8q-6 -10 -16 -17t-21.5 -13t-22.5 -13.5t-20 -17.5h4h1q2 0 7.5 4.5t6.5 5.5h4h6q-7 -8 -18 -15.5t-23.5 -13.5t-25 -9.5t-21.5 -3.5h-2q-1 0 -4.5 1.5t-5.5 1.5l-4 -7l-4 4q-1 0 -5 -2q-2 -1 -5 -2h-8q-2 -2 -4 -6
q-1 -2 -1 -4q-2 0 -8 2t-7 2h-8q-3 0 -7.5 -0.5t-2.5 -9.5q-47 4 -86 8t-74.5 14.5t-67.5 31t-63 56.5q-1 0 -7.5 14.5t-13.5 33.5t-12.5 36.5t-5.5 22.5zM229 322q0 -18 2.5 -48.5t11.5 -60.5t26 -51.5t46 -21.5q30 0 61.5 18.5t57 46.5t42 61.5t16.5 63.5v25q2 -2 4 16.5
t3 49t0 67.5t-5.5 71.5t-13.5 62t-24 38.5q-10 21 -27 34t-38.5 22t-45.5 16.5t-48 17.5q-43 -38 -59.5 -91t-19.5 -111.5t3 -117t8 -108.5zM619 150q-3 0 -3 -5t3 -5q5 0 5 5t-5 5zM576 167q-3 0 -3 -4t3 -4q5 0 5 4t-5 4zM605 211q-3 0 -3 -3t3 -1q4 0 0 4zM606 690
q-3 0 -3 -5t3 -5t3 5t-3 5zM560 740q0 4 -3.5 4t-3.5 -4q3 -1 7 0zM540 770q-3 0 -3 -5t3 -5q5 0 5 5t-5 5zM498 787q4 -5 6.5 -7.5t7.5 -2.5h4q-1 2 -6 6t-7 4h-2h-3zM446 811q-3 0 -3 -5t3 -5q5 0 5 5t-5 5zM432 816q0 2 -2.5 2t-1.5 -2q0 -3 1.5 -3t2.5 3zM146 887
q-4 0 -4 -5t4 -5t4 5t-4 5z" />
    <glyph glyph-name="nine" unicode="9" horiz-adv-x="702" 
d="M449 41q2 6 -1 13t-3 12q0 32 5 65.5t5 65.5q0 3 -2 11.5t-4 12.5l1 224l-4 15q-29 -13 -66.5 -18.5t-69.5 -1.5q8 -8 19 -9.5t19 -1.5v-4q-14 0 -25 1.5t-21.5 4.5t-20.5 6.5t-23 7.5q-1 1 -4.5 0.5t-5.5 -0.5q-43 6 -77 21.5t-63 49.5q-2 2 -6 6.5t-8 8.5l-9 9l-10 -6
q1 9 -4 18.5t-12.5 18.5l-15 17.5t-11.5 16.5q-11 19 -12.5 48t-1.5 50q0 34 10 57.5t26.5 43t37 37.5t40.5 42l72 32.5t70.5 27t72.5 18.5t78 7q3 0 9 -0.5t13.5 -0.5t13.5 -0.5t9 -0.5q13 -9 29.5 -9.5t30.5 -7.5q12 -6 20.5 -14t16.5 -17l16 -18t18 -17q15 3 25 -4
t17.5 -18t13 -24t10.5 -22v-187v-188q0 -7 -0.5 -31t-1.5 -56.5t-2.5 -69t-2.5 -69t-2 -56.5t-2 -31q0 -32 -2.5 -56.5t-11.5 -53.5q-8 6 -10.5 5t-10.5 -1q0 -3 3 -9t-5 -8q-3 2 -12 7.5t-7 12.5q-5 -4 -6.5 -7.5t-3 -6.5t-5.5 -6t-13 -4q-2 0 -5 2t-5 2l-4 -2q-4 -2 -6 -2
h-3h-7q-13 5 -32.5 7t-30.5 10l-10 10q-2 2 -10 7t-10 7zM235 683q0 -16 7 -34t19 -33t28 -25t34 -10q12 0 20.5 4t16 10t14.5 12.5t16 11.5q17 9 28 11.5t17 7.5t8.5 17t2.5 41q0 24 -2.5 37.5t-10 22t-20 14.5t-33.5 14h-4q-13 0 -36.5 -11t-47 -26.5t-40.5 -33t-17 -30.5
zM25 731q-5 0 -5 -5t5 -5q2 0 2 5t-2 5z" />
    <glyph glyph-name="O" unicode="O" 
d="M666 384l2.5 -4t5.5 -10t5 -14t-1 -16v-1l-2.5 -5.5t-5 -12.5t-5 -13t-3.5 -9q-1 -1 -3 -1v-5l-6 -10.5l-6 -11.5v-15q2 4 4 7.5t5 7.5v-1l-2 -7l1 2q-2 -4 -2 -7q-2 -5 -3.5 -9.5t-2.5 -9.5l11 -6h-4q-1 -16 -22 -50t-52.5 -70t-67.5 -64.5t-67 -33.5h20l-6 -5l-25 -2
l-21.5 -2t-17.5 -2h-6l-6 -2q-6 -2 -8 -2h-4q-2 0 -8 2l-6 2q-2 0 -8 -2t-8 -2h-4q-8 0 -29 5.5t-45 14t-44.5 17t-27.5 14.5q-4 3 -13.5 13l-21 21.5l-21.5 21.5l-14 14q-5 18 -19 34t-22 32q-22 45 -37.5 92.5t-15.5 99.5q0 45 5 100t16.5 112t30 113t46.5 103t66 81.5
t88 49.5q29 8 61.5 9t62.5 1h50q2 0 8 -0.5l12.5 -1t13 -1.5t9.5 -1q1 0 5.5 -1.5t10.5 -3t12 -3.5t9 -2q8 -2 23.5 -7t19.5 -13h-20q71 -60 104 -144t33 -176l10 -54q-2 -2 -8 -4.5t-6 -5.5l-3 -140q-5 -3 -3 -8.5t5 -10.5t5 -10t-2 -7h10q-2 -8 -9.5 -10.5t-11.5 -7.5
q2 7 3 11.5t-1 2.5zM521 277q1 1 2.5 3t4.5 5q1 23 4.5 39t9.5 16l2 -1v2q-1 8 -1 15t2 9q0 5 1 11t6 9l-3 4q4 1 6 23t3 49t1 50.5v27.5q0 3 -1.5 10t-1.5 10q-5 -11 -7.5 -14.5t-12.5 -3.5q0 1 0.5 9.5t0 18t-2 17.5t-5.5 10q3 2 6.5 6t3.5 7q0 2 -0.5 7.5t-2 11t-3.5 10
t-4 5.5v42q-11 5 -13.5 21t-6.5 27q-2 6 -8.5 14l-13 15.5l-12 13.5t-5.5 8h3v8q-1 -2 -4.5 -2.5t-5.5 -0.5l-4 4h-10q-15 0 -21.5 -12t-10.5 -26.5t-9 -27.5t-18 -16q-3 0 -9.5 2.5t-14 6t-13 7t-5.5 4.5l-25 -21h-17q0 -7 -5 -8.5t-9 -0.5q-15 -23 -25.5 -61.5
t-16.5 -80.5t-8.5 -82.5t-2.5 -67.5q0 -11 4.5 -35t13 -53.5t20.5 -60.5t26 -56.5t29.5 -42t32.5 -16.5q19 0 33 10.5t26 25.5t22.5 31t22.5 27l10 -9q7 16 12.5 24.5t14.5 26.5q2 4 4 11.5t4.5 15t5 13.5t5.5 6v-3q0 -11 -2 -21t-2 -19v-7zM663 241q2 11 0 21t2 23
q3 5 7 13t7.5 16t6 13t2.5 4q0 -9 -3 -19.5l-6 -22l-6 -23t-3 -21.5q-1 0 -3 -1.5t-4 -2.5zM672 216q-8 -5 -9.5 2t0.5 21q6 -2 4.5 -5.5t-1.5 -7.5q5 0 6.5 1t3.5 -6q0 -3 -4 -5zM665 285q-1 -3 -5 -9q-4 -8 -5 -11q0 2 0.5 2.5t0.5 2.5l1 2l-1 -1q3 10 3 22l3 6q1 1 3 6
l4.5 11t5 11l3.5 7q-1 -3 -2.5 -10t-3.5 -14.5l-4 -14.5t-3 -10zM559 301h-4q0 -3 1.5 -10t3.5 -14t2.5 -11.5t-0.5 -1.5l-6 11q2 4 4 7q0 10 2.5 18.5t6.5 15.5h-5q-1 -5 -5 -15zM562 385q2 -3 3.5 -10t3.5 -10v24h-7v-4zM659 531l3 -15q0 1 2 5q1 1 2 3q0 2 -2 6t-4 4z
M679 690q-4 0 -4 -5t4 -5t4 5t-4 5zM684 653q-4 0 -4 -5t4 -5t4 5t-4 5zM681 404q-4 0 -4 -5t4 -5t4 5t-4 5zM676 394q-3 0 -3 -5t3 -5q4 0 4 5t-4 5zM595 629q-4 0 -4 -5t4 -5q3 0 3 5t-3 5zM680 548q-4 0 -4 -4t4 -4q3 0 3 4t-3 4zM590 576q-4 0 -4 -3.5t4 -3.5t4 3.5
t-4 3.5zM576 515q-2 1 -2 -15t1 -35.5t2.5 -36t3.5 -16.5h1q1 1 0.5 17t-2 35t-2.5 35t-2 16zM543 596q-3 0 -3 -5t3 -5q2 0 2 5t-2 5zM650 615q2 2 -3.5 2t-3.5 -2q0 -3 3.5 -3t3.5 3zM347 10q0 1 -5.5 1t-4.5 -1q2 -3 5.5 -3t4.5 3zM599 553q-3 0 -3 -3.5t2 -4.5l3 6
q0 2 -2 2zM417 14h14v3zM585 520q-2 0 -1.5 -18.5t1.5 -41t2.5 -41.5t3.5 -19q1 1 0.5 20t-1.5 41t-2.5 40.5t-2.5 18.5zM689 548q-3 2 -3 -2t3 -2q2 0 2 2t-2 2zM556 320q-2 0 -4 2q0 -4 1 -6q1 1 1.5 2t1.5 2zM576 368q-2 -6 -3 -8h3v8zM639 243q0 1 0.5 1.5t0.5 1.5h-1
v-3zM663 239l-1 1q1 0 1 1v-2zM647 249v-1l1 2z" />
    <glyph glyph-name="V" unicode="V" horiz-adv-x="662" 
d="M345 -3q-10 0 -24.5 3.5t-29 9.5t-27 13t-18.5 14q-19 20 -33 43.5t-26 48.5t-22.5 51l-20.5 50q-12 27 -27 76.5t-31 110t-30.5 127.5t-25 130t-16 116t-1.5 86q1 15 8 29.5t17.5 26.5t24.5 18.5t31 5.5q10 -1 29.5 -5t39.5 -11t36.5 -15.5t21.5 -18.5q7 -14 10.5 -33.5
t5 -41.5l3 -44t4.5 -41q4 -19 9.5 -52.5l12 -74.5l14 -85.5l15 -85t14.5 -73.5t14 -52q10 -6 11 -18.5t9 -19.5q6 11 14 35t16.5 55t16.5 65.5t14 65.5t9.5 56t3.5 38q3 0 5.5 5.5t4.5 12t3 12.5t1 7l7 35.5t10 54t10 54t7 36.5v6q1 0 3 1.5t3 1.5l3 -4l1 4q0 7 -3 10l5 52
q1 3 3.5 6.5t7.5 3.5l-1 -10q10 2 13.5 11t6.5 20.5t9 23.5t21 20q2 -2 4 -7.5t1 -7.5q0 -1 -2.5 -2.5t-4.5 -0.5q2 -3 6.5 -7t6.5 -5q0 1 1 1t2 1t3 2q-4 2 -4.5 4.5t-0.5 5.5q1 8 3.5 17.5t10.5 12.5q0 -2 1.5 -3.5t2.5 -3.5v-3l-1 -1q-1 -1 -3 -7q-1 -3 -3 -6q0 -8 7 -19
t12 -16l-10 -8l8 -11q2 1 4 2.5t3 1.5h2q4 0 5 -2.5t6 -3.5q2 0 5 0.5t6 4.5q-11 3 -16 10q0 2 1 9.5t1 8.5t0.5 6.5t2 11.5t3.5 10.5t6 4.5h1q2 0 3.5 -2t3.5 -4q2 5 7 5.5t7 0.5q-2 -11 -7 -14.5t-7 -20.5q0 -1 1 -8.5t1 -9.5h4h2q5 2 5 9q1 0 2 -2.5t3 -2.5h2h2
q1 0 5 3.5t6 5.5l4 -5q1 -3 -0.5 -14t-1.5 -15q-4 -31 -12 -59t-11 -57q0 -4 -1 -7l0.5 -4.5t0.5 -10t0.5 -11t0.5 -6.5q0 -2 -1.5 -8t-3 -13t-3 -13t-1.5 -7q-1 -2 -1 -5q-1 -2 -1 -4.5v-3.5t-0.5 -5t-0.5 -6l10 10q0 -3 -1 -14.5t-1 -14.5q-2 -16 -9 -30.5t-9 -30.5v-10
l2 -4q2 -4 2 -6l-5 -4v-1q-1 -5 -6 -33l-10.5 -61l-10.5 -61t-5 -32q0 -2 -0.5 -4.5t-0.5 -4.5v-5l-45 -186q-6 -12 -15.5 -40.5t-22 -58.5t-28 -53t-34.5 -24q-2 0 -14 1t-13 1q-10 -2 -25.5 -6.5t-20.5 -4.5h-3zM360 6q-2 -1 -3 -2l-2 -2q2 -2 4 0t1 4zM525 761
q-2 0 -2.5 -5t1.5 -5q3 -1 3.5 4t-2.5 6zM474 768q-2 2 -2.5 -0.5t2.5 -2.5q2 -1 2 0.5t-2 2.5zM576 794q-3 0 -3.5 -5t2.5 -5q2 0 2.5 5t-1.5 5zM534 807q-3 1 -3.5 -4t2.5 -6q5 0 5.5 5t-4.5 5zM587 803q-5 1 -5.5 -4t4.5 -6q2 0 2.5 5t-1.5 5zM483 845q-3 0 -3.5 -2.5
t2.5 -1.5q2 -1 2.5 1t-1.5 3zM478 855q-3 0 -3.5 -5t2.5 -5q5 0 5.5 5t-4.5 5zM592 846q-5 1 -5.5 -4t4.5 -6q2 0 2.5 5t-1.5 5zM623 881q-2 1 -2.5 -2t1.5 -2q3 0 3.5 2t-2.5 2zM553 891q-3 0 -3.5 -4t2.5 -4q4 -1 4.5 3t-3.5 5zM615 906q-3 0 -3.5 -5t2.5 -5q5 0 5.5 5
t-4.5 5zM515 923q-5 0 -5.5 -4.5t4.5 -4.5q3 0 3.5 4.5t-2.5 4.5zM546 920q-3 1 -3.5 -3.5t2.5 -5.5q5 0 5.5 4.5t-4.5 4.5zM610 921q-3 1 -3.5 -4.5t2.5 -5.5q3 3 1 10zM516 933q-1 0 -2 -1t-1 -3l3 -1l2 2q2 2 2 3l1 2v1zM604 929q-2 0 -2.5 -4t1.5 -4q5 0 5.5 4t-4.5 4z
M531 939q-5 0 -5.5 -3.5t4.5 -3.5q2 0 2.5 3.5t-1.5 3.5z" />
    <glyph glyph-name="three" unicode="3" 
d="M149 34l-32 7q12 0 23 1q9 1 16.5 1.5t7.5 2.5v6q-11 0 -23.5 -2t-23.5 6q3 -1 9.5 1t9.5 3q0 2 -0.5 10t0.5 10q3 9 28.5 21.5t57 25l61.5 23.5t44 17q26 13 51 35t48 47.5t43.5 52l37.5 48.5q-3 11 4 27.5t7 30.5q0 18 -9 31t-23.5 21.5t-31.5 12t-32 3.5
q-17 0 -36.5 -11t-33.5 -22q-1 0 -6.5 -6.5t-7.5 -6.5q-8 -3 -24 -3t-28 -1q0 -2 -6 -4t-8 -2h-14q-9 0 -15 1t-12 2.5t-13.5 2t-19.5 0.5q-2 0 -3 2t-3 2v1v2q2 2 4 6l2 4q-1 8 -6.5 16t-11.5 15.5t-10.5 15t-4.5 16.5q0 11 7 19t16.5 14.5t20 11t17.5 9.5q22 15 46.5 36.5
t44 47t32.5 54t13 58.5q0 27 -19 40.5t-46 13.5q-33 0 -54 -12.5t-39.5 -27.5t-40 -27.5t-55.5 -12.5q-9 0 -22.5 1t-26 5t-22 12.5t-9.5 22.5q0 26 14.5 51t38.5 46t54 38.5t61 30t60 19.5t50 7q40 8 85 -7t81 -45.5t55.5 -72t8.5 -86.5q0 -38 -12.5 -71.5l-25.5 -67.5
q-1 0 -1 -1v-4q0 -4 13.5 -7.5l31 -8t34 -10t21.5 -12.5q1 -2 10 -9t10 -9q27 -36 42 -63t22 -50.5t7.5 -46.5t-3.5 -51q0 -58 -32.5 -105.5t-80.5 -85.5t-102.5 -66t-98.5 -47q-34 -15 -68 -26t-71 -11q-25 0 -42.5 6t-40.5 11v17zM512 805q-4 0 -4 -4.5t4 -4.5q3 0 3 4.5
t-3 4.5z" />
    <glyph glyph-name="colon" unicode=":" horiz-adv-x="324" 
d="M61 218q0 19 11.5 32t29 21.5t36.5 12.5t34 4q16 0 37.5 -4t41 -13t33 -23t13.5 -35q0 -18 -6 -37.5t-17.5 -35.5t-27.5 -26t-35 -10q-15 0 -37 2.5t-33 11.5q-5 4 -18 18l-27 30.5t-24.5 31.5t-10.5 20zM20 479q0 15 11 25t26 16t31 8.5t27 2.5q12 0 29.5 -2t33.5 -8
t27.5 -16t11.5 -26q0 -3 -0.5 -7.5t-5.5 -6.5q5 -2 5.5 -5t0.5 -6q0 -13 -3 -27.5t-9.5 -27t-17.5 -20.5t-27 -8q-4 0 -14.5 1t-22 2.5t-21.5 3.5t-12 3q-4 1 -15.5 14t-23.5 29.5t-21.5 32t-9.5 22.5z" />
    <glyph glyph-name="q" unicode="q" horiz-adv-x="764" 
d="M629 -391v16h-28t-25 11q0 2 0.5 8t-0.5 8q-3 6 -8.5 9t-5.5 15q-1 123 -2 210t-2 145.5t-2.5 92t-2.5 51.5t-2.5 23t-1.5 7t1 4t1 3q-5 0 -8.5 -2.5t-6.5 -6t-6.5 -6t-8.5 -2.5q-2 0 -3 1q-1 0 -3 1q1 6 4 12q2 5 4.5 9.5t5.5 6.5l6 -10q0 1 2 6.5t2 7.5v5h-5l1 5
q0 1 2 4t2 4h-4v20h-4q0 17 -6 32q-11 -8 -16.5 -14.5t-8.5 -13t-4.5 -14.5l-3.5 -18q0 -2 -1 -3l-2 -2q8 -5 8 -18v-5l-42 -44v-1v-2q0 -2 2 -3t2 -2q-2 8 4.5 9.5t11.5 1.5l7 -3q2 -2 3.5 -10.5t3.5 -11.5l3 -5q-2 -3 -11 -12t-9 -14h1q2 0 2 -3q6 1 9 3t4.5 5t3 7t5.5 9
l5 -4q2 5 9 5l4 -1q-6 -20 -23 -34l-3 6q-12 -22 -43 -37.5t-64 -26t-59 -17.5t-28 -12h-48l7 3q-8 -1 -18 0t-19.5 4t-16 9t-6.5 15q-3 0 -13.5 -2t-13.5 -2q-20 6 -38 20t-32.5 32.5t-25 39.5t-15.5 41l-10 3l5 4v2q0 1 0.5 1t0.5 1q0 8 -6.5 17.5t-8.5 18.5q-1 2 -2.5 9
t-3 15t-2.5 15.5t-2 10.5v4q0 84 27.5 158t90.5 129q7 6 14.5 15t17.5 9h7l-7 -4l3 -2q10 0 11 8.5t6 11.5q0 1 4 0.5t6 -0.5q11 5 23.5 14t23.5 15q17 8 40.5 14.5t48.5 11.5t49 8t43 3q15 0 31.5 -1t30.5 -9q-3 -1 -9.5 -2.5t-14 -4t-13 -5t-5.5 -4.5q0 -10 12 -20.5
t22 -10.5h3q2 2 7 7.5t7 5.5q14 7 35.5 7h34.5q19 0 41.5 -4.5t34.5 -19.5q5 -7 10 -17.5t9.5 -22t8 -22t5.5 -18.5l75 -903q-3 2 -7 5t-7 5q-3 -4 -9 -7.5t-11 -5.5v33q-4 -15 -15 -29.5t-26 -17.5q-8 -3 -12 -0.5t-11 -4.5v9h-33zM244 31h13l-13 6v-6zM230 41q-4 0 -4 -5
t4 -5q3 0 3 5t-3 5zM150 65q-4 0 -4 -5t4 -5q3 0 3 5t-3 5zM136 74q-4 0 -4 -4.5t4 -4.5q3 0 3 4.5t-3 4.5zM476 160q-6 0 -11.5 -4.5t-9.5 -11t-7.5 -13t-6.5 -10.5l9 4.5t9 5.5q10 6 13.5 17t6.5 11zM431 145q-1 3 -3.5 -1t-0.5 -4q2 -1 4 1t0 4zM229 306q0 -12 3.5 -37.5
t12 -51t22 -44.5t34.5 -19q13 0 35 21.5t45 47.5l43 47.5t31 21.5v23l10 -10q1 3 5.5 7.5t4.5 7.5v2q-2 2 -3 3.5t-3 1.5q2 2 5 5.5t5 4.5l3 -1v-17q15 0 18 8.5t11 13.5q-2 27 -8.5 53t-14 52t-13.5 52t-6 53q-8 0 -19.5 -2t-23.5 -5t-23 -7t-18 -8q-29 -12 -56.5 -36.5
t-50 -55t-36 -65t-13.5 -66.5zM489 271q-11 -5 -17 -16t-7 -21q8 6 16 14.5t8 18.5v4zM482 252q-2 0 -2 -4t2 -4q5 0 5 4t-5 4zM482 281q-2 0 -2 -5t2 -5q5 0 5 5t-5 5zM469 281q2 2 -2 2t-2 -2q0 -3 2 -3t2 3zM515 332q-11 -6 -17 -23t-6 -30q7 0 11.5 6t7 14t3.5 16t1 12
v5zM489 305q-2 0 -3.5 -2t-3.5 -4v-3v-1zM167 576q-2 0 -2 -5t2 -5q5 0 5 5t-5 5z" />
    <glyph glyph-name="quotedbl" unicode="&#x22;" horiz-adv-x="552" 
d="M377 641q-4 0 -10 -4t-12.5 -9.5t-14 -9.5t-15.5 -4q-2 0 -6 1.5t-5 1.5q-5 5 -6 8.5t-1 8.5q0 9 3.5 18t3.5 17v4q-2 2 -3 4q-5 5 -4 5v42q0 41 6.5 69.5t22.5 46.5t42.5 26t65.5 8q12 0 28 -2t29.5 -7.5t23 -16.5t9.5 -29q0 -14 -14.5 -43.5t-33.5 -59.5t-37.5 -52.5
t-26.5 -22.5h-1l-5 3q-3 -2 -10 -5t-9 -5l-3 -3h-4h-3q-2 2 -4 5q-5 5 -6 5zM290 828q0 -18 -8 -33t-19 -28l-23 -26t-20 -27q-2 -1 -6.5 -7.5t-9 -14.5t-9 -15t-5.5 -9q-3 -7 -9.5 -10.5t-14.5 -3.5q-6 0 -10 2l-8 4t-8.5 3t-13.5 0q-2 0 -8 -4.5t-8 -4.5h-11q-25 0 -36 12
t-14 30t-2.5 39.5t-0.5 40.5v3q0 27 11.5 48.5t30 36t42.5 22.5t50 8q16 0 35.5 -3t36 -10.5t27.5 -20t11 -32.5z" />
    <glyph glyph-name="u" unicode="u" horiz-adv-x="752" 
d="M504 96q-5 0 -17 -10l-25.5 -21t-26.5 -19.5t-20 -5.5l-60 -24l-4 -4h33q-10 -4 -21 -5t-22 -1t-22 -1.5t-20 -7.5h-38q-50 -11 -89 12.5t-66.5 71.5t-45.5 114.5t-27 142.5t-10.5 156.5t4.5 154.5q4 6 16 14.5t25.5 16.5t26 13.5t16.5 5.5q8 0 15.5 -6.5t11.5 -6.5
q2 0 8.5 3t8.5 3h7q31 0 48.5 -23t17.5 -57q0 -20 -6.5 -42t-6.5 -44q0 -18 -1.5 -47.5t-3.5 -64t-2.5 -71t1.5 -68.5t8 -57.5t17 -36.5q5 -5 11.5 -12.5t13.5 -14.5q8 -8 16 -17h10l4 3l9.5 7t10.5 8.5t8 7.5q13 9 21.5 21t16.5 26q3 5 10.5 13t9.5 10q3 0 6 1q6 2 8 3
q7 9 13.5 23t11.5 29.5t8 30.5t3 26v44.5t-1.5 66t-4.5 64t-8 40.5v99q0 5 9.5 12.5t21.5 14t24 11.5t18 5h6q1 -2 7.5 -4.5t7.5 -2.5q4 1 7 2q5 2 7 5h2q8 0 20.5 -2t24.5 -6t22 -10.5t15 -15.5q6 -11 9.5 -26.5t5 -32t2.5 -32t3 -25.5q5 -41 5 -93t1 -106t6 -104.5
t21 -89.5q6 -14 17 -23t24.5 -14.5t28 -8.5t28.5 -4q2 -2 2 -4v-4q0 -9 -7.5 -11.5t-12.5 -10.5q10 -8 21.5 -5t20.5 -2q-11 -2 -17 -5.5t-11 -14.5h-32l12.5 -6.5t15.5 -7.5l2 -2q0 -1 0.5 -1t0.5 -1t1 -1l-10 -4l6 -3q-2 -2 -5 -4.5t-5 -2.5q-3 -1 -11 -1.5t-17 -1
t-17 -0.5h-11v-3v-4l4 -3q0 -2 -3 -3t-5 -1q-10 0 -17 5t-16 5q-2 0 -3 -1.5t-2 -1.5q1 0 4.5 -3t3.5 -4v-4q0 -5 -7 -5.5t-11 -0.5q-21 11 -39.5 18.5t-33.5 16.5t-26.5 22.5t-19.5 36.5q0 1 -2 4.5t-2 4.5h-1zM486 96q-3 0 -3 -4.5t3 -4.5q4 0 4 4.5t-4 4.5zM449 143
q2 2 -2 2t-2 -2q0 -2 2 -2t2 2z" />
    <glyph glyph-name="numbersign" unicode="#" horiz-adv-x="1046" 
d="M445 218q-1 -8 -2 -19t-12 -11h-5q2 8 -3.5 17t-13.5 13l-6 -10q-8 0 -13.5 5t-10 12l-9 13.5t-9.5 10.5h-8.5t-12 0.5t-12.5 0.5h-8q-42 0 -82.5 -7.5t-83.5 -7.5h-43q-12 3 -16.5 7.5t-6 10t-2 12t-2.5 13.5q-3 5 -14 8.5t-15 8.5q-5 9 -6.5 13l-2.5 6.5l-2 5t-6 9.5
q10 7 14.5 14t9.5 13.5t13.5 11t25.5 7.5l174 34q10 1 15 4t5 13q0 8 -3 19t-11 16l-15.5 -4l-24 -6l-24.5 -6l-16 -4q-2 -1 -13 -2t-15 -1h-5q-23 0 -44 9t-37 24t-26 35t-10 43q0 17 14 30q17 11 38.5 14t41.5 8q25 8 51 18.5t52 15.5q-2 6 -2 16.5v22t-1.5 21.5t-5.5 14
v80q0 18 10 32t25 23.5t32 15t32 5.5q19 0 41 -3t43 -10.5t38.5 -19t28.5 -29.5h4q0 -6 5 -20t5 -19v-4q-3 0 -5 -4q-1 -2 -2 -3q2 -3 7.5 -9t7.5 -8l-8 -3q0 -2 1.5 -5t1.5 -5v-4q8 0 16 3t13 11l-3.5 24t-2 19t-0.5 18v21v25q8 8 6.5 17t-0.5 17q1 10 9 17t19 12t22.5 7.5
t19.5 2.5q26 0 46 -7t43 -20q13 -5 28 -17.5t18 -28.5q1 -8 2.5 -23.5l3 -31.5t5 -28.5t9.5 -13.5q4 -2 17.5 -3.5t28.5 -3.5t26.5 -5.5t11.5 -9.5v-2q0 -1 -2 -2.5t-2 -3.5q14 -2 26.5 -4.5t24.5 -9.5v-1v-3q-2 -1 -3 -2t-1 -2t-1 -1v-2v-2q2 -2 7.5 -3.5t6.5 -1.5l-4 -7
h14l-37 -1l-5 3l-10 -10q11 -5 27.5 -5t24.5 -8q-5 -3 -13 -6l-16 -6h15q-3 -2 -21 -8t-40 -12l-40 -11t-21 -5v-7q0 -18 2 -35.5t2 -34.5q32 0 64 5t64 5q4 0 14 -2q4 -1 8 -1l6 -4h42v-6q-4 0 -13.5 -2t-20 -4.5l-19.5 -4.5t-13 -3q-1 0 -4.5 -1.5t-5.5 -1.5q3 -2 14 -5.5
t14 -3.5h6q5 0 7 0.5t7 3.5v-10q3 -1 7 -2q8 -2 11 -2h24q-11 -7 -23 -11t-23 -9v-1q20 0 39.5 3.5t40.5 3.5q8 0 13 -0.5t14 -5.5q-17 -5 -35.5 -4.5t-35.5 -9.5h14q7 -1 18.5 -4.5t11.5 -5.5v-5h-20l4 -9q-3 -1 -13.5 -4t-14.5 -4q-2 0 -11 -2l-20.5 -4.5t-21.5 -5
t-13 -2.5q-25 -7 -49.5 -11.5t-48.5 -12.5q-11 -4 -16.5 -6.5t-8 -6.5t-3 -10.5t-0.5 -18.5q0 -23 7.5 -46.5t7.5 -46.5q0 -3 -1.5 -7t-6.5 -4h-2v1l-9 18h-3q-5 0 -8.5 -7t-11.5 -7h-1q-1 0 -5 5l-8.5 11l-8.5 11.5t-5 6.5q-1 0 -5 -2q-2 -1 -3 -1v-17l-35 33h-6
q0 -2 -0.5 -6t-5.5 -4q-7 0 -11 7.5t-8 17t-8.5 17t-11.5 7.5q-2 0 -2.5 -0.5t-1.5 -0.5h-2q-22 -7 -41 -12.5l-39 -11.5q-11 -3 -19 -4.5t-13.5 -5.5t-8 -12t-2.5 -22t3 -27t3 -26q0 -8 -0.5 -14t-9.5 -6h-3q-3 0 -6 3q-2 1 -4 3q-2 -2 -10 -6t-10 -4q-7 -2 -10.5 2.5
t-6.5 10.5t-5 12t-6 9zM510 508q0 -14 1 -23.5t5 -23.5q4 1 14 1.5t20.5 2.5t18 6t7.5 12q0 5 -0.5 14.5t-2 19.5t-6 17t-11.5 7q-16 0 -31 -8t-15 -25zM934 461q0 1 -2 1h-5h-5.5t-1.5 -1q2 -2 7 -2t7 2zM886 681q4 0 4 -4t-4 -4t-4 4t4 4z" />
    <glyph glyph-name="i" unicode="i" horiz-adv-x="331" 
d="M147 24q-2 0 -5 -2.5t-5 -4.5q-1 1 -5 5.5t-9 9.5t-9 10.5t-5 8.5l-3 159q-9 13 -9.5 19.5t-4.5 22.5q-4 33 -6.5 71t-6 75.5t-9.5 73t-17 62.5v74q-10 10 1 21.5t33 21t50.5 15t53 4.5t40.5 -11t13 -31q25 -67 39.5 -136t20.5 -139.5t6 -141.5t-3 -142v-9q0 -4 -2 -16
t-2 -17q-3 0 -10.5 -1.5t-9.5 -1.5h-4q-8 0 -12.5 3.5t-10.5 3.5v-4q0 -2 1.5 -9t1.5 -8q0 -2 -2 -6q-1 -2 -1 -4q-3 8 -8 12t-7 12q-5 -3 -7 -7.5t-4.5 -8t-6 -6t-10.5 -2.5h-9t-12 0.5t-11 1t-5 2.5v13q0 2 -10.5 4.5t-18.5 2.5zM189 24q-2 0 -2 -3.5t2 -3.5q3 3 0 7z
M162 37q-4 0 -4 -5t4 -5q3 0 3 5t-3 5zM162 51q-4 0 -4 -5t4 -5q3 0 3 5t-3 5zM150 816q-10 3 -28 10t-35.5 16.5t-30.5 21.5t-13 25v3q0 4 1 7q2 6 2 7t-2 3l-1 1q8 12 20.5 20.5t27.5 14.5t30.5 9t28.5 3q1 0 9.5 -1.5t9.5 -1.5q1 -1 8.5 -2.5t16 -3l16.5 -3t10 -1.5
q10 -4 20 -14q3 -5 13.5 -17t12.5 -17v-4q0 -7 -3 -10v-32q-2 -2 -7 -6.5t-10 -10l-10 -10.5t-6 -7h-80z" />
    <glyph glyph-name="asterisk" unicode="*" horiz-adv-x="792" 
d="M268 200v27l-12 -13v17l-19 -14q0 2 -1.5 4.5t-2.5 2.5q-2 0 -6 -2.5t-4 -4.5q5 9 10.5 20.5t9.5 22.5h-5h-1q-2 0 -5 -2t-5 -3v19q0 22 8.5 44.5t19 45l19.5 43.5t9 40v4q-15 -6 -34 -11.5t-39.5 -9.5t-40.5 -6t-36 -2q-5 0 -18.5 1t-18.5 1q-11 12 -23.5 18.5
t-23.5 14.5l-2 4q-1 2 -1 6q-2 0 -3.5 2t-3.5 2q1 3 3 10.5t5 16.5t6 17t6 12q7 11 21.5 22t25.5 16q6 2 15.5 6.5l18.5 8.5q11 4 22 9h9q0 17 -10 27l-22.5 22t-22.5 29.5t-10 49.5q0 19 10.5 36t26.5 30t35.5 21t37.5 8h3q2 0 8.5 -1t14 -2.5t14.5 -2.5t10 -1q0 -3 7 -8.5
t16 -11.5l17.5 -11.5t10.5 -7.5q0 -1 3.5 -4.5l7.5 -7.5t8 -7.5t5 -4.5q6 -5 16 -12.5l20 -15.5q11 -9 24 -18l10 9q6 15 14.5 33.5t18.5 37t22 36t25 30.5q14 4 20.5 9.5t12.5 9.5t15 7t28 3q5 0 15.5 0.5t15.5 -5.5q-5 -2 -4.5 -6t0.5 -6q0 -9 6 -16.5t13.5 -14.5
t13.5 -14t6 -15q0 -2 -0.5 -2.5t-0.5 -2.5q-1 -2 -1 -3l-57 -107v-20q36 0 71 5t71 5h38q2 0 11.5 -2.5t12.5 -7.5q-12 -9 -32.5 -10.5t-33.5 -3.5v-6q6 0 9 -1l6 -2t7.5 -3t13.5 -3h-14l4 -9h40l2 -2q0 -1 0.5 -1t0.5 -1t1 -1v-1q0 -1 1 -2v-3h-25q14 -2 26.5 -3.5
t12.5 -16.5q0 -8 -5.5 -9t-9.5 -6q3 -5 7 -6.5t7 -3.5q-3 -2 -9.5 -3.5t-13 -4.5t-11 -7t-4.5 -9q-6 1 -28.5 -0.5t-47 -5.5t-44.5 -8.5t-20 -9.5q0 -29 9.5 -60t9.5 -62q0 -6 -4.5 -10.5t-11 -7.5t-13.5 -5t-12 -2q0 -9 -0.5 -12.5t-1.5 -6t-2.5 -5.5t-3.5 -11h-11
q-20 0 -38 11t-33.5 24.5l-28 24.5t-20.5 11l-4 -1q-24 -46 -43.5 -87.5t-46.5 -86.5l-4 -4h-1h-4q-2 0 -9 4.5t-8 4.5q-8 1 -16 -5.5t-16.5 -15l-16 -16.5t-14.5 -9v10h-6zM533 357q3 0 3 -4t-3 -4q-4 0 -4 4t4 4zM724 631q-2 0 -2 -5t2 -5q5 0 5 5t-5 5z" />
    <glyph glyph-name="eight" unicode="8" horiz-adv-x="695" 
d="M184 10q-17 8 -39.5 12.5t-37.5 14.5q-14 9 -23 23t-16 30t-12 32.5l-10 31.5q-3 8 -7.5 9.5t-4.5 10.5l1 1q0 2 2 2l-3 4v18q0 67 23.5 118t59.5 104l15.5 21.5t12.5 22.5q-24 22 -40.5 42.5t-27.5 42.5t-17 46.5t-9 55.5q-2 12 -3 19t-1.5 13t-0.5 13.5v21.5q0 47 9 82
t28.5 63t49.5 52t71 50q14 8 30.5 11t29.5 11q5 1 16 3t23 3.5t22.5 2.5t15.5 1h2h1q5 0 14.5 -2l18.5 -4t16.5 -4t8.5 -3q7 -3 12.5 -14t9.5 -21t7.5 -15t6.5 3q7 -2 11 -5.5l9 -7.5q-2 0 2 -1.5t9.5 -4l10 -4.5l4.5 -2q1 -3 -2 -6t-0.5 -9t14.5 -16.5t44 -28.5
q5 -4 12 -6.5t12 -6.5q13 -14 20 -31t21 -26q6 -4 8 -6t2 -4.5t-1 -6.5t-1 -11q2 2 5 3q5 2 6 1q1 -2 8 -14t14 -26l13 -26.5t6 -14.5v-3q0 -4 -4 -10q0 -5 -4.5 -8t-4.5 -11q0 -4 -2 -13t-5.5 -19t-7.5 -18t-8 -10q3 0 3 -4q0 -1 -4.5 -6.5t-9.5 -12.5l-13 -18
q-3 -2 -9.5 0t-9.5 -6l5 -4q0 -1 -2 -2.5t-3 -3.5q-2 -2 -11.5 -7t-12.5 -7v2v4q2 0 8 6.5t7 7.5q-1 0 -1 1v3q-12 0 -19.5 -12.5t-7.5 -22.5q0 -1 17.5 -18.5l39 -40.5t39 -45.5t17.5 -34.5v-80q-11 -34 -22 -60q-9 -23 -19.5 -43t-19.5 -23q-6 -2 -9.5 -6.5t-6 -9.5
t-5.5 -9.5t-8 -6.5q-31 -17 -63.5 -41l-63.5 -45q-2 0 -11 -3t-19.5 -7t-20.5 -8.5t-13 -5.5t-13.5 -2.5t-22.5 -4t-23 -4t-17 -2.5h-10q-2 0 -7.5 -0.5t-11.5 -1.5t-12 -1.5t-7 -0.5q-4 0 -14.5 1t-22.5 2.5t-22 3t-14 3.5zM244 230q0 -15 4 -30t12.5 -27.5t22 -20
t32.5 -7.5q26 0 54 14.5t50.5 37t37 50t14.5 54.5q0 13 -4.5 28t-13.5 28t-21.5 21.5t-27.5 10.5q2 5 -3.5 8.5t-14 6t-16.5 4t-11 1.5h-2q-2 0 -6 -2.5t-4 -4.5q-17 -15 -35.5 -34.5t-33.5 -42t-24.5 -46.5t-9.5 -49zM37 197q-2 0 -2 -3t2 -3q5 4 0 6zM290 835
q-4 -6 -8.5 -16t-8.5 -21t-7 -21.5t-3 -17.5v-101q0 -1 1.5 -6.5t6.5 -19.5q3 -8 10 -16.5t16.5 -16t19.5 -12.5t19 -5q12 0 31 9t38 22.5t32.5 29.5t13.5 31v6q-2 5 -0.5 2t-0.5 0t-7 6t-11 6l-11.5 6t-7.5 5q-2 0 -6 2q-2 1 -3 2q-2 0 -5.5 -2t-4.5 -2h-3h-1
q-15 40 -38.5 70t-55.5 55q-2 2 -4 3t-2 2zM586 807q4 0 4 -4t-4 -4t-4 4t4 4z" />
    <glyph glyph-name="b" unicode="b" horiz-adv-x="685" 
d="M250 11q-4 0 -5 0.5l-2 1t-3 0t-6 -2.5q2 4 -3 6.5t-13 3.5l-16 2t-11 2l-4 -10q-8 13 -17 13q-6 0 -9.5 -1.5t-8.5 -1.5t-9.5 4.5t-9 10l-8.5 10.5t-8 7q-2 0 -7 -0.5t-6 0.5q-11 2 -19 13.5t-13.5 26.5t-8 30t-3.5 24q0 13 -1.5 47.5t-3 73.5l-3 74.5t-1.5 49.5v97
q-11 22 -11.5 49t-2.5 50q-1 5 -1.5 16.5l-1 23.5t-0.5 22v13v63v63q0 4 0.5 18t1 29.5t1 29.5t0.5 17q0 6 1.5 19t5.5 26.5t11 24t17 10.5h2q2 0 4 -2l2 -2l12 7.5t12 10.5h21h20q1 -1 2 -1t1.5 -0.5t1.5 -0.5l4 -2q2 0 6 2l4 2q5 0 16 -1.5t22 -4.5t20.5 -7t11.5 -10
q2 -5 5.5 -17t6.5 -25.5l5.5 -25.5t2.5 -17q0 -32 -5 -65t-5 -67q0 -38 2 -77t8 -77h6q22 0 44 7t43 7q41 0 83 -5t81 -18.5t72.5 -36.5t58.5 -58q9 -10 14.5 -22t5.5 -25v-7.5t-6 -6.5q2 0 6 -3.5t4 -5.5v-2q0 -60 -24.5 -106t-69.5 -83q-23 -20 -45 -42t-48 -39h-3h-1
q-2 0 -3 2.5t-3 2.5q-3 -8 -4.5 -10t-4 -2t-6 0.5t-9.5 -2.5q-1 0 -6.5 -6t-7.5 -8q-3 -2 -13 -10t-14 -10l5 -3q0 -1 -14.5 -12l-32 -24l-32.5 -23.5l-15 -10.5q-2 -2 -9.5 -3.5t-10.5 -3.5q-11 -2 -16 -9.5t-15 -7.5q-8 0 -11 3.5t-3 7.5zM277 24q-5 0 -5 -5t5 -5q3 0 3 5
t-3 5zM264 27q-5 0 -5 -5t5 -5q2 0 2 5t-2 5zM392 90q-2 0 -2 -2l-1 -1l-4 -3h1h3h1q1 0 2 1t3 2zM459 140q0 2 -3 -1t-1 -4q6 0 4 5zM337 455q-2 -2 -7 -5t-11 -7l-11.5 -7.5t-6.5 -4.5q-5 -4 -11 -10l-12 -11.5t-10 -10l-4 -4.5v-180q11 5 20.5 12.5l20.5 16.5
q18 14 46.5 34t55 44t45.5 50.5t19 53.5q0 13 -6 21t-15.5 12t-21 5t-22.5 1q-6 0 -15.5 -2t-19 -4.5t-19 -4t-15.5 0.5zM479 402q-3 0 -3 -3.5t3 -3.5q4 0 4 3.5t-4 3.5zM656 441q-2 0 -2 -3t2 -3q8 4 0 6zM327 591q-2 0 -2 -4.5t2 -4.5q5 0 5 4.5t-5 4.5zM341 596
q-3 0 -3 -5t3 -5q5 0 5 5t-5 5z" />
    <glyph glyph-name="r" unicode="r" horiz-adv-x="676" 
d="M77 33q-2 14 -7.5 24.5t-5.5 23.5q7 33 13 82t3.5 113t-17.5 141t-49 164q0 12 3 27.5t10 23.5q1 1 1 3t1 4q0 2 1 4q5 22 23 29t35 7h4q1 0 2 1q36 0 50 -15.5t21 -40t14 -54.5t28 -59h3q15 24 39.5 49.5t54.5 49t64 43t66.5 31.5t62.5 14.5t53 -7.5q8 1 12.5 0t4.5 -9
q9 0 17.5 3.5t18.5 3.5q0 -15 7.5 -22.5t16.5 -11t17 -6t8 -7.5q-8 -2 -10 -6l9 -5l-6 -5q7 1 8 -1.5t1 -8.5q0 -5 -1.5 -6t-0.5 -5v-2q0 -2 5 -5t7 -5v-2v-2q-2 -1 -8.5 -5t-9.5 -6q-9 -8 -27 -14.5t-39 -10t-43 -4t-39 2.5q-1 -3 -4.5 -6t-3.5 -5v-1v-3q0 -1 1.5 -3
t2.5 -4q-22 -4 -50 -25t-56.5 -52.5t-54 -70.5t-41.5 -79l-43 -253q-4 -12 -5 -22t-3 -17.5t-7 -12t-17 -4.5q-1 0 -8 -0.5t-9 7.5q-5 -4 -6 -8.5t-1.5 -8t-3 -6.5t-10.5 -3q-1 0 -2 1t-1 3q-6 9 -12 11.5t-12 3l-12.5 1t-14.5 4.5q-1 0 -2 1q-2 0 -4 2q0 1 -1 3l-2 4
q-2 3 -3 6q-5 3 -18.5 10t-17.5 8zM303 346q-4 0 -4 -4.5t4 -4.5q3 0 3 4.5t-3 4.5zM307 356q-3 0 -3 -5t3 -5q3 1 3 6t-3 4zM331 385q0 4 -2.5 4t-2.5 -4q3 -2 5 0zM445 493q4 -6 3 -8t-3.5 -1.5t-3.5 3t4 6.5zM419 505q0 3 -2 0.5t0 -3.5q0 -2 2 -0.5t0 3.5zM431 524
q0 -6 5 -10l-1 10h-4zM469 526l6 4l3 -9h-3q-6 2 -6 5zM487 530q-5 0 -5 -4.5t5 -4.5q2 0 2 4.5t-2 4.5zM394 538q0 3 -2.5 3t-0.5 -3q0 -2 3 0zM407 549q-3 -1 -3 -6t3 -4q3 0 3 5t-3 5zM415 559q-4 0 -3.5 -5t4.5 -5q2 0 1.5 5t-2.5 5zM498 566q1 0 -0.5 -8.5t-4.5 -18.5
t-6 -18.5t-4 -8.5q-2 0 -0.5 8t4.5 18t6 19t5 9zM406 568q-3 0 -3 -5t3 -4q3 0 3 5t-3 4zM489 565q2 2 -1.5 2t-1.5 -2q0 -2 1.5 -2t1.5 2zM500 590q-2 -2 -3.5 -6l-3.5 -9q4 4 5 8.5t2 6.5zM501 580q-2 0 -2 -4t2 -4q4 0 4 4t-4 4zM421 592q-3 0 -3 -4t4 -4q2 0 2 4t-3 4z
M155 520q-2 -1 -2 -6t2 -4q4 0 4 5t-4 5zM455 593q0 2 -2.5 2t-1.5 -2q0 -2 2 -2t2 2zM467 623l-3 -6l8 6h-4h-1zM508 624q-3 0 -2.5 -5.5t3.5 -5.5q4 0 3.5 5.5t-4.5 5.5zM632 573q-1 2 -4 2t-2 -2q4 -8 6 0zM640 582q-5 0 -5 -4.5t5 -4.5q2 0 2 4.5t-2 4.5zM559 602l9 1
l-1 7zM642 615q-2 0 -1.5 -5t2.5 -5t1.5 5t-2.5 5zM403 664q-2 0 -2 -5t2 -5q4 1 4 6t-4 4zM580 624q-5 0 -5 -5.5t5 -5.5q2 0 2 5.5t-2 5.5zM595 621h9v4zM621 626q-1 1 -3.5 -2t-0.5 -3q2 -2 4 0.5t0 4.5zM630 623h9l-5 3zM584 657q0 -1 2 -6.5t2 -7.5q-2 -3 -7 -8.5
t-7 -6.5h11q8 1 21 6.5t18 15.5q-20 -5 -25 -0.5t-5 25.5q-7 -1 -13.5 -3.5t-10.5 -10.5q8 -6 7.5 -5t6.5 1zM613 635q-3 0 -3 -5t3 -5t3 5t-3 5zM625 636h9v4zM551 681q0 -2 -1 -5t-1 -5h1h2q1 0 5 2l4 2q-1 1 -1 2t-1 2l-2 2h-1h-5z" />
    <glyph glyph-name="asciicircum" unicode="^" horiz-adv-x="673" 
d="M73 355q-3 23 7.5 48.5t26.5 51t34 48t29 39.5q4 5 12 18l17 27t16.5 27l10.5 18q16 11 35.5 22t40.5 19.5t42 14t41 5.5q14 0 35 -14.5t44.5 -37.5t47.5 -51.5t43 -56.5t31 -52.5t12 -39.5q0 -8 -3.5 -12.5t-8 -7.5t-9 -5.5t-7.5 -7.5q-6 -10 -5.5 -15t1 -6.5t-2.5 -1
t-18 0.5q0 -3 0.5 -9t0.5 -9q0 -2 -14 -4t-31.5 -4t-33 -3.5t-19.5 -1.5q-14 0 -28 14t-27 33t-24.5 39t-20.5 31q-5 -63 -33 -114.5t-92 -76.5h-87q-4 6 -10.5 9t-13.5 5t-13 4.5t-9 8.5q-2 5 -5.5 13t-5.5 16q-4 9 -6 18z" />
    <glyph glyph-name="caron" unicode="&#x2c7;" horiz-adv-x="666" 
d="M89 946q0 24 11.5 36t29.5 17t39.5 5h41.5q18 0 35 -10.5t34 -25.5t33 -32t32 -30q1 0 1 -1t1 -1l3 2l3 6q17 30 35 52.5t39.5 37.5t49 23t64.5 8h14l8 -7v-29q3 -2 3 -8q0 -17 -4 -29.5t-10.5 -24.5t-14.5 -24.5t-16 -28.5q-3 -6 -11.5 -21.5l-17.5 -33.5l-17 -33.5
l-11 -21.5q-4 -5 -15.5 -12t-25.5 -14t-26.5 -12t-18.5 -5q-21 0 -48.5 1.5t-46.5 12.5q-27 18 -51 43t-49 45q-9 8 -12 12t-4.5 7t-4.5 6t-12 10l-25 16.5t-19 16t-12.5 19.5t-4.5 28z" />
    <glyph glyph-name="w" unicode="w" horiz-adv-x="1121" 
d="M18 639q2 34 26 51.5t56 17.5q46 0 71.5 -15t39 -40t19.5 -58.5t15 -70.5q3 -10 5.5 -30t5 -45l5 -52.5l5 -53t5 -45.5t6.5 -31h3q4 0 9.5 5.5t11 13l10 14t7.5 9.5q1 6 5 19l8.5 28t9 28t6.5 18q0 3 5 14.5t7 14.5q0 2 -2.5 10t-2.5 10l2 2q2 2 4 2q5 17 9 51t11.5 68
t21.5 59.5t40 25.5q6 0 8.5 -6.5t8.5 -6.5q5 0 9 6.5t9 6.5l3 -3l3 -4q2 -2 8 -6q3 -2 5 -4h29q13 -1 22.5 -9.5t17 -20t13 -23.5t9.5 -20q2 -11 8.5 -39l13.5 -58.5l13 -58t8 -38.5q3 -13 14 -46t27 -67.5t34 -61t35 -26.5q20 0 33 8.5t23.5 20.5t19.5 26t20 25q2 -1 4 -1
q4 0 4 1q1 0 0.5 6.5t-1 14l-1 14.5l-0.5 7q1 5 4 14.5t5.5 19t5 18t2.5 11.5q0 2 2 12.5l4.5 23l5 24.5t3.5 18q1 9 0 13t5 11h-6q3 3 3 5q1 3 2 5q2 4 2 5l1 3v1q0 2 -2 5t-2 5v2q1 4 3 5.5t2 6.5q1 8 -1.5 12.5t-7.5 10.5l4 67q-3 4 -3.5 11t1 14.5t3 13t1.5 7.5h-7
q-2 0 -3.5 13t-0.5 21q0 5 0.5 19t0.5 19q13 0 17.5 -3.5t6.5 -17.5q3 6 5 9.5t2 10.5v5.5t-5 3.5h10q8 0 8 -1t5 -8l5 -10t5 -11q3 -6 6 -13h9q0 6 1.5 9t3.5 4.5t5 3.5t7 7q-5 1 -5 10v4q8 -7 21 -20.5t23 -13.5q5 0 9 2t9 4q-2 -5 -0.5 -8t4.5 -5.5t6 -4.5t5 -5
q0 -3 1.5 -8.5t2.5 -12.5t2 -13t1 -9q-1 -5 -2 -11t-3 -6h-10v-11t0.5 -16l1 -16t0.5 -11q1 -1 2 -4.5t2 -4.5q0 6 0.5 12.5t4.5 10.5q4 -14 8 -34t2 -36l-4 -4v-10q0 -1 -0.5 -7.5t3.5 -6.5q2 0 6 2l4 2q-1 -7 -1 -11q0 -11 6 -12h-16l-7 -107l10 -4l-10 -6q-1 -2 -1 -4v-6
q0 -1 -0.5 -9.5t5.5 -8.5l-10 -6l-6 -105h10l-21.5 -45.5t-24.5 -43.5t-32.5 -38.5t-44.5 -29.5q-17 -10 -35 -11t-37 -9h-36q-84 0 -152 32.5t-114 103.5q-5 8 -10.5 20.5t-12 25.5t-13.5 25t-14 18q-8 -14 -9.5 -26t-8.5 -26q-21 -54 -55 -96t-86 -74q-16 -8 -37 -8.5
t-38 -8.5q-12 15 -27 22t-31 13.5t-32 16t-29 28.5q-19 26 -29 60.5l-19 66.5q-7 20 -14.5 53.5t-15.5 74.5t-15.5 85.5t-13 85.5t-8 76t-1.5 57zM272 17h5l-4 7zM976 406q-2 1 -2.5 -2.5t-1 -9t0 -9.5t2.5 -3q1 3 1.5 12t-0.5 12zM977 424q-5 0 -5 -5t5 -5q3 0 3 5t-3 5z
M944 437q-4 0 -4 -3.5t4 -3.5q3 0 3 3.5t-3 3.5zM978 437q-5 0 -5 -3.5t5 -3.5q3 0 3 3.5t-3 3.5zM1039 456q-4 0 -4 -4.5t4 -4.5q3 0 3 4.5t-3 4.5zM995 480q-5 0 -5.5 -5t4.5 -5q2 0 2.5 5t-1.5 5zM1005 490q-5 0 -5 -5t5 -5q2 0 2 5t-2 5zM942 494q-4 0 -4 -4t4 -4t4 4
t-4 4zM943 504q-4 0 -4.5 -5t3.5 -5t4.5 5t-3.5 5zM977 517q-2 2 -2 -1.5t2 -1.5q2 0 2 1.5t-2 1.5zM1014 527q-3 0 -3 -5t3 -5q4 0 4 5t-4 5zM1030 537q-4 0 -4.5 -5t3.5 -5q3 0 3.5 5t-2.5 5zM899 617q-3 0 -3.5 -5t2.5 -5t3.5 5t-2.5 5zM981 654q0 -4 3.5 -7l7 -6
t5.5 -5.5t-1 -4.5q3 0 6.5 1t4.5 3t-3.5 10t-10.5 17.5t-12 17.5t-8 11q-7 -8 -12 -24t-6 -25q12 0 26 12zM970 640q-3 0 -3.5 -4.5t2.5 -4.5t3.5 4.5t-2.5 4.5zM1026 640q-3 0 -3 -2.5t3 -2.5q2 1 2 3t-2 2zM1015 650q-5 0 -5.5 -5t4.5 -5q2 0 2.5 5t-1.5 5zM1022 650
q-3 0 -3.5 -5t2.5 -5q4 0 4.5 5t-3.5 5zM938 657q5 -1 5 -7h4l6 17q-10 -2 -15 -10zM1022 654q1 2 -1.5 2t-2.5 -2t2 -2t2 2zM929 667q-2 2 -2.5 -0.5t1.5 -2.5q3 0 3.5 1.5t-2.5 1.5zM1009 674q0 -2 -1.5 -3.5t-1.5 -3.5l-1 -1v-2zM939 674q-4 0 -4.5 -5t3.5 -5t4.5 5
t-3.5 5zM954 687q-2 2 -2.5 -5t1.5 -5q8 6 1 10z" />
    <glyph glyph-name="n" unicode="n" horiz-adv-x="745" 
d="M94 6q-4 6 -12.5 5.5t-16 -2t-12 -0.5t-1.5 9l-29 31q2 11 -1 21.5t-2 21.5q0 12 1.5 31t3.5 40l4 40.5t2 31.5q0 5 0.5 15t0.5 12l-23 347l2 74q8 2 13.5 9t12.5 12q4 3 13.5 5.5t20 4.5t19.5 2t14 -1q7 0 17.5 -2.5t21 -6t20 -8t14.5 -9.5l2.5 -3.5t5 -8t4.5 -8.5t2 -5
q1 -1 2.5 -3t2.5 -2q3 -12 3 -29t-0.5 -32t-1 -26t2.5 -11q2 0 4 1t3 1t3 1q9 7 17 11.5t14.5 9t11 11t6.5 18.5h10v4l11 11q5 5 10 8.5l8 5.5q9 8 27.5 16t39.5 14t41 9.5t32 2.5q1 0 4 -0.5t6 -0.5q4 -1 7 -1t14 -4t23.5 -9l23.5 -9.5t14 -4.5q3 -1 16 -2.5t16 -3.5
q19 -8 38 -27l34 -34q11 -7 16.5 -15t-0.5 -22l10 3q-3 -5 0.5 -14.5t8.5 -20.5l10 -21.5t7 -17.5v-6.5t1 -9.5t1.5 -9.5t0.5 -5.5q1 0 2.5 -2t2.5 -2q-2 -8 0 -34.5t6.5 -57t10.5 -56.5t11 -33l-6 -138q4 -5 4.5 -9.5t0.5 -8.5q0 -10 -4.5 -13.5t-6.5 -16.5q-2 -14 -3 -26
t-4 -22.5t-9.5 -20t-18.5 -19.5q-5 -3 -6 -5t-2.5 -3t-3.5 -1h-8q-14 1 -14 20q0 7 2.5 13.5t2.5 12.5q-2 1 -3 2q-2 1 -2.5 2t-1.5 1q-3 -3 -5.5 -9t-4.5 -12.5t-3.5 -12t-1.5 -8.5t4 -5q-2 -2 -5 -3.5t-4 -1.5h-5v3q-1 0 -2 1q-1 0 -1 0.5t-1 0.5t-1 1q-2 -2 -9 -4.5
t-9 -4.5q3 8 4 13.5t1 13.5q0 5 -2 7.5t-10 3.5h-2q-2 0 -5.5 -4t-5.5 -6q-1 1 -5.5 10l-10 19.5t-11 19t-8.5 10.5l14 12q-3 1 -7.5 3.5t-6.5 4.5q-2 25 -0.5 59.5t2.5 74t0.5 80.5t-6 77.5t-18 66.5t-33.5 48q-53 3 -96 -26.5t-77 -79t-57.5 -113.5t-37.5 -131
q-5 -10 -9 -31.5t-9 -44t-12 -41t-19 -21.5zM681 1q0 3 -3 3t-3 -3q0 -1 2 -1t4 1zM639 46q-5 0 -5 -4.5t5 -4.5q2 0 2 4.5t-2 4.5zM549 55q-3 1 -3 -4t3 -6q5 0 5 5t-5 5zM650 55q-5 1 -5.5 -4t4.5 -6q2 0 2.5 5t-1.5 5zM650 59q-2 5 -5 1t-2 -4q7 -2 7 3zM684 423
q-3 0 -3 -5t3 -5q3 -1 3 4t-3 6zM685 443q-3 0 -3.5 -5t2.5 -5q3 -1 3.5 4t-2.5 6zM409 494q-8 1 -15 -9q3 1 9.5 2.5t10.5 6.5h-5zM676 481q-3 0 -3.5 -5t2.5 -5q5 0 5.5 5t-4.5 5zM450 514q-8 1 -16 -6t-12 -11h5q8 -1 15 4t13 8q-1 0 -1 1t-0.5 1t-0.5 1l-2 2h-1z
M666 499q-2 1 -2 -2t2 -3q7 3 0 5zM465 514q-3 0 -3 -5t3 -5q3 -1 3 4t-3 6zM479 513q-2 2 -4.5 -1t0.5 -4q1 0 3.5 1t0.5 4zM662 514q-2 0 -2 -5.5t2 -4.5q2 2 2 5.5t-2 4.5zM395 527q-5 0 -5 -5t5 -5q3 0 3 5t-3 5zM311 535q-5 1 -5 -4t5 -6q3 0 3 5t-3 5zM492 522
q2 2 -1.5 2.5t-1.5 -2.5q0 -3 1.5 -3t1.5 3zM348 548q-4 0 -4 -4t4 -4q3 -1 3 3t-3 5zM320 549q1 2 5.5 2.5t4.5 2.5v1v3zM653 538h7l-7 4v-4zM226 570q-3 0 -3 -5t3 -5q5 -1 5 4t-5 6zM641 580q-5 0 -5 -4.5t5 -4.5q2 0 2 4.5t-2 4.5zM290 627q-2 2 -7.5 -4t-3.5 -6t6 3.5
t5 6.5zM350 651q0 3 -2.5 3t-2.5 -3q3 -3 5 0z" />
    <glyph glyph-name="asciitilde" unicode="~" horiz-adv-x="836" 
d="M287 469q-2 0 -9 -12l-16 -27l-18 -29t-15 -19q-4 -1 -13 -6t-18.5 -11l-18 -11.5l-11.5 -7.5h-6q-14 0 -23.5 5t-23.5 9q-14 3 -28 3.5t-25.5 4t-19 12.5t-7.5 30q0 22 7.5 46.5t19.5 48.5t26 46t27 39q17 20 32 29t28 27q43 13 81 26t82 13q3 0 14 -0.5t13 -0.5
q8 -6 16 -9l16 -6t16 -7t16 -12q2 -1 10.5 -10.5t9.5 -12.5l4 -4q4 -4 6 -4q2 -5 7.5 -13l11.5 -17l11.5 -16.5t7.5 -10.5q4 -8 10.5 -24.5t14.5 -33t17.5 -29.5t19.5 -13q7 0 11.5 12.5t7 29t4 31.5t2.5 21q0 2 3 4q1 1 3 2l2 4q2 4 2 6q9 28 26 45t39.5 26.5t48.5 13
t54 3.5q9 0 18 -7t15.5 -16.5t10.5 -20.5t4 -19q0 -28 -9 -55t-9 -56v-4q1 -2 3 -5t2 -5l-5 -3v-10q-22 -29 -51 -58t-62.5 -52.5t-70.5 -38.5t-75 -15q-14 0 -30 1t-32.5 3.5t-31.5 7t-27 12.5q-24 13 -37 27.5t-30 35.5q-5 7 -13 22t-16.5 29t-16.5 25t-12 11z" />
    <glyph glyph-name="breve" unicode="&#x2d8;" horiz-adv-x="615" 
d="M35 945q3 36 15 56.5t31.5 31.5t45.5 14t57 3q25 -18 35 -36t13.5 -36t3.5 -34.5t6.5 -31.5t22.5 -27.5t50 -21.5q26 12 40.5 34t16.5 49v30q3 7 15.5 15.5t28 16t31.5 13t25 5.5q1 0 8 -1.5t9 -1.5q0 -1 1 -1h3q2 -1 4 -1h1q2 0 3 1q2 0 3 1q4 2 7 4q6 4 7 4q7 1 10 0
t4.5 -3t3 -5t6.5 -5h17q5 -2 8 -9t5 -16.5t3.5 -18.5t3.5 -14q-1 -2 -2.5 -8.5t-3 -14t-3 -14t-1.5 -9.5q-2 -18 -7 -31t-12 -25t-16.5 -24l-21.5 -28q-38 -53 -99 -80t-125 -27h-24q-88 11 -140 62t-85 129q-4 10 -5.5 15.5t-1.5 10t1 10.5t2 19z" />
    <glyph glyph-name="five" unicode="5" horiz-adv-x="710" 
d="M239 14q0 8 -6 11t-13.5 4.5t-14 4.5t-6.5 11q8 0 15.5 3t10.5 8q-5 -1 -18.5 -1.5t-19.5 5.5q9 4 11 8.5t2 9t0.5 8.5t6.5 8q3 1 10.5 5.5l16.5 10l18 10.5t15 7q4 1 21 7.5t36 13l35.5 12.5t21.5 7q2 1 8.5 4.5l14 7.5t14 7t9.5 5q24 9 42 28t28.5 43t12.5 50t-4 47.5
t-21.5 36.5t-41.5 18q-12 0 -31 -1t-38.5 -2.5t-35 -2.5t-18.5 -1l-70 -7q0 -1 -6.5 -1h-11.5h-11t-8 1q-1 0 -7 4q-3 2 -6 5q-17 4 -30 5t-27 10q-32 18 -51.5 46.5t-30 62.5t-14 70.5t-3.5 70.5v29q1 5 3 18.5t4 29t4 29.5l3 21q9 46 35 71t60.5 37t73.5 16t75 9q2 0 10 2
t10 2q6 0 21 2.5l32 5.5l32.5 6t21.5 5l9 5h104q1 0 5 -1t8.5 -2.5t8.5 -3.5t5 -3q13 -6 25 -16t21.5 -23t15.5 -27t6 -29q0 -2 -1 -10t-1 -11q-9 -5 -13 -5t-14 -7q-15 -12 -46.5 -17.5t-68 -8t-72 -3t-57.5 -3.5q-4 0 -13.5 -1t-20 -2.5t-19.5 -3t-13 -2.5
q-15 -6 -22.5 -26t-10.5 -44t-2.5 -46.5t0.5 -34.5v-27q2 -3 5 -6.5t5 -7.5q30 3 67 3.5t75.5 -2t74.5 -9t65 -16.5q22 -7 43.5 -23.5t38.5 -35t26.5 -36t8.5 -25.5l-4 -6q6 -1 5 -8t-1 -9q7 -1 11.5 -17.5t6 -40.5t1 -52.5t-3 -53t-7 -42.5t-9.5 -21q-11 -16 -14 -32.5
t-18 -33.5q-2 -2 -8 -5.5t-6 -4.5q-21 -15 -42 -32t-44 -29q-1 0 -5 -2t-9.5 -4.5t-10.5 -4.5t-8 -3q-2 0 -8 -2t-12.5 -4.5t-13 -4t-7.5 -1.5q-8 -3 -20 -9t-24.5 -11.5t-24.5 -9.5t-19 -4h-6l4 2q4 2 6 2l-2 3q-17 0 -32.5 -3.5t-31.5 -3.5h-6q-5 0 -12 0.5t-14 1.5l-16 2
v10h-28zM656 177q-3 0 -3 -5t3 -5q5 0 5 5t-5 5zM652 181q-2 0 -2 -3.5t2 -3.5q3 0 3 3.5t-3 3.5zM648 451q-2 0 -2 -5t2 -5q5 0 5 5t-5 5zM638 465q0 -3 1 -5.5t6 -4.5v6q0 8 -4 10q0 -2 -1.5 -3.5t-1.5 -2.5zM635 479q-3 0 -3 -4t3 -4q5 0 5 4t-5 4z" />
    <glyph glyph-name="f" unicode="f" horiz-adv-x="568" 
d="M288 24q-6 0 -6.5 -3.5t-8.5 -3.5v14q-8 0 -10 -6t-10 -11q-8 10 -18 14.5t-10 17.5h7q0 1 -4 7.5l-9 15l-10 16.5t-6 12q-2 3 -3 10t-1.5 14t-1.5 13t-4 6q-7 27 -12 54t-2 53l-10 7q-3 20 -6 38q-2 16 -4.5 32t-3.5 27q-2 2 -1 7.5t1 6.5h-6q-3 0 -11.5 -4t-10.5 -6
q4 -8 -5 -15t-22.5 -13.5l-26 -12t-14.5 -9.5q-5 8 -3 8.5t2 8.5q-15 0 -24.5 -6.5t-23.5 -6.5q-21 0 -40.5 8.5t-42.5 8.5q0 1 -3 6t-7 10t-8.5 9t-6.5 4l17 10q-5 0 -7 2.5t-2.5 6.5l-1 8t-3.5 7l9.5 6.5t13 9.5l12.5 9.5t8 6.5q12 10 43 27.5l64 35l58.5 32t26.5 19.5
q2 2 -1.5 12t-3.5 12q-1 28 -3 57t-2 58q0 5 -1 13t-1 14q9 0 8.5 1.5t-0.5 5.5q3 41 7 76.5t12.5 68.5t23 64.5t37.5 64.5q12 17 34 28.5t47 18.5t50 10t44 3q18 0 33.5 -3t30 -9t29.5 -14l32 -17l4 -3q1 -1 7 -4.5l12.5 -7.5l12.5 -7.5t8 -4.5q3 -2 7 -6.5t9 -9.5l10 -12
v-10h-7q0 -6 4.5 -13l9.5 -15v-3v-1l-5 -5l-5 -5q-6 -5 -17 -12.5t-12 -7.5l-10 6q0 -1 -2 -6.5t-2 -7.5v-3v-2l5 -5l5 -5l-2 -2q-1 -1 -4 -1h-1h-3q-1 0 -4.5 2.5t-7.5 4.5t-7.5 4t-4.5 2l-1 2q-7 0 -9.5 -3.5t-12.5 -3.5q-14 0 -28.5 1.5t-28.5 3.5q-11 2 -21 8.5t-24 6.5
q-1 0 -5.5 -1t-5.5 -1q-17 -23 -24 -49.5t-9 -54.5t-1 -56t1 -53v-3q0 -2 0.5 -8.5t1.5 -14l2 -14.5t2 -10h14q14 0 27.5 3t28.5 3q8 0 13.5 -0.5t13.5 -5.5l-3 -4q11 -4 21.5 -11t24.5 -8q6 -1 14 0t15.5 0t12.5 -5.5t5 -14.5q0 -5 -5 -7t-5 -8v-2q0 -2 4 -5t6 -5
q-6 -3 -11 -9l-10.5 -12.5t-13 -11t-20.5 -4.5q0 -5 1.5 -7.5t1.5 -4t-2 -3.5t-8 -5q-33 -2 -59.5 -6.5t-58.5 -16.5v-12q0 -46 6 -94.5t14 -95.5q0 -1 2 -7l2 -6l3.5 -10.5t2.5 -8.5q2 -13 6 -34.5l7.5 -41.5t6.5 -35.5t3 -16.5v-27h6q0 -8 -11.5 -13.5t-17.5 -5.5
q-5 0 -7 2.5t-5 2.5q-9 0 -12.5 -9t-6.5 -19.5t-7.5 -19t-16.5 -8.5q-2 0 -12 7.5t-14 9.5q-1 1 -6 1q-3 0 -6 -1q-2 0 -3.5 3.5t-3.5 3.5h-2zM267 46q-3 0 -3 -4.5t3 -4.5q5 0 5 4.5t-5 4.5zM360 80q-1 0 -1 -5.5t1 -4.5q8 4 0 10zM193 174q-5 0 -5 -5t5 -5q3 0 3 5t-3 5z
M65 332q-5 0 -5 -4t5 -4q3 0 3 4t-3 4zM113 347q-2 -1 -5.5 -4.5t-4.5 -5.5l14 10h-3h-1zM524 545q-3 0 -3 -5t3 -5q5 0 5 5t-5 5zM135 670q-2 0 -2 -4t2 -4q4 0 4 4t-4 4z" />
    <glyph glyph-name="x" unicode="x" horiz-adv-x="596" 
d="M122 -104q-8 0 -8 -4t-7 -4q-3 0 -3 3l-10 24h-3h-4q0 -3 -4 -5q-2 -1 -3 -2q-4 0 -13.5 1.5t-19 4.5t-16.5 8t-7 11v4q1 2 9 10t8 14l-4 7v9q5 18 11 36l11 36l13 42l35 114l4 -5q8 19 11.5 37t8.5 39l4 4q13 21 21 45t8 49q0 17 -10 30l-32 42.5l-35 47.5l-36 47.5
t-34 41.5q-9 11 -9.5 16t-0.5 20q0 1 0.5 10t2.5 11q2 4 9 11l15 15t15.5 14.5t10.5 9.5h45q11 0 18.5 -2t13.5 -4.5l13 -5.5t17 -5q6 -2 20 -22.5l29.5 -44l28.5 -43t15 -19.5l71 148q0 2 5.5 3t7.5 3q1 0 8 1t15.5 2.5l16.5 3t12 2.5h3q0 -7 7 -9q1 1 6 4t7 5q1 0 2 -1
t3 -2l4 -2q7 0 10 5h3q11 0 10.5 -3.5t-0.5 -11.5q30 0 41.5 -19.5t11.5 -49.5q0 -11 -3 -19t-7.5 -14.5l-9 -13.5t-8.5 -16t-15 -24.5l-22.5 -32.5t-20.5 -33.5t-9 -26.5q0 -9 5 -18t11.5 -18.5t13.5 -18t10 -15.5q9 -15 12.5 -28.5t13.5 -28.5l42.5 -81t27.5 -87
q0 -11 10 -11q0 -7 -2 -9.5t-2 -12.5h1q2 0 5 2.5t5 2.5q-2 -2 -2.5 -7.5t-0.5 -6.5q0 -5 5 -13.5t5 -16.5q0 -2 -3 -8t-7.5 -13t-10 -11.5t-9.5 -3.5q-5 12 -9 23q-4 9 -6.5 16.5t-2.5 8.5l-10 -6v10q-1 -3 -3 -10t-2 -10l2 -4q1 -2 2 -3.5t1 -2.5q0 -2 0.5 -7.5l1 -11.5
l1 -11.5t0.5 -8.5q-9 0 -11.5 -3.5t-10.5 -3.5v10h-6q0 -11 1 -17.5t-12 -6.5v15q-12 0 -12.5 7t2.5 21q-5 -2 -6.5 -5t-2.5 -6t-3 -5.5t-8 -2.5q-8 0 -13.5 2.5t-5.5 16.5q3 -14 -8 -17t-19 -7q1 2 -1.5 7.5t-6.5 11t-7.5 11t-4.5 7.5q-2 -1 -5 1t-3 3q-8 30 -17.5 60.5
t-29.5 53.5q-4 -2 -6 -9t-3 -9q-10 -27 -19.5 -57t-20 -60t-23 -59t-27.5 -55q-4 -6 -10 -8t-12.5 -3.5t-12.5 -5t-9 -12.5l-14 20q1 -8 -3 -13.5t-11 -10t-14 -8t-12 -5.5q-8 2 -6.5 7t1.5 8zM177 -59v5h-3zM482 40q-2 1 -2 -4.5t2 -4.5q3 0 3 4.5t-3 4.5zM441 45
q-3 2 -3 -5t3 -5q2 2 2 5t-2 5zM479 55q-3 0 -3 -5t3 -5q2 0 2 5t-2 5zM479 68q-3 2 -3 -4.5t3 -5.5q2 6 0 10zM497 68l5 10h-5v-10zM475 78q-5 0 -5 -5t5 -5q3 0 3 5t-3 5zM559 78q-5 0 -5 -5t5 -5q2 0 2 5t-2 5zM475 82v10h-6zM492 88q-2 0 -2 -5t2 -5q4 0 4 5t-4 5z
M552 96q-1 1 -1 -2.5t1 -1.5q3 0 3 2t-3 2zM502 120q-4 0 -4 -4.5t4 -4.5q3 0 3 4.5t-3 4.5zM107 196q-2 0 -2 -5t2 -5q3 0 3 5t-3 5z" />
    <glyph glyph-name="period" unicode="." horiz-adv-x="352" 
d="M122 4q-16 9 -28.5 14.5t-21 14t-13 21.5t-4.5 36q0 28 15.5 52.5t39.5 43t52.5 29t55.5 10.5q26 0 42 -12t26 -30t14.5 -39l8.5 -40q0 -2 1.5 -7t3.5 -11l3.5 -10.5t1.5 -5.5q0 -8 -5.5 -20t-8.5 -16q-6 -9 -14.5 -12t-18 -4t-19.5 -0.5t-18 -0.5q-13 -2 -21.5 -9.5
t-19.5 -7.5h-12q-3 0 -12 0.5t-19 1.5t-18 1.5t-11 0.5z" />
    <glyph glyph-name="j" unicode="j" horiz-adv-x="345" 
d="M79 298q-4 0 -4 -2l-6 54.5t-9.5 76l-10.5 76t-9 54.5q-5 26 -5.5 47.5t-0.5 49.5q56 16 88.5 16t53.5 -14t36.5 -42.5l37.5 -69.5v-7q11 -68 25.5 -136t27 -136.5t21 -138t8.5 -140.5v-63q-6 -14 -6.5 -29t-3.5 -31q-3 -12 -12.5 -23t-11.5 -24q-1 -14 0.5 -21.5
t-5.5 -20.5q-23 -42 -47.5 -75t-59.5 -67q-17 -6 -36.5 -16.5l-40.5 -21t-42 -18.5t-40 -8q-5 0 -8 1t-2 9q-15 -2 -24 -1.5t-16.5 3t-15.5 5.5t-20 7q-2 0 -12.5 0.5t-21.5 2t-19 5t-4 9.5q-12 14 -24.5 26t-26.5 21v3q0 8 6.5 11t6.5 17q0 -1 1 -1l5.5 -5.5l4.5 -4.5v18h7
q0 17 -11 31.5t-11 31.5q0 2 0.5 4.5t0.5 4.5l4 -7v43q2 -2 6.5 -7.5t9 -12t7 -13t1.5 -10.5q2 3 6.5 5t6.5 2q5 -3 6.5 -6.5t2.5 -6.5t3 -5t8 -2q2 0 3 1t1 2q0 5 -1.5 13t-4 16t-5 14.5t-3.5 9.5h2q6 0 8 -5.5t3.5 -12t5 -12t13.5 -5.5q0 18 -4.5 30t-8.5 29h5q1 -3 6 -14
t7 -14q2 -4 9 -8.5l14.5 -9t14 -8t9.5 -6.5q1 -2 5 -8.5l8.5 -13.5t10 -12.5t10.5 -5.5q10 0 19 7t17 16.5t14 19t10 14.5q37 50 49 110.5t13 120.5q-1 3 -2.5 15.5t-2.5 27t-2 27.5t-1 17v31q0 1 -7 7.5t-7 7.5q-7 8 -13 26t-9.5 38.5t-5.5 40t-1 29.5q-2 -3 -7 -3
q0 3 -0.5 5.5t-0.5 5.5q1 -1 4 -1t3 5t-3 5zM152 847q2 1 4 6.5t2 7.5q0 5 -6.5 10t-12.5 5l-5 -1q-1 0 -4 -2.5t-4 -2.5q-2 0 -5.5 5t-4.5 5q-8 3 -24 6.5t-32.5 8.5t-29 13t-12.5 20q0 13 3 14.5t11 8.5q6 3 7 9l2 12t4.5 10.5t12.5 4.5q4 0 9 -2t7 -2q-4 14 12 14
q1 0 7 -2.5t14 -4.5q9 -4 19 -7h8.5t10.5 2t7.5 5.5t-0.5 10.5q7 -5 13.5 -5.5t10.5 -0.5v-8h16v-10h4q2 0 4 -4t4 -9.5t3 -11t2 -7.5q3 -3 8.5 -12.5t6.5 -11.5v-4q0 -12 -8.5 -18t-16.5 -16q-2 -3 -2.5 -9.5l-1 -13.5t-3.5 -12t-10 -5h-6q-2 0 -11 1t-13 3zM82 973
q6 -2 11 -4t10 -3.5t9 -2.5h4q1 -1 6 -6.5t7 -5.5h5q10 0 10 5q0 2 -4 5.5t-9 7t-9.5 6t-5.5 2.5q0 2 -4 -1t-6 -3h-4q-2 0 -7.5 2t-6.5 2t-2 1q-2 2 -4 2v-7zM34 -418q-4 0 -7.5 -2.5t-3.5 -7.5h8q2 0 7 2t6 4q-1 0 -4.5 2t-5.5 2zM172 870q0 -1 2 -3q1 -1 2 -1q2 0 4 2
l2 2v5q0 1 -2 3t-4 2q0 -2 -2 -5t-2 -5zM326 -1q-3 0 -3 -5t3 -5q5 0 5 5t-5 5zM107 205q-3 0 -3 -5t3 -5q4 0 4 5t-4 5zM-149 -344q-3 0 -3 -4t3 -4q5 0 5 4t-5 4zM54 -414q-5 0 -5 -4t5 -4q3 0 3 4t-3 4zM-63 -396q-5 0 -5 -4t5 -4q3 0 3 4t-3 4zM-153 -328q-3 0 -3 -5
t3 -5t3 5t-3 5zM-129 -244q-3 0 -3 -5t3 -5q2 0 2 5t-2 5zM-129 -358q-3 0 -3 -5t3 -5q2 0 2 5t-2 5zM-106 -386q-2 0 -2 -5t2 -5q3 0 3 5t-3 5zM97 231q-2 0 -2 -2.5t2 -1.5q3 0 3 2t-3 2zM-129 -314q0 1 -3 1t-1 -1q0 -4 2 -4t2 4zM-92 -264h5l-5 6v-6zM-133 -344l4 6h-4
v-6zM-149 -338h6l4 4zM-92 -396q0 2 -2 2t-2 -2q0 -1 2 -1t2 1zM322 -71l4 4h-4v-4zM93 245q-2 0 -2 -2t2 -2q1 0 1 2t-1 2zM75 296v-7q-2 3 0 7z" />
    <glyph glyph-name="m" unicode="m" horiz-adv-x="1094" 
d="M234 14l-17.5 -6t-17.5 -4q-11 0 -23 8.5t-22 11.5q-17 4 -27.5 7t-19.5 25q-4 10 -5.5 25.5t-2 31l-1 30.5t-1.5 24q-11 94 -27.5 186t-27.5 186q-2 20 -5 41t-3 41v1q0 5 3.5 18t4.5 16q3 -2 9 2.5t12 10t10.5 11t6.5 5.5q5 4 16 4.5t19 0.5q6 0 10 -3t7 -7t7 -7t10 -3
q4 0 8 3l9 6.5t11 5.5t14 0q16 -6 22.5 -24.5t11.5 -31.5q2 -3 3 -7t3 -8t3 -9h6q15 18 28 27.5t33 19.5l4 4l-4 6q25 14 59 25.5t61 11.5q32 0 57.5 -14.5t44.5 -36.5t33.5 -47.5t25.5 -47.5t19 -36.5t16 -14.5h2q2 4 11.5 16t11.5 17q6 8 15.5 17.5t13.5 19.5q0 2 -0.5 8
t0.5 6q4 9 17.5 18t30.5 17t34 13t28 5q16 0 32 -4t33 -6h40q2 0 10 -7t10 -7q3 -3 12 -8.5t12 -6.5l-6 -4q18 -13 36 -32t32 -41.5t23 -46t9 -45.5h-4q-2 6 -5 12q-2 5 -5.5 9.5t-5.5 6.5v-2v-2q1 -4 2.5 -11l3 -13.5t3 -12t1.5 -6.5q5 -10 13 -16.5t10 -16.5
q5 -14 9.5 -38t7.5 -50t5 -50t2 -39q0 -1 2.5 -9t2.5 -9t0.5 -6.5t0.5 -13v-14.5v-11v-17.5t-1 -12.5l-5 -5q2 0 4.5 -8.5t4.5 -19.5t3.5 -21t1.5 -13h-40q-3 0 -6 4t-5 9t-3 10t-2 7q12 -4 16.5 0.5t6.5 12.5q-2 -1 -7 -2.5t-6 -2.5h-3h-1q-2 1 -6 4.5t-4 5.5v-41
q-7 -7 -10 -17q-7 17 -4 30q-2 -2 -3 -5t-3 -5h-1h-3l-2 2l-2 2q-8 -5 -15.5 -12.5t-7.5 -18.5h-2l-13 27q-13 -6 -21.5 1.5t-14 20.5t-7.5 26t-2 19h-7v13q-5 35 -10.5 79t-13.5 88.5t-20.5 86t-30.5 73.5q-2 2 -3 6t-3 4h-1q-11 0 -21 -16t-19.5 -35t-17.5 -33t-15 -10
q-15 -22 -22.5 -48.5t-7.5 -52.5v-7q1 3 3.5 8.5t5 12.5t5 12.5t3.5 8.5v12t1.5 16t5 14t11.5 6q2 0 2.5 -1t2.5 -1q-14 -16 -16.5 -37.5t-6.5 -40.5l-8 -27l-9.5 -33.5l-8 -29t-4.5 -13.5q0 -2 -2.5 -15.5t-5.5 -31.5l-6 -37t-5 -30q-2 -17 -9 -21.5t-29 -4.5q-2 0 -4 1
q-4 2 -6 2q-1 0 -6 -5t-7 -5q-3 1 -6 3q-6 4 -8 4q-2 -2 -4 -3q-2 -2 -3.5 -2.5t-1.5 -1.5q-3 -2 -5 -4l-3.5 -3.5t-1.5 -2.5l-9 7q-2 0 -7.5 1.5t-7.5 1.5q-36 5 -61.5 26t-25.5 66q0 17 2 34t2 34q0 81 -20 162t-55 153l-3 3q-1 1 -2 1l-28 -9q1 -3 -2.5 -14t-9 -24.5
l-11 -26.5t-7.5 -20q-3 -23 -4 -46.5t-3 -46.5q-6 -2 -8 -8.5t-2 -9.5q2 -54 -2.5 -106.5t-2.5 -107.5l-4 -7q-2 -14 -3.5 -29.5t-6.5 -26.5q-4 -8 -11 -9t-14.5 -1.5t-13 -3t-5.5 -13.5q-11 0 -16.5 3t-10.5 14zM962 49q-2 0 -2 -5t2 -5q4 0 4 5t-4 5zM1039 49v3h-4z
M939 62q-3 0 -3 -5t3 -5q5 0 5 5t-5 5zM1049 80q-5 0 -5 -4t5 -4q2 0 2 4t-2 4zM1061 85q-3 0 -3 -4.5t3 -4.5q4 0 4 4.5t-4 4.5zM1029 90q5 0 5 -5t-5 -5q-3 0 -3 5t3 5zM1015 99h6q0 7 -6 10v-10zM1039 104q0 2 -3 2t-1 -2q0 -2 2 -2t2 2zM1057 166q-4 0 -4 -5t4 -5
q3 0 3 5t-3 5zM699 225q-2 1 -2 -2.5t2 -1.5q2 0 2 2t-2 2zM709 254q-5 -2 -6 -5.5t-1 -6.5v-8q2 2 4.5 7t2.5 6v3v4zM1057 199q-4 0 -4 -5t4 -5q3 0 3 5t-3 5zM662 351q-5 0 -5 -5t5 -5q3 0 3 5t-3 5zM680 351q-3 0 -3 -5t3 -5q4 0 4 5t-4 5zM685 361q-3 0 -3 -3t3 -3
q3 3 0 6zM722 371q-2 0 -2 -5t2 -5q5 0 5 5t-5 5zM709 375q-3 2 -3 -2t3 -2q2 0 2 2t-2 2zM690 379q-2 2 -2 -1t2 -3q8 4 0 4zM662 385q-5 0 -5 -5t5 -5q3 0 3 5t-3 5zM732 389q-2 0 -2 -5t2 -5q3 0 3 5t-3 5zM746 389q-2 1 -2 -2.5t2 -1.5q3 0 3 2t-3 2zM662 395
q-5 0 -5 -5t5 -5q3 0 3 5t-3 5zM695 395q-3 0 -3 -3t3 -3q3 1 0 6zM680 402q-3 0 -3 -3.5t3 -3.5q4 0 4 3.5t-4 3.5zM752 402q-5 0 -5 -3.5t5 -3.5q3 0 3 3.5t-3 3.5zM666 412q-3 0 -3 -5t3 -5q4 0 4 5t-4 5zM690 412q0 3 -4 0.5t-1 -3.5q2 -2 4 -0.5t1 3.5zM702 417
q-2 0 -2 -4t2 -4q5 0 5 4t-5 4zM271 421q-3 0 -3 -4.5t3 -4.5q5 0 5 4.5t-5 4.5zM671 421q-4 0 -4 -4.5t4 -4.5t4 4.5t-4 4.5zM267 426q-2 0 -2 -4.5t2 -4.5q3 0 3 4.5t-3 4.5zM291 431q-2 0 -2 -2.5t2 -2.5q2 2 0 5zM711 447q-8 0 -11 -5.5t-5 -10.5l-1 -1q0 -2 0.5 -2.5
t0.5 -1.5l10.5 8.5t5.5 12.5zM271 431q6 6 6 10v4h-6v-14zM695 459q-5 1 -8.5 -3t-6 -9t-3.5 -10t-1 -6q4 3 11.5 12t7.5 14v2zM709 435q-5 0 -5 -4.5t5 -4.5q2 0 2 4.5t-2 4.5zM760 435q-3 0 -3 -4.5t3 -4.5q4 0 4 4.5t-4 4.5zM732 441q-2 0 -2 -5t2 -5q3 0 3 5t-3 5z
M295 445q-3 0 -3 -5t3 -5q5 0 5 5t-5 5zM742 455q-5 0 -5 -5t5 -5q3 0 3 5t-3 5zM277 469q-2 -2 -4 -7t-2 -7h4h2q2 0 5 4t5 6q-2 0 -3 2t-3 2h-2h-2zM685 465q-1 1 -4 -1.5t-1 -4.5q8 0 5 6zM770 465q-4 0 -4 -5t4 -5t4 5t-4 5zM722 465q0 1 -2.5 1t-0.5 -1q0 -3 1.5 -3
t1.5 3zM295 475q-3 0 -3 -5t3 -5q5 0 5 5t-5 5zM699 475q-2 0 -2 -3t2 -3q4 2 0 6zM291 489q-2 0 -3 -2.5t-1 -4.5l-2 -2l2 -1zM385 515l-4 -4h1h3l2 2l2 2h-3h-1zM337 525q-2 0 -2 -5t2 -5q3 0 3 5t-3 5zM305 529q-3 0 -3 -4t3 -4q4 0 4 4t-4 4zM347 535q-1 2 -4 -1t-2 -5
q10 0 6 6zM315 535q0 2 -3 2t-2 -2q0 -7 5 0zM656 539q-3 0 -3 -5t3 -5q5 0 5 5t-5 5zM324 549q-4 0 -4 -5t4 -5q2 0 2 5t-2 5zM662 552q-5 0 -5 -3.5t5 -3.5q3 0 3 3.5t-3 3.5zM680 586q-2 1 -2 -2.5t2 -1.5q3 0 3 2t-3 2zM690 596h1h4l4 4zM315 662h4v4zM371 680
q-5 0 -5 -5t5 -5q3 0 3 5t-3 5z" />
    <glyph glyph-name="p" unicode="p" horiz-adv-x="662" 
d="M199 -414q-4 0 -10.5 -3t-4.5 8q-2 0 -5 -2t-5 -2h-3q-4 0 -6 5.5t-5 8.5l-10 -10q0 10 -10 10q-1 0 -6 -3t-7 -7l-5 10.5l-6 13.5t-6 12.5t-6 7.5q4 74 -1.5 148.5t-15 149.5t-21 149.5t-20.5 147.5q-2 13 -2.5 34l-1 43t-2 42t-5.5 31v135q0 2 1.5 5l2.5 5
q7 11 11.5 28.5t12.5 27.5q10 10 24.5 19t31 15.5t33.5 10t31 3.5h7q2 0 8 -2l6 -2q1 0 5.5 1t4.5 3v-4q0 -2 10.5 -3.5t18.5 -2.5h6h8q-5 6 -10 7.5t-9.5 1.5t-9.5 0.5t-10 4.5q1 0 7.5 0.5t7.5 0.5q11 0 18.5 -7.5t15.5 -7.5q4 0 7.5 4.5t5.5 9.5l46 -17l33 -13t19 -8
l3.5 -2l7.5 -4.5t8 -4.5t5 -3h5l107 -52q6 -8 17 -12t21 -12q4 -2 9.5 -5.5t10.5 -7.5q6 -4 12 -9l10 5q3 -6 5 -11.5t5 -12.5l8 5v-14h6q2 -6 5 -11q5 -10 9 -16q0 -2 1.5 -10t1.5 -10v-2v-2q0 -2 -2 -4q-1 -1 -1 -2v-2v-2q0 -3 1 -5t2 -5l3 -12.5t3.5 -16.5t2.5 -14.5
l1 -6.5q1 -34 -4.5 -73t-18 -76.5t-32 -69t-45.5 -49.5q-12 -8 -24.5 -14t-30.5 -6h-1q0 2 -4.5 4t-5.5 2l-4 -1v-9q-6 -2 -11 -4t-10 -3t-9 -1h-4v8h-74q-6 -4 -12 -4.5t-11 -0.5q-18 0 -34.5 2t-35.5 2q0 -20 3 -41q1 -6 4 -28.5t6 -48.5t6 -48.5t3 -28.5q5 -51 3 -101
t6 -100q0 -2 2 -6q1 -2 3 -4q0 -2 -1.5 -4t-3.5 -4l-4 -6q-4 -17 -1.5 -22t2.5 -6t-7 0t-28 -2l-3 -4h-3h-4q-2 3 -4 5q-3 3 -3 5q-5 1 -10 -4t-10 -11t-11 -11.5t-14 -5.5q-5 0 -6.5 2.5t-1.5 6t1 7t1 5.5zM225 -378q0 -5 6.5 -9.5t2.5 -11.5l6 4v34q-1 -2 -7.5 -7t-7.5 -7
v-3zM197 -389q-2 0 -2 -5t2 -5q3 0 3 5t-3 5zM230 -348q-4 0 -4 -3.5t4 -3.5q3 0 3 3.5t-3 3.5zM327 29q5 -2 18 -2t16 2q2 0 6 2q2 1 4 3h1h3q3 0 12.5 -2.5t11.5 -2.5l-9 -5h-56zM344 46q-5 0 -5 -3.5t5 -3.5q2 0 2 3.5t-2 3.5zM455 52q-3 0 -3 -5t3 -5q5 0 5 5t-5 5z
M577 109q-4 0 -4 -4.5t4 -4.5t4 4.5t-4 4.5zM257 194q14 -11 26 -22.5t32 -11.5q22 0 49.5 14.5t51.5 37t41 49t19 51.5q1 22 -8.5 45.5t-25.5 44.5t-36 37.5t-38 24.5q4 6 -10.5 15t-35 18t-40 15t-25.5 6q-2 0 -5 -1.5t-5 -1.5q-2 -5 -3 -18.5t-1 -18.5q-1 -9 -2 -24.5
l-2 -31t-1.5 -28t-0.5 -14.5q0 -4 1 -18.5t3 -33.5t4 -41t4 -41t3 -33.5t2 -18.5h3zM594 455q6 -14 10 -27v27h-10zM618 431q-5 0 -5 -5t5 -5q3 0 3 5t-3 5zM570 459q-4 0 -4 -4t4 -4t4 4t-4 4zM552 498q-3 0 -3 -5t3 -5q5 0 5 5t-5 5zM542 505q-3 0 -3 -3.5t3 -3.5
q5 0 5 3.5t-5 3.5zM534 511q-5 0 -5 -5t5 -5q3 0 3 5t-3 5zM438 578q2 3 12 3h8q3 -1 10.5 -5l15.5 -8.5l15.5 -8.5t10.5 -6l7.5 -5t9.5 -6q5 -4 11 -7v-6q-7 0 -19.5 6.5l-27.5 15l-29 16.5t-24 11zM69 571q-5 0 -5 -4t5 -4q3 0 3 4t-3 4zM124 595h5q3 0 6 0.5t4 5.5z
M133 611q-6 0 -13 -6h8q3 0 6.5 -0.5t4.5 4.5q-1 0 -2.5 1t-3.5 1zM187 615q-5 0 -5 -5t5 -5q2 0 2 5t-2 5zM200 609q0 3 -3 3t-3 -3q2 -2 6 0zM157 615q0 1 -2 1t-2 -1q0 -3 2 -3t2 3zM187 629q2 0 2 -5t-2 -5q-5 0 -5 5t5 5z" />
    <glyph glyph-name="s" unicode="s" horiz-adv-x="423" 
d="M41 41q-2 4 -3.5 8t-3.5 7l7 4q-5 2 -10.5 8t-6.5 12q4 1 3.5 4.5t-0.5 7t2 5t12 0.5q-2 3 -7 14t-7 16v2q0 6 6.5 9t15.5 4.5t18 2t13 0.5q0 4 -1 5t5 4q14 -1 31.5 -0.5t32.5 5.5t25.5 15.5t10.5 30.5q0 27 -13 57t-33 60.5t-43 62t-43 63t-33 62.5t-13 60v22
q8 5 12.5 19.5t10.5 22.5q6 7 12 5.5t11 3.5q-2 4 -7 5.5t-10 -0.5q17 20 41.5 31.5t51.5 17t54.5 7t51.5 1.5q4 0 27 -3t48.5 -8t46 -12.5t20.5 -16.5q0 -1 -2.5 -8t-1.5 -9q2 -11 10.5 -16t13.5 -13q0 -1 0.5 -5.5t1.5 -10.5t1.5 -11.5t0.5 -7.5q0 -13 -12.5 -19.5
t-23.5 -6.5h-7q-2 0 -9 2.5t-8 3.5q0 -8 -2.5 -9t-7.5 -1q-18 0 -34.5 7t-34.5 7h-5q-5 -1 -20 -4.5t-20 -5.5q0 -1 -3.5 -8.5t-3.5 -9.5v-3q0 -12 5.5 -25t13 -25t15.5 -23t13 -19q11 -18 33 -51l44.5 -70t39 -72t16.5 -57q0 -39 -6 -67.5t-20 -50t-37.5 -36.5t-58.5 -27
l4 -4q-16 -5 -35 -7.5t-35 -2.5q-4 0 -25.5 4t-46 9.5t-44.5 12t-20 11.5v4h-24zM326 568q0 2 -6 2t-4 -2q6 -2 10 0zM287 578q-4 0 -4 -5t4 -5t4 5t-4 5zM62 652q0 4 -2.5 4t-0.5 -4q0 -2 1.5 -2t1.5 2z" />
    <glyph glyph-name="v" unicode="v" horiz-adv-x="636" 
d="M308 12q-1 1 -8.5 4.5t-9.5 5.5l-4 5q-2 0 -12 -0.5t-12 0.5q-8 0 -8.5 11.5t-2.5 14.5q-1 0 -2.5 5t-3.5 10.5l-4 10.5l-2 5l-5 3q-14 22 -25 47l-22 50.5t-23.5 49t-28.5 42.5q-3 5 -11 25.5l-19 48.5l-23 60l-23 60l-19 48.5l-10 25.5q-11 22 -21.5 48.5t-10.5 52.5
q0 14 8.5 25.5t21.5 19.5t27 12.5t26 5.5q10 0 24.5 -2.5t28 -7.5t25 -12t16.5 -16q0 -2 3.5 -8.5l7.5 -13.5t8 -13t5 -7q0 -2 2 -3t3 -1q4 -9 11 -31.5l15.5 -52l18.5 -62.5t20.5 -62t20.5 -50.5t19 -28.5l15 14q27 46 46 93.5t32 86.5t20 66t10 32q1 -2 3.5 2.5t5 11
t4.5 13t2 8.5l2 -2q1 0 5 -4t4 -6q2 0 4 2.5t2 3.5q0 2 -2 5t-4 5q6 4 12 11t12.5 13.5t13.5 11.5t16 5h3q-2 -3 -6 -12t-4 -12q2 -2 5 -2.5t5 -0.5h3.5t4.5 1l6 2h5l10 20h3q0 -2 0.5 -3.5t0.5 -2.5l4 -4v-2q0 -6 -5 -14t-9 -11h6q0 -2 4 -6l4 -4q5 0 13.5 7.5t9.5 9.5
l30 -13q3 -2 7 1.5t8.5 8t9 8.5t8.5 5q2 -2 3 -9t1 -8q-1 -5 -4 -13.5t-6.5 -17t-7 -15.5t-5.5 -10l4 -7q-5 0 -9 -4t-5 -9l10 6v-4q0 -7 -6 -14t-8 -12l-6.5 -12.5t-9 -18.5t-9 -18t-5.5 -11q-5 -13 -17.5 -53l-30.5 -93l-39 -112t-42 -109.5t-39.5 -85.5t-31.5 -40
q0 -7 -4.5 -12.5t-13.5 -5.5q-12 0 -27 4t-15 12zM529 644q-3 0 -3 -5t3 -5q4 0 4 5t-4 5zM544 658q-3 0 -3 -3t3 -3q6 4 0 6zM572 668q-3 0 -3 -5t3 -5q2 0 2 5t-2 5zM534 675q-4 0 -4 -3.5t4 -3.5q3 0 3 3.5t-3 3.5z" />
    <glyph glyph-name="h" unicode="h" horiz-adv-x="679" 
d="M22 754q0 1 0.5 5.5t0.5 10t0.5 10.5l0.5 5q0 6 -1 28.5t-1.5 48t-1.5 47.5t-2 27q0 2 1 5.5t1 7t-1.5 5.5t-6.5 2q1 7 4.5 3.5t8.5 -0.5q12 9 18 15.5t11.5 10t14.5 4.5t29 0q16 0 23.5 -3t12 -7.5t9 -9.5t13.5 -9q2 -2 10 -1.5t10 0.5q11 -4 16.5 -12.5t7.5 -19
t3.5 -21.5t4.5 -19l2 -128q6 -19 7.5 -40.5t0.5 -43.5t-2.5 -44t-1.5 -43q1 -21 5 -44.5t2 -46.5q-1 -3 -1 -6.5v-5.5l-5 -4q-1 -8 2.5 -18.5t4.5 -18.5q0 -4 -1 -13t-2.5 -19t-2.5 -19t-1 -12h6l-1 -14q2 1 7.5 4.5t11 8t10 9t5.5 6.5v6q0 2 0.5 4t0.5 4q3 8 7.5 8t7.5 5
q4 6 6 11t3.5 9.5t4.5 8.5t10 7q6 6 7 14q8 0 8 7l1 2q0 2 -2 4t-4 2q2 2 7 11.5t11 11.5l3 -10q1 0 4.5 1.5t5.5 1.5h1h2q2 0 3.5 -1.5t3.5 -2.5l3 3q1 8 -5.5 13.5t-12.5 7.5q8 8 21.5 19.5t28.5 22t30.5 17.5t27.5 7q5 0 6.5 -3t6.5 -4q3 0 5 1t3 2q3 0 5 1q4 2 5 2
q7 -1 17.5 -6t18.5 -6q2 1 5 3q4 4 6 4q39 -2 65 -22.5t42.5 -53t25 -72.5t11.5 -81t2 -78.5t-3 -64.5t-8.5 -52.5t-14.5 -50l-16 -49.5t-13 -51q-8 5 -14.5 0t-8.5 -13l4 38q-1 -2 -3.5 -3.5t-2.5 -3.5h-4q-8 0 -9 7t-0.5 16t0 16.5t-7.5 9.5l-5 -8h6q-1 -16 -8 -33l-4 11
q-2 -5 -6 -18t-7 -16q0 -1 -2 -5.5t-4 -4.5h-1h-3q-1 3 -2 5t-1 5l1 2v2q0 2 2 10t3 10q0 8 -6 12t-11 12q-2 -1 -3 -2q-2 -2 -2 -4l2 -6q2 -6 2 -8v-1q-1 -7 -5 -8t-9 0q-5 0 -6.5 2.5t-2 5.5t-1 6.5t-3.5 5.5l10 10q-4 0 -12 2.5t-11 2.5l-2 2l-4 4h-4q-1 14 -2.5 21.5
t0.5 21.5q1 8 2 13.5t6 13.5q0 3 1 10t1.5 15t1.5 15t1 10q0 5 1 13.5t1.5 17t1 15t0.5 8.5v9.5t0.5 17.5t1 17t0.5 10q0 1 -0.5 17t-2 35t-4.5 34t-9 15t-8.5 -1.5t-4.5 -3t-6 -3t-13 -1.5q0 -7 -2.5 -10t-6.5 -5.5t-8 -4.5t-7 -7v-5q-1 -1 -4.5 -6t-7 -11t-6.5 -12t-3 -7
q-2 -2 -1.5 -12t-0.5 -12q-4 -11 -7.5 -17t-7.5 -11t-8.5 -9.5t-10.5 -11.5q-2 -2 -5 -9.5l-6.5 -16.5l-7 -17.5t-5.5 -12.5q-5 -10 -19 -34.5l-29.5 -51.5l-30 -51t-20.5 -33q-2 -4 -7.5 -13.5t-12.5 -19t-15.5 -16.5t-15.5 -5q-3 0 -12 4t-11 7q-4 -7 -11 -10.5t-13 -3.5
q-8 1 -7.5 10t0.5 12q-7 0 -11.5 -2t-9.5 -1h-4q-2 0 -7 2.5t-7 4.5t-6.5 7.5t-10 11.5l-10.5 11.5t-7 7.5q-1 2 -6 5t-7 6h-5q-5 1 -6.5 7t-1.5 12.5t0.5 11.5t0.5 6q1 78 3.5 155.5t-0.5 154.5zM596 26q-4 0 -4.5 -3.5t3.5 -3.5q2 -1 2.5 2.5t-1.5 4.5zM483 78
q-5 1 -5.5 -3t4.5 -5q3 0 3.5 4t-2.5 4zM268 230q0 2 -2 2t-2 -2t2 -2t2 2zM359 281q-5 0 -5.5 -4t4.5 -4q3 0 3.5 4t-2.5 4zM364 296q-3 0 -3.5 -5t2.5 -5t3.5 5t-2.5 5zM368 300h6l-5 4zM333 315l-1 -1v-3q0 -2 -1.5 -3t-1.5 -3zM380 319q-3 1 -3.5 -4t2.5 -6q5 0 5.5 5
t-4.5 5zM286 327q-3 0 -3 -5t3 -5t3 5t-3 5zM334 335q0 -2 -1.5 -5l-2.5 -5v-3v-1l8 8zM314 336q0 1 -1.5 0t-3.5 -3t-3.5 -4.5t0.5 -2.5q1 0 5.5 3.5t2.5 6.5zM324 336q-2 0 -2.5 -5t1.5 -5q5 -1 5.5 4t-4.5 6zM349 339q-4 0 -4.5 -5t3.5 -5t4.5 5t-3.5 5zM335 349
q0 -2 -1.5 -5.5t-1.5 -4.5q2 2 10 8.5t13 6.5q0 5 -0.5 9.5t-3.5 7.5q-4 -1 -9.5 -4.5t-8.5 -7.5q0 -2 1 -3l2 -4v-2zM292 351q-3 0 -3 -5t3 -5q5 0 5 5t-5 5zM229 364q-3 0 -3 -3.5t3 -3.5q1 3 0 7zM309 360q1 -5 6 -6t8 -1v7h-14zM370 370q-4 -1 -4.5 -4.5t-1.5 -6.5v-3
q0 -2 0.5 -3t0.5 -2q5 9 5 15v4zM379 358q0 -2 2 -4t2 -4q17 14 19 33q-8 0 -16.5 -9.5t-9.5 -14.5zM253 385q-2 0 -2 -2.5t2 -2.5q2 1 2 2.5t-2 2.5zM335 381q-5 1 -5.5 -4t4.5 -6q2 0 2.5 5t-1.5 5zM367 375q0 3 -3 3t-3 -3q0 -2 2.5 -2t3.5 2zM282 394q-3 0 -3.5 -5
t2.5 -5q5 -1 5.5 4t-4.5 6zM326 392q-5 0 -5.5 -5t4.5 -5q2 0 2.5 5t-1.5 5zM380 414q-8 0 -15.5 -11t-7.5 -18q5 -1 11 5l4 -6q7 17 8 30zM289 407q-3 0 -4 -1l-2 -2v-4l-1 -2q2 0 3.5 2t3.5 3v1v3zM348 395q1 3 -1.5 3t-3.5 -3q1 -1 3 -1t2 1zM402 423q-11 -6 -12 -18
l3 -6l4 11.5t5 12.5zM266 412q-4 1 -4.5 -3t3.5 -5q3 0 3.5 4t-2.5 4zM275 418q-2 0 -2 -3t2 -3q5 2 0 6zM425 412q-3 0 -3.5 -5t2.5 -5q5 0 5.5 5t-4.5 5zM364 418q-3 1 -3 -4t3 -6q5 0 5 5t-5 5zM290 421h4l1 6zM346 425q-3 0 -3.5 -5t2.5 -5q4 0 4.5 5t-3.5 5zM379 424
q2 0 2 -1.5t1 -1.5l3 3h2q2 0 2 3v1l1 2zM351 429l6 3h-5zM413 429q-2 1 -2.5 -2.5t1.5 -4.5q5 0 5.5 3.5t-4.5 3.5zM366 438q-3 1 -3.5 -4t2.5 -6q5 0 5.5 5t-4.5 5zM293 449q-5 1 -5.5 -3t4.5 -5q3 0 3.5 4t-2.5 4zM397 445q-5 0 -5.5 -4t4.5 -4q3 0 3.5 4t-2.5 4z
M287 455q5 -1 4.5 -6t-5.5 -4q-3 0 -2.5 5t3.5 5zM377 451q-3 0 -3.5 -5t2.5 -5t3.5 5t-2.5 5zM424 449q-2 0 -2.5 -5t1.5 -5q3 0 3.5 5t-2.5 5zM342 465q-2 1 -3.5 -1t-3.5 -2v-1v-4zM368 460q-3 1 -3.5 -3.5t2.5 -5.5q5 0 5.5 4.5t-4.5 4.5zM429 453q1 3 -4 3t-3 -3
q-1 -2 2.5 -2t4.5 2zM344 479q-5 1 -5.5 -3t4.5 -5q2 0 2.5 4t-1.5 4zM351 489q-3 0 -3 -5t3 -5q4 0 4 5t-4 5zM360 536q-1 0 -6 -4.5t-6 -5.5h3q4 0 7 1.5t7 8.5h-2h-3zM372 550q-4 0 -4.5 -4.5t3.5 -4.5q3 -1 3.5 3.5t-2.5 5.5zM397 564q-5 0 -5.5 -5t4.5 -5q3 -1 3.5 4
t-2.5 6z" />
    <glyph glyph-name="e" unicode="e" horiz-adv-x="640" 
d="M104 154q-5 12 -12 25t-20 18q-22 34 -36.5 65.5t-20.5 63t-4 64.5t13 69q7 25 12.5 51t18.5 49q20 30 48.5 55t62.5 43t70.5 28t72.5 10q2 0 8 -1.5t12.5 -3.5t12 -3.5t7.5 -1.5q7 -2 9 -4t3 -5t2.5 -5.5t8.5 -4.5q2 0 11.5 -2t11.5 -2q5 -1 14.5 -4.5t20 -8.5t19 -10.5
t11.5 -9.5q2 -2 3 -8t2 -6l3 -1l2 1q2 0 3 3t1 4l6.5 -1.5t13 -3.5t11.5 -5.5t2 -6.5l30 -29q-2 0 -2 -2t2 -2q1 -2 11 -6t11 -4q7 -20 15.5 -39.5t8.5 -42.5q0 -14 -5.5 -27t-8.5 -27q-1 -2 -2.5 -11.5t-2.5 -12.5q-2 0 -3 -1l-2 -2q-1 -2 -9 -7.5t-10 -6.5q-1 -2 -5 -6
l-9 -9t-9 -9.5t-4 -5.5q-22 -15 -49 -22t-56 -10t-58 -3t-55 -1q-5 0 -11.5 -0.5t-13.5 -1.5q-8 -1 -17 -2v-10l9 -15l8 -12.5t7 -10.5q20 -29 47.5 -51.5t55.5 -41.5q3 -3 13 -7l20.5 -8.5l19 -8t10.5 -5.5h19q12 0 26 6l28.5 12.5t27 11.5t20.5 2q1 0 3 -4t2 -6q2 2 8.5 6
t9.5 4q2 0 7 -3.5t6 -6.5l-13 -13q2 0 3 -2t3 -2v-4v-1q-3 -2 -10.5 -7.5t-9.5 -6.5l-2 -2l-2 -2q1 -2 2 -3q0 -1 0.5 -1t0.5 -1t1 -1q0 -2 -2 -5t-2 -5q2 3 11.5 6.5t12.5 3.5q2 0 5 -1q2 -1 4.5 -1.5t4.5 -1.5q1 -2 4.5 -3t5.5 -3v-2v-2l-30 -27h6l37 24h4
q-3 -3 -9.5 -11.5t-6.5 -16.5l-10 -5.5l-22 -12.5t-22 -13.5t-10 -7.5q4 2 9 0.5t6 -3.5q-8 -4 -22.5 -9.5l-30 -11t-29 -9.5t-19.5 -4q-18 0 -34 2t-32 2h-3q-1 0 -4.5 -2t-5.5 -2h6q-8 6 -19 9t-23.5 5t-25 4.5t-22.5 5.5q-6 1 -15.5 4l-19.5 6l-17 5t-8 2
q-32 14 -61 36.5t-52 49.5q-4 4 -10.5 13.5t-13.5 13.5h-4zM559 117q-4 0 -4 -5t4 -5t4 5t-4 5zM527 375q0 2 -3.5 2t-3.5 -2q3 -4 7 0zM559 412q-4 0 -4 -5t4 -5t4 5t-4 5zM253 461q13 0 25.5 -3t23.5 -3q16 0 28.5 1t32.5 3q8 5 11 19t3 22q0 11 -5.5 21t-17.5 10
q-8 0 -25 -7t-34 -17.5t-29.5 -23t-12.5 -22.5zM263 502q16 14 32.5 27t37.5 16q0 5 -4.5 4.5t-6.5 -0.5h-7q-8 -2 -18 -7t-10 -7v-10zM493 605q-1 0 -1 -2.5t1 -2.5q2 1 2 3t-2 2zM474 615q-3 0 -3 -5t3 -5q4 0 4 5t-4 5zM447 629q-3 0 -3 -5t3 -5q2 0 2 5t-2 5zM457 629
q-5 0 -5 -5t5 -5q2 0 2 5t-2 5z" />
    <glyph glyph-name="six" unicode="6" horiz-adv-x="699" 
d="M34 354q0 23 5.5 45.5t6.5 45.5q3 33 12 76.5t22 91t30.5 96.5t38.5 93t45 79.5t50 56.5q8 5 18 10t18 5q14 0 21.5 -3.5t22.5 -1.5l70 -28q15 -5 19.5 -23t4.5 -29q0 -17 -7.5 -35t-18 -36t-21.5 -34.5l-19 -29.5v-7q0 -1 -4.5 -10t-4.5 -13q-16 -35 -34 -85
t-33.5 -103.5t-25.5 -105.5t-10 -89q5 0 9 2.5t8 4.5q21 13 47 26.5t54 24.5t55.5 18.5t51.5 7.5q23 0 60 -8.5t71.5 -24.5t59.5 -39t25 -51q0 -13 -3.5 -26.5t-11.5 -24.5l10 4v-2v-2q0 -1 -4.5 -5t-5.5 -4q6 -2 5.5 -7t-0.5 -7q0 -11 -3.5 -16.5t-8 -9t-9.5 -7t-8 -10.5
q-2 -7 -7.5 -18t-13 -22t-17 -19t-18.5 -8v4q-15 0 -27 -17l3 -4q-11 -3 -24 -10l-27 -15l-28.5 -16t-27.5 -12l-4 -2q-2 -1 -6 -1q-16 -11 -31.5 -10.5t-32.5 -3.5l4 -6q-3 0 -11 -0.5t-17 -1.5t-17.5 -1.5t-12.5 -0.5h-3q-32 0 -65.5 9.5t-64.5 26t-58 38.5t-46 47
q-18 24 -29 52.5t-17 59.5t-8 62t-2 59zM562 121q-2 0 -2 -5t2 -5q5 0 5 5t-5 5zM615 131q-1 1 -4.5 -1.5t-1.5 -2.5q4 -2 6 0t0 4zM310 140q2 -1 9 -3t8 -2q19 2 42 9.5t44 19.5t37.5 29t24.5 37q-2 0 -5.5 2t-4.5 2q-17 0 -39.5 -10t-45 -24.5t-41.5 -30.5t-29 -29z
M632 174q-4 0 -6.5 -4.5t-0.5 -10.5h2h2q2 1 5 6.5t5 8.5h-7zM652 244q-5 -14 -7.5 -23.5t-2.5 -23.5v-10q3 6 10 18t7 20q0 5 -2 9zM662 197q-2 0 -2 -3t2 -3q2 4 0 6zM475 244q-5 0 -5 -5t5 -5q3 0 3 5t-3 5zM666 271q-3 0 -3 -5t3 -5q4 0 4 5t-4 5zM662 281h4l-4 20v-20z
M244 315q-3 0 -3 -5t3 -5q2 0 2 5t-2 5zM347 371q-5 0 -5 -5t5 -5q3 0 3 5t-3 5zM361 375q-3 0 -3 -5t3 -5t3 5t-3 5z" />
    <glyph glyph-name="l" unicode="l" horiz-adv-x="296" 
d="M144 2q-1 0 -2.5 -0.5t-3.5 -0.5q-3 -1 -5 -1l-2 -3q-15 1 -13.5 8.5t2.5 13.5q-9 0 -12.5 -1.5t-6 -3.5t-5.5 -3.5t-12 -1.5h-5q-1 0 -2 1q-1 2 -4 6t-5 4q-1 0 -4 -0.5t-4 -1.5q1 13 -3 25t-2 24q0 3 1 6.5t5 4.5q-4 2 -5.5 9t-1.5 12l-5 207q-2 1 -4 4.5t-1 5.5
q0 1 1 6.5t2 12t1.5 12t-0.5 5.5q0 4 -0.5 16.5t-1 27t-1.5 27t-2 16.5v4l-1 102q1 2 -1 9t-2 9v2q0 1 0.5 1.5t0.5 1.5q0 5 -0.5 25t-1.5 43t-2 43t-1 25q0 9 0.5 28l1 39.5t1 37.5t1.5 23q2 26 13.5 48t29 37.5t40.5 23.5t49 6q42 -3 60 -20t23 -42.5t1.5 -57t-4.5 -61.5
q0 -9 -1 -27t-1.5 -36t-0.5 -32t1 -17q0 -11 0.5 -38t1.5 -57.5t2.5 -57.5t1.5 -37l-1 -6l8 -229q-3 -21 -3.5 -41.5t0.5 -41t1 -41.5t-2 -42v-2q0 -3 -1.5 -9.5l-3 -13l-3 -12.5t-1.5 -8q-2 -2 -5 -2h-5h-1h-4q-2 0 -3 1q-2 2 -2 3q-18 1 -24 -4t-9 -12t-7 -12.5t-17 -4.5
q-10 1 -15 7.5t-13 7.5zM193 19q-5 0 -5.5 -5t4.5 -5q3 0 3.5 5t-2.5 5zM146 25q-4 0 -4.5 -5t3.5 -5q2 0 2.5 5t-1.5 5zM66 34q-4 1 -4 -2.5t4 -4.5q2 0 2 3.5t-2 3.5zM187 26q2 1 3.5 2.5t3.5 2.5v3l1 2zM196 50q-5 0 -5.5 -4.5t4.5 -4.5q3 0 3.5 4.5t-2.5 4.5z" />
    <glyph glyph-name="a" unicode="a" horiz-adv-x="696" 
d="M447 37q-14 0 -24.5 17.5t-16.5 33.5q-4 -2 -11.5 -7.5l-15.5 -11.5t-14.5 -12t-9.5 -7q-4 -2 -13.5 -7.5t-21 -11t-21.5 -11t-14 -7.5h-24q-14 0 -24.5 5t-23.5 5h-2q-2 0 -5 -2.5t-5 -4.5v7q-2 -2 -5 -4.5t-5 -2.5q-34 0 -59 17.5t-42.5 45.5t-29 63t-18 71t-9 69
t-2.5 56q0 1 2.5 11t4.5 11q12 70 29.5 127t50 98t84.5 63.5t132 22.5q4 0 15.5 -1.5t24.5 -4t23 -5.5t11 -5l41 -7q2 -2 4 -5t2 -5q0 -1 -1 -2.5t-2 -3.5q-2 -2 -3 -4q0 -3 15 -3.5t33.5 -4t33.5 -13.5t15 -32h10q2 0 5 -10.5t5 -16.5q15 -36 18.5 -77t3 -83.5l-1 -85
t6 -80t23.5 -69.5t53 -54q-1 -2 -7 -6l-6 -4q-7 0 -7 -7l2 -2q1 -1 5 -1q2 0 13 -1t14 -1v-2q0 -2 -7.5 -5l-12.5 -5q-5 -3 -9.5 -2.5t-4.5 -7.5t9.5 -9.5t14.5 -9.5q-11 -3 -17.5 -8.5t-19.5 -5.5q-11 0 -22 7.5t-25 7.5q-2 0 -5 -0.5t-5 -0.5l38 -17q0 -5 -5 -10t-12 -8.5
t-13.5 -5t-10.5 -0.5q-12 1 -19.5 3.5l-14.5 5t-14.5 4t-20.5 1.5h-1q1 -3 3 -7.5t2 -9.5q-5 0 -15.5 4.5t-21.5 10.5t-20.5 12.5t-10.5 9.5l2 4zM234 328q1 -39 5 -69q3 -26 9 -47.5t16 -21.5q11 0 13.5 10.5t7.5 19.5q8 14 17.5 21t16.5 20q4 14 6.5 30t10.5 27l-8 -4
l-2 4q0 5 2.5 8.5t7.5 1.5q10 12 16.5 32t10 42.5t4.5 44.5t1 37q0 8 -1.5 23.5t-1.5 17.5l-10 23h-4q-33 0 -55 -25.5t-36 -61t-20 -73t-6 -60.5zM305 234q-5 0 -5 -5t5 -5q3 0 3 5t-3 5zM632 65q-4 0 -4 -5t4 -5q3 0 3 5t-3 5zM496 12q-5 0 -5 -3.5t5 -3.5q2 0 2 3.5
t-2 3.5zM435 110q-1 -2 -1 -4t-2 -5q9 0 7 5zM425 106q-4 -1 -8 -4q2 0 4 -0.5t4 -0.5v5zM435 120q0 3 -2.5 3t-1.5 -3q0 -1 1.5 -1t2.5 1zM586 60h3l-3 5v-5z" />
    <glyph glyph-name="z" unicode="z" horiz-adv-x="575" 
d="M48 110q4 15 11.5 28.5t16.5 27.5l1 4q34 76 82 147t90 141q2 20 14 36.5t16 36.5v1q0 1 0.5 1.5t0.5 1.5q0 2 1 4q-15 -5 -25 -4.5t-24 0.5q-6 -1 -15 -1t-18 -1q-11 -1 -22 -1l-6 -5l8 -6q-9 -1 -13 -1.5t-7.5 -1t-8 0t-13.5 2.5l-7 2q3 0 13.5 0.5t12.5 5.5v2
q-14 -2 -33.5 -0.5t-33.5 3.5q-1 0 -14.5 8.5l-29.5 18t-29 18t-14 8.5l1 4q0 1 -0.5 1.5t-0.5 2.5q-1 1 -1 3l7 34l-8 9q1 0 1 1t1 2t2 3q10 3 17 6.5t14 6.5l14.5 6t18.5 6q32 6 65.5 4.5t62.5 2.5q36 4 65.5 6.5t57 3t56.5 -2.5t65 -10q7 -2 12.5 -4.5t11.5 -3.5l2 -1h14
q9 -2 18 -15t15 -30t9 -34t1 -27q-11 -49 -30 -94t-43 -88t-51.5 -85l-54.5 -84q-3 0 -9 -9.5t-12 -21t-11 -22.5t-6 -15q23 -5 48 -2.5t50.5 6.5t49 6.5t43.5 -1.5q3 -1 10.5 -3t14.5 -5t12 -6t5 -5q-8 -2 -13.5 -6t-13.5 -3q4 -2 4 -5v-6q-2 -6 -8 -10t-13 -6t-13.5 -3
t-8.5 -2l-7 -32q11 2 32 3.5t37 -2.5q0 -2 -0.5 -4t-1.5 -2q-32 -20 -66 -35t-74 -23h-10t-17 -0.5t-16.5 -2t-7.5 -4.5l-4 4q-5 -4 -14.5 -6t-12.5 -2l15 -3l-1 -7l-16 2q-7 1 -13 1.5t-11 2.5q-22 2 -45 0.5t-45 3.5q-24 5 -52.5 13.5t-52 22.5t-36.5 35.5t-6 53.5z
M451 63q-2 0 -2.5 -3t1.5 -3q2 -1 2.5 1.5t-1.5 4.5zM507 51q-3 1 -4 -4t2 -6q5 -2 6 3t-4 7zM504 108q-1 3 -4 1t-1 -4t4.5 -0.5t0.5 3.5zM480 113l3 -1h1q3 2 7 2t5 2l3 2l-3 2z" />
    <glyph glyph-name="y" unicode="y" horiz-adv-x="695" 
d="M482 -461l-2 2q-1 0 -1 1l-3 3l-2 -2q-1 -1 -2 -1q-1 -1 -2 -1q-1 -1 -1 -2q5 -2 5.5 -4t0.5 -6q0 -3 -3.5 -6t-8.5 -5t-10 -2.5t-8 -0.5q-1 1 -2 3t-2 3.5t-1 3.5v2v2q1 2 2.5 7.5t2.5 5.5q-1 3 -8 3q-4 0 -7 -3.5l-6 -7t-7 -6.5t-8 -3q-11 1 -22.5 14t-11.5 21
q0 18 8.5 36.5t8.5 35.5l-2 2q-1 1 -1 5v1v2q3 6 6.5 27l7.5 45t6.5 46.5t2.5 31.5q-1 3 -2 5t-1 5l3 8q2 4 3 9t1 7l-4 4q0 10 1 31t2.5 44t4 43t6.5 28v111q0 2 -11 8t-16 9h-7l-3 3q-2 0 -5 -1.5t-5 -1.5q1 1 -16 17l-43.5 41l-58 54l-60.5 56l-51 47.5t-29 27.5
q-5 4 -17 16l-25.5 25.5l-25.5 25.5t-16 17q-1 1 -4 6l-6 10.5l-6 10.5t-4 7l-3 7h10q0 5 -0.5 12.5t0.5 15t4 13t9 7.5q5 2 8.5 5t6.5 6.5t7 6.5t11 4q13 7 29.5 7h31.5q22 0 46 -1.5t44 -18.5q44 -43 83.5 -87t84.5 -87q-2 -3 4.5 -11.5t15 -17.5t16.5 -16.5t10 -10.5
l10 10q-2 53 -1 91t2.5 73t2.5 72.5t0 90.5q2 32 11.5 58.5t41.5 41.5h13h8t13 0.5t13.5 1.5t9.5 2q5 -8 11.5 -5.5t15.5 1.5q8 -2 20 -7t23 -12.5t19 -17t8 -20.5v-93q-2 -2 -3 -9t-1 -8q0 -7 1 -23t3 -21q-5 -124 -9 -247t-15 -247q-1 0 -2 -6t-1 -8q-5 -54 -6 -107
t-9 -108q0 -5 -3.5 -11.5t-5.5 -11.5h9q-5 -35 -12.5 -72t-7.5 -68h2q0 -11 -4.5 -22t-5.5 -21q0 -5 -2 -18.5t-2 -18.5q-9 -2 -13.5 -10.5t-6.5 -13.5l10 -6l-20 -9l-2 2q-1 1 -1 3q-8 12 -11 21.5t-3 25.5l-10 -6l4 -4q-9 -11 -11 -21.5t-5 -19t-11 -14t-30 -5.5q0 9 4 17
t6 16v2v2zM489 -441q-5 0 -5 -5t5 -5q2 0 2 5t-2 5zM385 -438q-3 0 -3 -2.5t3 -0.5q1 0 1 1.5t-1 1.5zM479 -434q-5 0 -5 -3.5t5 -3.5q2 0 2 3.5t-2 3.5zM511 -428q-4 0 -4 -5t4 -5q3 0 3 5t-3 5zM535 -414q-5 0 -5 -5t5 -5q3 0 3 5t-3 5zM535 -324q-5 0 -5 -5t5 -5q3 0 3 5
t-3 5zM426 -76q-4 0 -4 -5t4 -5t4 5t-4 5zM426 107q-4 0 -4 -5t4 -5t4 5t-4 5z" />
    <glyph glyph-name="semicolon" unicode=";" horiz-adv-x="344" 
d="M82 -268q-1 -5 -5 -5.5t-6 -0.5q-13 0 -13 10q0 18 5.5 35.5t11.5 34.5t11.5 34.5t5.5 36.5v5q-1 5 -2 18t-1.5 27.5t-1 27t-1.5 17.5q-5 5 -7.5 15t-4 20.5t-2 20t-0.5 14.5q0 13 11 32.5t26.5 38t33 33t29.5 18.5h7q1 0 7 0.5t12.5 1.5l12.5 2t8 2h2q25 0 42.5 -18.5
t28.5 -45t16 -54.5t5 -46q0 -21 -2.5 -52.5t-9 -63.5t-19 -59.5t-31.5 -41.5l-5 3l-35.5 -34.5t-38.5 -28.5q-2 -3 -4 -3h-4q-16 0 -16 16q-11 -9 -25.5 -16t-28.5 -7q-5 0 -10.5 0.5t-1.5 12.5zM82 60q-4 0 -4 -4.5t4 -4.5q3 0 3 4.5t-3 4.5zM109 114q5 0 5 -5t-5 -5
q-2 0 -2 5t2 5zM50 324q0 24 11.5 47t30 41.5t42.5 30.5t49 14q12 2 17.5 -2t13.5 -8q16 -6 24.5 -10t13.5 -8.5t7.5 -12t7.5 -20.5q0 -1 4 -7.5t6 -6.5l0.5 -4.5t1 -9.5l1 -10t0.5 -8v-4v-2q-3 -5 -5 -16.5t-5 -22.5t-7 -19.5t-10 -8.5t-11 3.5t-10 3.5t-7 -4t-6.5 -8.5
t-12.5 -8t-23 -3.5h-6q-2 0 -12 2t-11 2q-3 -1 -5 -2q-1 -1 -3 -1q-1 0 -2 -1q-1 -2 -3.5 -2t-4.5 -1q-3 -1 -6 -1q-32 0 -56 17t-24 51z" />
    <glyph glyph-name="d" unicode="d" horiz-adv-x="744" 
d="M252 -15l-10.5 5t-8.5 3l-5 -5q-1 0 -2.5 -0.5t-3.5 -0.5h-4l1 9q-2 1 -6.5 0t-6.5 1q-2 0 -4 2q-1 1 -2 3l-3 1l-39 28l-4 1q-23 10 -45 24.5t-38 34.5q-1 2 -1 4t-0.5 3.5t0.5 3.5l-7.5 7.5l-7.5 7.5l7 3q-8 -2 -12 8.5t-6.5 24.5t-3.5 27.5t-2 17.5q-4 22 -7 48.5
t-1 52.5t10.5 49t28.5 38q4 9 12.5 19l16.5 19.5t14.5 18t7.5 15.5q1 2 -1.5 4t-4.5 3q20 7 32 19.5t28 23.5l-11 1q1 5 8 11.5t16 12.5t17.5 9.5t12.5 2.5l3 -7h4h2q2 -1 7.5 2.5t7.5 5.5q0 -1 2 1q1 1 2 1l-6 8q2 2 9 3.5t10 3.5h4h2l-8 -10q14 14 28.5 15.5t31.5 3.5
q5 1 15 2.5t20 3.5l18 3.5t10 1.5h3q2 0 2.5 -0.5t2.5 -0.5q17 -2 35 -6.5t35 -9.5q4 -1 10 -6.5t11 -6.5t6 3t2 7q3 18 1 45t-5 56t-6.5 55.5t-3.5 43.5q-1 8 -1.5 27t-1 40.5t-1 40.5t-0.5 28v6q0 2 0.5 3.5t0.5 2.5q2 15 8 25.5l14 24.5q14 -1 22 1.5t15.5 5.5t17.5 5
t30 -1q5 -1 17.5 -2.5t15.5 -2.5q6 -9 15 -13.5t18 -8t17 -8t11 -12.5q11 -50 10 -102.5t1 -103.5q2 -1 4 -6.5t1 -7.5q0 -8 1.5 -29t3.5 -45t4 -45.5t3 -30.5q6 -9 6.5 -20t0 -23t-1.5 -23.5t1 -21.5v-294q-4 -14 0.5 -26.5t2.5 -26.5q-2 -8 -5 -10t-4 -10t2 -19.5t7 -22
t7.5 -18t3.5 -8.5q-1 -8 -5 -10.5t-11 -7.5q2 -1 6 -9l5 -10v-3q-5 0 -7.5 -3t-4.5 -7.5t-3 -9t-1 -6.5q-6 1 -8.5 4t-5 6.5t-5 6.5t-7.5 4h-3q-1 -1 -2 -3t-2 -3.5t-1 -2.5q0 6 -4 11l-8.5 10.5t-7 10t1.5 9.5l-10 -5v-9q0 -10 1 -14q1 -1 1 -2q0 -2 1 -3l2 -4
q-10 -15 -23 -12q-17 3 -22 22q-2 0 -5.5 -2t-5.5 0q-2 0 -4 7t-4 8q0 2 -1 3t-2 1q-1 1 -8 -0.5t-8 -0.5h-3q-3 0 -7 6.5t-7 15t-5 16t-2 10.5q-10 1 -17 15.5t-10.5 33t-3.5 36.5t3 27q-12 -6 -22.5 -17l-21 -23l-21.5 -23.5t-24 -19.5q0 -2 1.5 -4t3.5 -2l4 2q2 1 3.5 1
t3.5 1q1 2 9 8t10 8l-1 -10q-1 -2 -13 -10.5t-18 -13.5q-9 -5 -19 -7.5t-20.5 -5.5t-19.5 -7.5t-16 -11.5q5 2 11 3t14 3l-1 -4q-1 -7 -7 -9t-13 -3t-13.5 -3t-7.5 -9l8 -1q3 0 15 3l25 6.5t24.5 7.5l14.5 5l-13 2q0 2 2 2.5t2 2.5q4 2 18.5 10.5l30.5 18.5l28.5 17.5
t13.5 7.5q-1 -6 -6 -13t-11 -14t-12 -12.5t-8 -7.5q-11 0 -17 -4.5t-10 -10l-7.5 -10t-8.5 -3.5l1 5q-8 1 -12.5 -3t-7.5 -8.5t-6.5 -8.5t-9.5 -3q-2 0 -4.5 0.5t-4.5 4.5q-3 -6 -8.5 -7.5t-11 -2.5t-10 -3t-5.5 -9q0 1 -3.5 6t-5.5 5q-4 1 -7.5 -2t-8 -6.5t-10 -6
t-14.5 -0.5q0 5 -3.5 6t-6.5 2q-5 1 -9.5 0.5t-3.5 -8.5l-5 4q-6 -4 -8 -2h-6zM210 4q-2 0 -2.5 -3.5t1.5 -3.5q3 -1 3.5 2.5t-2.5 4.5zM318 23q-2 0 -3.5 -2.5t-3.5 -1.5l11 3h-1zM379 23q4 -1 3 -5.5t-4 -3.5t-2.5 5.5t3.5 3.5zM627 -2q-3 0 -4 -5t2 -5q5 -1 6 4t-4 6z
M559 18q-2 0 -2.5 -3t1.5 -3q7 -2 1 6zM568 20q-3 1 -3.5 -4t2.5 -6q5 -1 5.5 4t-4.5 6zM690 3q-5 1 -5.5 -4t4.5 -6q3 -1 3.5 4t-2.5 6zM650 19q-4 0 -4.5 -5t2.5 -5q3 -1 4 4t-2 6zM695 12q-3 1 -3.5 -4t2.5 -6q5 -1 5.5 4t-4.5 6zM453 60q-5 1 -6 -4t4 -6q2 0 3 5t-1 5z
M236 152l21 -26.5t25 -12.5q6 -2 11 -2l65 20h4q7 6 14 11q6 5 12 9t10 8q2 1 8 5.5t12.5 10l11.5 10t7 5.5l5 5q2 1 3.5 3.5t3.5 3.5l3 -4v-2v-3q-2 -2 -5 -4q-5 -3 -7 -3v-4q2 0 11.5 -2t11.5 -2q1 -1 9 -5t10 -2q7 2 11.5 14t6.5 20q0 3 1.5 7.5t-3.5 6.5l7 48l-3 142
q0 20 -2 29.5t-19 12.5q-70 14 -127.5 -8.5t-93 -67.5t-44 -104.5t19.5 -118.5zM426 116q-2 3 -5 0.5t-1 -4.5t5 0t1 4zM48 197q-3 0 -3.5 -3.5t2.5 -3.5q3 2 1 7zM433 134q-3 0 -3.5 -5t2.5 -5q4 -1 5 4t-4 6zM443 136q-3 1 -3.5 -2.5t2.5 -4.5q5 -1 5.5 2.5t-4.5 4.5z
M657 106q-4 0 -4.5 -3.5t3.5 -3.5q4 -1 4.5 2.5t-3.5 4.5zM45 214q-2 2 -2.5 -2t1.5 -2q3 0 3.5 1.5t-2.5 2.5zM450 141l5 4h-4zM436 153q-3 1 -4 -4t2 -6q5 0 6 4.5t-4 5.5zM466 153q-5 1 -5.5 -4t4.5 -6q2 0 2.5 5t-1.5 5zM43 235q-4 0 -4.5 -5t3.5 -5q3 -1 4 4t-3 6z
M489 160q3 -1 2.5 -6t-3.5 -4q-4 1 -3.5 6t4.5 4zM693 135q-2 -8 5 -9v2v2q0 1 -1 4.5t0 5.5q-1 -2 -2.5 -3t-1.5 -2zM434 172q-2 1 -2.5 -2.5t2.5 -1.5q2 -1 2 1t-2 3zM448 170q-3 0 -3.5 -4t2.5 -4q5 -1 5.5 3t-4.5 5zM471 166q-2 1 -2.5 -3t1.5 -4q4 -1 4.5 3t-3.5 4z
M41 258q-1 1 -2 -5t1 -4q3 1 3.5 4t-2.5 5zM39 269q-2 0 -2.5 -2.5t1.5 -2.5q3 0 1 5zM40 296q-5 1 -6 -4t4 -6q2 -1 3 4t-1 6zM202 532q-4 1 -4.5 -3.5t2.5 -5.5q2 0 3 4.5t-1 4.5zM462 537q3 -8 11.5 -10.5t16.5 -3.5q2 10 -4 10.5t-11 1.5q-6 2 -13 2zM489 558
q-3 0 -3.5 -5t2.5 -5q3 -1 3.5 4t-2.5 6z" />
    <glyph glyph-name="g" unicode="g" horiz-adv-x="736" 
d="M702 -63q-2 0 -2 -3.5t2 -3.5h1v-44q0 -1 1.5 -4.5t1.5 -5.5q3 -3 3 -2v-1h-13q0 -4 -2.5 -18t-6.5 -30t-7.5 -28.5t-5.5 -13.5l5 -5q-4 -3 -10.5 -13.5l-13.5 -21l-12.5 -19t-6.5 -8.5q2 -4 6.5 -4.5t7.5 1.5q-8 -8 -10.5 -15t-6 -14t-10.5 -13t-24 -11l4 -4
q-17 -10 -36.5 -23.5t-41.5 -13.5q-1 -1 -1 -2q0 -3 1 -4q0 -2 3 -5t5 -4q-9 2 -16.5 -1.5t-14.5 -8.5l-13.5 -9.5t-15.5 -4.5q-5 0 -8.5 3t-8.5 3q-8 0 -8 -6t-3 -7q-2 -2 -8.5 -3.5t-11.5 -3.5h-4q-4 -1 -16.5 -3.5l-26.5 -5.5l-26.5 -5.5t-16.5 -2.5q-4 -2 -14.5 -4
t-11.5 -2q-2 0 -7.5 2t-6.5 4l50 7l-4 7q-22 -2 -47 -0.5t-50.5 7t-48.5 15t-41 23.5h14l-2 2q-3 3 -5 3q-2 4 -12.5 9l-14.5 7l5 4l-5 3h5q8 0 15.5 -1.5t15.5 -1.5q0 1 -4.5 5.5t-11 9t-13.5 8.5t-11 4q1 1 1.5 8.5t0.5 16t-0.5 15.5t-0.5 9q0 8 -3 11.5t-10 7.5l4 4h1
q13 0 19.5 -7.5t18.5 -7.5l4 -8q2 1 5 4.5t5 5.5v1q0 6 -3.5 12.5t-3.5 11.5v8q1 -1 16 -4l33 -6.5l34.5 -6.5t20.5 -3q24 0 56 8.5t62.5 23.5t56 35.5t36.5 45.5q8 15 20 30.5t12 30.5v14l-6 8q0 9 1.5 13.5t3.5 8t3.5 7t1.5 9.5q0 3 0.5 8t-4.5 6q1 18 1 19t-1 -1t-3 -1.5
t-5 17.5q-2 12 -4.5 35t-7 48t-11 47.5t-15.5 32.5l-18 -18l-6 5q-3 3 4 10t13 14q-23 -19 -40 -35l-37 -36v-6q-2 -6 -7.5 -8.5t-11.5 -4t-10.5 -5t-4.5 -11.5v-2q2 0 7.5 2t6.5 2q12 2 20.5 10t16 18.5l14.5 20.5t15 17l4 -5q6 -5 -7.5 -19l-30.5 -30.5t-31 -33t-9 -25.5
q-6 -2 -18 -4.5t-24.5 -5.5t-23 -7t-14.5 -9h28q-7 -7 -19 -10.5t-22 -3.5l-7 3q-1 0 -13 3.5t-14 3.5q-1 0 -5 -2q-2 -1 -4 -1h-9q-16 0 -28 7.5t-23 16.5t-23.5 16.5t-28.5 7.5l-23 24l-18 22.5t-12 22.5q-1 3 -2 12.5t-8 11.5q-8 35 -10 68t-2 71v53q0 3 1 5q2 4 2 5
q3 17 6 37t6.5 40t9.5 38.5t15 33.5q4 5 15.5 18l24.5 27t24 27t16 18q13 15 25.5 24t25.5 16t28 12.5t34 13.5l4 10q21 -2 44.5 1t43.5 3q49 0 90 -11.5t86 -32.5q6 -3 14.5 -8t16.5 -10.5l16 -10.5t14 -7h5q10 -15 14 -36t4 -43t-1 -43.5t1 -37.5q5 -47 15.5 -92l22 -90.5
l22.5 -91t16 -92.5h-5q-2 3 -3 5q-2 4 -2 5l-4 -1q0 -2 0.5 -6t2 -8t4.5 -6t7 2q5 -20 8 -41t-1 -44q2 0 2 1q0 -8 -0.5 -15t-0.5 -15h-1zM240 174q0 -7 4 -7h3q3 3 8 8.5t12 11t14 10t14 4.5q2 2 7 8l10 12.5t9.5 13t5.5 9.5q2 2 7.5 11.5t6.5 11.5q6 7 11.5 11l10 7.5
t7.5 7.5t5 12q3 9 9 20.5t13 23t12 22t5 19.5q0 1 -0.5 1.5t-0.5 1.5q-1 1 -1 2t-1 2l-2 2q2 1 5 6t3 7q0 1 -0.5 7t-1.5 12.5t-1.5 11.5t-1.5 6q0 15 0.5 35t-8.5 31h-18q-45 0 -75.5 -27.5t-48.5 -67.5t-25.5 -85t-7.5 -79v-22.5t1 -18.5t3.5 -19t6.5 -22zM371 121
q4 4 18.5 16l30.5 25.5l28.5 24t12.5 12.5q0 5 -0.5 8.5t-5.5 5.5q4 0 6 1l4 2v3q0 5 2.5 5.5t-2.5 0.5zM580 -325q-2 0 -3 -2.5t1 -4.5q-4 -2 -3.5 -4.5t-3.5 -7.5q-3 -4 -8 -7t-10.5 -5.5t-9.5 -4.5t-4 -3h24q4 3 13 12.5t9 11.5v8h-2q2 7 -3 7zM536 -295q-2 0 -3 -7.5
t0 -17t2.5 -17t3.5 -7.5q1 0 1.5 7.5t0 17t-2 17t-2.5 7.5zM347 107q-1 -2 1 -6t3 -4l14 14l-4 6q-2 2 -7 -2.5t-7 -7.5zM141 -281q-4 0 -4 -5t4 -5l1 1q0 -5 3 -5q5 0 5 4.5t-5 4.5h-1q0 5 -3 5zM340 42q-11 0 -16 -8q5 0 10.5 1.5t5.5 6.5zM225 24q-2 0 -5.5 -2.5
t-4.5 -4.5h15q0 2 -2 4.5t-3 2.5zM398 -410q-4 0 -4 -5t4 -5t4 5t-4 5zM51 177q-4 0 -4 -5t4 -5t4 5t-4 5zM496 -391q-4 0 -4 -5t4 -5t4 5t-4 5zM549 -334q-5 0 -5 -5t5 -5q3 0 3 5t-3 5zM182 -281q-3 0 -3 -5t3 -5q5 0 5 5t-5 5zM341 94q-3 0 -3 -5t3 -5q5 0 5 5t-5 5z
M334 84q-5 0 -5 -5t5 -5q2 0 2 5t-2 5zM633 -226q-5 0 -5 -5t5 -5q2 0 2 5t-2 5zM643 4q-5 0 -5 -5t5 -5q2 0 2 5t-2 5zM706 5q0 3 0.5 -1.5t0.5 -12t-0.5 -14.5t-2.5 -10q1 10 1.5 19t0.5 19zM197 46q-5 0 -5 -4.5t5 -4.5q3 0 3 4.5t-3 4.5zM680 84q-3 0 -3 -5t3 -5
q4 0 4 5t-4 5zM642 -39q-2 0 -2 -4.5t2 -4.5q5 0 5 4.5t-5 4.5zM695 -29q-4 0 -4 -5t4 -5q3 0 3 5t-3 5zM328 -396q-5 0 -5 -4.5t5 -4.5q2 0 2 4.5t-2 4.5zM571 -325q-4 0 -4 -4.5t4 -4.5t4 4.5t-4 4.5zM613 -26q-3 0 -3 -4t3 -4q5 0 5 4t-5 4zM70 187q-3 0 -3 -5t3 -5t3 5
t-3 5zM435 -420q-5 0 -5 -3.5t5 -3.5q3 0 3 3.5t-3 3.5zM566 -316q-2 0 -2 -4.5t2 -4.5q4 0 4 4.5t-4 4.5zM626 -294q-2 0 -2 -3.5t2 -3.5q5 0 5 3.5t-5 3.5zM385 309q-3 0 -3 -4t3 -4t3 4t-3 4zM643 -20q-3 2 -3 -4.5t3 -5.5q2 7 0 10zM695 -48q-3 0 -3 -5t3 -3q2 1 2 4
t-2 4zM674 -170q-2 0 -2 -3t2 -3q6 3 0 6zM703 -70v7q4 0 4 -3t-4 -4zM649 -66q-3 1 -3 -2.5t3 -1.5q1 0 1 2t-1 2zM563 -344v4h-7zM181 -391q2 2 -1.5 2t-1.5 -2q0 -3 1.5 -3t1.5 3zM154 41v5h-4zM578 -332q0 -2 2 -2q1 0 3 2h-5zM144 -286q-2 -1 -2 -4q2 0 2 4z" />
    <glyph glyph-name="comma" unicode="," horiz-adv-x="371" 
d="M48 -152q0 7 6 15.5t9 14.5q13 23 20.5 44.5t16.5 44.5l2 3v83q-3 8 -2.5 14.5t0.5 14.5t-0.5 11.5t2.5 10.5q2 2 5 6t5 8q3 4 6 9l7 4l-4 2q20 13 46.5 24.5t53.5 11.5q17 0 31 -8.5t24.5 -21t16.5 -27t6 -26.5q0 -3 -1.5 -10t-3.5 -14.5t-3.5 -14.5t-2.5 -11
q-2 -15 -3.5 -32.5t-6 -34t-13 -32.5t-23.5 -28q-2 -1 -10.5 -7l-18 -12.5l-17.5 -12.5t-9 -7l-4 -4t-7 -6.5l-7.5 -6.5t-4.5 -3q0 -1 -2.5 -1.5t-3.5 -0.5q0 1 -1 2q-2 2 -3 2h-2q-10 0 -25.5 -1t-26.5 -3q-5 -2 -8.5 -4t-8.5 -2q-10 0 -17.5 3t-17.5 3z" />
    <glyph glyph-name="T" unicode="T" horiz-adv-x="868" 
d="M409 56q-2 -1 -4.5 -6.5t-2.5 -8.5l2 -2q2 -2 5 -2h-10q-20 0 -25 16.5t-5 32.5q0 11 0.5 18.5t5.5 16.5q1 7 2 25.5t2.5 39.5l3 40.5t2.5 27.5v2v1q-6 36 -6.5 71t-3.5 71q0 4 -2 20t-4.5 38t-6 47.5l-6.5 47.5t-5 38t-3 20q-3 26 -3.5 49t-6.5 45h-1q-15 0 -29 -4
t-28 -9.5t-27.5 -9.5t-26.5 -4h-5l5 3h-5q-14 0 -26 -4t-17 -18h-11q-8 0 -19.5 2t-11.5 13h22q0 5 -2.5 9.5t8.5 4.5q2 0 10 -4t10 -6q0 2 2 5t2 5q2 6 5.5 7.5t6.5 1.5t6.5 1t5.5 7v4v2q-2 -2 -5.5 -3t-4.5 -3q-4 0 -7 -1q-7 -2 -7 -3q-2 -3 -4 -5q-3 -5 -6 -5
q-1 0 -8 3.5t-9 3.5t-8 -3.5t-7 -3.5h-13q-13 0 -29 6.5t-30 7.5q0 2 -2 6q-1 2 -1 4q-2 2 -6 6.5t-8.5 9t-8.5 8t-5 5.5v10q-1 -1 -6.5 -3t-8.5 -2q-8 0 -12.5 9t-4.5 13q1 4 4 5t6 2.5t5 4t2 8.5l-2 4q-2 4 -2 6q1 4 6.5 7.5t12.5 6.5t14 5t10 4l261 71q2 1 3 3t1.5 2.5
t1.5 2.5q0 2 2 7.5t2 7.5q8 17 23 30.5l28 24.5q8 2 21 6t18 4q3 -1 7 -2q8 -2 11 -2q15 -5 26 -7.5t20 -6t17.5 -10t19.5 -21.5q3 0 14 3.5t14 3.5q-3 -5 18.5 -6t56.5 -1t79 -0.5t84.5 -4.5t73 -13t45.5 -26t0.5 -43.5t-60.5 -65.5q-14 0 -37.5 4.5t-49.5 10.5t-50.5 10.5
t-39.5 4.5q-2 0 -4.5 -0.5t-4.5 -0.5q-3 -1 -5 -1q-8 -1 -26.5 -2t-37.5 -4t-33 -8.5t-14 -14.5q3 0 9 1.5t8 -3.5q-5 -2 -11 -3.5t-9 -6.5h8q23 0 43.5 5t42.5 5h10q-18 -9 -37.5 -11t-37.5 -6l-9 -7q-2 1 -3 2q-1 0 -1 0.5t-1 0.5t-1 1q-6 0 -9 -3.5t-4 -8.5t-1 -9.5v-7.5
q0 -41 5 -91t11.5 -101.5t11.5 -100.5t5 -89q0 -68 -5.5 -134t-14.5 -132q-5 -11 -6.5 -27.5t-3.5 -25.5q-2 2 -4.5 0t-4.5 -4q-3 -3 -4 -6h-2q-6 0 -8 6t-9 6q-5 0 -7.5 -4t-4.5 -8.5t-5 -8.5t-9 -4h-2q2 2 3 6.5t2 6.5v4v3q-6 -3 -10.5 -7t-9 -7.5t-10 -6.5t-12.5 -3
q-9 0 -12.5 2t-4.5 5t-1 7.5t-2 9.5q-3 7 -6.5 9t-7.5 4t-7 6t-5 13zM168 663q2 2 -1 2t-3 -2q4 -5 4 0zM202 687q1 2 -2.5 2t-1.5 -2q0 -3 2 -3t2 3zM254 690q0 3 -3 3t-3 -3q4 -1 6 0zM328 743q-4 0 -22 -4t-37.5 -10.5t-35.5 -14t-16 -14.5h12q19 0 36.5 4.5t40.5 9.5
q1 -4 8 -4h5q-6 2 -4 5.5t2 8.5h7l-5 -4q2 0 3 -1t2 -1q5 0 9.5 4t4.5 10q0 5 -1.5 8t-8.5 3zM282 700q1 3 -2.5 3t-1.5 -3q0 -2 2 -2t2 2zM302 710q-5 0 -5 -5t5 -5q3 0 3 5t-3 5zM748 780q20 0 34.5 -1.5t30.5 -8.5l-2 -2q-1 -1 -4 -1h-1q-21 0 -43.5 6t-43.5 7h29z
M643 814q5 0 5 -5t-5 -5q-3 0 -3 5t3 5z" />
    <glyph glyph-name="E" unicode="E" horiz-adv-x="784" 
d="M199 2q-2 0 -3 1q-2 0 -2.5 0.5t-2.5 0.5q-5 2 -6.5 7.5t-2 11l-1 11t-4.5 7.5q-5 4 -7.5 4t-5 -0.5t-7 1.5t-12.5 10h-3q-4 0 -5 -2.5l-2 -5t-4 -5t-10 -2.5l-2 2q-2 2 -2 3v5q0 1 -4 2.5t-6 2.5q-4 2 -8 15t-8 29.5t-6 31.5t-1 22l-23 245q0 5 -4.5 8.5t-9 7.5
t-8.5 10.5t-4 17.5q0 4 1.5 10.5t3.5 13t5.5 11.5t6.5 6v22q0 28 -2.5 55t-2.5 56q0 45 6 88.5t4 88.5q6 2 9.5 16.5t7.5 35t11 43.5t21 43t36 33t56 13q19 0 41.5 -5t38.5 -15q9 -4 12.5 -13t11.5 -9q30 0 56.5 9.5t54.5 12.5q24 3 47 4.5t43 9.5q3 0 9.5 0.5t14 0.5
t14 0.5t9.5 0.5q4 0 11.5 -0.5t15 -0.5t13.5 -0.5t7 -0.5q5 0 12.5 -1.5l15 -3t13 -3t5.5 -2.5v-1q-8 0 -18 -2.5t-19 -4.5q17 -8 35 -10t36 0q2 -5 8 -8l13.5 -7t16 -11t15.5 -20q2 3 8.5 -0.5t4.5 -9.5q-2 -1 -6 -4.5t-4 -5.5v-1v-3q0 -1 4 -5.5t6 -4.5v-1
q0 -3 -13.5 -6.5t-34.5 -7.5t-46 -7.5l-47.5 -6.5t-39.5 -5t-22 -2q-51 -9 -97.5 -21.5t-100.5 -32.5q-3 -1 -12 -5t-19.5 -9.5l-19.5 -10t-13 -7.5q-2 0 -6 -3t-4 -5v-3v-3l4 -4q-8 -5 -11 -18.5t-3 -18.5v-118q0 -1 2.5 -4.5t4.5 -3.5h3q4 0 15 2l23 4t22.5 4t13.5 3
q2 0 10 2t10 2l47.5 8l57.5 9.5l48.5 8l20.5 3.5h74q2 0 7.5 -2t8.5 -4l16.5 -5.5l22 -7t22 -5.5t16.5 0l30 -29v-3h22q0 -10 4 -14t12 -6q-3 0 -8.5 -4t-11 -9t-9.5 -11t-5 -9q-3 1 -14 1t-13 -1q-2 0 -13 -3.5t-16 -5.5q-17 -6 -38 -8.5t-43 -5.5t-42.5 -8t-35.5 -16
q0 2 -2 4t-4 2h-1q-13 0 -23.5 -7t-21.5 -7q-1 0 -2 1q-2 2 -2 3q-3 -5 -9 -8t-11 -2q-4 0 -14.5 -3.5t-22.5 -7t-22.5 -7.5t-14.5 -6q-8 -2 -24.5 -5t-33.5 -8t-29.5 -12.5t-12.5 -19.5q0 -11 1 -34l2 -48t2.5 -47.5t3.5 -31.5q2 -6 9 -6h9q35 0 69.5 4.5t68.5 10t68 10
t69 4.5q38 0 68 -7t60 -22l24 -11.5t16 -8.5l4 -7h-7q0 -13 4 -16.5t8 -4t7 -1t2 -7.5q-8 0 -21 -1.5t-13 -12.5q0 -7 5.5 -8.5t10.5 -1.5q0 -6 -6 -10l-104 -14q0 -4 -21.5 -6.5l-49.5 -5.5t-55 -6.5t-37 -8.5q-13 -8 -31.5 -10t-33.5 -4q-6 0 -20.5 -2t-31 -3.5t-31 -3
t-20.5 -1.5q-9 -3 -20 -13.5t-14 -15.5h-2q-8 0 -11.5 6t-9.5 11h-2q-10 0 -15.5 -13t-5.5 -21q-3 4 -6.5 5.5t-6.5 3t-5.5 4.5t-3.5 11v-22zM197 51q-5 0 -5 -5t5 -5q3 0 3 5t-3 5zM719 159q0 2 -3.5 2t-3.5 -2q3 -4 7 0zM729 167q-5 0 -5 -4t5 -4q2 0 2 4t-2 4zM480 451
q1 2 -2.5 2t-1.5 -2q0 -2 2 -2t2 2zM606 489q-3 0 -3 -4t3 -4t3 4t-3 4zM723 513q2 0 4.5 -0.5t3.5 -0.5q3 0 6.5 0.5t5.5 4.5zM720 517v6h-7zM677 527q-4 0 -4 -5t4 -5q3 0 3 5t-3 5zM696 527q-4 0 -4 -5t4 -5q3 0 3 5t-3 5zM733 527q-2 0 -2 -5t2 -5q3 0 3 5t-3 5z
M703 541q-1 2 -1 -2t1 -2q4 0 4 2t-4 2zM696 547q-4 0 -4 -5t4 -5q3 0 3 5t-3 5zM720 541q0 2 -3.5 2t-3.5 -2q3 -4 7 0zM733 541q0 2 -2.5 2t-0.5 -2q0 -2 1.5 -2t1.5 2zM723 554q-2 0 -2 -3.5t2 -3.5q5 0 5 3.5t-5 3.5zM713 564q-1 0 -4.5 -1.5t-5.5 -1.5v-3v-4zM720 554
q0 3 -3.5 3t-3.5 -3q3 -2 7 0zM691 564q-4 0 -4 -5t4 -5t4 5t-4 5zM686 564q0 3 -2.5 3t-2.5 -3q1 -2 3 -2t2 2zM677 569l4 5h-4v-5zM672 587q4 0 4 -4.5t-4 -4.5t-4 4.5t4 4.5zM713 878l3 3q0 5 -7.5 6t-10.5 1h-7zM730 884q0 2 -3.5 2t-3.5 -2t2.5 -2t4.5 2zM681 892
q-3 0 -3 -4t3 -4q4 0 4 4t-4 4zM710 902q-5 0 -5 -5t5 -5q2 0 2 5t-2 5zM647 931q0 -7 7 -10.5t17 -5.5t20 -2.5t15 -0.5q0 7 -7 11t-16.5 5.5t-19.5 2t-16 0.5zM592 944h10q-1 0 -2.5 2.5t-2.5 2.5l-2 2l-3 -2v-5z" />
    <glyph glyph-name="equal" unicode="=" horiz-adv-x="532" 
d="M141 328q-26 6 -46.5 19t-20.5 39q0 24 21 43t54.5 33t74 24t80.5 16t74.5 8.5t54.5 2.5q13 0 23.5 -12.5t18.5 -30t12.5 -35t4.5 -26.5v-24q-5 -4 -14 -14.5l-16 -18.5zM448 300q16 2 28 -10t19.5 -29.5t11 -36.5t3.5 -30v-31q-1 -8 -21 -15.5t-49.5 -14.5t-65 -12
t-67.5 -9t-56.5 -6t-31.5 -2q-22 0 -45 3.5t-41.5 13t-30.5 26t-12 43.5q0 18 11 29.5t27 19t33.5 13t30.5 12.5z" />
    <glyph glyph-name="Q" unicode="Q" horiz-adv-x="836" 
d="M375 31q-77 -3 -144.5 30.5t-116.5 90.5t-75.5 129t-21.5 145q-6 101 11.5 190t52 159.5t85 117.5t110.5 64l6 2q106 26 194.5 4t156 -78t112.5 -138t64 -176.5t11 -194t-47 -189.5l1 11l-5 -5q-2 -3 -2.5 -8t7.5 -8q-11 -11 -19 -22.5t-14 -22.5l-4 2l-12 -21
q21 -23 30 -31t15 -14t12.5 -16.5t21.5 -37.5q0 -2 6 -9t5 -9q-2 -16 -4 -29q-2 -11 -2.5 -20.5t-0.5 -11.5l-2 2h-1q-2 2 -4.5 5.5t-1.5 5.5q0 1 -1 1q-2 0 -2 1l-2 1l-28 -34l-4 2q-8 5 -18.5 15.5t-18.5 17.5l-2 4q0 -1 -4.5 -4t-6.5 -4l-2 1l-2 1q-2 1 -4 7l-3 9
q-2 1 -2 2.5t-2 2.5l-7 4q-12 11 -21 25.5t-18 26t-20 17t-27 -0.5q-10 6 -25 5t-31 -4t-30.5 -7.5t-23.5 -6.5q-22 -5 -50 -6t-50 2q7 12 0.5 17.5t-15.5 6.5t-15.5 -3t2.5 -11q2 -1 4.5 -2.5t4.5 -2.5zM280 52l-4 -6zM294 52q-1 1 -3 -2t0 -4q5 0 3 6zM405 36q1 4 -0.5 4
t-3 -1.5t-1 -3t4.5 0.5zM496 44q-4 0 -7 -3h11l-2 1zM488 60q-3 2 -5.5 -2.5t0.5 -6.5q4 -2 6.5 2.5t-1.5 6.5zM515 49q-3 2 -5.5 -2.5t0.5 -6.5t5.5 2.5t-0.5 6.5zM524 54q-4 2 -6 -2t1 -6q4 -2 6 2t-1 6zM229 695q-24 -43 -34 -92t-10 -97.5t8.5 -94t20 -81.5t24.5 -60
t23 -30q39 -23 82 -34.5t86 -3.5l4 2q4 2 4 3l1 2l1 2q-21 19 -41 40t-46 35q3 5 0.5 12.5l-5.5 16t-4 15.5t5 10q-4 2 -9.5 9t-7.5 10q-2 2 -3 4t0 4q3 1 5 2q4 2 5 3v4q0 2 -2 4l14 -7q-3 6 -4 9t0 5t3 4t5 7q4 -3 6 -2t3 3l2.5 5t4.5 4q11 7 29.5 0.5t31.5 -13.5
q29 -16 53 -36.5l49 -43.5q12 -12 25.5 -31.5t29.5 -28.5q4 -3 13.5 5.5t19 20.5l17.5 23t10 14q31 56 31 111.5t-17.5 106t-46 94.5t-55.5 76t-46 51t-16 20l-6 3q-34 19 -73.5 18.5t-76.5 -14.5t-67 -38t-46 -51zM533 60q-3 2 -5.5 -2t0.5 -6t5.5 2t-0.5 6zM543 49
q2 3 -1 4.5t-5 -0.5q2 -8 6 -4zM556 52q-5 3 -7.5 -1t2.5 -7q2 -1 4.5 3t0.5 5zM561 67q-5 3 -10.5 -1t-9.5 -6q3 -1 4 -2q6 -3 9 2t8 3q-1 1 -1 3v1zM567 51q2 -1 0 -5t-4 -2q-5 2 -3 6t7 1zM800 -10q-2 2 -4.5 -2.5t-0.5 -6.5q4 -2 6.5 2.5t-1.5 6.5zM797 3
q-3 2 -5.5 -2.5t0.5 -6.5q4 -2 6.5 2.5t-1.5 6.5zM576 67q-5 3 -7.5 -1.5t2.5 -7.5q2 -1 4.5 3.5t0.5 5.5zM807 1q-3 2 -5.5 -2.5t0.5 -6.5q4 -2 6.5 2.5t-1.5 6.5zM540 759q-8 5 -19.5 7t-16.5 -5q3 -1 9.5 -2.5l13.5 -3t13 -2.5t8 -2q-2 2 -4.5 5t-3.5 3zM687 711l5 -3
l3 6l-5 2zM704 702q2 2 -1 3.5t-5 -1.5q3 -5 6 -2z" />
    <glyph glyph-name="I" unicode="I" horiz-adv-x="365" 
d="M195 29q-29 0 -44.5 15.5t-29.5 42.5q-12 40 -23.5 93.5t-22.5 114.5t-20.5 125.5t-16.5 125.5t-11 116t-4 96q0 26 2.5 49t7.5 53q3 26 9 45t17 31t28.5 17.5t43.5 5.5q3 0 14 -0.5t13 -0.5q8 -7 12 -6t16 -3q32 -14 44.5 -29.5t12.5 -50.5q0 -27 -5 -53.5t-5 -55.5
q0 -19 1 -51t3 -71t5 -80.5t6.5 -80.5t7.5 -71t9 -51v20l6 -4q0 -1 2.5 -9t5.5 -19.5t6.5 -23l5.5 -18.5q0 -4 2 -13t2 -11v-6v-4l-10 18l-4 -8l24 -76l4 -4v2v2q0 8 -5 23t-5 23h6l8 -23l6 -20l5 -17l3 -12t4 -17t4 -16.5t2 -10.5v-4v-6l-5 6q-2 9 -5 18q-2 8 -4.5 16
t-3.5 13q-2 5 -0.5 8t-3.5 5v-11q0 -23 6 -46.5t6 -47.5q0 -11 -2 -24.5t-7.5 -24.5t-13.5 -18.5t-20 -7.5q-13 0 -27 10q3 -6 -2 -9.5t-12.5 -5t-15.5 -2t-12 -0.5q-15 0 -17.5 10t-2.5 19zM211 14q-5 0 -5 -5t5 -5q3 0 3 5t-3 5zM277 305q-2 0 -2 -3t2 -1q2 0 2 2t-2 2z
M271 315h6l-6 9v-9zM267 351q-1 1 -1.5 -1t-0.5 -5t0.5 -5.5t1.5 -2.5q2 2 2 7.5t-2 6.5z" />
    <glyph glyph-name="c" unicode="c" horiz-adv-x="622" 
d="M334 11q0 6 -9.5 11t-22 9t-24.5 6.5l-17 3.5q-36 10 -77 40.5t-76 70.5t-58 85t-23 85q0 6 3.5 10t3.5 9q0 11 -5 23t-5 25q0 2 0.5 13t2.5 15q1 4 4.5 13t7 19.5t7 19.5t5.5 13q-2 6 5 18.5t17 26t20 25.5l14 17q1 1 5 5.5l8.5 9.5l8.5 9.5t6 6.5q-3 13 7.5 16t19.5 3
q0 12 9 22.5t26 10.5v-3q7 0 13.5 4t13.5 9.5t15 9.5t18 4h128l5 -1t11 -2.5t11.5 -3.5t8.5 -3q6 -2 17 -5t22 -7.5t19.5 -11t9.5 -13.5q4 -2 12 -4.5t15.5 -7t13 -11t5.5 -15.5q0 -5 -1.5 -10t-8.5 -9l4 -3q4 -3 7 -9t3 -8q-1 -4 -6.5 -11t-13.5 -13.5t-16 -11.5t-13 -5h-1
q-3 0 -11.5 1.5t-18 3t-18 3.5t-10.5 2q-35 1 -69 -10t-60.5 -32t-43 -51t-16.5 -67q0 -54 21.5 -108t63.5 -89q11 2 22 -2l22 -8h1q16 0 41 6t51 15t50 19t39 18q1 1 5 4l8.5 6.5t8.5 6t5 3.5h6q0 -9 -6 -16h5q9 0 25 6l27 10h1v-16l9 6v-2q0 -9 -6 -11.5t-12.5 -4
t-12.5 -3.5t-6 -10v-2q1 0 4.5 1.5t5.5 1.5h1h2q-2 -1 -7 -6t-6 -7v-2v-2q5 8 10.5 11t14.5 3h7q-5 -1 -14 -8.5l-19.5 -16.5l-20 -17.5t-16.5 -10.5h18l-14 -14l4 -3q-17 2 -22 -3t-5 -19q5 0 7.5 2.5l5 5t7 5t13.5 2.5v-7h-10v-10q2 0 7 2t7 2h6v-14q5 0 7 0.5t3.5 0.5
t4 -1t9.5 -4q-2 0 -6.5 -1t-10 -2.5t-9.5 -3t-4 -3.5q0 -6 1.5 -7.5t4 -1.5h4.5t3 -3q-4 -9 -24 -18.5t-44 -17.5t-45.5 -13.5t-28.5 -5.5h-2q-2 1 -4 3q-2 1 -3.5 2t-2.5 1l-8 -6h-6h-4q-1 0 -4.5 3t-5.5 3q-1 -2 -4 -6t-5 -4h-10q-19 0 -35 5.5t-33 5.5zM459 17
q-3 0 -3 -3.5t3 -3.5q5 0 5 3.5t-5 3.5zM482 17q-2 0 -2 -3.5t2 -3.5q5 0 5 3.5t-5 3.5zM479 24h3l51 28h-3zM572 62q-5 0 -11 -2t-6 -8q8 0 11.5 4t9.5 6h-4zM543 62q-2 0 -2 -2.5t2 -0.5q6 0 0 3zM548 76l-17 -5.5t-11 -4.5v-6q11 0 18.5 5.5t18.5 10.5h-4h-5zM271 51
q-3 0 -3 -5t3 -5q5 0 5 5t-5 5zM580 76q-2 0 -2 -2.5t2 -2.5q4 0 4 2.5t-4 2.5zM254 60q-5 0 -5 -4.5t5 -4.5q2 0 2 4.5t-2 4.5zM482 85q-4 0 -4 -4.5t4 -4.5q3 0 3 4.5t-3 4.5zM230 60v5h-5zM421 65q-3 0 -3 -4.5t3 -4.5q4 0 4 4.5t-4 4.5zM496 90q-3 0 -3 -4.5t3 -4.5
t3 4.5t-3 4.5zM566 99q-3 0 -3 -4.5t3 -4.5q5 0 5 4.5t-5 4.5zM600 179q-3 0 -3 -4.5t3 -4.5q2 0 2 4.5t-2 4.5zM572 216q-5 0 -5 -5t5 -5q3 0 3 5t-3 5zM529 559q-3 0 -3 -5t3 -5q5 0 5 5t-5 5zM150 619q3 0 3 -5t-3 -5q-4 0 -4 5t4 5zM167 632q-2 0 -2 -5t2 -5q5 0 5 5
t-5 5z" />
    <glyph glyph-name="k" unicode="k" horiz-adv-x="616" 
d="M37 374l-18 297q2 10 1 26t-2.5 33.5l-3 34t-1.5 28.5q-1 21 -2.5 31t-2.5 17.5t-1.5 17.5t1.5 30q0 3 1 14.5t1 16.5q1 1 4 7.5t7 14t8 14t7 8.5q11 6 30.5 10.5t30.5 3.5q2 0 4 -0.5t4 -0.5q3 -1 5 -1q3 0 7 -2l4 -2q3 0 8.5 3t5.5 6q0 -8 7.5 -11.5t12.5 -4.5h3
q0 1 1 1t2 1l3 3h2l3 -1q10 -12 19.5 -19.5t16.5 -16t11 -20t3 -31.5q-1 -3 -3 -14.5t-3 -14.5q-2 -25 -0.5 -39.5t3.5 -26.5l4.5 -26t3.5 -38q1 -17 1.5 -37.5t1.5 -42.5l2 -44t3 -41h3q4 0 8 3.5t7.5 8t7.5 7.5t8 1l111 101q5 13 17 23t26.5 16t30.5 9t28 2q6 0 7.5 -3
t2 -6t1 -5.5t4.5 -2.5l1 2q1 -1 3 0t4 3t4 3l2 2q1 0 2 1l-1 -16q1 0 2 -0.5t2 -0.5h2l4 -4q2 0 10 1.5t10 0.5q1 0 4.5 1.5t5.5 1.5l-1 -18h11.5t11.5 -1l3 -3q-4 -16 -2 -32.5t12 -30.5q-12 -15 -18.5 -29t-21.5 -29q-2 -1 -6 -4l-8.5 -6.5t-8 -7t-3.5 -4.5q-3 -2 0.5 -1
t-0.5 -1q-11 -11 -24 -19.5t-26 -21.5q-3 -4 -12.5 -14.5t-21 -22t-22 -20t-15.5 -8.5l-74 -66h-1v-2l1 -1q0 -2 1.5 -4t2.5 -4q36 -27 69.5 -58l66.5 -62t67 -58t70 -45l3 -3l8 -1l-2 -6q-1 -2 -1 -7q0 -2 -1 -4q-4 -5 -8 -3q11 -6 7 -13l-10 6l-6 -9l8 -4q2 -1 0 -8.5
t-4 -12.5h-3h-4q-1 0 -7.5 4t-8.5 4q0 -4 2.5 -7t4.5 -7q-5 1 -9.5 -3l-10 -8.5t-11.5 -8.5t-13 -2q-3 1 -9 3.5t-13.5 4.5t-15 2t-12.5 -4q-16 5 -20.5 8.5t-6.5 7.5t-5.5 9.5t-18.5 13.5q-1 1 -5.5 -1.5l-9.5 -5.5t-8 -5.5t-1 -1.5q-10 21 -27 35t-37 24l2 3q-2 1 -4 3.5
t-3.5 4t-3.5 0.5t-5 -7l-6 8q-4 3 -13 12l-19.5 19.5t-20.5 19t-15 8.5q-3 0 -11.5 3t-11.5 5l-5 -6q1 -4 7 -9t5 -9q0 -1 -1 -4.5t-2.5 -7.5t-2.5 -7.5l-1 -3.5q0 -2 2.5 -10.5t2.5 -10.5q-1 -3 -1 -6v-11q-2 -26 -9 -53.5t-9 -53.5q0 -1 2 -3l2 -2q2 -2 2 -3v-2h-6
q2 -10 -3 -14.5t-12.5 -6.5t-16 -3.5t-12.5 -4.5q-1 -2 -3 -8l-2 -6l-3 1q-4 0 -5 2t-1.5 5t-2.5 5.5t-7 2.5q-8 0 -13 -7t-13 -6h-3l-22 26q-3 -1 -13.5 2t-21.5 7.5t-19.5 9.5t-9.5 7t-1.5 9.5t-0.5 9.5q-2 1 -6.5 2.5t-3.5 2.5l-2 4h10q0 1 1 2l2 4q-2 0 -3.5 3.5
t-3.5 4.5zM173 -1q-5 1 -5 -4t5 -6q3 0 3 4.5t-3 5.5zM160 3h1l3 -1l4 5zM80 17q-5 0 -5.5 -4.5t4.5 -4.5q3 0 3.5 4.5t-2.5 4.5zM179 24q-2 1 -2 -1.5t2 -2.5q2 1 2 3t-2 1zM359 135q-4 2 -6 -2.5t0 -5.5q4 -2 6.5 2t-0.5 6zM453 87q4 0 1 1.5t-4 -0.5q0 -2 1.5 -2.5
t1.5 1.5zM414 84q-2 0 7.5 -1.5t21 -2.5t21.5 -1.5t9 0.5q0 1 -9 2.5t-20.5 2t-20.5 1t-9 -0.5zM423 82q3 -2 1 -5.5t-4 -1.5q-5 2 -2.5 5.5t5.5 1.5zM436 75q2 -2 0 -5.5t-4 -1.5q-5 2 -2.5 5.5t6.5 1.5zM580 85h6l-5 4zM537 678q0 2 -3 2t-1 -2q0 -3 2 -3t2 3z" />
    <glyph glyph-name="B" unicode="B" horiz-adv-x="771" 
d="M288 25q-12 3 -30.5 9t-35.5 6q1 7 7.5 10t13.5 3q8 0 10.5 -3t11.5 -7q-2 3 -1 7t6 5q-8 2 -14.5 5.5t-17.5 3.5q-7 0 -10 -4.5t-6 -9.5t-6 -9.5t-10 -4.5h-2q-2 0 -2 4q-1 2 -1 4h-3q-5 0 -7.5 -4t-8.5 -4t-9 4t-5 9t-5.5 9t-9.5 4l-3 -18q-2 0 -4 -1q-4 -2 -6 -2h-1
h-2q-1 1 -4 5t-7 8.5t-7.5 7.5t-5.5 3h-1q-2 -2 -7.5 -6t-7.5 -6q-5 12 -14 23t-11 24q-14 118 -19 234l-10 235q-1 3 -1 7q-1 4 -1 8t0.5 25.5t0.5 46.5t-0.5 47t-0.5 28v3l-8 100v2q3 20 12.5 33.5t23 23.5t30.5 17.5t35 14.5q4 -1 15.5 -2t23.5 -1t23 0.5t16 1.5
q27 1 55.5 12.5t54.5 16.5q12 2 20 2.5t16.5 0.5t18 -0.5t23.5 -0.5q99 -1 136 -40t24 -124q-3 -20 -11 -48.5t-18.5 -58.5t-22.5 -58t-22 -46q0 -1 -1.5 -3t-3.5 -5q-2 -4 -4 -7v-3l-1 -1q6 -2 19 -6l26.5 -8t24 -7.5t12.5 -3.5q3 -1 11 -4.5l16 -7t15 -7l9 -4.5
q6 -3 7 -8.5t1.5 -10.5t3.5 -8.5t15 -3.5l1 3q-3 2 -11 8t-8 11h1h3q14 -8 28.5 -22t24.5 -27q-2 -1 6 -12l17.5 -25t17.5 -29t7 -23h6q-2 -7 -7 -8q13 -9 19.5 -24t8 -32.5t0 -35t-3.5 -32.5q-8 -49 -33.5 -89t-70.5 -79v-2q-9 -12 -20 -19t-27 -12l-3 8q-1 0 -6.5 -3
t-7.5 -5q-8 -6 -20 -12t-25.5 -10.5t-27 -7.5t-23.5 -3q-8 1 -14.5 4t-16.5 3h-20q-4 0 -9.5 -0.5t-10.5 -1.5q-6 -1 -13 -1l-1 -10q-3 0 -13 1.5t-13 1.5q-5 1 -17.5 2t-17.5 1q-3 1 -11.5 3.5t-16.5 6.5t-14 8t-6 7zM602 45l2 -1h2q2 0 3 2t3 2zM215 56q-4 0 -4.5 -4
t3.5 -4t4.5 4t-3.5 4zM280 55q-3 0 -3.5 -4t2.5 -4q4 0 4.5 4t-3.5 4zM204 59q-3 0 -4 -3.5t2 -3.5t4 3.5t-2 3.5zM632 60q1 2 -1 2t-3 -2q0 -2 2 -2t2 2zM167 87q-5 0 -5.5 -4t4.5 -4q3 0 3.5 4t-2.5 4zM277 98q-2 0 -2.5 -2t1.5 -2t2.5 2t-1.5 2zM300 103q-2 0 -2.5 -4.5
t1.5 -4.5q4 0 4.5 4.5t-3.5 4.5zM256 323q0 -3 1.5 -15t3.5 -26l4 -27.5t2 -18.5v-9.5v-16v-16v-8.5q1 -9 4 -19.5t5.5 -21t3.5 -20.5t-2 -19q6 5 8.5 8t3.5 8q1 2 0.5 5t-3.5 3h4q5 0 5 -4.5t5 -4.5t8 3t12 3q0 2 1.5 7.5t5.5 7.5q2 -2 4 -3t1 -3q7 -8 15.5 -11t14.5 -11
h18q27 0 52 8.5t45.5 22.5t36.5 33t26 40q1 2 2.5 13.5t2.5 15.5q11 69 -18.5 117.5t-92.5 83.5h-5q-1 0 -10 2.5t-11 2.5q-9 -2 -24.5 -12t-31 -23.5t-27.5 -27t-15 -21.5q0 2 -1.5 4t-3.5 2t-10 -8t-16.5 -17.5l-15.5 -18t-8 -8.5zM258 356l2 -2q4 0 0 -4l17 12
q-1 1 -4.5 2.5t-5.5 2.5h-3h-2q0 -1 -2.5 -4t-3.5 -5zM288 375q-4 0 -5 -4t3 -4q3 0 4 4t-2 4zM308 390q-2 2 -4.5 -0.5t0.5 -2.5q0 -2 3 -0.5t1 3.5zM573 529q2 0 1 -4t-3 -4q-5 0 -4 4t6 4zM249 762q-3 -19 -2.5 -47t1.5 -58t1.5 -58.5t-2.5 -46.5h4l24 57l20 44t16 29
q18 24 31.5 52.5t18.5 55.5q0 2 1 10t2 11q-1 5 -11 5q-8 0 -22.5 -4t-30 -10t-29 -13t-19.5 -12q-1 -2 -1.5 -7.5t-1.5 -7.5zM291 816q-2 -5 -7.5 -5t-11.5 -0.5t-11 -3t-6 -10.5l10 -1l92 35v2l1 3q-2 0 -4.5 1.5t-4.5 1.5v5q-5 0 -16.5 -3t-22.5 -7.5t-20 -9.5t-9 -8h10z
" />
    <glyph glyph-name="W" unicode="W" horiz-adv-x="1073" 
d="M370 22q-9 -2 -36 0.5t-67 18t-89.5 49t-101.5 94.5q-2 4 -6 13.5t-9.5 20.5l-10 20.5t-7.5 13.5q-8 4 -9.5 11.5t-3.5 14.5q-6 16 -9.5 61.5t-4.5 106.5t-1 129.5t1 130t2 108.5t1 65t1 31t6 32q8 1 21.5 6.5t14.5 16.5q18 3 28.5 3.5t26.5 0.5h11q1 0 6 -0.5t10.5 -1.5
t10 -1.5l4.5 -0.5q7 -1 14 -6t13.5 -10.5t13 -9t13.5 -1.5q1 -26 -0.5 -70l-3.5 -98.5t-2.5 -115.5t3 -120.5t13.5 -113t28.5 -93.5t47.5 -62t72 -18l4 -3h2h4q0 2 3 9t5 8q14 22 22 49t12.5 55.5t6 57t1.5 53.5q0 36 -5 70t-5 68q0 23 10.5 37t27.5 29q2 0 5 -2t5 -2h2
q11 0 22 2.5t22 2.5q23 0 48.5 -6t41.5 -23q0 -1 2 -7l2 -6q2 -3 5 -9t5 -8q-2 -57 0.5 -116.5t12.5 -116.5q3 -11 11.5 -25t8.5 -27q0 -1 -2 -5q-1 -2 -1 -5q0 -5 2 -12.5t5 -16.5t5.5 -17.5t4.5 -13.5v-2v-4l-4 -4q0 -1 2 -4.5t2 -5.5v-8q6 0 12 -7.5t12.5 -18l13.5 -21
t15 -15.5h11q13 0 19.5 4t20.5 16q20 18 39.5 39.5t34.5 46t24 51t9 55.5q-9 25 -17.5 66l-18.5 89t-22 98t-27 93.5t-33.5 76.5t-41.5 47q-1 0 -2.5 2t-3.5 3l6 5q-14 -4 -24 2t-18 17h14q0 9 -8.5 16.5t-19.5 7.5v7h14q-2 3 -6 7t-4 9h15l-19 8q1 0 6.5 0.5t7.5 0.5
q14 0 27.5 -6t27.5 -6q0 6 -8 8.5t-17 4.5t-17 5.5t-8 12.5q0 5 8 5h8q15 0 28.5 -5t27.5 -5h3q1 0 4.5 2.5t5.5 2.5q3 0 3.5 -2t1 -5t2.5 -5t7 -2v9q8 0 10.5 -1.5t3 -4t0.5 -6t4 -7.5q3 -2 7 -4q3 -2 6 -3.5l5 -2.5q1 0 6.5 -2l11 -4t10.5 -4.5t6 -3.5l2 -2q1 -1 4 -1l7 3
q12 -2 21.5 -9.5t16.5 -17t13 -20t12 -19.5v-4h5q0 -6 -5 -10q0 -2 2.5 -4t4.5 -2q5 -5 14.5 -29.5t21 -59.5l23.5 -75l22.5 -76.5l18 -64.5t10.5 -38q0 -1 -0.5 -2.5t-0.5 -3.5v-5q0 3 -1.5 11.5t-5.5 10.5l-2 -4q-1 -2 -1 -4q0 -9 3.5 -17t7 -14.5t7 -11t3.5 -5.5h-6v-39
h6q0 -20 -0.5 -43.5t-2.5 -48t-7.5 -47.5t-14.5 -42q-5 -10 -10 -15.5t-10 -10l-10.5 -9.5t-10.5 -12q-8 -11 -12 -21.5t-12 -21.5q-4 -7 -8.5 -6t-9.5 -4q-20 -13 -36 -30.5t-36 -30.5q-5 -4 -23.5 -9.5t-40 -11t-41.5 -9t-27 -3.5q-33 0 -57.5 5.5t-45.5 16t-41 26
t-44 36.5q0 2 -4 4q-2 1 -3 2q-18 -6 -31.5 -17.5l-26.5 -23t-28.5 -22t-38.5 -15.5l10 -3q-11 -2 -29.5 -8t-29.5 -6h-1zM360 32h13l-8 4h-4h-1v-4zM916 117q-5 0 -5 -5t5 -5q3 0 3 5t-3 5zM962 145l-3 -3l-2 -2v-1v-4q2 1 3 2.5t2 2.5v2v3zM957 177q-4 0 -4 -5t4 -5t4 5
t-4 5zM976 191l4 10h-4v-10zM1010 207q-5 0 -5 -5t5 -5q3 0 3 5t-3 5zM1014 215q-3 0 -3 -4t3 -4q2 0 2 4t-2 4zM986 221q-5 0 -5 -5t5 -5q3 0 3 5t-3 5zM1017 225q0 3 -2.5 -0.5t-0.5 -3.5q1 -2 3 0t0 4zM1000 230q-3 0 -3 -2.5t3 -2.5q5 2 0 5zM1024 244q-5 0 -5 -5t5 -5
q2 0 2 5t-2 5zM1017 247q-2 0 -2 -4t2 -4q5 0 5 4t-5 4zM1010 254h4v3zM1004 261q-3 0 -3 -3.5t3 -3.5q5 0 5 3.5t-5 3.5zM859 309q-4 0 -4 -4t4 -4t4 4t-4 4zM994 347q-1 1 -1.5 -1.5t-0.5 -5.5t0.5 -6t1.5 -2q2 2 2 8t-2 7zM642 355q-2 0 -2 -4t2 -4q5 0 5 4t-5 4z
M994 361q-3 0 -3 -5t3 -5q5 0 5 5t-5 5zM994 371q-3 0 -3 -5t3 -5q5 0 5 5t-5 5zM994 421q-3 0 -3 -4.5t3 -4.5q5 0 5 4.5t-5 4.5zM990 441q-3 0 -3 -5t3 -5t3 5t-3 5zM990 455q-1 0 -1 -3t1 -1q3 0 0 4zM877 465q-4 0 -4 -5t4 -5t4 5t-4 5zM944 465q-2 0 -2 -3t2 -3
q1 2 0 6zM957 475q-4 0 -4 -5t4 -5t4 5t-4 5zM831 802q-2 4 -4.5 1t-1.5 -5q3 -1 4.5 0.5t1.5 3.5zM891 859h4l-4 5v-5zM886 873q-4 0 -4 -4.5t4 -4.5t4 4.5t-4 4.5zM872 878q2 -5 9 -5q0 7 -4 9zM704 882q-4 0 -4 -4.5t4 -4.5q2 0 2 4.5t-2 4.5zM694 902q-4 0 -4 -5t4 -5
t4 5t-4 5zM859 902q-3 0 -3 -5t3 -5q2 0 2 5t-2 5zM694 912q0 1 -2.5 1t-2.5 -1q1 -3 3 -3t2 3zM825 919q-3 0 -3 -3.5t3 -3.5q5 0 5 3.5t-5 3.5zM694 929q-3 2 -3 -1t3 -3q2 0 2 2t-2 2zM745 935q-3 0 -3 -5t3 -5q5 0 5 5t-5 5zM185 102q-3 0 -3 -4.5t3 -4.5q5 0 5 4.5
t-5 4.5zM181 122q-3 0 -3 -5t3 -5t3 5t-3 5zM181 136q-1 0 -1 -3t1 -1q3 0 0 4zM135 146q-2 0 -2 -3t2 -3q1 2 0 6zM148 156q-4 0 -4 -5t4 -5t4 5t-4 5z" />
    <glyph glyph-name="N" unicode="N" horiz-adv-x="923" 
d="M144 50q0 -2 1.5 -8t1.5 -7t-3 -4q-1 -1 -2 -1h-1q-2 0 -3 1h-1q1 2 -1 5t-2 5q-2 4 -5 4l-9 -1q-1 0 -3 2l-2 2q-2 2 -6 3t-5 1q0 3 -2 12t-5 19.5l-6 20.5t-4 16q-4 42 -6.5 100t-3 118.5t1 118.5t6.5 101q4 42 13 84t13 85q0 4 0.5 8.5t1.5 9.5t1 11l-101 135
q-7 8 -7 20.5t1 23.5q9 -2 11.5 2.5l5.5 10t10.5 9t28.5 0.5q2 13 11.5 12t24.5 -3q5 -1 8 -5t8 -5q3 -2 14.5 -3t14.5 -2q21 -6 38.5 -20.5t32.5 -33t28.5 -37.5t25.5 -33l8 -8l5 -5q1 0 5.5 0.5t4.5 1.5v-3l17.5 -24l26 -35.5l26 -35.5l17.5 -24l8 -13t4 -9l-4 -3
q-1 0 2.5 -6t4.5 -9q0 -1 2.5 -4.5t5.5 -7l6 -7t4 -4.5q2 -2 6.5 -9l9.5 -14.5l10 -14.5l7 -10q-2 -2 4 -9l14 -16t15 -18.5t8 -15.5q15 -19 32.5 -45.5l35 -54t35.5 -53t35 -41.5q0 2 2 3.5t4 0.5h1q6 -1 10 -4.5t7 -7.5t6.5 -7t8.5 -4q9 -2 19 6t18.5 19.5t14 23.5t6.5 18
q2 23 0 59.5t-7.5 79t-12.5 89t-15 89t-15.5 78.5t-12.5 58q-5 14 -15.5 30.5t-8.5 31.5q1 1 3 4t3 4l-14 2q-2 11 -10 21t-8 13l10 -1q2 11 1.5 18.5t-5.5 16.5h2l2 -1q3 0 8 -5t6 -7l17 28q8 -5 15.5 -12.5t8.5 -15.5q5 4 11 2q13 -2 8 -16l11 3q-2 -4 -1 -11.5t7 -8.5h4
h2q0 3 3 13.5t4 13.5v4v2q-2 3 -4 5l-5 5v4q0 1 1 2q34 -6 59 -30.5t40.5 -57.5t22 -69t3.5 -66q6 -1 9.5 -7.5t5.5 -15t3 -17.5t2 -14q0 -2 2.5 -19t6.5 -42l9 -54l9 -54l7 -43t4 -20l4 -4q-8 -9 -10 -14t-3 -16l-1 -6q0 -1 2 -5q1 -2 3 -5q0 -2 0.5 -10.5t1 -18.5t1 -18.5
t1.5 -10.5q0 -3 1 -5q0 -4 2 -6l3 -5v-1q-1 -10 -3 -16t-3 -14l11 -2q-7 -66 -39 -113.5t-83 -82.5q-7 -2 -20.5 -6.5t-19.5 -3.5l-4 4q2 -1 7.5 1.5t7.5 3.5q0 2 -1.5 5.5t-1.5 4.5q-11 2 -21.5 1t-20.5 -3t-20.5 -3t-22.5 1q-42 7 -78.5 31t-69.5 58.5t-62.5 76
l-57.5 83.5l-55 81t-54 69q-1 -3 -2 -12t-2.5 -19.5t-2.5 -19.5t-1 -13v-17.5t0.5 -32l1 -38t1 -37t1 -29t0.5 -12.5v-45v-68.5t0.5 -69t1.5 -45.5q0 -1 -0.5 -1.5t-0.5 -2.5v-3q-2 -11 -11.5 -19.5t-16.5 -16.5q-11 3 -14 17q-10 -9 -23 -10t-26 -7v4h-1q-2 0 -3 1
q-2 0 -6.5 4t-6.5 4q-5 1 -14.5 -1t-14.5 -4l5 -1q0 2 -1 13t-9 13h-2zM130 62q-2 1 -2 -2.5t2 -4.5q6 3 0 7zM103 74q-2 0 -2.5 -3.5t1.5 -3.5q3 -1 3.5 2.5t-2.5 4.5zM218 61q-5 1 -5.5 -3.5t4.5 -5.5q3 -1 3.5 3.5t-2.5 5.5zM213 76q-3 0 -3.5 -4.5t2.5 -4.5
q5 -1 5.5 3.5t-4.5 5.5zM233 68v4l-6 1zM629 329q-4 1 -4.5 -3t3.5 -5q3 0 3.5 4t-2.5 4zM899 344q-3 1 -3.5 -4t2.5 -6q2 -1 2.5 4t-1.5 6zM886 462q-3 0 -3.5 -5t2.5 -5q3 -1 3.5 4t-2.5 6zM887 469q-3 0 -3.5 -3.5t2.5 -3.5q3 -1 3.5 2.5t-2.5 4.5zM885 486q-3 1 -4 -5.5
t3 -4.5q1 1 1 4.5v5.5zM838 501q-4 1 -4 -2.5t4 -4.5q2 -1 2 2.5t-2 4.5zM382 680q-3 0 -3.5 -5t2.5 -5q5 -1 5.5 4t-4.5 6zM879 494l6 -1q0 1 -2.5 15.5l-6 36t-8.5 46l-9 45.5t-7.5 35t-4.5 15zM378 684q-4 1 -4.5 -4t3.5 -6q3 0 3.5 5t-2.5 5zM370 686l3 -1l-2 6z
M844 692l4 4l-3 5zM367 700q-4 1 -4.5 -3.5t3.5 -5.5q4 0 4.5 4.5t-3.5 4.5zM362 706q-3 1 -3.5 -3.5t2.5 -5.5q4 -1 4.5 3.5t-3.5 5.5zM358 707l1 4l-6 1zM840 711l6 -1l-6 7v-6zM346 723v-2q0 -3 3 -3l1 2v2q0 1 -2 3q-1 1 -2 1l-2 -1zM842 731q-3 0 -3.5 -5t2.5 -5
q5 -1 5.5 4t-4.5 6zM341 737q-3 1 -3.5 -4t2.5 -6q5 -1 5.5 4t-4.5 6zM332 746q-1 0 -1.5 -3.5t0.5 -3.5q5 2 1 7zM773 752q-3 1 -3.5 -4t2.5 -6q5 -1 5.5 4t-4.5 6zM319 765q-3 0 -3.5 -5t2.5 -5q5 -1 5.5 4t-4.5 6zM316 771q-5 1 -5.5 -4t4.5 -6q3 0 3.5 5t-2.5 5z
M827 771q-4 0 -4.5 -5t3.5 -5q3 -1 3.5 4t-2.5 6zM643 925q-4 1 -4.5 -4t3.5 -6t4.5 4t-3.5 6zM718 913q-3 1 -3.5 -4t2.5 -6q4 -1 4.5 4t-3.5 6zM714 917q-5 1 -5.5 -3t4.5 -5q3 -1 3.5 3t-2.5 5zM645 948q-4 1 -4.5 -4t3.5 -6t4.5 4t-3.5 6zM101 958q0 2 -2.5 2.5
t-0.5 -2.5q0 -2 1.5 -2t1.5 2zM637 957q-4 1 -4.5 -3t3.5 -5q3 0 3.5 4t-2.5 4zM736 958q-3 0 -3.5 -5t2.5 -5q4 -1 4.5 4t-3.5 6zM653 975q-4 1 -4.5 -4t3.5 -6t4.5 4t-3.5 6zM733 966q-4 1 -4.5 -3t3.5 -5q3 0 3.5 4t-2.5 4z" />
    <glyph glyph-name="F" unicode="F" horiz-adv-x="796" 
d="M277 10h-10v11q-2 0 -6.5 1.5t-6.5 1.5t-6 -4q-2 -2 -4 -3q-2 2 -8 8.5t-6 8.5q-1 0 -9.5 0.5t-9.5 2.5q-5 3 -9 24.5t-8 53t-8 68t-8.5 70t-10.5 59t-13 35.5q-5 7 -9 10t-8 4.5t-8.5 3t-11.5 6.5q-2 0 -6 4l-4 4q-1 1 -5 4.5l-8.5 7.5t-8.5 7t-5 4q2 3 4.5 9.5t2.5 9.5
q2 4 3.5 17.5t3.5 16.5q2 2 13.5 7t13.5 7q5 2 5.5 9t0.5 12q0 27 -3 54l-6 54.5t-5.5 55t-1.5 55.5q-5 3 -7 13h-24l4 4q-3 1 -8 5.5t-10 10t-8.5 11t-1.5 7.5q-1 -2 -4.5 -3t-5.5 -1q-5 0 -13.5 8t-8.5 13q0 6 7 8.5t10 6.5q-5 2 -9.5 5.5t-4.5 8.5h18q0 11 6.5 17.5
t16 10t20 5.5t19.5 5q4 1 15 4.5l23 7.5t22 7t14 4h6q42 11 96.5 27t111.5 31t111.5 26t97.5 11q9 0 13.5 -4t9 -8.5t12.5 -8.5t25 -4q0 -5 6.5 -11t10.5 -6h4l9 4h3h2q-2 -2 -3.5 -7t-1.5 -7q0 -4 5 -4l4 2q4 2 6 2h12q11 0 20 -7t20 -7h4q0 2 2.5 5t2.5 5q7 -3 8 -7t1 -9
q0 -4 -0.5 -7.5t-4.5 -5.5l-4 5l-5 -10q-1 5 -5 6t-6 1q-1 0 -2 -0.5t-3 -0.5q-2 -1 -3 -1q1 0 3.5 -3t2.5 -5q-8 0 -19.5 -1t-13.5 -9q7 1 13 0q5 -1 9.5 -2.5t4.5 -5.5v-1q-2 -1 -8.5 -2.5l-13.5 -3t-13 -3t-9 -1.5l-38.5 -8.5l-68.5 -15l-83.5 -19t-83 -21t-66.5 -21
t-35 -19.5l5 -4q14 5 28.5 5.5t28.5 -1.5q1 8 9 12t14 4v-5q3 0 11 5t12 8v-10q13 5 25 12.5t29 7.5h8q-2 -7 -5.5 -8.5t-8 -1t-9 2t-8.5 1.5l-2 -4q-2 -4 1 -4q1 -2 6.5 -4t7.5 -2q-11 -4 -36.5 -8.5t-51.5 -11.5t-46 -15.5t-21 -19.5q0 -3 -0.5 -10t-0.5 -14.5t-0.5 -14.5
t-0.5 -10q0 -4 0.5 -11.5t0.5 -15t0.5 -13.5l0.5 -6q0 -10 1 -31t7 -34l3 -3q1 -1 2 -3l98 23q6 5 30.5 10.5t53 10t53.5 7t33 2.5q15 0 36.5 0.5t34.5 -10.5q1 -2 6.5 -7.5t7.5 -5.5q1 -2 9 -1t10 1l3 -10q2 0 5.5 -1.5t4.5 -1.5v-12l4 1q3 -1 8.5 -6.5l7.5 -7.5v-4
q0 -18 -14 -31.5t-31.5 -23t-33 -16.5t-17.5 -11l-275 -80q-5 -1 -5.5 -3.5t-0.5 -5.5q0 -35 9 -70t11 -69v-72q0 -1 1 -6t2.5 -10.5t3.5 -10t3 -4.5v-13q0 -22 -5 -42.5t-5 -41.5q-3 0 -11.5 2t-17 5.5t-13.5 8.5t-2 11l-9 -7l-5 10q-5 -1 -4.5 -7t0.5 -12.5t-4 -12
t-17 -5.5q-10 0 -15 7t-10 17v-14zM361 24q-5 0 -5 -5t5 -5q3 0 3 5t-3 5zM337 41q-4 0 -4 -3.5t4 -3.5q3 0 3 3.5t-3 3.5zM327 60q2 -1 7.5 -6.5t6.5 -7.5v5q0 6 -1.5 9.5t-7.5 9.5q-2 0 -3.5 -4t-1.5 -6zM694 469q4 0 4 -5t-4 -5q-3 0 -3 5t3 5zM341 722q5 0 5 -5t-5 -5
q-3 0 -3 5t3 5zM94 732q-5 0 -5 -5t5 -5q2 0 2 5t-2 5zM341 726q2 3 -1.5 3t-2.5 -3q0 -1 2 -1t2 1zM371 732q3 0 3 -5t-3 -5q-5 0 -5 5t5 5zM355 736q-3 0 -3 -5t3 -5q5 0 5 5t-5 5zM455 756q-5 0 -5 -5t5 -5q3 0 3 5t-3 5zM489 770q2 0 2 -5t-2 -5q-5 0 -5 5t5 5zM549 779
q6 4 9 8t6.5 6.5t9 4t17.5 1.5l9 -3q-5 0 -11.5 -3t-6.5 -9q0 -5 4 -5h-17.5t-16.5 -5h7zM51 796q-2 2 -2 -1t2 -3q3 0 3 2t-3 2zM545 820q-5 0 -5 -4t5 -4q3 0 3 4t-3 4zM736 886h6v4h-6v-4zM680 896q1 -5 3.5 -5.5t6.5 -0.5h4q4 2 16.5 3.5t15.5 2.5q-4 2 -18 3t-18 1
q-2 0 -5.5 -1t-4.5 -3zM615 952q-3 0 -3 -2.5t3 -2.5q3 3 0 5z" />
    <glyph glyph-name="at" unicode="@" horiz-adv-x="1064" 
d="M449 446q8 -27 16 -48q7 -18 15 -32t16 -12t7.5 9.5t1.5 15.5q3 11 9 17.5t9 17.5q1 11 -0.5 23t2.5 21l-5 -4l-2 2q-1 3 0 6.5t6 2.5q5 10 7 16t2 10.5t-1.5 10l-4.5 16.5q-2 5 -5.5 16.5t-3.5 12.5l-12 14h-3q-24 -6 -37 -18.5t-18 -28t-4 -33.5t5 -35zM903 107
q1 -17 -10.5 -32t-28.5 -29.5t-35.5 -28.5t-29.5 -30l30 8l-8 -8l-37 -12l-31 -10.5l-27 -9.5l-8 -2q-5 -2 -9 -5q-4 -2 -7 -4t-4 -2l-6 -1q-2 -1 -5.5 -1h-7.5h-10q-2 0 -10.5 -4.5t-11.5 -5.5l-7 -2q-8 -2 -26 -3t-41.5 -1.5t-49.5 0.5t-49 2.5t-41.5 3.5t-26.5 5
q-7 3 -25 11.5l-38.5 18.5l-39 18.5l-25.5 11.5q-7 10 -17.5 18.5t-22 16l-23 15t-19.5 15.5q-47 48 -84.5 100t-53.5 115q-21 83 -24.5 177t21.5 184.5t84.5 170t164.5 135.5q42 21 90.5 34l93.5 24l75 19q3 1 12 2.5t19.5 3.5t20.5 3.5t15 1.5q1 0 8.5 0.5t17 0.5
t18.5 0.5t14 1.5h16.5t21 -0.5t20 -2.5t13.5 -5l38 -30q42 -16 71.5 -49t51 -76t36.5 -93.5t25.5 -101t19 -98t18.5 -84.5l15 -60q-2 -3 -10.5 -8.5t-7.5 -9.5l1 -60q-6 -6 -8 -11.5t-3 -11.5t-2.5 -11t-7.5 -9l-17 68q-1 2 0 5l2 6l2 8q0 2 -4.5 6.5t-6.5 3.5l-4 -14
q2 -18 3 -35q1 -14 1.5 -29t1.5 -25l5.5 -11t-4.5 -12q-10 5 -11.5 7t-3.5 7q-3 13 -3.5 33.5t3.5 33.5l-15 -4q2 -2 3 -5q2 -6 0 -8q2 -14 2.5 -36.5t1.5 -42.5q1 -25 1 -50l-9 -28l-7 -2q-4 16 -4.5 35t1.5 36l-16 -20l-1 4q0 2 1 9.5t2 8.5l-20 -16q-5 2 -7 6
q-1 -1 -4 -3.5t-5 -3.5q12 -1 10.5 -6.5t-0.5 -9.5q7 2 9.5 3.5t6.5 -6.5q1 -3 -4 -8q-16 -14 -21 -17.5t-8 -3.5t-9 1.5t-23 -1.5v2q2 6 5.5 12t6.5 13q5 -15 -9 -15.5t-36.5 7t-48.5 18.5l-46 20t-29 12t4 -7q-12 3 -23 7t-13 6v3q0 2 0.5 2.5t0.5 1.5q-11 -3 -21.5 7.5
t-17.5 21.5q-6 -4 -2 -11.5t0 -10.5q-2 -3 -8.5 -8.5l-13.5 -11.5l-13.5 -11.5t-9.5 -8.5l-17 -5q-5 -1 -6 0t-3 2t-8 1t-20 -4q-1 0 -2.5 -4.5t-3 -7.5t-2.5 -2t-1 12q-23 -15 -48 -10.5t-49.5 20.5t-46 40t-37 49t-23.5 47t-5 34v8q0 8 1 9q-8 46 3 85.5t34.5 72t54 57.5
t61 40.5t56.5 22t40 2.5q6 -4 7 -6l-2 -4l-2 -4q1 -3 12 -0.5t25.5 3.5t27.5 -3t17 -20l7 2q1 0 7 -6.5t5 -11.5q-5 -78 -2.5 -127.5t11 -75.5t22 -30.5t31 6t37.5 33.5t41 53q22 24 24.5 62.5t-3.5 76.5t-16.5 67t-14.5 35q-5 7 -26 21l-44 28.5l-42 26t-20 13.5l5 2l-2 8
q-2 -2 -7.5 -4t-7.5 -2l-7 3l-15 -4q-25 -6 -60.5 -7.5t-78 -12t-91 -35.5t-99.5 -78q2 -8 -5.5 -11.5t-13.5 -4.5q-16 -34 -26 -76t-15 -85t-4.5 -85t6.5 -76q14 -89 47 -148t77.5 -93.5t98.5 -47.5t110 -8.5t111.5 22.5t103.5 46zM863 259q-12 -8 -13 -14t2 -7.5t7.5 3
t3.5 18.5zM858 308l7 -29zM873 263q2 5 4 11l4 12q-2 6 -2 11.5t-1 10.5q-3 -12 -3.5 -23t-1.5 -22zM1005 371q-6 -2 -4.5 -8.5t7.5 -4.5t4.5 8.5t-7.5 4.5zM939 237q-5 -2 -3.5 -8t6.5 -4q7 2 5.5 8t-8.5 4zM948 391q-8 -2 -6.5 -8t9.5 -4q4 1 2.5 7t-5.5 5zM987 561
q-5 -2 -3.5 -7.5t6.5 -4.5q6 2 4.5 8t-7.5 4zM859 79q-5 -2 -4 -7.5t7 -3.5t4.5 7.5t-7.5 3.5zM1000 356q-5 -1 -3.5 -7t6.5 -4q6 1 4.5 7t-7.5 4zM861 499q-5 -2 -3.5 -8.5t6.5 -4.5q4 1 2.5 7.5t-5.5 5.5zM895 359q2 -2 3 -2t3 -2v5l-1 6q-1 1 -2 2.5t-3 3.5l-4 4z
M997 434q-5 -2 -4 -7t7 -3q5 2 3.5 6.5t-6.5 3.5zM870 432q-6 -2 -5 -6.5t7 -2.5q5 2 4 6.5t-6 2.5zM890 407q-5 -2 -4 -6.5t6 -3.5q5 2 4 7t-6 3zM867 352q-6 2 -4.5 -5.5t7.5 -5.5q2 2 0.5 6.5t-3.5 4.5zM948 502q1 2 -1 2t-5 -0.5t-4.5 -2t0.5 -2.5q1 -4 6.5 -2.5
t3.5 5.5zM653 -55q-1 1 -9 -1.5t-7 -2.5q5 -3 10 -2t6 6zM1011 437q-6 1 -5 -4t6 -1q2 1 1.5 3.5t-2.5 1.5zM879 361q-5 0 -4 -3.5t6 -2.5q5 8 -2 6zM873 82l8 2l-2 8zM757 -24l21 5l-1 3zM517 392q-3 -1 -2 -4.5t4 -2.5q2 1 1 4.5t-3 2.5zM696 242q-2 0 -2.5 3.5t-0.5 7.5
t0.5 7.5t2.5 3.5l2 4q-1 -2 -1 -4v-9q-1 -6 -1 -13z" />
    <glyph glyph-name="X" unicode="X" horiz-adv-x="725" 
d="M181 -41q-2 2 1.5 8t4.5 8v3q2 11 -1 22.5t-17 13.5q-4 0 -5.5 -0.5t-8.5 -3.5q-2 0 -6 -2l-4 -2l-7 -50q-5 3 -14.5 6.5t-8.5 12.5q2 6 7.5 4.5t7.5 -1.5l3 21l-3 4q-2 -1 -5 -6t-3 -8q6 15 -5 15q-8 1 -12.5 -4t-11.5 -5q0 3 -1.5 9t-4 12.5t-5.5 11.5t-5 7l-11 -9
q-5 13 -14 14q1 4 4 4.5t4 5.5l-6 1q15 108 46 208t75 200l1 4q1 5 -8 22.5t-23 41.5l-31 51l-33 52l-29 44.5t-18 28.5q-2 2 -6 9l-9 15.5t-9 16t-5 10.5v6q2 14 12 27t23.5 22.5t29 14t28.5 2.5q2 -2 11.5 -7t11.5 -5q20 -11 41.5 -18t37.5 -23q2 -3 7.5 -9.5l11.5 -14
t10.5 -14.5l6.5 -10l49 -83q3 0 13 13t24 33.5l30 45.5l31 47l27 38.5t18 21.5q13 12 25.5 26l25 27.5t27 26t31.5 21.5q7 3 8.5 7t3 7.5t4.5 6.5t12 4q1 -2 3 -3q3 -3 6 -3q1 0 8.5 1.5t9.5 1.5t4.5 -0.5t3.5 -0.5q18 -2 34 -8.5t30 -16l28.5 -20t29.5 -18.5
q-1 -3 -1.5 -10t-1.5 -10q-3 -18 -9.5 -31t-16 -22.5t-21 -18.5l-24.5 -19q-21 -19 -45.5 -51.5l-49.5 -68l-47 -69.5l-37 -56l-2 -2q-1 -1 -4 -1q-13 -23 -28.5 -46t-19.5 -49q-1 -6 4.5 -14t11.5 -15.5t10 -14.5t0 -11q3 -3 7.5 -8.5l10 -12t10 -12.5t7.5 -8q-1 -1 0.5 -5
t0.5 -6q2 -8 13.5 -21.5l24.5 -28t23 -29t9 -23.5q-1 -5 -3 -11.5t-7 -9.5q0 -2 2.5 -3t4.5 -1q1 -1 5.5 0t4.5 3q1 -1 2.5 -5.5t1.5 -5.5q0 -2 -2.5 -5t-3.5 -4q1 -3 6 -9.5t11 -13.5l11.5 -13.5t8.5 -8.5q3 -4 6.5 -5.5t6.5 -2.5t4.5 -2.5t1.5 -6.5q15 -2 21 -12.5
t17 -11.5q-1 -2 -2.5 -9t-6.5 -9l4 -4v-2v-4l-6 -4l21 -12l-2 -13q1 -2 7 -2.5t12.5 -2t10.5 -4.5t3 -8l-52 5q-2 2 -7 4t-9.5 4t-6.5 5t1 8l-11 -8q-5 4 -6.5 7l-3 6t-5 4.5t-11.5 2.5h-5q14 -18 29 -26.5l33 -19.5q0 -1 -3 -4q-2 -1 -3 -2h-1q-2 0 -2 0.5t-1 0.5h-1
q-2 0 -11.5 4t-11.5 4q-2 -2 -4 -3q-4 -2 -7 -2h-2q-3 0 -4 1q-4 0 -8 1.5t-2 9.5q-2 -2 -5 -3t-5 -1l-4 2q-2 1 -3.5 1.5t-2.5 1.5l-3 5q-8 6 -13 11l-8 6l-11 -4l-19 24q-3 -2 -6.5 -7t-7.5 -5h-2q-7 5 -14 14t-16 12l-121 156q-10 -16 -17.5 -36.5t-13 -43l-10.5 -44
t-11 -39.5q0 1 -3 4l-2 2v1l-3 -1q-17 -26 -24 -54t-15 -56q-3 -5 -6 -7t-5 -4t-3 -5.5t0 -11.5q-2 2 -4.5 5t-4.5 3q-1 0 -1.5 -0.5t-1.5 -0.5l-1 -1l-4 -25q-5 0 -13 9t-7 14zM191 -25q-3 0 -4 -5t2 -5q5 0 6 5t-4 5zM212 -20q-1 0 -3 -2q-1 -1 -2 -1l2 -1h2l5 4l-1 1z
M184 25v3l-3 1zM175 54q-1 0 -3 -4q-1 -2 -2 -3t-1 -2v-2v-3q0 2 2.5 5t2.5 5v2zM187 45q-2 1 -3 -4t1 -6q5 0 6 5t-4 5zM587 44q-2 1 -3 -3.5t1 -5.5q3 0 4 4.5t-2 4.5zM567 46v5l-7 1zM640 49q4 0 3.5 -5t-4.5 -5q-3 1 -2.5 6t3.5 4zM487 78q5 -1 4.5 -6t-5.5 -4
q-3 0 -2.5 5t3.5 5zM277 108q-1 0 -1.5 -3.5t0.5 -3.5q3 3 1 7zM569 83q-3 1 -3.5 -4t2.5 -6q2 0 2.5 5t-1.5 5zM500 94q-3 0 -3.5 -3.5t2.5 -3.5q2 0 2.5 3.5t-1.5 3.5zM533 259q-5 1 -5.5 -4t4.5 -6q2 0 2.5 5t-1.5 5zM496 311q5 0 4.5 -5t-5.5 -5q-3 1 -2.5 6t3.5 4z" />
    <glyph glyph-name="J" unicode="J" horiz-adv-x="688" 
d="M327 10q0 2 -6.5 3.5t-14 2t-14 1t-7.5 0.5q-2 1 -7.5 1.5t-11.5 0.5t-11 -0.5t-8 -1.5q0 3 -6.5 6t-14.5 6t-15.5 5t-9.5 3q-3 1 -9.5 3t-14 4l-14.5 4t-9 3v5q-2 1 -7.5 3.5l-11.5 5.5l-11 5.5l-7 3.5l-17.5 9l-18.5 10t-16 9.5t-10 8.5q1 0 3 2t2 4q0 8 -4.5 15
t-10.5 13.5t-11.5 13.5t-6.5 15l4 7q0 8 -5.5 21t-8.5 23q0 1 -1.5 2.5t-1.5 2.5h17q0 11 -2 20t-2 20q0 3 1.5 12.5l3 19t3.5 17t4 7.5q0 -16 -0.5 -30.5t7.5 -28.5q2 -5 4 -5.5t6 -0.5q10 0 9 16h-3h-2q-1 -2 -2.5 -6t-2.5 -4l-2 4q-2 4 -2 6v2q0 10 2.5 17.5t1.5 18.5
q8 0 9 -3t1 -7v-4q0 -4 -2.5 -10t-2.5 -7h14v-38q10 0 16 -0.5t4 -15.5l3 4v43h12q0 2 -1.5 9t3.5 9l-4 6h4h6l28 -16q1 -2 2 -10.5l2 -17.5t3.5 -16t7.5 -7h4l3 5l3 1q8 0 10 -10t7 -15q26 -29 58 -45t70 -16t64 15.5t42 41t23 56.5t7 63q0 5 -1 20.5t-1 20.5q-4 8 -9 23
t-5 26v1q0 2 2.5 5.5t2.5 4.5q0 2 -4.5 7.5t-4.5 6.5q-2 4 -4.5 13.5t-5 20t-4 19.5t-1.5 13q0 7 2.5 9t2.5 7l-27.5 74.5t-23.5 73.5t-14 76.5t1 83.5q1 14 7.5 34t16.5 39t22.5 34.5t27.5 20.5q2 0 12 -1t12 1q2 0 10 3.5t10 3.5h2q1 0 1.5 0.5t1.5 0.5q9 0 15.5 -4
t6.5 -14q6 4 13.5 3.5t14.5 -0.5q6 0 16 -3.5t19 -9.5t15.5 -13.5t6.5 -14.5q0 -1 -0.5 -2t-0.5 -2v-2q0 -3 -2 -11.5t-2 -11.5l4 -5v-1q0 -19 -6.5 -30t-17.5 -25q-12 -52 -2.5 -105t26 -106l32.5 -107t18 -108q6 -7 9 -17.5t3.5 -21.5t0.5 -22v-19q0 -58 -16.5 -115.5
t-49.5 -103.5t-81.5 -74.5t-112.5 -28.5v7h-38l-2 -2q-1 -1 -2 -1t-1 -1h-2h-3q-3 0 -11.5 2t-10.5 2zM337 14q-4 0 -4 -5t4 -5q3 0 3 5t-3 5zM365 14q2 1 -4 1t-6 -1q2 -2 5.5 -2t4.5 2zM496 41q0 3 -3 0.5t-1 -4.5t3.5 0t0.5 4zM177 56q-5 0 -5 -5t5 -5q3 0 3 5t-3 5z
M87 201q-1 1 -1 -2.5t1 -1.5q3 0 3 2t-3 2zM31 211q-3 0 -3 -5t3 -5q5 0 5 5t-5 5zM94 211h3l-3 4v-4zM37 225q-5 0 -5 -5t5 -5q3 0 3 5t-3 5zM164 225h3v5zM84 239q-3 1 -3 -3t3 -2q2 0 2 2.5t-2 2.5zM55 254q1 2 -2.5 2t-1.5 -2q0 -3 2 -3t2 3z" />
    <glyph glyph-name="P" unicode="P" horiz-adv-x="685" 
d="M236 14h-6v13q-11 -5 -17.5 -7.5t-17.5 -2.5q-17 0 -33 8t-28 21t-20 29t-10 32q-1 1 -1.5 16t-0.5 33v33t1 16v50q0 58 -6.5 116.5t-16.5 115.5q-2 6 -4.5 17t-5.5 23t-4.5 23.5t0.5 19.5q-11 63 -19 120.5t-14 119.5q0 2 -1.5 7t-1.5 7q-2 0 -4.5 2t-2.5 4l7 8v7v8
l-7 9q0 1 2.5 5.5t4.5 4.5q7 22 9 38.5t8 26.5t20.5 15t45.5 5q25 0 46.5 -10t47.5 -15q3 0 16 -2t17 -2q46 -5 85.5 -17.5l82.5 -26.5l-8 -4q3 -6 8.5 -8.5t12 -2.5h13.5t13 -2q36 -11 74 -35t69.5 -56t51.5 -70.5t20 -78.5v-28q-9 -16 -15 -33.5t-19 -32.5
q-22 -29 -48 -50.5t-55 -38t-60.5 -28.5t-64.5 -23q-12 -4 -24.5 -5t-25.5 -1.5t-25 -2t-24 -5.5v-14q0 -35 2.5 -69t2.5 -68q0 -3 0.5 -24t1 -46t1 -46.5t0.5 -24.5q0 -1 -1.5 -5.5t-3 -9.5t-2.5 -10t-1 -6q-2 -9 -8 -15.5l-12 -12.5l-12 -12.5t-8 -15.5q-7 2 -10 6
t-4.5 8.5t-3.5 9.5t-7 10v-20zM230 87q-4 0 -4 -3.5t4 -3.5q3 0 3 3.5t-3 3.5zM391 403q-5 0 -5 -5t5 -5q3 0 3 5t-3 5zM243 768q0 -4 2 -21.5t4.5 -42t6.5 -52t8.5 -51t8.5 -39t8 -15.5h6q3 2 11.5 3t12.5 3q4 0 14.5 3.5t22.5 7t22.5 7.5t14.5 6q9 7 24 17t28.5 22
t23.5 25.5t10 26.5q0 5 -2.5 11.5t-7.5 8.5q1 0 2.5 2t1.5 3q0 14 -18.5 29t-42 28t-46 22t-30.5 11q-17 3 -32 3.5t-33 0.5h-13l-7 -4v-15zM485 834q-5 0 -5 -5t5 -5q2 0 2 5t-2 5zM455 838q-3 0 -3 -4t3 -4q5 0 5 4t-5 4zM451 844q-3 0 -3 -5t3 -5t3 5t-3 5zM471 838h4v6
h-4v-6zM441 858h6l-6 4v-4zM347 894q-3 0 -3 -5t3 -5q5 0 5 5t-5 5zM323 900q-2 0 -2 -5t2 -5q4 0 4 5t-4 5zM287 908q-5 0 -5 -4t5 -4q3 0 3 4t-3 4zM240 914q-4 0 -4 -5t4 -5q2 0 2 5t-2 5zM253 914q-2 0 -2 -5t2 -5q3 0 3 5t-3 5zM235 918q-4 0 -4 -5t4 -5t4 5t-4 5z" />
    <glyph glyph-name="S" unicode="S" horiz-adv-x="653" 
d="M94 56q0 2 1.5 7.5t1.5 6.5q-2 0 -11 3t-9 9l3 2l4 3h-12q0 1 -0.5 2.5t-0.5 2.5q-1 1 -1 2q-1 0 -4.5 1.5t-5.5 1.5v3v4q2 1 7 6l7 7q-2 0 -7 2t-7 2v1v5l27 15h-22q3 8 10 11t15 4t15 1.5t9 5.5q4 1 15.5 3t25 4t25.5 4t17 2q17 3 46 7t59 10.5t56 17t37 27.5v17
q0 15 -11.5 37.5t-27 45.5t-31.5 42.5t-25 28.5q-9 2 -24 16l-30.5 29.5t-30 28t-22.5 12.5l-1 -2l-4 -4l2 -2q0 -1 0.5 -1t0.5 -1t1 -1v-2v-3q-2 1 -9.5 6t-15.5 11.5t-14 12t-5 8.5q-16 15 -24 29.5t-22 32.5q-13 17 -29.5 34t-30.5 35.5t-24 39t-10 44.5q0 18 7.5 35.5
t19.5 33t27.5 27.5t32.5 19q11 4 20.5 3.5t15.5 13.5l4 -4l9.5 9.5t10.5 8.5q0 2 1.5 2t1.5 -2q52 26 104.5 39.5l107.5 26.5q10 -2 23 -0.5t27 4t27.5 4.5t25.5 2q16 0 29 -1.5t25.5 -4.5t25.5 -6.5t29 -6.5q-2 -4 6 -9.5l18 -12t18.5 -14t8.5 -14.5v-1q0 -2 -1.5 -3
t-1.5 -3q5 -3 5 -11t8 -13l-10 -4q3 -8 1 -18t-7 -18.5t-13 -14t-18 -5.5h-94l4 -4q-1 -2 -6.5 -4t-7.5 -2t-10 0.5t-17.5 0.5h-18t-10.5 -1q-2 0 -7 -1t-7 -3q-1 -1 -4.5 -9.5t-5.5 -10.5q-1 0 -9 1t-10 -1q-31 -4 -61.5 -19.5t-59.5 -26.5q-13 -5 -20.5 -11t-20.5 -6
q0 -17 15.5 -38t36 -41.5t41.5 -38.5t32 -29l10.5 -10t15.5 -15.5t15.5 -15.5l10.5 -10q2 -1 5.5 -3.5t8.5 -2.5l24 -23l-6 -3q3 -2 9 -4.5t11.5 -6.5t9 -8.5t0.5 -10.5q0 3 1 4l2 2h2h3l2 -2q3 -3 3 -4q-5 0 -5 -4q0 -2 6.5 -13.5l16.5 -28l21.5 -35.5l22 -35l17.5 -26.5
t8 -10.5q0 -11 6.5 -29t9.5 -31q1 0 2.5 -2t2.5 -2v-19q0 -38 -17.5 -66.5t-43.5 -48.5t-56 -33.5t-56 -21.5t-43.5 -12t-17.5 -6l-136 -14q-5 1 -25.5 9l-43 17t-40.5 17t-18 9v4zM80 131q-5 0 -5 -5t5 -5q3 0 3 5t-3 5zM426 480q-3 0 -3 -4.5t3 -4.5q5 0 5 4.5t-5 4.5z
M182 500h6l-6 4v-4zM165 510h13q-2 0 -5 4t-5 4l-2 2l-1 -2v-8zM158 528q-2 0 -2 -5t2 -5q5 0 5 5t-5 5zM148 538q-2 0 -2 -5t2 -5q5 0 5 5t-5 5zM408 768q0 2 -3 2t-3 -2q4 -6 6 0zM385 778q-4 0 -4 -5t4 -5t4 5t-4 5zM398 781q-4 0 -4 -5t4 -5q3 0 3 5t-3 5z" />
    <glyph glyph-name="seven" unicode="7" horiz-adv-x="646" 
d="M328 12q-4 -2 -6 -2l-3 -3q-5 0 -7.5 3.5t-4 8l-3 9t-5.5 6.5q-19 4 -33 15t-14 35q0 35 12.5 73.5t20.5 72.5q10 24 20.5 65t21 90t20 103t17 104t12 93t4.5 70v28q-7 0 -13 1q-5 1 -11 1.5t-10 0.5q-3 1 -12 2.5t-19.5 2.5t-20.5 1.5t-14 0.5h-41t-54 2t-58 7.5
t-52.5 17t-38 30t-14.5 46.5q0 14 9.5 25t23 19t28.5 12t26 4q7 0 25.5 -1.5t39.5 -3t39.5 -3t25.5 -2.5q17 -1 33.5 -6.5t31.5 -3.5l142 -22q12 -7 25.5 -6t25.5 -4l39 -11.5t41.5 -16.5t33 -25.5t13.5 -39.5q1 -4 -1.5 -31.5t-7.5 -68t-12.5 -90t-16 -99t-17.5 -93.5
t-17 -74q-19 -53 -34.5 -108.5t-28.5 -111.5q-1 -2 -2.5 -6.5t-3 -9.5t-3 -9.5t-1.5 -5.5q0 -2 -4 -6q-2 -2 -3 -4q0 -3 3 -6l4 -4q0 -2 -5 -7t-5 -7q-8 -16 -13.5 -25t-12.5 -14.5t-17 -8t-27 -5.5q-2 0 -5.5 -1.5t-4.5 -1.5q-2 -2 -4.5 -2t-4.5 -1q-3 -1 -5 -1l-4 4h-4h-2
q-1 -2 -4.5 -8t-5.5 -6q-1 0 -3 1q-4 2 -5 3q-1 0 -3.5 2t-2.5 4q-1 0 -4 2t-5 2z" />
    <glyph glyph-name="t" unicode="t" horiz-adv-x="540" 
d="M292 15q-2 -1 -6 -1q-5 1 -8.5 7.5t-6.5 15t-5 17t-3 13.5l-14 -15q-13 11 -20.5 31.5t-12 44t-6.5 46.5t-3 38q-1 7 -2.5 27.5l-3 43t-3 42t-2.5 26.5q-3 35 -4 70t-4 70h-3q-14 0 -27 -4t-25.5 -9.5t-25 -9.5t-26.5 -4q-8 0 -12.5 2t-12.5 7l10 10q-28 -3 -47 2.5
t-33.5 16t-26 26.5l-24.5 34q23 21 50 34t56 22t59 16.5t60 17.5q5 4 7.5 20.5t2.5 39.5t-1 49.5l-2 50.5t-1.5 41.5t1.5 22.5q7 37 32 53.5t55.5 19t60.5 -7.5t49 -25q2 -6 4 -22.5l4.5 -38t6 -45t7 -44t8 -34.5t10.5 -16q5 0 17 1t25.5 1.5t25.5 1.5t17 1h4q14 0 30 -0.5
t30 -4.5q4 -2 10 -3t11 -3q6 -2 13 -3v-6h8l48 -24v-4h-11q0 -8 5 -9t13 -1q0 -5 4.5 -9t10.5 -8l11.5 -7.5t8.5 -7.5h-7q-8 0 -15.5 1t-13.5 4q-3 0 -6 5q-2 2 -4 5q-3 0 -10.5 -4t-9.5 -6l-4 5l-28 -5l42 -15q-2 -4 -6.5 -5t-8.5 -1.5t-7.5 -2.5t-4.5 -9q-5 0 -17.5 -2
t-15.5 -4q-2 0 -4 -2t-2 -4h-51l-5 -11h-42v3l-35 -10.5t-35 -16.5q2 -14 -2 -27t-4 -27q0 -60 -0.5 -115.5t10.5 -115.5v-187q-3 -5 -3.5 -13t-0.5 -15t-1.5 -12t-7.5 -5q0 -9 2.5 -12t2.5 -13q-4 0 -10 2t-11.5 6t-8 9t1.5 10q-17 0 -24 -14q-3 6 -5.5 5t-8.5 -1
q0 -2 3 -7t1 -7q-1 -2 -8.5 -8.5t-10.5 -8.5q-4 2 -7 9.5t-7 7.5zM343 51q-2 1 -2 -4.5t2 -5.5q2 1 2 4.5t-2 5.5zM445 590q-2 0 -2 -5t2 -5q5 0 5 5t-5 5zM625 663q-5 0 -5 -5t5 -5q3 0 3 5t-3 5zM619 673q-3 0 -3 -5t3 -5q5 0 5 5t-5 5z" />
    <glyph glyph-name="L" unicode="L" 
d="M16 849q-8 26 6 46.5t37 34.5t50.5 21t48.5 7q14 0 33 -2.5t30 -16.5q16 -20 17 -47t5 -53q3 -16 7.5 -47t8.5 -69t8 -80l7.5 -80.5t6 -70t4.5 -47.5q1 -7 1.5 -29t1.5 -50.5t3 -60.5t5 -59t8.5 -45.5t14.5 -19.5q7 0 13 3t11.5 6.5l10.5 7t11 3.5h6l-6 -10h6h4l6 6
q3 2 18.5 6t37.5 8.5t47 9t46 9l35.5 7.5t15.5 4q11 5 27.5 11t27.5 6h2q2 -1 3.5 -4t1.5 -4q-2 -4 -3 -7q-1 -2 -1 -5q0 -1 -1 -2v-3v-1l29 13v-13q11 0 18 7.5t20 7.5v-6l-38 -33q2 -5 0 -10t-6 -10q8 5 16.5 9t17.5 5l2 -4q0 -1 -0.5 -2t-0.5 -2q-1 -1 -1 -2l-14 -7
q-1 -2 -2.5 -8t-3.5 -7q-5 -14 -24 -29.5t-54.5 -33t-89 -37.5t-126.5 -43h-9v19q-2 -1 -6.5 -6t-4.5 -6q0 -2 1.5 -6t2.5 -4q-16 -7 -37 -11.5t-37 -12.5v10h-14v-13q-12 0 -21 1t-16.5 3.5t-15 5.5l-17.5 7q-11 4 -28 8.5t-34 10.5t-31 12.5t-20 14.5q-15 19 -21.5 44.5
t-9 53t-2.5 54.5t-1 49q0 5 -0.5 20.5t-1.5 35.5t-2 43t-2 43.5t-2 35.5t-1 20q0 3 -2.5 32.5t-6.5 72l-8.5 91.5t-9 91t-9 70t-6.5 29zM257 17q-2 0 -2 -3.5t2 -3.5q3 0 3 3.5t-3 3.5zM351 37q-3 0 -3 -5t3 -5q5 0 5 5t-5 5zM381 41q-5 0 -5 -3.5t5 -3.5q3 0 3 3.5t-3 3.5z
M635 142q-4 0 -4 -3t4 -1q1 0 1 2t-1 2zM648 151l4 5h-4v-5zM661 170q-3 0 -3 -4.5t3 -4.5q5 0 5 4.5t-5 4.5zM671 178q-3 0 -3 -4t3 -4t3 4t-3 4zM652 232q-3 0 -3 -5t3 -5q4 0 4 5t-4 5z" />
    <glyph glyph-name="A" unicode="A" horiz-adv-x="736" 
d="M160 14q-1 0 -7.5 -2t-7.5 -2q-1 -1 -5.5 -2t-10.5 -1.5l-12 -1t-10 -1.5h-2q-6 0 -7 4.5t-3.5 10t-8 11t-20.5 7.5q-11 2 -17 6.5t-12 12.5v24q0 12 1.5 37t3 56.5t4 66.5t4 66.5t3 57t1.5 37.5q0 5 -0.5 19.5t-0.5 18.5q-2 3 -5.5 16t-3.5 18q0 1 1.5 6.5t2.5 7.5v35
q0 71 -7 139.5t-5 139.5q0 22 2 51t10 55.5t25.5 45t49.5 18.5h100q7 0 17.5 -9.5t15.5 -14.5q0 -3 0.5 -10.5l1 -15.5l1 -16t0.5 -11v-17q14 0 23 8t21 16q14 8 32 10.5t34 2.5q19 0 35.5 -4t32.5 -6q27 -3 42.5 -8t26.5 -14.5t20.5 -24l24.5 -36.5q3 -5 7 -9t8 -8.5
t7 -9.5t3 -12h-5q0 -8 3.5 -20.5t9.5 -20.5q0 -2 4.5 -3.5t4.5 -3.5q8 -11 8.5 -23t9.5 -23q0 -1 -1 -2q-2 -2 -3 -2t-4.5 2t-4.5 2v-2v-2q0 -2 2.5 -8l5.5 -13.5l6 -14.5t5 -11q5 -11 7 -21.5t10 -21.5q2 2 3.5 3t3.5 2h1q20 0 28.5 -7t8.5 -25h32l-28 -15.5t-14 -22.5
q7 0 11 -0.5t7 -0.5t6.5 1t10.5 4l7 -10q-7 5 -12.5 0.5t-10.5 -12.5l-9.5 -15.5t-9.5 -7.5q0 -14 2 -27t2 -27q0 -4 0.5 -8t-5.5 -5l10 -5q7 -85 12 -154q2 -29 4.5 -57.5l4.5 -52t4 -39t3 -19.5q1 -3 1.5 -9.5t2 -13t4 -11.5t6.5 -6v-53q-14 0 -14 -14l-5 14q0 -3 -4 -8.5
t-9 -5.5q-4 0 -5.5 3l-3.5 7t-4.5 7t-7.5 3l-7 -6q-6 3 -8.5 6t-3 5.5t-2 4t-6.5 1.5v-4q1 -2 1 -4.5t1 -5.5q0 -4 1 -7h8q-1 -1 -1 -2v-3q-2 -2 -7 -7.5t-7 -6.5q-2 0 -2 -0.5t-1 -0.5l-1 -1q0 10 -8 17t-8 18h-4q-3 0 -10 -4t-9 -6q-5 13 -16.5 29t-26.5 16v3h-12
q0 3 -2.5 31t-7 68l-9.5 85.5t-10 84t-9 64t-6 25.5q-31 0 -62 -10t-65 -10v6q11 0 24.5 2.5t22.5 7.5h-3h-5q-4 -2 -19 -3.5t-20 -2.5l-4 -4q-6 -10 -25 -12.5t-40 -3.5t-38.5 -4t-21.5 -13q-1 -3 -1.5 -20.5t-1 -42.5t-1 -53t-0.5 -53t-0.5 -42.5t-0.5 -20.5
q-3 -10 -8 -17.5t-9 -15.5q0 -2 1 -12t-1 -12l-2.5 -6t-6.5 -13.5t-7.5 -15l-5.5 -11.5t-4.5 -7.5t-4.5 -7.5q-3 -4 -5 -9h-14v4q0 2 1 4.5t-7 4.5zM663 24q-2 0 -2 -5t2 -5q3 0 3 5t-3 5zM660 44q-5 0 -5 -5t5 -5q2 0 2 5t-2 5zM509 389q-4 0 -4 -5t4 -5q3 0 3 5t-3 5z
M312 404q-3 0 -3 -5t3 -5q5 0 5 5t-5 5zM423 403l14 4h-14v-4zM467 416q-5 0 -5 -4.5t5 -4.5q3 0 3 4.5t-3 4.5zM499 421q-4 0 -4 -4.5t4 -4.5t4 4.5t-4 4.5zM477 429q-5 0 -5 -4t5 -4q3 0 3 4t-3 4zM673 509q-4 0 -4 -4t4 -4t4 4t-4 4zM654 537q-2 0 -2 -4t2 -4q3 0 3 4
t-3 4zM380 755q-17 9 -34 -6t-31 -45t-24.5 -71.5t-14.5 -84.5v-6q1 0 6.5 1t7.5 1q7 1 28.5 3.5l46 5.5t45.5 5t27 3q8 0 10 2.5t2 7.5q4 8 -2 35.5t-17 59t-24.5 58t-25.5 31.5zM617 671q4 -3 8.5 -11t8 -16.5t5.5 -17t2 -13.5q0 -1 -2.5 -3t-4.5 -2q-5 11 -11 25.5
t-6 28.5v9zM296 727q-2 2 -4 -1t0 -4q5 0 4 5zM300 741q-3 0 -3 -5t3 -5q5 0 5 5t-5 5zM292 745q-5 0 -5 -4t5 -4q3 0 3 4t-3 4zM579 731q-4 0 -4 -5t4 -5t4 5t-4 5zM292 788q-5 0 -5 -5t5 -5q3 0 3 5t-3 5zM329 798q-4 0 -4 -5t4 -5q2 0 2 5t-2 5z" />
    <glyph glyph-name="Z" unicode="Z" horiz-adv-x="696" 
d="M120 124q0 10 4 22t10 24t12.5 23.5l11.5 20.5q8 15 20 39.5l26 54l29 61.5l29.5 61.5l27 53.5t21.5 39l33.5 51.5l45 72t39 71t16.5 49.5q0 2 -1 5t-1 5q-14 5 -33.5 4t-33.5 -1q-29 0 -57.5 -3.5t-57 -8t-57 -8t-56.5 -3.5q-11 0 -25 5.5t-14 20.5l6 -3q1 0 4.5 -1.5
t4.5 -1.5h2h3h1q1 0 2 1l2 2q-3 -2 -9 4q-3 3 -5 6q-6 4 -8.5 4.5t-4 0.5t-3.5 -1t-6 0q-12 2 -27 11t-28.5 20t-22.5 23.5t-9 21.5q0 22 15 38.5t32 25.5l12 3t17 3.5t17 2.5t11 1q32 3 65 4t65 6q3 0 13 1.5t21.5 3.5l20.5 3.5t11 1.5h19q16 0 48 -2.5t71.5 -8t81 -14
t75 -20t55.5 -26.5t22 -34q0 -16 -8 -31v19q-5 -11 -5.5 -18t-0.5 -17v-18l2 -4q1 -2 2 -3.5t1 -2.5l-5 -4q-7 -11 -11 -24t-7 -26.5l-6 -27t-9 -25.5q-2 -2 -5 -7t-5 -7l-5 -10l-8.5 -17.5l-8.5 -18l-5 -10.5q-3 -5 -10.5 -11t-8.5 -7q-14 -20 -22 -43t-22 -43l-168 -327
l-4 -13h14q23 0 47.5 6.5t41.5 6.5q2 0 4 -3t4 -3q9 0 35 3l56 6.5t56 7t35 4.5l3 -6q-2 -4 -4 -4h-3.5t-3 -1.5t-2.5 -8.5h10q0 -6 -4 -8h17q0 4 1 5t-4 3q10 7 15 7q0 -15 -4 -22.5t-18 -11.5q-1 -1 -6 -2.5t-5 -2.5v-28q-3 0 -10.5 -2t-9.5 -8h6q17 0 32.5 8.5t31.5 8.5
q0 -5 -3 -8.5t-7 -6.5t-7.5 -6.5t-4.5 -8.5h3v-4q-2 -2 -11.5 -6t-11.5 -9l-70 -28q-2 0 -14.5 -0.5t-30 -2.5t-38 -5t-37.5 -7t-29 -8t-13 -9q0 3 -4.5 3.5t-7.5 0.5q-26 0 -53 -8t-56 -6q-30 1 -62.5 7t-59.5 20t-44.5 38t-17.5 60zM619 69q-4 0 -4 -4.5t4 -4.5t4 4.5
t-4 4.5zM633 74q-3 0 -3 -5t3 -5t3 5t-3 5zM643 78q-5 0 -5 -4.5t5 -4.5q3 0 3 4.5t-3 4.5zM657 84q-3 0 -3 -5t3 -5q2 0 2 5t-2 5zM600 98q-2 0 -2 -5t2 -5q3 0 3 5t-3 5zM667 98q-3 0 -3 -3.5t3 -3.5q2 7 0 7zM614 101q-3 0 -3 -5t3 -5q4 0 4 5t-4 5zM629 168q-4 0 -4 -5
t4 -5q3 0 3 5t-3 5zM463 757q-3 0 -3 -5t3 -5q2 0 2 5t-2 5zM383 794q-3 0 -3 -5t3 -5q4 0 4 5t-4 5z" />
    <glyph glyph-name="Y" unicode="Y" horiz-adv-x="704" 
d="M354 -39q0 6 -8 10.5t-15 6.5v5h-5q-1 -3 -5 -11.5t-9 -10.5q0 -2 2.5 -3.5t2.5 -3.5v-2q0 -4 -8 -9.5t-9 -5.5v4v3q0 3 2 12.5t2 11.5v4q-8 0 -8.5 -4.5t-5.5 -6.5l-6 7l-14 -7q-6 8 -7 16t-1 19q-10 0 -17 -2t-18 -2q0 14 3.5 29t11.5 27l-10 6q0 2 2.5 9t2.5 9v9
q1 6 3.5 18.5t4.5 26t4 25t3 15.5q4 20 9.5 52t12.5 66.5l13.5 66t11.5 51.5q2 2 3 6t3 4l-6 30l-30 13l-191 193q-26 18 -48 43.5t-22 57.5q0 6 6.5 15t15.5 18t18.5 15t15.5 6h79q8 -8 16 -6t16 0q2 0 5.5 -1.5t4.5 -2.5l36.5 -22.5t33.5 -25.5q9 -8 23 -24l29 -33t29 -30
t23 -15q19 34 32 75.5l26 84t28 82.5t38 72q5 2 12.5 6t11.5 4q1 0 3 -2t2 -3l14 4.5t13 4.5h3h4q4 0 15.5 -2l25 -4.5t25.5 -4.5t17 -3q11 -17 20 -17.5t14.5 1t7.5 -3t1 -30.5q0 -18 -7 -37t-16.5 -38l-19.5 -37.5t-16 -35.5q-2 -8 -8.5 -30l-14 -47.5l-14 -48l-8.5 -29.5
q-2 -1 -4.5 -8t-4.5 -16t-4 -17t-3 -10q0 -5 -3 -17.5t-7 -27t-7 -27t-4 -17.5q-7 -29 -14 -69.5l-14.5 -83t-16 -82.5t-17.5 -68q-2 -7 -1.5 -16.5l1 -19l1 -19t-2.5 -15.5l-2.5 -12t-4 -15t-5 -15t-5.5 -11q-2 0 -6 -1t-4 -3q-11 -19 -15.5 -41.5t-18.5 -41.5
q-4 -7 -19 -14t-23 -10q-1 0 -2 1q-2 2 -2 3q0 2 1 13.5t1 16.5h-8zM360 -27q-5 0 -5 -4.5t5 -4.5q3 0 3 4.5t-3 4.5zM360 21q-5 0 -5 -5t5 -5q3 0 3 5t-3 5zM444 44l6 4h-6v-4zM450 67q-3 2 -3 -4.5t3 -4.5q1 1 1 4.5t-1 4.5zM454 91q5 2 5.5 4.5t0.5 5.5l-3 3zM467 128
q5 0 5 -5t-5 -5q-2 0 -2 5t2 5z" />
    <glyph glyph-name="D" unicode="D" horiz-adv-x="796" 
d="M381 17q-5 -1 -18 -1.5t-26 1.5t-21.5 8.5t-5.5 20.5q-9 -3 -12.5 -7.5t-7 -9.5t-8.5 -8.5t-15 -3.5q-17 0 -21.5 8.5t-1.5 25.5q-3 -8 -5.5 -16.5t-4.5 -17.5h-4q0 9 -0.5 17.5t-4.5 16.5q-2 -4 -10 -7t-8 -7q0 -2 2 -5t2 -5v-2q0 -4 -3 -5t-7 -1t-7 -1.5t-3 -7.5l-6 4
v42q-4 -8 -6.5 -18t-1.5 -21q-1 7 -4.5 10.5t-6.5 7.5t-4 8.5t2 12.5l-10 -10q-3 5 -8 8t-9.5 6.5t-7.5 9t-2 14.5h-2h-4l-4 -4l-2 -3l-1 3q-2 44 -8.5 99.5t-15 116l-18 124t-17.5 125t-13 117.5t-5 102q0 17 4 39.5t8 38.5q11 2 17 7.5t10.5 12t9.5 12t15 8.5
q12 -1 27.5 -2t33 -0.5t34.5 3.5t31 9q1 0 2 1l2 2h-23l19 14l4 -4l3 10l44 14v9l-27 -9l-7 4q2 0 5 2t5 3l-2 5h-11v9q6 0 11 1t9 1.5t7 2.5h4h2l4 -5l-4 -5h4q8 0 19.5 -2.5t24.5 -2.5t20.5 -2t17.5 -13h64q-9 5 -25.5 6t-24.5 3l-6 5h4q38 0 81 -10.5t84.5 -29
t78.5 -43.5t63 -55h4q0 -11 10.5 -14t18.5 -13q9 -11 10.5 -23.5t9.5 -23.5q0 -4 3 -8q2 -3 4 -5q14 -17 16 -37t0.5 -40.5t-3 -38.5t6.5 -30q0 -2 4.5 -3.5t5.5 -3.5v-3q0 -16 -5.5 -47.5t-14.5 -70t-21 -80.5t-25 -79.5t-26 -66.5t-25 -42q-2 -3 -9 -10.5l-15 -15.5
l-15.5 -15.5l-11.5 -11.5q-2 -2 -9 -7.5t-15 -12.5t-16 -13t-12 -8l-28.5 -21.5t-37.5 -26.5t-40 -22.5t-34 -9.5q-7 0 -15.5 7.5t-12.5 9.5zM409 24q-4 0 -4 -5t4 -5q2 0 2 5t-2 5zM417 27q-4 0 -4 -5t4 -5q3 0 3 5t-3 5zM281 41q-3 0 -3 -3.5t3 -3.5q5 0 5 3.5t-5 3.5z
M197 65q-5 0 -5 -4.5t5 -4.5q3 0 3 4.5t-3 4.5zM127 111q-5 0 -5 -3.5t5 -3.5q3 0 3 3.5t-3 3.5zM315 152q10 0 18.5 5.5t16.5 13l16.5 15t18.5 11.5q4 3 14.5 11.5l22.5 18l22.5 18t14.5 12.5q2 2 6 5t4 5l31 39.5t35 34.5q3 7 8.5 29t12 51t12.5 61.5l11 62t8 52t3 31.5
q0 26 -6.5 55.5t-25.5 49.5q-18 20 -44.5 33t-56.5 21t-60.5 11.5t-57.5 3.5t-43 -4t-24 -13.5t-10 -25t-2 -37.5v-6q3 -8 7.5 -41.5t10 -81l11.5 -102t10.5 -104.5t7.5 -88.5t3 -54.5l5 10q0 -3 2 -10.5t2 -9.5v-2v-2q0 -3 -2 -10.5t-7 -7.5v-1h6q0 -3 3 -10t-4 -10v-39z
M305 225q-3 0 -3 -5t3 -5q4 0 4 5t-4 5zM755 696q3 0 3 -5t-3 -5q-5 0 -5 5t5 5zM712 757q-3 1 -3 -1.5t3 -2.5q2 1 2 2.5t-2 1.5zM688 766q-4 0 -4 -4.5t4 -4.5t4 4.5t-4 4.5zM693 786q-4 0 -4 -5t4 -5t4 5t-4 5zM360 856q0 2 -3 2t-3 -2q4 -5 6 0zM528 866q-3 0 -3 -5
t3 -5q5 0 5 5t-5 5zM298 869q-3 0 -3 -5t3 -5q5 0 5 5t-5 5zM514 866q0 2 -2.5 2t-1.5 -2q0 -3 1.5 -3t2.5 3zM505 876q-4 0 -4 -5t4 -5t4 5t-4 5zM241 905q-5 0 -5 -5t5 -5q2 0 2 5t-2 5zM251 899q2 0 8.5 2.5t6.5 7.5h-15v-10zM478 893q-5 0 -5 -5t5 -5q3 0 3 5t-3 5z
M468 893v6h-14zM274 915l24 -16l-20 20zM322 917q-5 -3 -9 -9t-5 -9q3 0 14.5 1t24.5 2.5t24 4t13 6.5h-20q-11 0 -17.5 -3t-16.5 -3q-2 0 -6 2.5t-2 7.5zM364 903q-3 0 -3 -5t3 -5t3 5t-3 5zM378 903q-3 0 -3 -5t3 -5q5 0 5 5t-5 5zM448 903q1 0 -1.5 0.5t-5.5 0.5t-5 -0.5
l-2 -0.5q2 -2 7.5 -2t6.5 2zM392 917q-3 0 -3 -5t3 -5q5 0 5 5t-5 5zM337 922q-5 0 -5 -4.5t5 -4.5q2 0 2 4.5t-2 4.5zM327 931q0 2 -2.5 2t-2.5 -2q2 -5 5 0z" />
    <glyph glyph-name="o" unicode="o" horiz-adv-x="650" 
d="M174 14v10l-6 3l-14 7t-15 7t-8 5q-7 4 -10 13t-7 15l-23 24t-21 23q-8 11 -10 19.5t-9 18.5l-5 -5h-1h-4q-5 15 -8 25.5t-4.5 20t-1.5 19v21.5v42t0.5 57t2.5 56.5t6 40.5q8 2 6 9.5t-1 10.5q5 21 15.5 45.5l18.5 42.5q0 2 2 3t2 3q2 1 7 13t6 14q1 1 11 8.5l21 15.5
t21.5 14t13.5 5q2 0 3.5 -4t-0.5 -6q5 5 12.5 8.5t14.5 3.5q0 -6 2 -15t11 -11q3 0 7 3l9 6.5l10.5 7t10.5 3.5v-14q6 0 20.5 -3.5t20.5 -7.5q2 0 3 -4.5t3 -4.5q1 -1 5.5 -2t5.5 -1q-36 -76 -54 -149t-9 -160q0 -9 1.5 -26.5t5 -35t10.5 -31t19 -13.5h7l70 43q1 -1 8.5 7
l17 18.5t20 20.5t16.5 14q10 22 17.5 54t10.5 66t1.5 66t-8.5 53q-9 21 -19.5 34.5t-22.5 23.5t-26 18l-30 18q-2 1 1 4l2 2q-11 0 -19 6.5t-15.5 14t-16 14t-18.5 6.5q3 8 7.5 13t10.5 5q0 5 1.5 8.5t-9.5 7.5q-2 0 -4 -1q-4 -2 -6 -4q0 -1 1.5 -2.5t1.5 -2.5h3
q0 -2 -1.5 -6t-4.5 -4q-5 0 -16.5 3.5t-15.5 6.5l5 5q-8 5 -17.5 7t-15.5 2q12 3 19.5 9t14.5 13t15 12t21 5v-10q2 5 7 5.5t8 0.5q0 -8 -5 -12.5t-10 -7.5q37 -5 76.5 -14.5t73.5 -18.5q10 -4 18.5 -10t16.5 -6q1 0 3 1q4 2 6 2q-11 3 -20 8.5l-18 10.5t-18.5 9t-22.5 4
q0 6 -8.5 7.5t-8.5 10.5h30v-5q6 0 22.5 -6t33 -15t29.5 -18.5t13 -15.5q0 -9 -5 -14q2 0 5 2t4 2h3q7 0 14 -7.5t12.5 -18t8.5 -21t3 -16.5q3 0 8.5 -4t11 -9.5t9 -11.5t1.5 -10l23 -49q0 -1 1 -6.5t2.5 -12t3 -12t3.5 -6.5l4 6q-1 6 -2 11t-1.5 9t-0.5 8q-3 16 -14 33.5
t-11 32.5h11q2 -6 5 -11q2 -5 4.5 -10l4.5 -9q11 -23 17.5 -51t6.5 -54v-11q0 -2 -5 -7.5t-5 -6.5q1 -5 1 -27t-2.5 -49t-7.5 -53.5t-14 -39.5q-19 -34 -45 -64t-57.5 -54.5t-66.5 -44t-71 -31.5q-13 -4 -22 -8t-18 -7.5t-19 -5.5t-23 -2q-14 0 -25 0.5t-24 5.5l-5 -10
q-3 2 -6 5.5t-4 8.5l-18 -14q-4 -3 -7 -1t-4.5 5.5t-2 7.5t0.5 5zM191 17q-3 0 -3 -3.5t3 -3.5q5 0 5 3.5t-5 3.5zM207 17q-5 0 -5 -3.5t5 -3.5q3 0 3 3.5t-3 3.5zM431 70q-3 0 -3 -5t3 -5t3 5t-3 5zM441 74q-5 0 -5 -4.5t5 -4.5q3 0 3 4.5t-3 4.5zM455 87q-3 0 -3 -3.5
t3 -3.5t3 3.5t-3 3.5zM46 174q-3 0 -3 -3.5t3 -3.5q3 3 0 7zM506 201q-3 0 -3 -5t3 -5q4 0 4 5t-4 5zM614 446q-3 0 -3 -5t3 -5q5 0 5 5t-5 5zM79 536q-3 0 -3 -5t3 -5q2 0 2 5t-2 5zM234 560q-4 0 -4 -5t4 -5t4 5t-4 5zM252 587q-2 0 -2 -5t2 -5q3 0 3 5t-3 5zM234 600
q-4 0 -4 -4.5t4 -4.5t4 4.5t-4 4.5zM524 600q-3 0 -3 -4.5t3 -4.5q5 0 5 4.5t-5 4.5zM440 606q-3 0 -3 -5t3 -5q5 0 5 5t-5 5zM516 606q-5 0 -5 -5t5 -5q3 0 3 5t-3 5zM510 614q-3 0 -3 -4t3 -4q5 0 5 4t-5 4zM506 624q-4 0 -4 -5t4 -5q3 0 3 5t-3 5zM501 630q-3 0 -3 -5
t3 -5q4 0 4 5t-4 5zM492 637q-4 0 -4 -3.5t4 -3.5t4 3.5t-4 3.5zM487 644q-2 0 -2 -5t2 -5q4 0 4 5t-4 5zM484 657q-5 0 -5 -5t5 -5q2 0 2 5t-2 5zM296 667q-5 0 -5 -5t5 -5q3 0 3 5t-3 5zM360 671q-1 1 -1 -2.5t1 -1.5q3 0 3 2t-3 2zM249 694q0 4 -6 4t-4 -4q2 -2 5 -2t5 2
zM266 704q2 2 -2 2t-2 -2q0 -2 2 -2t2 2zM252 707q2 4 -1.5 4t-1.5 -4q0 -1 1.5 -1t1.5 1z" />
    <glyph glyph-name="G" unicode="G" horiz-adv-x="816" 
d="M606 -138q-36 -3 -53 -0.5t-24.5 14t-9.5 33t-7 54.5q-3 14 -5.5 28.5t-4.5 27.5h-1h-4q-4 0 -19 -2.5l-32 -5.5l-31 -5.5t-15 -3.5q-4 0 -14.5 -1.5t-15.5 -1.5q-40 0 -87 12t-81 38q-5 3 -13 10.5l-16.5 15t-17 12t-14.5 2.5q-37 31 -61 73t-38.5 89.5t-20.5 97
t-6 94.5q0 52 6.5 99.5t25.5 97.5q13 34 36 72.5t54 76t67.5 72t75.5 61t79.5 42t78.5 15.5q21 0 38.5 -9t30.5 -19.5t20 -19t8 -8.5h2q2 0 7 2t6 3v-5l-17 -10q0 -30 -9 -46.5t-23.5 -27t-33 -18t-38.5 -19.5q-25 -17 -51.5 -42t-50.5 -55t-43.5 -61.5t-31.5 -59.5
q0 -3 -2.5 -11.5l-5.5 -18.5l-5.5 -18.5t-3.5 -12.5q-2 -5 -1.5 -8t0.5 -5.5t-0.5 -5t-3.5 -6.5v-35q0 -75 14.5 -137.5t55.5 -126.5q14 -23 32.5 -37.5t47.5 -14.5q16 0 27 4t20.5 10l19.5 12t23 10q1 2 9 1t9 -1q9 2 12.5 11t5 20t1 21t-0.5 14q2 30 8 61t12 57q0 2 -2 3
t-4 3h-2q-12 0 -23.5 -3t-22.5 -7t-22.5 -7t-24.5 -3h-10h-16t-17 1t-12 3q-1 1 -6 5.5t-11 10.5t-10.5 11t-4.5 6q-11 8 -20.5 16.5t-17.5 17.5q1 0 5 7l9 15.5l10 16.5t8 11l64.5 15.5l63.5 14.5q39 7 79.5 11t80.5 15h97q7 0 10 -3q15 -8 24 -14.5t14.5 -14t7.5 -18
t2 -27.5q0 -36 -7 -74.5t-15.5 -77.5l-16.5 -78t-9 -76v-138q-2 -32 -2 -70t-8 -70q-2 -6 -6 -10.5t-9 -8t-9.5 -8t-7.5 -10.5q0 5 -2.5 5.5t-6.5 0.5h-5q0 -2 -4.5 -4t-5.5 -2l-2 2q-2 2 -2 4l-4 7q-2 2 -3 0t-3 -2v-8q-3 0 -7.5 1t-6.5 6q0 -2 -1.5 -7t-1.5 -7l-2 -2
q-1 -1 -2 -1l-3 3q0 21 -17 34zM671 -148q-3 0 -3 -5t3 -5q4 0 4 5t-4 5zM643 -135q-5 0 -5 -5t5 -5q3 0 3 5t-3 5zM610 -126q-3 0 -3 -4.5t3 -4.5q2 0 2 4.5t-2 4.5zM497 43q-3 0 -3 -4t3 -4q4 0 4 4t-4 4z" />
    <glyph glyph-name="braceleft" unicode="{" horiz-adv-x="465" 
d="M261 -132q0 -1 -1 -2t-2 -3l-2 -4q-29 24 -48.5 67.5t-31.5 93.5t-17 99t-5 82v43t5 42l2 4q2 4 3 5q0 3 4 14.5t4 16.5v1v2q-5 1 -18 4l-27.5 6.5l-27 6.5t-16.5 5q-17 3 -29 8t-17 24q1 1 2 3t5 6l2 3q0 2 -1 9t-1 9q-1 1 -2 3q-1 1 -1 4q0 6 3.5 12.5t5.5 12.5l9.5 10
l13.5 14.5l13 14.5t8 10q9 6 21 13t23 15t18.5 18t7.5 22q0 10 -9.5 14.5t-12.5 12.5q-2 4 -4 16.5t-2 16.5l-4 6q-1 2 -1 5q-1 3 -1 7q0 16 3 31.5t3 30.5v18q-5 0 -5.5 7t-0.5 9q0 20 4 40.5l8 40.5q4 42 9.5 75t19.5 61t39 51.5t68 45.5q18 10 34 18t37 8q29 0 51 -18.5
t22 -47.5q0 -11 -7.5 -21t-7.5 -20l1 -2q0 -2 6.5 -3t7.5 -3l2 -2q0 -1 1 -1q0 -2 -0.5 -4.5t-2.5 -4.5q-3 -3 -10 -9l-15 -13.5l-15 -13.5t-10 -9q-5 -5 -11 -17t-6 -17q0 -1 2 -8.5t2 -9.5l-4 -3l-6 3q-9 -12 -14 -29t-7 -35t-2.5 -36t-0.5 -32v-29q3 -10 12 -17t20.5 -13
l22.5 -12t18 -15q2 -2 5.5 -14.5t8.5 -26.5t10 -25t10 -11q0 -19 -14.5 -29t-32.5 -17.5l-32.5 -14t-14.5 -18.5q0 -3 5 -5.5t11 -6.5t12 -9t9 -12l4 -3l12 -13.5t7.5 -11t3.5 -12.5t2 -17v-5q2 -1 6 -7.5t4 -8.5q1 -11 -5.5 -24t-16 -26.5l-19 -26.5t-13.5 -23
q-11 -30 -12.5 -57.5t-1.5 -57.5v-35t2 -38t8.5 -37.5t18.5 -32.5q14 -17 36 -34t38 -33q2 -2 4 -8t2 -8v-3q0 -7 -7.5 -7.5t-11.5 -5.5q-3 -7 -4 -12t-2.5 -8t-5.5 -3.5t-13 1.5l12 -13q-8 1 -11.5 -0.5t-6 -4t-6.5 -5t-11 -2.5q-3 0 -16 2.5t-16 2.5h-24q-10 0 -24 -5.5
t-25 -3.5q-1 0 -8 3.5t-9 5.5h-1h-4z" />
    <glyph glyph-name="C" unicode="C" horiz-adv-x="732" 
d="M27 409q0 19 -0.5 41.5t0 46t2 46t5.5 40.5q4 28 9 48t10 45v4q42 137 138 210.5t237 73.5q52 0 99.5 -18.5t84 -51t58.5 -77.5t22 -99q0 -16 -0.5 -36t-4.5 -39.5t-11.5 -37.5t-22.5 -29q-1 -1 -3 -2q-1 -1 -3 -1h-1q-24 -9 -36.5 -17t-24 -14t-27.5 -9t-46 -3
q-17 0 -35 9t-33 23.5t-25 32t-10 34.5q0 13 3.5 27t8 29t8 31t3.5 33q0 3 -3 14t-6 11q-29 0 -52.5 -15.5t-42 -40.5t-31.5 -57t-22 -64t-13 -61.5t-4 -50.5q0 -40 5.5 -82.5t18 -83.5t33 -77.5t50.5 -64.5q12 -8 30.5 -15.5t31.5 -7.5q21 2 41.5 9l41 14.5t41 13.5t40.5 6
q10 0 20 -5t18 -5l4 2q4 2 6 2q1 2 6 3t7 3h2h2q-11 -5 -15 -16t-2 -22h6q11 0 17.5 4t14.5 4h3l-9 -17h5l2.5 -7.5t1.5 -7.5q0 -11 -3.5 -21.5t-14.5 -16.5l4 -3q-18 -22 -58 -39.5t-86.5 -29.5t-91.5 -18.5t-73 -6.5h-22.5t-28 1.5t-27.5 4.5t-22 8q-81 48 -130.5 119
t-80.5 158q-5 14 -6.5 30t-5.5 30q-4 4 -7 4v54z" />
    <glyph glyph-name="H" unicode="H" horiz-adv-x="1004" 
d="M147 360q-5 0 -19.5 -0.5t-18.5 -0.5q-3 0 -9.5 1t-13.5 2.5t-13 3.5t-8 3q2 3 -1 6t-7.5 5.5l-9 5t-5.5 5.5q1 4 2 7q2 6 2 7v3v1q-2 5 -8 9.5t-6 10.5q0 2 7 6q3 2 7 4l-14 10q4 0 6.5 6t4.5 12.5t5 12t9 5.5t10 -2.5t8 -2.5t15.5 2.5t24 6t23 7.5t12.5 7v43
q4 77 6 153.5t13 151.5l7.5 13t11 16t13.5 15t15 9q4 0 12 2t17 4t16.5 4.5l10.5 3.5h7q24 0 45 -7t36.5 -20.5t25 -32.5t9.5 -44q0 -63 -2 -126.5t-2 -126.5q13 0 34 2t43.5 5.5t43 7.5t32.5 7q0 2 1 5t1 5q0 28 -4 56t-9 55.5l-10 55t-7 54.5q-1 19 -5 45.5t-4 44.5
t4 26.5t9.5 12.5t9.5 8t4 13q15 3 30.5 6.5t30.5 3.5q5 0 16.5 -4.5t22.5 -11t18.5 -15t4.5 -17.5q7 0 9 3t3 7t2.5 7t7.5 3q5 0 10 -1.5t11 -8.5q0 -1 2 -6.5t2 -8.5q20 -76 31.5 -156.5t19.5 -158.5q3 -13 15.5 -12t23.5 -1q4 -1 15.5 -3t24.5 -4t24 -4t16 -3
q15 -11 36.5 -17.5t41.5 -11.5q-2 -5 -3 -4.5t-4 0.5v-3q9 -5 19 -10l21 -10l-4 -4v-4v-2l4 -4q1 -9 -2.5 -14t-9.5 -7t-13 -1.5t-11 2.5q6 -3 12 -7t10 -11q-11 -5 -19 -7t-13 -15q-12 3 -21 3.5t-17.5 0t-18.5 -0.5t-23 1q-17 1 -32 5.5t-31 4.5q-8 0 -12.5 -1t-13.5 -6
l5 -7q-1 -30 -1 -66.5t0.5 -74.5l1 -74.5t0.5 -64.5v-13t-0.5 -19.5t-0.5 -19.5v-13q-2 -8 -3.5 -15.5t-5.5 -15.5l-5 4q-5 -7 -16 -14.5t-24.5 -14t-26.5 -10.5t-22 -4q-2 0 -5 3q-2 1 -4 3q-1 0 -2.5 -1t-3.5 -2q-2 -2 -4 -3h-12q-10 0 -21.5 3.5t-11.5 12.5
q-13 0 -20.5 6.5t-12 15.5t-7.5 19.5t-8 18.5q-2 0 -6 4t-4 6v4q0 8 10.5 20t12.5 23v48q0 19 1 50.5t1 65t-2.5 64t-8.5 48.5h-10q-18 0 -40.5 -4.5t-39.5 -9.5q-4 -1 -15 -3.5l-24 -5.5t-24.5 -6t-16.5 -5q-3 0 -9 -2q-3 -1 -5 -2q0 -1 -2 -6.5t-2 -7.5q-6 -30 -9 -68
t-4 -78t-1 -78.5v-69.5q2 0 5 -1t5 1q1 0 8.5 3.5t9.5 3.5v-5v-4q0 -1 1 -2q0 -11 -5.5 -17t-5.5 -17q0 -1 0.5 -8t5.5 -7q1 0 4.5 2t5.5 4q-5 -9 0 -16q2 0 4 -1q4 -2 5 -3v-2v-1q-7 -14 -13.5 -30t-15.5 -29.5t-21 -23t-30 -11.5q-2 -2 -10 1t-9 3q-5 0 -5.5 -6t1.5 -8
q-5 7 -13.5 9.5t-18 2.5t-19 -0.5t-16.5 2.5q-29 8 -47 27t-28.5 44.5t-14 54.5t-4.5 57q0 7 0.5 25.5t1 43t1.5 52t1.5 51.5t1 42.5t0.5 25.5zM352 -36q-1 1 -1 -2.5t1 -1.5q3 0 3 2t-3 2zM362 -36q-3 0 -3 -3.5t3 -3.5t3 3.5t-3 3.5zM720 73q-5 0 -5 -5t5 -5q2 0 2 5t-2 5
zM737 90q0 3 -3 1t-1 -4t4 0t0 3zM720 90h3v7h-3v-7zM681 114q-3 0 -3 -5t3 -5q4 0 4 5t-4 5zM720 114q-5 0 -5 -5t5 -5q2 0 2 5t-2 5zM51 453l5 3l-5 7v-10zM46 471q-3 0 -3 -4t3 -4q4 0 4 4t-4 4zM967 509q-4 0 -4 -5t4 -5q3 0 3 5t-3 5zM952 513q-2 0 -2 -5t2 -5q4 0 4 5
t-4 5zM929 523q-3 0 -3 -5t3 -5q5 0 5 5t-5 5z" />
    <glyph glyph-name="bracketright" unicode="]" horiz-adv-x="539" 
d="M72 -222q0 20 9 38t22.5 34.5t30.5 31l32 26.5q9 6 23.5 10t28.5 9.5t24 13.5t10 23q0 38 -10 76t-10 76q0 41 3.5 81t3.5 79q0 96 -10 190.5t-18 191.5v15q0 4 -0.5 15.5t-0.5 24t-0.5 23.5t-0.5 15t-2 15t-2 14h-11q-10 0 -16 -3t-14 -3h-2q-34 11 -68.5 12t-68.5 12
q2 3 -5 12.5t-16.5 20t-18.5 19t-10 10.5q1 0 4.5 3t5.5 5q0 2 -2.5 8t-3.5 8q6 -4 11 -1t8.5 8.5t6 12t2.5 11.5q7 0 16 8l19 17.5l20 18.5t20 12v10q12 3 22.5 8.5l20.5 11t20 9.5t22 4q10 0 21.5 -2.5l23 -5l21.5 -4.5t19 -1q1 0 9.5 1.5l17.5 3t17 3t10 1.5h23
q36 0 59.5 -10t37 -28.5t18.5 -46t5 -61.5q0 -15 -3.5 -31.5t-8 -33t-8 -33t-3.5 -33.5q0 -45 1 -91.5t7 -91.5v-287q-5 -24 -4.5 -48.5t0.5 -49.5v-44q0 -6 3 -22l6.5 -34t7.5 -33.5t7 -21.5q11 -17 14.5 -43.5t3.5 -46.5t-7 -34.5t-18.5 -25.5t-26 -20.5l-28.5 -18.5
q-10 -5 -17.5 -5.5t-14.5 -11.5l-6 4q0 1 -9.5 -1l-14.5 -3q-31 -12 -61.5 -27.5t-63.5 -25.5q-3 0 -14 -2.5t-15 -2.5q-16 -1 -30.5 -7t-30.5 -6h-14q-2 0 -4 3.5l-4.5 7.5t-4.5 8l-2 4l-7 10t-7 8v4zM430 419q-3 0 -3 -5t3 -5t3 5t-3 5zM-11 864q-3 0 -3 -5t3 -5q2 0 2 5
t-2 5zM444 868q-3 0 -3 -4t3 -4q4 0 4 4t-4 4zM-8 874q-2 0 -2 -5t2 -5q5 0 5 5t-5 5z" />
    <glyph glyph-name="dollar" unicode="$" horiz-adv-x="690" 
d="M204 -85q-1 -3 -5 -11q-2 -4 -3 -7l-1 -1q-2 -2 -2 -1q-3 0 -5 6t-3 14.5t-1 17t1 13.5h-1q-1 1 -2 1q0 -1 -2.5 -5t-2.5 -6q-5 12 -8 21t-4.5 19t-1 22.5t3.5 32.5l-32 13l-30.5 13l-22.5 10t-9 5v4q0 2 1.5 8t1.5 7q-2 0 -11.5 3t-9.5 10l3 2l4 3h-12q0 1 -2 5
q-1 1 -1 3q-1 0 -4.5 1.5t-5.5 1.5v8q2 1 7.5 6.5l7.5 7.5q-2 0 -7.5 2t-7.5 2v7l29 16h-24q3 9 11 11.5t16.5 3.5t16 2t9.5 6q4 1 16.5 3l27 4.5t27.5 4.5t18 2q7 0 15 3l21 106.5l28 136.5q-15 14 -27.5 24t-20.5 10l-1 -2l-4 -4l2 -2q0 -1 0.5 -1t0.5 -1t1 -1v-6
q-2 1 -10 6.5t-16.5 12.5t-15 13t-5.5 9q-17 17 -26 32t-24 35q-14 18 -31.5 36.5t-33 38.5t-26 42t-10.5 48q0 19 8 38t21 35.5t30 29.5t35 21q6 2 11.5 2.5l10.5 1t9.5 3.5t7.5 11l4 -4l10 10t11 9q0 2 2 2t2 -2q44 22 88.5 35t90.5 24q2 8 3 15t3 14q7 34 15.5 55t19 31
t23.5 11.5t29 -1.5q8 -2 17 -11t17 -22t14 -28t8 -28h2q1 -1 2.5 -4.5t1.5 -8.5h5q17 0 31 -2t27.5 -5t27.5 -6.5l31 -7.5q-2 -4 6.5 -10l19 -13t20 -15t9.5 -16v-1q0 -2 -1.5 -3t-1.5 -3q6 -3 6 -12t8 -14l-11 -4q3 -9 1 -19.5t-7.5 -20t-14 -15.5t-19.5 -6h-101l4 -4
q-1 -2 -6.5 -4t-8.5 -2q-2 0 -8 0.5t-14.5 0.5h-16.5h-14q-3 -12 -5.5 -23.5t-3.5 -15.5q-14 -63 -24.5 -125t-24.5 -124q8 -6 13.5 -12t7.5 -8q2 -1 6 -4t9 -3l26 -24l-7 -4q3 -2 8.5 -4.5t11.5 -6t10.5 -8t3.5 -10.5l1 2q0 1 1 1h5q1 -1 3 -2q3 -3 3 -4q-2 0 -4 -1t-2 -3
q0 -3 12 -18.5l26 -33t26.5 -31.5t14.5 -14q0 -12 7 -31.5t10 -33.5q1 0 2.5 -2t3.5 -2v-21q0 -41 -18.5 -71.5t-46.5 -52.5t-61 -36t-61 -23t-46.5 -13t-18.5 -6l-54 -6q-3 -9 -4.5 -17l-2.5 -13q-1 -2 -1 -5q0 -2 -1 -3q-10 -15 -18.5 -36.5t-17.5 -32.5q-5 -6 -12 -10
t-12 -13q-4 -8 -8 -12l-2 -4q-5 11 -6.5 21.5t-11.5 12.5zM241 704q0 -15 12.5 -34t29.5 -38q5 23 9.5 47l9.5 50l-17 -7q-14 -5 -22 -11.5t-22 -6.5zM397 292q0 13 -6 25t-16 23q-3 -18 -9.5 -45.5l-12.5 -52.5q15 6 26.5 13.5t17.5 17.5v19zM170 502h13q-2 1 -4.5 4.5
t-5.5 3.5l-2 2l-1 -2v-8zM58 157q-5 0 -5 -5.5t5 -5.5q3 0 3 5.5t-3 5.5zM163 521q-3 0 -3 -5.5t3 -5.5q5 0 5 5.5t-5 5.5zM152 532q-2 0 -2 -5.5t2 -5.5q5 0 5 5.5t-5 5.5zM451 469q-3 0 -3 -4.5t3 -4.5q5 0 5 4.5t-5 4.5zM394 1080q-2 1 -3.5 -5t0.5 -7q2 0 3.5 5.5
t-0.5 6.5zM188 491h7l-7 4v-4z" />
    <glyph glyph-name="braceright" unicode="}" horiz-adv-x="488" 
d="M211 -104h-1q-2 -2 -9 -5.5t-8 -3.5q-11 -2 -25 3.5t-25 5.5h-24q-1 0 -5.5 -1t-10 -1.5t-10 -1.5t-6.5 -1q-8 0 -11.5 2.5t-6.5 5t-6.5 4t-11.5 0.5l13 13q-9 -2 -13 -1.5t-5.5 3.5t-2.5 8t-4 11q-5 5 -12.5 5.5t-7.5 7.5v3q0 2 2.5 8t3.5 8q17 16 39 33t36 33
q13 15 19 33t8.5 37.5t2.5 38v34.5q0 30 -1.5 57t-12.5 57q-5 10 -14.5 23l-19 26.5t-16.5 26.5t-6 24q0 2 4.5 8.5t6.5 7.5v5q1 10 2 16.5t3.5 12t7 11t12.5 13.5l4 3q3 7 9.5 12t12.5 9t11 6.5t5 5.5q0 12 -15 18.5t-33 13.5t-33 17.5t-15 28.5q5 0 10.5 11t10.5 25
t8.5 26.5t5.5 14.5q7 9 18 15l22.5 12t20.5 13t12 17v28q0 14 -0.5 32t-2.5 36t-7 34.5t-14 28.5l-6 -3l-3 3q0 2 1.5 9.5t1.5 8.5q0 5 -6 17t-11 17q-3 3 -10 9l-15.5 13.5l-15.5 13.5t-10 9q-2 2 -2.5 4.5t-0.5 4.5l1 1q0 2 2 2q2 2 8 3t6 3l1 2q0 10 -7.5 20t-7.5 21
q0 28 22.5 46.5t51.5 18.5q22 0 38 -8l35 -18q43 -22 68.5 -45t39.5 -51t19.5 -61t10.5 -74q3 -20 7 -40.5t4 -40.5q0 -2 -0.5 -9t-4.5 -7v-17q0 -15 2.5 -30.5t2.5 -31.5q0 -2 -0.5 -3.5t-0.5 -3.5q-1 -3 -1 -5l-3 -6q0 -4 -2.5 -16.5t-3.5 -16.5q-4 -8 -13.5 -12.5
t-9.5 -14.5q0 -12 8 -21.5t19 -18t23 -15t21 -12.5q2 -3 8 -10t13.5 -14.5l14 -14.5l9.5 -10q1 -6 5 -12.5t4 -12.5q0 -2 -2 -4q-1 -1 -1 -2q0 -2 -1 -9t-1 -9l2 -3q1 -2 2.5 -3t2.5 -3t2 -3q-5 -19 -17 -24t-29 -8q-5 -2 -17.5 -5l-27 -6.5l-28 -6.5t-18.5 -4v-2v-1
q0 -5 4 -16.5t4 -14.5q0 -1 1 -2t2 -3t3 -4q4 -19 4 -42v-42q0 -33 -5 -82t-17 -98.5t-32 -93t-49 -66.5q-2 2 -3 4q-2 4 -2 5h-5z" />
    <glyph glyph-name="U" unicode="U" horiz-adv-x="816" 
d="M174 34q-21 4 -32 17t-18 28l-14 29.5t-20 22.5q-17 42 -28.5 109t-18.5 140t-10 142t-3 114q0 63 4 118.5t18 121.5q5 25 13.5 46t22 37t34 25t50.5 9q22 0 43 -5.5t37 -17t25.5 -29.5t9.5 -44q0 -25 -7 -53.5l-13 -54.5l-4 -3q-4 -9 -4.5 -13t0 -7t1 -8t0.5 -15
q-3 -19 -5 -49.5t-3.5 -67t-2.5 -76t-1.5 -76.5t-0.5 -68v-51v-18q1 -3 4 -17l7 -31.5t7.5 -35.5l5.5 -28q2 -8 5.5 -20.5t8.5 -24.5t12 -21t18 -9q22 0 51 17t57 41t50.5 50.5t33.5 46.5q8 14 12.5 32.5t15.5 33.5q7 9 13 15.5t9.5 12.5t5.5 13t2 19t-0.5 36t-2 54.5
t-3.5 64t-5 63.5t-6 54t-7 36l-2 2q-2 2 -4 2q2 31 -3 57t-5 56q0 28 22 42.5t48 14.5q15 0 32.5 -5t32.5 -5q1 0 2.5 2t2.5 2h3q12 0 18 -11.5l10 -19.5q7 -8 16 -8.5t14 -8.5q5 -7 11 -42.5t12 -86t11 -109t9 -110.5t6 -91t2 -51q0 -32 1 -66t-10 -64v-132q1 -2 4 -13
t5 -14v-4v-2q-2 -2 -8 -7t-6 -7q-4 -8 -4.5 -13t-1.5 -8t-4.5 -4t-12.5 -1v-10q-5 0 -15 -3t-8 -11q-2 0 -6 -1.5t-6 -1.5q-9 0 -11.5 3.5t-8.5 3.5q-5 0 -6 -3.5t-5 -3.5l-5 3q-1 0 -9 3.5t-10 3.5t-7 -1.5t-6 -1.5h-7q-10 0 -20.5 8t-19.5 19t-15 23t-8 20h-10l-9 -6
l-12.5 -8.5t-13 -8.5t-9.5 -5l-5 -2.5l-11 -5.5t-11.5 -6.5t-8.5 -4.5q-11 -5 -28.5 -14t-29.5 -9l-4 3q-5 0 -11.5 -2.5t-6.5 -10.5l-4 6l-6 -6l-22 -2q-9 -1 -18 -1.5t-15 -0.5h-42h-35q-1 0 -15 3.5t-21 6.5q-5 0 -16 3.5t-14 3.5q-2 2 -10 6q-4 2 -7 4v7zM736 46
q-3 0 -3 -4.5t3 -4.5q5 0 5 4.5t-5 4.5zM497 70q-2 0 -2 -2.5t2 -2.5q2 1 2 3t-2 2zM559 371q-3 0 -3 -5t3 -5q2 0 2 5t-2 5z" />
    <glyph glyph-name="parenleft" unicode="(" horiz-adv-x="451" 
d="M197 14q-2 0 -6 -2l-4 -2q-17 12 -29 25.5t-22.5 28t-20 30.5t-21.5 33t-22 48.5t-17.5 71t-12.5 83.5t-8.5 85t-5 75.5t-1.5 55.5q0 44 2 85t7.5 80t16 77.5t27.5 78.5q12 29 30.5 55t42.5 45.5t52 31t60 11.5q19 0 35 -8t27 -21t17.5 -30t6.5 -35q0 -10 -7.5 -24.5
t-17 -30l-18.5 -30.5t-13 -25q-26 -75 -37 -151.5t-11 -160.5q0 -31 1 -70t6 -78.5t15.5 -78t29.5 -68t47.5 -48.5t70.5 -20q6 -8 14 -10l-42 -41q1 -2 3.5 -5t2.5 -5v-1v-4l-3 -3q-1 -1 -2 -1t-1 -1l-4 5q-6 -14 -19 -22t-15 -9q0 -5 1 -8t2 -5h17v-11q-26 1 -41 2.5
t-35 1.5h-14q-2 -11 -9.5 -12.5t-15.5 -1.5q-17 0 -31 7t-28 7zM87 145q-2 0 -2 -5t2 -5q5 0 5 5t-5 5zM351 145q-3 0 -3 -5t3 -5q5 0 5 5t-5 5z" />
    <glyph glyph-name="less" unicode="&#x3c;" horiz-adv-x="552" 
d="M439 724q28 -6 45 -26.5t25.5 -47t9 -55t-4.5 -50.5q-5 -20 -26.5 -42t-50 -44t-58 -41.5l-48.5 -32.5q0 -2 -1 -2t-1 -1l1 -3l6 -6q29 -27 52.5 -53.5t37.5 -55.5t18 -62t-6 -74q0 -2 -2 -8q-1 -3 -1 -6l-10 -8l-33 8q-4 -3 -11 -1q-19 4 -40.5 17t-43.5 29.5
t-42.5 33.5l-36.5 30l-22 18.5l-33.5 28l-33.5 28l-22 18.5q-4 5 -9.5 20t-10 32.5t-7 33t-1.5 21.5l6.5 26t8.5 28t11.5 26.5t15.5 21.5q27 25 62.5 44.5t64.5 42.5q23 15 43 32l40 33l25.5 23.5t23.5 17.5t26 8.5t33 -2.5z" />
    <glyph glyph-name="greater" unicode="&#x3e;" horiz-adv-x="588" 
d="M173 89q-28 6 -45 26.5t-25.5 46.5t-9 54.5t4.5 51.5q4 19 26 41.5t50.5 44t58 41t48.5 33.5q0 2 1 2t2 1l-2 3l-6 6q-29 27 -52.5 53t-37.5 55t-18 62.5t6 74.5v3.5t1 4.5l2 6l10 8l33 -8q4 3 11 1q19 -5 40.5 -17.5t43.5 -29t42 -33.5t37 -30l22 -18.5l34 -28l34 -28
l22 -18.5q4 -5 9.5 -20.5t10 -32.5t6.5 -32.5t1 -21.5q-6 -24 -15.5 -54t-26.5 -48q-27 -25 -62.5 -44.5t-64.5 -42.5q-22 -16 -42.5 -32.5l-40.5 -33.5l-25.5 -23.5t-23.5 -17t-26 -8.5t-33 3z" />
    <glyph glyph-name="parenright" unicode=")" horiz-adv-x="384" 
d="M207 2q-13 0 -26 -7t-28 -7q-7 0 -13.5 1.5t-8.5 12.5h-13q-18 0 -32 -1.5t-37 -2.5v11h16q0 2 1 5q0 2 0.5 4t0.5 4q-2 1 -13.5 9t-16.5 22l-4 -5q-1 0 -3 2q-1 1 -2 3v4v1q0 2 2 5t3 5l-38 41q4 1 7.5 4.5t5.5 6.5q38 1 64 20t43 49t26.5 68t14 78t5.5 79t1 70
q0 84 -10.5 161t-33.5 152q-3 10 -11.5 25l-17.5 31t-15.5 30.5t-6.5 24.5q0 37 21.5 65.5t56.5 28.5q28 0 54 -11.5t48 -31t38.5 -46t27.5 -55.5q15 -40 24.5 -78.5t15 -77.5t7 -80t1.5 -86q0 -21 -1.5 -56t-4.5 -76t-7.5 -84.5t-11.5 -83t-16 -71.5t-20 -49t-19.5 -33
t-17.5 -31t-20.5 -28.5t-26.5 -25.5l-4 2q-4 2 -5 2zM307 134q-5 0 -5 -5t5 -5q2 0 2 5t-2 5zM67 134q-4 0 -4 -5t4 -5q3 0 3 5t-3 5z" />
    <glyph glyph-name="quotesingle" unicode="'" horiz-adv-x="304" 
d="M189 641q-1 0 -6 -5q-2 -3 -4 -5h-3h-4l-3 3q-2 2 -9 5t-10 5l-5 -3h-1q-5 0 -11.5 16.5t-13 41.5t-12.5 55.5t-10.5 59t-7.5 51t-3 32.5q0 18 9.5 29t23 16.5t29.5 7.5t28 2q39 0 57 -20.5t24 -53t4 -73t-2 -81.5v-42q-2 0 -4 -5q-2 -2 -3 -4v-4q0 -8 3.5 -17t3.5 -18
q0 -5 -1 -8.5t-6 -8.5q-1 0 -5 -1.5t-6 -1.5q-8 0 -15.5 4t-14.5 9.5l-12.5 9.5t-9.5 4z" />
    <glyph glyph-name="ampersand" unicode="&#x26;" horiz-adv-x="853" 
d="M216 -159q-3 1 -8.5 -2l-12.5 -6.5t-14.5 -6t-13.5 -1.5q-2 0 -2.5 1t-2.5 2t-3 3q-3 5 -3 9t1 7q2 9 7 16.5t7 15.5q0 1 0.5 1.5t0.5 1.5v1q-1 2 -2 5l-2 6l10 38q8 32 14 63.5t14 58.5q-45 7 -80.5 25.5t-55.5 51.5q-2 3 -6 19.5t-8 36.5t-6.5 37t-1.5 22q5 17 2 31
t-1 31q0 1 2.5 7.5t5.5 13.5t5.5 13.5t2.5 7.5q2 9 16.5 24t30.5 29.5l28.5 26t10.5 14.5l-3 3l-1 1l-60 39t-49 50q-18 29 -6.5 71.5t38.5 86t63.5 81t68.5 57.5q20 12 47.5 25t57.5 24q1 1 1 2q1 8 5.5 27t11 43.5t14.5 50t16 46.5t15 34t12 11l1 -1l4 -3q3 1 9.5 1.5
t8.5 2.5l4 2q0 -1 1 -1h2h2q1 -3 3 -6q4 -6 6 -6q4 -1 9.5 1.5t12 5t13.5 4.5t14 0q1 0 2.5 -1t3.5 -2t3 -2q5 -5 5.5 -8.5t0.5 -8.5q-2 -8 -5.5 -15t-3.5 -14l-1 -3q1 -2 2 -5q2 -6 3 -5q-1 -5 -2 -19t-2 -19q-2 -20 -3 -39.5t-3 -38.5q30 -1 53.5 -9.5t35.5 -28.5
q7 -12 1.5 -24.5t-17 -24t-25 -21t-22.5 -14.5q-36 -22 -58.5 -28.5t-42.5 -10t-42 -9.5t-56 -27q-29 -17 -42 -40t0 -45q15 -24 36.5 -36.5t48 -17t56 -4t61.5 2.5q9 1 22 3.5t26.5 3.5t25 -1t16.5 -11q4 -7 3 -16t-3 -19l-4 -20t1 -17q2 -2 4 -3q4 -2 8 -2l1 -2
q-2 -2 -2 -4t-2 -4q-13 -7 -20 -12.5l-13 -10l-11.5 -9t-15.5 -10.5l-15 -9q-2 -2 -9 -4.5t-9 -0.5l-28.5 -17t-27.5 -13q-1 -1 -4.5 -0.5t-7.5 1t-7 1l-3 0.5q-20 1 -46 -3t-43 -15q-16 -10 -32 -24t-26.5 -29.5t-14 -32t5.5 -31.5q3 -6 9.5 -10.5t13 -9.5l12 -9.5
t6.5 -10.5q57 -15 126 -18t137 9q18 3 55 13.5t76.5 20.5t72 16t40.5 1q2 -1 5 -8t4 -9q4 2 12 4.5t11 4.5q-8 -13 -22.5 -19t-25.5 -13l3 -5q1 -2 9 2l18 9q11 6 25 15l-30 -27l8 -14q-11 -9 -20 -17.5l-17.5 -17t-18 -16.5t-22.5 -16q-39 -23 -80 -36t-84 -23
q-42 -9 -92 -18.5t-103 -14.5q-4 -13 -12 -34.5l-18 -46.5l-21 -50t-21 -45t-18.5 -32t-12.5 -11l-1 -1l-3 4q-2 -1 -9 -2t-9 -3l-4 -2h-1q-1 0 -1 1h-3l-2 6q-1 3 -4 6zM37 595q-3 -2 -1 -5t6 -1t1.5 5.5t-6.5 0.5z" />
    <glyph glyph-name="slash" unicode="/" horiz-adv-x="524" 
d="M203 -103q-2 0 -3 -1t-3 1q-2 0 -5 2.5t-3 4.5q-11 -11 -19.5 -12t-21.5 -1q-18 0 -30.5 3.5t-22.5 10t-20 15t-23 18.5q-17 11 -23 18t-6 28q0 37 14 70.5t25 66.5q2 7 8 26.5l12.5 41.5l12.5 41.5t8 27.5q-2 9 1 21t7 24t8.5 23.5l7.5 19.5l103 405v3q2 2 5 10t4 9v4
q2 10 8 33l13 48.5l13.5 48t9.5 31.5q0 3 2 12t2 11q2 26 22.5 44t49.5 18q0 -6 -6 -9l4 -2q5 0 8 3t8 3h4q5 0 20.5 -2t20.5 -2q5 -10 8 -9t5.5 2t4 -3t4.5 -23v-4q3 0 5 -2q1 -1 2 -1q0 2 1.5 5.5t1.5 4.5q15 -10 29.5 -21t14.5 -31v-11l-19.5 -73.5t-14.5 -70.5
q-2 -8 -6.5 -18.5t-6.5 -21.5l-33 -120t-30 -121v-4q0 -11 5 -18.5t5 -17.5h6q0 -6 -2.5 -9t-5.5 -5t-5.5 -4t-2.5 -6q0 -3 3 -4q1 -1 3 -2v-5q0 -4 -0.5 -8.5t-5.5 -4.5l-7 4q-13 -4 -17.5 -18t-6.5 -25q-2 -5 -7.5 -27l-12 -47.5l-12.5 -47.5t-7 -28l-2 -6q-1 -2 -1 -5
q0 -1 -1 -2q-1 -3 -3.5 -14t-6 -23.5l-6.5 -23.5t-4 -14q0 -2 -2 -8t-4 -13.5t-4 -14t-3 -7.5q-2 -6 -6 -21.5l-8.5 -32l-8.5 -31t-5 -19.5q-2 -5 -6 -21t-10.5 -33.5t-14 -31.5t-15.5 -14v13zM203 -89q-5 0 -5 -5t5 -5q3 0 3 5t-3 5z" />
    <glyph glyph-name="backslash" unicode="\" horiz-adv-x="524" 
d="M303 -39v-13q-8 0 -16.5 14t-15 31.5t-11.5 33.5t-6 21q-2 11 -3.5 17.5l-4.5 19.5q-1 1 -3.5 7.5t-4.5 14t-4 13.5t-2 8q-2 3 -5 14l-6.5 23.5l-6.5 23.5t-4 14q-1 1 -1 2t-0.5 2t-0.5 3l-2 6q-2 6 -8 28l-13 47.5l-13.5 47t-7.5 26.5q-2 11 -7 25t-19 18l-8 -4
q-5 0 -5.5 4.5t-0.5 8.5v5q1 1 3 2q3 3 3 4q0 4 -2.5 6t-6 4t-6 5t-2.5 9h7q0 10 5 17.5t5 18.5v4q-14 61 -32 120.5l-35 119.5q-3 11 -7.5 21.5t-6.5 18.5q-7 38 -16.5 70t-20.5 73v11q0 20 15.5 31t31.5 21q0 -1 2 -4.5t2 -5.5q1 0 2 1q2 2 5 2v4q3 19 5 23t4.5 3t5.5 -2
t9 9q5 0 22 2t22 2h4q5 0 8.5 -3t8.5 -3l5 2q-7 3 -7 9q32 0 54 -18t24 -44q0 -2 2 -11t2 -12l10 -31.5l14.5 -48l14 -48l9.5 -32.5v-4q1 -1 4 -9t5 -10v-3l111 -404q3 -8 8 -19t9.5 -23t7 -24t1.5 -21q2 -8 8.5 -27.5l13.5 -41.5l13.5 -41.5t8.5 -26.5q6 -17 10 -23
t6 -10.5t3 -11.5t1 -25q0 -21 -6.5 -28t-24.5 -18q-15 -10 -25.5 -18.5t-21 -15t-24 -10t-32.5 -3.5q-14 0 -24 1t-21 12q0 -2 -3 -4.5t-5 -2.5q-2 -2 -3 -1t-4 1zM303 -25q-3 0 -3 -5t3 -5q5 0 5 5t-5 5z" />
    <glyph glyph-name="fraction" unicode="&#x2044;" horiz-adv-x="524" 
d="M203 -103q-2 0 -3 -1t-3 1q-2 0 -5 2.5t-3 4.5q-11 -11 -19.5 -12t-21.5 -1q-18 0 -30.5 3.5t-22.5 10t-20 15t-23 18.5q-17 11 -23 18t-6 28q0 37 14 70.5t25 66.5q2 7 8 26.5l12.5 41.5l12.5 41.5t8 27.5q-2 9 1 21t7 24t8.5 23.5l7.5 19.5l103 405v3q2 2 5 10t4 9v4
q2 10 8 33l13 48.5l13.5 48t9.5 31.5q0 3 2 12t2 11q2 26 22.5 44t49.5 18q0 -6 -6 -9l4 -2q5 0 8 3t8 3h4q5 0 20.5 -2t20.5 -2q5 -10 8 -9t5.5 2t4 -3t4.5 -23v-4q3 0 5 -2q1 -1 2 -1q0 2 1.5 5.5t1.5 4.5q15 -10 29.5 -21t14.5 -31v-11l-19.5 -73.5t-14.5 -70.5
q-2 -8 -6.5 -18.5t-6.5 -21.5l-33 -120t-30 -121v-4q0 -11 5 -18.5t5 -17.5h6q0 -6 -2.5 -9t-5.5 -5t-5.5 -4t-2.5 -6q0 -3 3 -4q1 -1 3 -2v-5q0 -4 -0.5 -8.5t-5.5 -4.5l-7 4q-13 -4 -17.5 -18t-6.5 -25q-2 -5 -7.5 -27l-12 -47.5l-12.5 -47.5t-7 -28l-2 -6q-1 -2 -1 -5
q0 -1 -1 -2q-1 -3 -3.5 -14t-6 -23.5l-6.5 -23.5t-4 -14q0 -2 -2 -8t-4 -13.5t-4 -14t-3 -7.5q-2 -6 -6 -21.5l-8.5 -32l-8.5 -31t-5 -19.5q-2 -5 -6 -21t-10.5 -33.5t-14 -31.5t-15.5 -14v13zM203 -89q-5 0 -5 -5t5 -5q3 0 3 5t-3 5z" />
    <glyph glyph-name="fraction" unicode="&#x2215;" horiz-adv-x="524" 
d="M203 -103q-2 0 -3 -1t-3 1q-2 0 -5 2.5t-3 4.5q-11 -11 -19.5 -12t-21.5 -1q-18 0 -30.5 3.5t-22.5 10t-20 15t-23 18.5q-17 11 -23 18t-6 28q0 37 14 70.5t25 66.5q2 7 8 26.5l12.5 41.5l12.5 41.5t8 27.5q-2 9 1 21t7 24t8.5 23.5l7.5 19.5l103 405v3q2 2 5 10t4 9v4
q2 10 8 33l13 48.5l13.5 48t9.5 31.5q0 3 2 12t2 11q2 26 22.5 44t49.5 18q0 -6 -6 -9l4 -2q5 0 8 3t8 3h4q5 0 20.5 -2t20.5 -2q5 -10 8 -9t5.5 2t4 -3t4.5 -23v-4q3 0 5 -2q1 -1 2 -1q0 2 1.5 5.5t1.5 4.5q15 -10 29.5 -21t14.5 -31v-11l-19.5 -73.5t-14.5 -70.5
q-2 -8 -6.5 -18.5t-6.5 -21.5l-33 -120t-30 -121v-4q0 -11 5 -18.5t5 -17.5h6q0 -6 -2.5 -9t-5.5 -5t-5.5 -4t-2.5 -6q0 -3 3 -4q1 -1 3 -2v-5q0 -4 -0.5 -8.5t-5.5 -4.5l-7 4q-13 -4 -17.5 -18t-6.5 -25q-2 -5 -7.5 -27l-12 -47.5l-12.5 -47.5t-7 -28l-2 -6q-1 -2 -1 -5
q0 -1 -1 -2q-1 -3 -3.5 -14t-6 -23.5l-6.5 -23.5t-4 -14q0 -2 -2 -8t-4 -13.5t-4 -14t-3 -7.5q-2 -6 -6 -21.5l-8.5 -32l-8.5 -31t-5 -19.5q-2 -5 -6 -21t-10.5 -33.5t-14 -31.5t-15.5 -14v13zM203 -89q-5 0 -5 -5t5 -5q3 0 3 5t-3 5z" />
    <glyph glyph-name="percent" unicode="%" horiz-adv-x="1372" 
d="M647 -83q-2 0 -3 -1t-3 1q-2 0 -5 2.5t-3 4.5q-11 -11 -19.5 -12t-21.5 -1q-18 0 -30.5 3.5t-22.5 10t-20 15t-23 18.5q-17 11 -23 18t-6 28q0 37 14 70.5t25 66.5q2 7 8 26.5l12.5 41.5l12.5 41.5t8 27.5q-2 9 1 21t7 24t8.5 23.5l7.5 19.5l103 405v3q2 2 5 10t4 9v4
q2 10 8 33l13 48.5l13.5 48t9.5 31.5q0 3 2 12t2 11q2 26 22.5 44t49.5 18q0 -6 -6 -9l4 -2q5 0 8 3t8 3h4q5 0 20.5 -2t20.5 -2q5 -10 8 -9t5.5 2t4 -3t4.5 -23v-4q3 0 5 -2q1 -1 2 -1q0 2 1.5 5.5t1.5 4.5q15 -10 29.5 -21t14.5 -31v-11l-19.5 -73.5t-14.5 -70.5
q-2 -8 -6.5 -18.5t-6.5 -21.5l-33 -120t-30 -121v-4q0 -11 5 -18.5t5 -17.5h6q0 -6 -2.5 -9t-5.5 -5t-5.5 -4t-2.5 -6q0 -3 3 -4q1 -1 3 -2v-5q0 -4 -0.5 -8.5t-5.5 -4.5l-7 4q-13 -4 -17.5 -18t-6.5 -25q-2 -5 -7.5 -27l-12 -47.5l-12.5 -47.5t-7 -28l-2 -6q-1 -2 -1 -5
q0 -1 -1 -2q-1 -3 -3.5 -14t-6 -23.5l-6.5 -23.5t-4 -14q0 -2 -2 -8t-4 -13.5t-4 -14t-3 -7.5q-2 -6 -6 -21.5l-8.5 -32l-8.5 -31t-5 -19.5q-2 -5 -6 -21t-10.5 -33.5t-14 -31.5t-15.5 -14v13zM647 -69q-5 0 -5 -5t5 -5q3 0 3 5t-3 5zM551 629q-8 -2 -12 -8t-7.5 -13.5
l-7 -15t-10.5 -11.5q-2 -3 -8.5 -8l-14 -11l-14 -11t-9.5 -7q-26 -5 -47.5 -17.5t-47.5 -16.5l-9 3q-3 0 -9 1l-12.5 2l-12.5 2t-8 1q-3 1 -11 3t-17 4t-17.5 4.5t-11.5 3.5q-25 9 -51 20t-50.5 25t-46.5 31t-39 38q5 5 -1 9t-11 6q-18 32 -23 68.5t8 74.5q5 16 15.5 30.5
t23 28l24.5 27.5t20 30q4 5 10.5 10t8.5 13l9 -3q3 9 12 21.5t21 23t24.5 17t22.5 3.5l2 7l4 2.5t9.5 5.5t11.5 5.5t11 3.5q9 3 26.5 5.5t37 4t37 2t26.5 -2.5l3 -2q1 -2 8.5 -6.5t9.5 -5.5q1 0 2 1l2 4l2 -1q1 -1 4 -3t6 -5q4 -4 7 -8h2q3 -1 4 -2l-3 12q5 -3 12 -8.5
l14.5 -11t14.5 -10t13 -5.5q14 -11 29.5 -28t25.5 -35q-2 -2 -1 -5t3.5 -6.5t5 -6.5t2.5 -4l13 -33t11.5 -37.5t5.5 -38.5t-4 -35q0 -1 -1.5 -2t-3.5 0q-2 -16 -4.5 -25t-6.5 -20q-7 -23 -16.5 -42t-15.5 -42zM588 770q-2 -4 2.5 -5.5t6.5 2.5q2 3 -3 4.5t-6 -1.5zM342 723
q8 -3 20 -7t24 -5t21.5 2.5t13.5 14.5q5 15 -1.5 35t-19 39.5t-29 34.5t-31.5 20l-13 4.5t-14.5 4t-14 1t-10.5 -6.5l-4 5q-11 -5 -19.5 -16t-12.5 -21q-3 1 -10.5 0.5t-11.5 -4.5l-2 7l-5 -13q0 -2 6.5 -16t10.5 -21q7 -11 19.5 -20t26.5 -16t29 -12.5t27 -9.5zM1010 -15
q-5 6 -12 8.5t-15 3t-16 2t-14 6.5q-3 1 -10 5.5l-15 9.5t-15 10l-10 7q-13 23 -31 39.5t-31 39.5v10q0 3 -1.5 9t-2.5 12.5t-2.5 12.5t-1.5 8q0 3 -0.5 11t-1 17.5t-1 18t-0.5 12.5q0 26 2.5 54t8 56t15 54t23.5 49q5 -3 7.5 4t2.5 12q24 27 57 43.5t74 16.5q17 0 34 -5.5
t33.5 -13t33.5 -14.5t35 -10q6 -2 13 -6t15 -4v-10q9 0 24 -5t29 -12.5t24 -17.5t10 -20h7q1 0 12 -10t16 -18t13.5 -24t16 -34t13 -34.5t5.5 -25.5v-4q-2 -2 -4 -10t-2 -10l2 -2q1 -1 4 -1v-2q0 -2 -1.5 -5l-3.5 -7q-3 -4 -5 -9v-2v-4l10 6q-2 -6 -4.5 -14.5t-5.5 -17
t-5 -16.5t-1 -14q-6 -17 -17 -37t-25 -35q-5 3 -10.5 -6t-7.5 -11q-12 -11 -27 -23t-32 -22.5t-34.5 -17.5t-34.5 -7q-4 0 -4 4q-16 -3 -25.5 -3.5t-20.5 -0.5q-23 0 -45 3t-45 1zM1156 -5q-5 0 -5 -5t5 -5q3 0 3 5t-3 5zM1033 213v-21.5t3 -24t9 -19.5t18 -8
q15 0 32.5 12.5t31.5 30.5t23.5 38.5t9.5 36.5q0 6 0.5 13.5t-0.5 15t-4 13.5t-10 8l4 5q-8 9 -21.5 13.5t-24.5 5.5q0 3 -2.5 10t-7.5 10l6 4h-14q-1 0 -4.5 -3.5t-8.5 -8t-9.5 -9l-7.5 -7.5q-8 -11 -12.5 -25t-7 -30t-3 -31.5t-0.5 -28.5z" />
    <glyph glyph-name="bracketleft" unicode="[" horiz-adv-x="568" 
d="M430 -206v-4q-2 -1 -7 -8l-7 -10l-2 -4t-4.5 -8t-5 -7.5t-3.5 -3.5h-14q-17 0 -31.5 6t-30.5 7q-4 0 -15.5 2.5t-14.5 2.5q-33 10 -64 25.5t-63 27.5l-14.5 3t-9.5 1l-6 -4q-7 11 -15 11.5t-18 5.5l-28.5 18.5t-26 20.5t-19 25.5t-7.5 33.5q0 20 3.5 46.5t14.5 43.5
q3 6 7 21.5t8 33.5t7 34t3 22v44q0 25 0.5 49t-4.5 48v286q6 45 7 91.5t1 91.5q0 17 -4 33.5t-8.5 33t-8 32.5t-3.5 31q0 34 5.5 61.5t19 46t37 28.5t60.5 10h24q1 0 9.5 -1.5t18 -3t17.5 -3t10 -1.5q9 -1 19 1l21.5 4.5l23 5t22.5 2.5q12 0 22.5 -4t20.5 -9.5l20.5 -11
t22.5 -8.5v-10q10 -3 20.5 -12t20.5 -18.5l18.5 -17.5t16.5 -8q0 -5 2.5 -11.5t6.5 -12t9 -8.5t11 1q-1 -2 -3.5 -8t-2.5 -8q2 -2 5.5 -5t4.5 -3l-10.5 -10.5l-18.5 -19t-17 -19.5t-5 -12q-35 -11 -69.5 -12t-69.5 -12h-2q-8 0 -14 3t-17 3h-11q0 -3 -2 -14t-2 -15t-0.5 -15
t-0.5 -23.5t-0.5 -24t-0.5 -15.5v-15q-8 -96 -18 -190.5t-10 -190.5q0 -39 3.5 -78.5t3.5 -80.5q0 -38 -10 -76t-10 -76q0 -15 10 -23t24.5 -13.5t29 -9.5t23.5 -10q16 -12 32.5 -26t30.5 -30.5t23 -34.5t9 -38zM67 433q-3 0 -3 -5t3 -5t3 5t-3 5zM515 876q-2 0 -2 -4.5
t2 -4.5q3 0 3 4.5t-3 4.5zM52 880q-4 0 -4 -4t4 -4t4 4t-4 4zM512 886q-5 0 -5 -5t5 -5q2 0 2 5t-2 5z" />
    <glyph glyph-name="hyphen" unicode="-" horiz-adv-x="548" 
d="M136 251q-26 6 -46.5 19t-20.5 39q0 24 21 43t54.5 33t74 24t80.5 16t74.5 8.5t54.5 2.5q13 0 23.5 -12.5t18.5 -30t12.5 -35t4.5 -26.5v-24q-5 -4 -14 -14.5l-16 -18.5z" />
    <glyph glyph-name="hyphen" unicode="&#xad;" horiz-adv-x="548" 
d="M136 251q-26 6 -46.5 19t-20.5 39q0 24 21 43t54.5 33t74 24t80.5 16t74.5 8.5t54.5 2.5q13 0 23.5 -12.5t18.5 -30t12.5 -35t4.5 -26.5v-24q-5 -4 -14 -14.5l-16 -18.5z" />
    <glyph glyph-name="underscore" unicode="_" horiz-adv-x="588" 
d="M80 -21q-26 6 -46.5 19t-20.5 39q0 24 30.5 39.5t78 25t105 13.5t111.5 5t98 0.5t64 -0.5q13 0 23.5 -12.5t18.5 -30t12.5 -35t4.5 -26.5v-24q-5 -4 -14 -14.5l-16 -18.5z" />
    <glyph glyph-name="bar" unicode="|" horiz-adv-x="311" 
d="M196 8q0 -4 -3.5 -9.5t-7.5 -7.5q-5 0 -10 4.5t-9.5 11t-7.5 13t-3 10.5h-1h-4q0 -1 -2.5 -4t-2.5 -5q-18 14 -28.5 24.5t-16.5 31.5t-8.5 60.5t-4.5 111.5t-5.5 183.5t-10.5 277.5q0 2 -1 7.5t-3 6.5q0 2 -2 6q-1 2 -1 4v16t-0.5 4t-2 3.5t-4.5 14.5q0 1 2.5 5.5
t4.5 4.5v25q0 20 -3.5 39t-3.5 38q0 28 7 46t20.5 27.5t34 13t46.5 3.5t41.5 -12.5t30.5 -31.5h4q3 0 7 -6.5t8 -15t7 -16t3 -10.5q0 -4 -2.5 -6t-2.5 -5v-4l4 -3v-52q5 -2 5.5 -5t0.5 -6q0 -5 -0.5 -8.5t-5.5 -3.5v-50q0 -55 5 -108t5 -107v-9q0 -3 -2 -16.5t-2 -16.5
t0.5 -14t1.5 -24.5t1.5 -25.5t0.5 -16v-27t-0.5 -40.5l-1 -41t-1.5 -26.5v-13q0 -9 -1 -30.5t-2 -45.5t-2.5 -45t-1.5 -29v-7q-10 -13 -15.5 -31t-16.5 -29q-8 -6 -17.5 -10.5t-15.5 -12.5q-2 -2 -3 -5t-2 -5l-5 -4q-6 4 -2 6t9 2.5t7.5 0t-5.5 -0.5h-3zM100 964
q-4 0 -4 -4.5t4 -4.5q3 0 3 4.5t-3 4.5z" />
    <glyph glyph-name="plus" unicode="+" horiz-adv-x="853" 
d="M745 498q-4 0 -12.5 0.5t-18.5 1t-18.5 1t-12.5 0.5h-4h-6q-3 -1 -12 -2.5t-19 -4t-20 -4t-14 -2.5l-10.5 -2.5t-13.5 -4t-12.5 -5.5t-6.5 -8q1 -1 2 -3q2 -3 5 -5h1h2q2 0 10 2t9 2h3h2q1 -1 2.5 -4.5t1.5 -5.5t-5.5 -2.5t-11.5 -2t-11.5 -6.5t-5.5 -15q0 -28 2 -44
t4.5 -26.5t5 -17.5t4 -17t1.5 -26t-3 -44q1 -1 4.5 -11t7 -23t6 -25t2.5 -16h-6q2 -12 -2.5 -16.5t-11.5 -6.5t-13 -4t-6 -9l-5 3q-4 -2 -15 -13.5t-14 -19.5q0 2 -4 4t-6 2l-3 -6h-7q-8 0 -7 8.5t-6 11.5q-3 -2 -4 -5t-1.5 -6.5t-2 -7t-6.5 -5.5q-4 8 -12.5 15.5
t-10.5 18.5q-12 -11 -12 -23q-18 0 -31 22.5t-20.5 52t-11 58.5t-3.5 41q-8 0 -10 4t-2 12h4q0 3 -4 14t-7 15h7v9h-7q-4 0 -5 11.5t-1 16.5h3q0 9 -4 14.5t-9 13.5q-3 6 0.5 -10t9 -36.5t10.5 -36.5t5 -10h6v10q-11 0 -13.5 11t-3 24t-3.5 24t-15 11h-8l5 -6l-59 -23
q-3 1 -5 3l-3.5 3.5t-1.5 3.5q-2 2 -5 7.5t-5 6.5q-15 -2 -38.5 -3t-47.5 2.5t-43.5 13.5t-24.5 31q-2 5 -7.5 8.5t-5.5 6.5v2q0 1 4 2.5t6 2.5v3v1l-3.5 3.5t-3.5 2.5q3 0 9 5.5t13 13l13 14.5t8 8q5 5 19 8.5l22 5.5q3 0 13 2.5l21 5t20.5 5t11.5 2.5t10 4.5t10 4.5l4 1
l2 -1h2l-4 -4h10q8 0 6.5 0.5t-4.5 2l-5 2.5t6 3q5 1 13.5 3l17 4t14.5 4t6 3l5 3v37l-12 82q0 24 2.5 47t11.5 41t27 29.5t49 11.5q1 0 3 -0.5t4 -0.5h5l10 -19q8 8 14.5 9t16.5 1h13q0 -2 3 -5q2 -2 4 -5q10 -4 16.5 -5.5t10.5 -4t7.5 -7.5t8.5 -15q7 -15 7.5 -47
t13.5 -81q2 -2 3.5 -5.5t3.5 -4.5h1q20 0 49.5 6t52.5 9h4h17.5t28.5 -1.5t26.5 -6t11.5 -13.5q2 0 10 1t10 1q1 0 2.5 -2.5t1.5 -3.5zM450 154q-2 0 -2 -4.5t2 -4.5q5 0 5 4.5t-5 4.5zM493 154q-1 0 -1 -2.5t1 -2.5q2 1 2 3t-2 2zM489 195q-5 0 -5 -3.5t5 -3.5q3 0 3 3.5
t-3 3.5zM590 202q-2 0 -2 -5t2 -5q5 0 5 5t-5 5zM367 365q-3 0 -3 -5t3 -5q2 0 2 5t-2 5zM367 375q-3 0 -3 -5t3 -5q2 0 2 5t-2 5zM388 266q-5 0 -5 -4t5 -4q3 0 3 4t-3 4zM382 294q-3 0 -3 -4t3 -4q5 0 5 4t-5 4zM288 408q3 0 12 -2t12 -2h3h3q1 0 6 4t6 6h-1h-2
q-4 -2 -19 -3t-20 -3zM340 414q-4 0 -4 -5t4 -5q3 0 3 5t-3 5zM768 581q-4 0 -4 -5t4 -5t4 5t-4 5z" />
    <glyph glyph-name="circumflex" unicode="&#x2c6;" horiz-adv-x="572" 
d="M29 764q-3 23 5.5 42.5t22.5 36.5t30 33.5t27 33.5q4 5 12 18l17 27t16.5 27l10.5 18q16 11 35.5 22t40.5 19.5t42 14t41 5.5q14 0 35 -14.5t44.5 -37.5t47.5 -51.5t43 -56.5t31 -52.5t12 -39.5q0 -8 -3.5 -12.5t-8 -7.5t-9 -5.5t-7.5 -7.5q-6 -10 -5.5 -15t1 -6.5
t-2.5 -1t-18 0.5q0 -3 0.5 -9t0.5 -9q0 -2 -14 -4t-31.5 -4t-33 -3.5t-19.5 -1.5q-14 0 -28 14t-27 33t-24.5 39t-20.5 31q-10 -33 -24 -55.5t-31.5 -38.5t-37.5 -27.5t-42 -21.5l-65 -7q-4 6 -10.5 9t-13.5 5t-13 4.5t-9 8.5q-2 5 -5.5 13t-5.5 16q-4 9 -6 18z" />
    <glyph glyph-name="tilde" unicode="&#x2dc;" horiz-adv-x="836" 
d="M279 853q-2 0 -8.5 -10.5l-14.5 -24l-16 -26.5t-13 -17q-3 -1 -11.5 -5.5t-17.5 -10l-16.5 -10.5t-9.5 -7h-5q-13 0 -21.5 4.5t-20.5 8.5q-12 3 -25 3.5t-23.5 3.5t-17 11t-6.5 27q0 20 6.5 42t17 43.5t23.5 41t25 34.5q14 18 28 26t25 24q39 12 72.5 23.5t73.5 11.5
q3 0 13 -0.5t12 -0.5q14 -11 28 -13.5t29 -16.5q2 -1 9.5 -9.5t8.5 -11.5l4 -4q3 -3 5 -3q2 -4 7 -11.5l10 -15.5t10 -15t7 -9q4 -7 9.5 -22t12.5 -30t15.5 -26.5t17.5 -11.5q6 0 10 11.5t6.5 26t4 28t2.5 18.5q0 2 2 4q1 1 3 2l2 4q2 4 2 5q8 25 23.5 40.5t35 24t43 11.5
t48.5 3q8 0 16 -6t14 -15t9.5 -19t3.5 -17q0 -25 -8 -49t-8 -50v-4q1 -2 2.5 -4.5t1.5 -4.5l-4 -2v-9q-20 -26 -46 -52t-56 -47t-63 -34.5t-67 -13.5q-12 0 -26.5 0.5t-29.5 3t-28.5 6.5t-23.5 11q-22 11 -34 24.5t-26 32.5q-5 7 -12 20l-14.5 26t-14.5 22.5t-11 9.5z" />
    <glyph glyph-name="grave" unicode="`" horiz-adv-x="322" 
d="M19 902q0 19 11 34t27 24.5t34.5 14.5t34.5 5q15 -1 35 -12.5t39.5 -27t36.5 -32l27 -26.5l2 2q15 -8 28 -33.5t17.5 -54.5t-3 -54t-32.5 -32q-17 0 -38.5 1.5t-35.5 9.5q-21 15 -39.5 35t-38.5 37q-14 12 -28.5 23l-28.5 22q-22 15 -35 26t-13 38z" />
    <glyph glyph-name="acute" unicode="&#xb4;" horiz-adv-x="424" 
d="M361 937q0 -15 -3.5 -25t-9.5 -17.5t-14.5 -14.5l-18.5 -15l-28 -25t-28 -26q-19 -17 -37 -40t-38 -39q-14 -10 -35 -11.5t-38 -1.5q-17 5 -25 19.5t-10.5 34.5t1 42t10 42t15.5 35t19 21l1 -1l26.5 29t35.5 35.5t38.5 30.5t34.5 14q15 0 33.5 -5.5t34 -16.5t26 -27
t10.5 -38z" />
    <glyph glyph-name="quoteright" unicode="&#x2019;" horiz-adv-x="304" 
d="M189 641q-1 0 -6 -5q-2 -3 -4 -5h-3h-4l-3 3q-2 2 -9 5t-10 5l-5 -3h-1q-5 0 -11.5 16.5t-13 41.5t-12.5 55.5t-10.5 59t-7.5 51t-3 32.5q0 18 9.5 29t23 16.5t29.5 7.5t28 2q39 0 57 -20.5t24 -53t4 -73t-2 -81.5v-42q-2 0 -4 -5q-2 -2 -3 -4v-4q0 -8 3.5 -17t3.5 -18
q0 -5 -1 -8.5t-6 -8.5q-1 0 -5 -1.5t-6 -1.5q-8 0 -15.5 4t-14.5 9.5l-12.5 9.5t-9.5 4z" />
    <glyph glyph-name="quoteleft" unicode="&#x2018;" horiz-adv-x="304" 
d="M189 641q-1 0 -6 -5q-2 -3 -4 -5h-3h-4l-3 3q-2 2 -9 5t-10 5l-5 -3h-1q-5 0 -11.5 16.5t-13 41.5t-12.5 55.5t-10.5 59t-7.5 51t-3 32.5q0 18 9.5 29t23 16.5t29.5 7.5t28 2q39 0 57 -20.5t24 -53t4 -73t-2 -81.5v-42q-2 0 -4 -5q-2 -2 -3 -4v-4q0 -8 3.5 -17t3.5 -18
q0 -5 -1 -8.5t-6 -8.5q-1 0 -5 -1.5t-6 -1.5q-8 0 -15.5 4t-14.5 9.5l-12.5 9.5t-9.5 4z" />
    <glyph glyph-name="quotedblleft" unicode="&#x201c;" horiz-adv-x="552" 
d="M363 867q3 0 6 5q2 2 4 5h3h4l3 -3q2 -2 9 -5t10 -5l5 3h1q8 0 26.5 -22.5t37.5 -52.5t33.5 -59.5t14.5 -43.5q0 -18 -9.5 -29t-23 -16.5t-29.5 -7.5t-28 -2q-39 0 -65.5 8t-42.5 26t-22.5 46.5t-6.5 69.5v42l4 4q1 2 3 5v4q0 8 -3.5 17t-3.5 18q0 5 1 8.5t6 8.5
q1 0 5 1.5t6 1.5q8 0 15.5 -4t14 -9.5t12.5 -9.5t10 -4zM276 680q0 -20 -11 -32.5t-27.5 -20t-36 -10.5t-35.5 -3q-26 0 -50 8t-42.5 22.5t-30 36t-11.5 48.5v3q1 19 0.5 40.5t2.5 39.5t14 30t36 12h11q2 0 8 -4.5t8 -4.5q9 -1 13.5 0t8.5 3l8 4t10 2q8 0 14.5 -3.5
t9.5 -10.5q1 -2 5.5 -9t9 -15t9 -14.5t6.5 -7.5q8 -14 20 -27l23 -26t19 -28t8 -33z" />
    <glyph glyph-name="quotedblright" unicode="&#x201d;" horiz-adv-x="552" 
d="M347 648q-4 0 -9 -4t-10.5 -9t-12 -9t-13.5 -4q-2 0 -5.5 1.5t-4.5 1.5q-5 5 -5.5 8t-0.5 8q0 9 3 17.5t3 16.5v3l-2 4q-3 5 -4 5v40q0 39 6 66.5t19.5 45t36.5 25t57 7.5q11 0 24.5 -2t25.5 -7.5t20.5 -16t8.5 -27.5q0 -14 -12.5 -42t-29 -56.5t-33 -50t-23.5 -21.5h-1
l-4 3q-2 -2 -8.5 -5t-8.5 -5l-2 -3h-4h-2q-1 2 -3 5q-5 5 -6 5zM271 827q0 -18 -7 -32t-16.5 -26.5t-20 -25t-17.5 -25.5q-2 -1 -5.5 -7.5t-8 -14t-8 -14.5t-4.5 -8q-6 -14 -21 -14q-11 0 -15.5 5.5t-19.5 3.5q-2 0 -7 -4.5t-7 -4.5h-10q-22 0 -31 11.5t-12 29t-2.5 38
t-0.5 38.5v3q0 26 10 46.5t26.5 34.5t37.5 21.5t43 7.5q15 0 31.5 -2.5t31 -9.5t24 -19.5t9.5 -31.5z" />
    <glyph glyph-name="hungarumlaut" unicode="&#x2dd;" horiz-adv-x="772" 
d="M383 933q0 -15 -3 -24.5t-9 -17t-14.5 -14l-18.5 -14.5l-27 -24l-27 -26q-18 -17 -36 -39t-38 -38q-14 -10 -34 -11.5t-36 -1.5q-24 7 -31 34.5t-3 59t16.5 59.5t26.5 37l2 -2l26 29t34.5 35t37 29.5t33.5 13.5q15 0 32.5 -5.5t33 -16t25.5 -26.5t10 -37zM664 911
q0 -29 -12.5 -41.5t-32.5 -28.5l-27.5 -24t-26.5 -26q-19 -17 -36.5 -39t-37.5 -38q-14 -10 -34.5 -11.5t-36.5 -1.5q-16 5 -24 19.5t-10 33.5t1 41t9.5 41t15.5 34t18 21l1 -2l26 29t34.5 35t37 29.5t33.5 13.5q15 0 33 -5.5t33.5 -16t25.5 -26.5t10 -37z" />
    <glyph glyph-name="dotlessi" unicode="&#x131;" horiz-adv-x="331" 
d="M147 24q-2 0 -5 -2.5t-5 -4.5q-1 1 -5 5.5t-9 9.5t-9 10.5t-5 8.5l-3 159q-9 13 -9.5 19.5t-4.5 22.5q-4 33 -6.5 71t-6 75.5t-9.5 73t-17 62.5v74q-10 10 1 21.5t33 21t50.5 15t53 4.5t40.5 -11t13 -31q25 -67 39.5 -136t20.5 -139.5t6 -141.5t-3 -142v-9q0 -4 -2 -16
t-2 -17q-3 0 -10.5 -1.5t-9.5 -1.5h-4q-8 0 -12.5 3.5t-10.5 3.5v-4q0 -2 1.5 -9t1.5 -8q0 -2 -2 -6q-1 -2 -1 -4q-3 8 -8 12t-7 12q-5 -3 -7 -7.5t-4.5 -8t-6 -6t-10.5 -2.5h-9t-12 0.5t-11 1t-5 2.5v13q0 2 -10.5 4.5t-18.5 2.5zM189 24q-2 0 -2 -3.5t2 -3.5q3 3 0 7z
M162 37q-4 0 -4 -5t4 -5q3 0 3 5t-3 5zM162 51q-4 0 -4 -5t4 -5q3 0 3 5t-3 5z" />
    <glyph glyph-name="dotaccent" unicode="&#x2d9;" horiz-adv-x="328" 
d="M112 726q-16 9 -28.5 14.5t-21 14t-13 21.5t-4.5 36q0 28 15.5 52.5t39.5 43t52.5 29t55.5 10.5q26 0 42 -12t26 -30t14.5 -39l8.5 -40q0 -2 1.5 -7t3.5 -11l3.5 -10.5t1.5 -5.5q0 -8 -5.5 -20t-8.5 -16q-6 -9 -14.5 -12t-18 -4t-19.5 -0.5t-18 -0.5q-13 -2 -21.5 -9.5
t-19.5 -7.5h-12q-3 0 -12 0.5t-19 1.5t-18 1.5t-11 0.5z" />
    <glyph glyph-name="ring" unicode="&#x2da;" horiz-adv-x="588" 
d="M521 744q-8 -2 -12 -5.5t-7 -8.5t-7 -9.5t-10 -7.5q-2 -2 -8 -5.5l-13.5 -7.5l-14 -7.5t-9.5 -4.5q-25 -3 -45.5 -11t-46.5 -11l-9 2q-3 0 -8.5 0.5t-12 1.5t-12.5 1.5t-8 0.5q-3 0 -11 1.5l-16.5 3l-16.5 3t-11 2.5q-25 6 -50.5 13t-49.5 16.5t-45 20.5t-37 25
q5 3 -1 5.5l-11 4.5q-17 20 -22 44t7 50q5 11 15.5 20t22.5 18l23.5 18t19.5 20q4 4 10.5 7t8.5 8l8 -2q3 6 12 14t20.5 15t24 11.5t21.5 2.5l2 5q7 2 13 5q5 2 11 3.5t11 2.5l26 3t36 3t36 1t26 -1l3 -2q1 -2 8 -4.5t9 -2.5q1 0 2 1l2 2l2 -1q1 -1 9 -5q4 -2 7 -5h2
q3 -1 4 -2l-3 8q11 -5 26.5 -13t26.5 -10q14 -8 29 -18.5t24 -22.5q-4 -3 2.5 -8t7.5 -7q6 -9 13 -21t11.5 -25t5 -25.5t-4.5 -23.5q-1 -1 -2 -1h-2q-2 -11 -4.5 -16.5t-6.5 -12.5q-7 -15 -16.5 -28t-14.5 -28zM557 837q-2 -2 2 -3t6 1t-2.5 3t-5.5 -1zM317 806q24 -5 39 0
t21.5 15.5t5 24.5t-9.5 25.5t-22.5 18.5t-34.5 4q-6 -1 -13 0.5l-14.5 3t-13.5 2t-10 -3.5l-4 4q-39 -14 -45.5 -28t6.5 -26.5t40 -23t55 -16.5z" />
    <glyph glyph-name="ogonek" unicode="&#x2db;" horiz-adv-x="308" 
d="M248 -120q8 9 23.5 3.5t31 -20t28 -34.5t14.5 -40t-9.5 -37.5t-43.5 -25.5q-3 -1 -12 0t-19 2.5l-19.5 3t-12.5 2.5q-25 9 -43.5 15t-34 14t-30 20t-31.5 33q5 5 -1 9t-11 6q-18 32 -23 68.5t8 74.5q5 16 8.5 22t7 9.5t8.5 9t13 21.5q4 5 10.5 10t8.5 13l9 -3
q2 6 12 18.5t25.5 12.5t35.5 -21t43 -81q-2 0 -8.5 -4l-14 -9l-14.5 -10t-9 -7l-2 7l-5 -13q0 -2 6.5 -16t10.5 -21l10 -16t5.5 -7t7.5 -3.5t17 -5.5z" />
    <glyph glyph-name="endash" unicode="&#x2013;" horiz-adv-x="548" 
d="M136 251q-26 6 -46.5 19t-20.5 39q0 24 21 43t54.5 33t74 24t80.5 16t74.5 8.5t54.5 2.5q13 0 23.5 -12.5t18.5 -30t12.5 -35t4.5 -26.5v-24q-5 -4 -14 -14.5l-16 -18.5z" />
    <glyph glyph-name="emdash" unicode="&#x2014;" horiz-adv-x="612" 
d="M136 251q-26 6 -46.5 19t-20.5 39q0 24 28 40t72 25.5t98 14t104.5 6.5t92 1.5t61.5 -0.5q13 0 23.5 -12.5t18.5 -30t12.5 -35t4.5 -26.5v-24q-5 -4 -14 -14.5l-16 -18.5z" />
    <glyph glyph-name="cedilla" unicode="&#xb8;" horiz-adv-x="404" 
d="M124 -426q-2 -1 1 6t7.5 16t7.5 16t1 6l-5 6q-2 -5 -9 -11t-15 -8q-3 4 -7 3t-8.5 -2t-7 1t-2.5 12l-7 -3.5l-10.5 -5.5t-11 -5.5t-8.5 -3.5h-3q-26 3 -27.5 10t7 16.5t21.5 20.5t17 20q63 17 103 44.5t50.5 54t-12.5 45.5t-87 18q-5 3 -7 5.5t-3 5.5t-2 5.5t-4 5.5
q-5 -3 -6 -8t2 -10q-29 14 -36.5 37t-6 50t7 55t1.5 52q9 18 22 18.5t22 -4.5t11.5 -10.5t-8.5 0.5q1 7 14 11t29.5 3t33 -6.5t24.5 -17.5q15 1 14 -14.5t-7 -34l-10 -31.5t6 -7q85 -6 127 -36.5t51 -71.5t-10 -87t-57.5 -84t-91.5 -62t-111 -20zM90 -140q-5 0 -5 -2.5
t5 -0.5q2 1 2 2.5t-2 0.5z" />
    <glyph glyph-name="exclamdown" unicode="&#xa1;" horiz-adv-x="379" 
d="M120 899.004q0 -23.998 13 -46.9971t33.5 -41.4971q20.5 -18.499 46 -29.498q25.5 -11 49.5 -11q12 0 25 5t24 13.999t18 20.999q7 11.999 7 24.998v2q-11 53.9971 -48.5 90.4941q-37.5 36.498 -97.5 36.498q-26 0 -48 -16.999t-22 -47.9971zM102 649.02
q-2 -9 -5 -27.498l-6.5 -41.998l-7.5 -49.4971q-4 -25.998 -8 -49.4971l-7 -41.9971t-4 -27.498q0 -3 -0.5 -10q-0.5 -6.99902 -1.5 -15.499q-1 -8.49902 -1.5 -16.499q-0.5 -7.99902 -0.5 -11.999q0 -28.998 -5.5 -61.4961t-6.5 -61.4961q0 -6 1.5 -17.999t2 -24.499
q0.5 -12.499 0.5 -23.498q0 -11 -3 -14.999l6 -55.9971q-1 -2 -5.5 -7.99902q-4.5 -6 -5.5 -7v-3l1 -1.99902q0 -1 1.5 -2.5t1.5 -2.5l35.5 -20.499t45 -24.498q23.5 -12 46.5 -19.499q23 -7.5 40 -6.5h2q3 0 8.5 2t12 4t12.5 3.5t9 2.5q0 1.99902 1 2.99902q2 2 3 2
q25 17.999 37 46.4971t11 60.4961q0 8 -2.5 18.499q-2.5 10.5 4.5 15.499q-8 54.9971 -13.5 106.494q-5.5 51.4961 -3.5 105.493l4 102.994q2 51.9961 -3 101.993q-2 13.999 -10 24.499q-8 10.499 -18 19.999q-10 9.49902 -19.5 20.498q-9.5 11 -13.5 24.999h-1h-3l-2 -4
q-1 -1 -1 -3h-1q-1 0 -2 -1q-4 0 -5 3.5t-2 7.49902q-1 4 -3.5 7t-8.5 1q-1 -1 -4 -6q-3 -4.99902 -5 -4.99902q-4 -1 -15 3.49902q-11 4.5 -13 8.5q-2 -1 -5 -4.5t-4 -5.49902l-2 -1q-6 0 -10 7.99902q-4 8 -14 7q-17 -2 -22.5 -8.5q-5.5 -6.49902 -10.5 -24.498z" />
    <glyph glyph-name="ellipsis" unicode="&#x2026;" horiz-adv-x="1056" 
d="M122 4q-16 9 -28.5 14.5t-21 14t-13 21.5t-4.5 36q0 28 15.5 52.5t39.5 43t52.5 29t55.5 10.5q26 0 42 -12t26 -30t14.5 -39l8.5 -40q0 -2 1.5 -7t3.5 -11l3.5 -10.5t1.5 -5.5q0 -8 -5.5 -20t-8.5 -16q-6 -9 -14.5 -12t-18 -4t-19.5 -0.5t-18 -0.5q-13 -2 -21.5 -9.5
t-19.5 -7.5h-12q-3 0 -12 0.5t-19 1.5t-18 1.5t-11 0.5zM474 4q-16 9 -28.5 14.5t-21 14t-13 21.5t-4.5 36q0 28 15.5 52.5t39.5 43t52.5 29t55.5 10.5q26 0 42 -12t26 -30t14.5 -39l8.5 -40q0 -2 1.5 -7t3.5 -11l3.5 -10.5t1.5 -5.5q0 -8 -5.5 -20t-8.5 -16
q-6 -9 -14.5 -12t-18 -4t-19.5 -0.5t-18 -0.5q-13 -2 -21.5 -9.5t-19.5 -7.5h-12q-3 0 -12 0.5t-19 1.5t-18 1.5t-11 0.5zM826 4q-16 9 -28.5 14.5t-21 14t-13 21.5t-4.5 36q0 28 15.5 52.5t39.5 43t52.5 29t55.5 10.5q26 0 42 -12t26 -30t14.5 -39l8.5 -40q0 -2 1.5 -7
t3.5 -11l3.5 -10.5t1.5 -5.5q0 -8 -5.5 -20t-8.5 -16q-6 -9 -14.5 -12t-18 -4t-19.5 -0.5t-18 -0.5q-13 -2 -21.5 -9.5t-19.5 -7.5h-12q-3 0 -12 0.5t-19 1.5t-18 1.5t-11 0.5z" />
    <glyph glyph-name="dieresis" unicode="&#xa8;" horiz-adv-x="692" 
d="M108 683q-16 9 -28.5 14.5t-21 14t-13 21.5t-4.5 36q0 28 15.5 52.5t39.5 43t52.5 29t55.5 10.5q26 0 42 -12t26 -30t14.5 -39l8.5 -40q0 -2 1.5 -7t3.5 -11l3.5 -10.5t1.5 -5.5q0 -8 -5.5 -20t-8.5 -16q-6 -9 -14.5 -12t-18 -4t-19.5 -0.5t-18 -0.5q-13 -2 -21.5 -9.5
t-19.5 -7.5h-12q-3 0 -12 0.5t-19 1.5t-18 1.5t-11 0.5zM460 683q-16 9 -28.5 14.5t-21 14t-13 21.5t-4.5 36q0 28 15.5 52.5t39.5 43t52.5 29t55.5 10.5q26 0 42 -12t26 -30t14.5 -39l8.5 -40q0 -2 1.5 -7t3.5 -11l3.5 -10.5t1.5 -5.5q0 -8 -5.5 -20t-8.5 -16
q-6 -9 -14.5 -12t-18 -4t-19.5 -0.5t-18 -0.5q-13 -2 -21.5 -9.5t-19.5 -7.5h-12q-3 0 -12 0.5t-19 1.5t-18 1.5t-11 0.5z" />
    <glyph glyph-name="quotesinglbase" unicode="&#x201a;" horiz-adv-x="304" 
d="M158 9q-1 0 -6 -5q-2 -3 -4 -5h-3h-4l-3 3q-2 2 -9 5t-10 5l-5 -3h-1q-6 0 -12 16.5t-12.5 41.5t-12.5 55.5t-10.5 59t-7.5 51t-3 32.5q0 18 9.5 29t23 16.5t29.5 7.5t28 2q39 0 57 -20.5t24 -53t4 -73t-2 -81.5v-42q-2 0 -4 -5q-2 -2 -3 -4v-4q0 -8 3.5 -17t3.5 -18
q0 -5 -1 -8.5t-6 -8.5q-1 0 -5 -1.5t-6 -1.5q-8 0 -15.5 4t-14.5 9.5l-12.5 9.5t-9.5 4z" />
    <glyph glyph-name="florin" unicode="&#x192;" horiz-adv-x="594" 
d="M102 -312h7q0 1 -4 7.5l-9 15l-10 16.5t-6 12q-2 3 -3 10t-1.5 14t-1.5 13t-4 6q-2 9 9 16t29.5 12.5t40.5 11t41.5 11t33 12t14.5 15.5l-43 394q-3 20 -6 38q-2 16 -4.5 32t-3.5 27q-2 2 -1 7.5t1 6.5h-6q-3 0 -11.5 -4t-10.5 -6q4 -8 -5 -15t-22.5 -13.5l-26 -12
t-14.5 -9.5q-5 8 -3 8.5t2 8.5q-15 0 -24.5 -6.5t-23.5 -6.5q-21 0 -40.5 8.5t-42.5 8.5q0 1 -3 6t-7 10t-8.5 9t-6.5 4l17 10q-5 0 -7 2.5t-2.5 6.5l-1 8t-3.5 7l9.5 6.5t13 9.5l12.5 9.5t8 6.5q12 10 43 27.5l64 35l58.5 32t26.5 19.5q2 2 -1.5 12t-3.5 12q-1 28 -3 57
t-2 58q0 5 -1 13t-1 14q9 0 8.5 1.5t-0.5 5.5q3 41 7 76.5t12.5 68.5t23 64.5t37.5 64.5q12 17 34 28.5t47 18.5t50 10t44 3q18 0 33.5 -3t30 -9t29.5 -14l32 -17l4 -3q1 -1 7 -4.5l12.5 -7.5l12.5 -7.5t8 -4.5q3 -2 7 -6.5t9 -9.5l10 -12v-10h-7q0 -6 4.5 -13l9.5 -15v-3
v-1l-5 -5l-5 -5q-6 -5 -17 -12.5t-12 -7.5l-10 6q0 -1 -2 -6.5t-2 -7.5v-3v-2l5 -5l5 -5l-2 -2q-1 -1 -4 -1h-1h-3q-1 0 -4.5 2.5t-7.5 4.5t-7.5 4t-4.5 2l-1 2q-7 0 -9.5 -3.5t-12.5 -3.5q-14 0 -28.5 1.5t-28.5 3.5q-11 2 -21 8.5t-24 6.5q-1 0 -5.5 -1t-5.5 -1
q-17 -23 -24 -49.5t-9 -54.5t-1 -56t1 -53v-3q0 -2 0.5 -8.5t1.5 -14l2 -14.5t2 -10h14q14 0 27.5 3t28.5 3q8 0 13.5 -0.5t13.5 -5.5l-3 -4q11 -4 21.5 -11t24.5 -8q6 -1 14 0t15.5 0t12.5 -5.5t5 -14.5q0 -5 -5 -7t-5 -8v-2q0 -2 4 -5t6 -5q-6 -3 -11 -9l-10.5 -12.5
t-13 -11t-20.5 -4.5q0 -5 1.5 -7.5t1.5 -4t-2 -3.5t-8 -5q-33 -2 -59.5 -6.5t-58.5 -16.5v-12q0 -46 6 -94.5t14 -95.5q0 -1 2 -7l2 -6l3.5 -10.5t2.5 -8.5q1 -9 4 -44.5t6.5 -83.5t7 -102l6.5 -99.5l5 -75.5t2 -31v-27h6q0 -4 -2.5 -15.5t-6 -23.5t-7.5 -21.5t-7 -9.5
q-5 0 -7 2.5t-5 2.5q-19 0 -39.5 -4.5t-44.5 -4.5h-232zM400 -279q-1 0 -1 -5.5t1 -4.5q8 4 0 10zM70 -184q3 0 3 -5t-3 -5q-5 0 -5 5t5 5zM91 332q-5 0 -5 -4t5 -4q3 0 3 4t-3 4zM139 347q-2 -1 -5.5 -4.5t-4.5 -5.5l14 10h-3h-1zM550 545q-3 0 -3 -5t3 -5q5 0 5 5t-5 5z
M161 670q-2 0 -2 -4t2 -4q4 0 4 4t-4 4z" />
    <glyph glyph-name="quotedblbase" unicode="&#x201e;" horiz-adv-x="552" 
d="M373 17q-4 0 -9 -4t-10.5 -9t-12 -9t-13.5 -4q-2 0 -5.5 1.5t-4.5 1.5q-5 5 -5.5 8t-0.5 8q0 9 3 17.5t3 16.5v3l-2 4q-3 5 -4 5v40q0 39 6 66.5t19.5 45t36.5 25t57 7.5q11 0 24.5 -2t25.5 -7.5t20.5 -16t8.5 -27.5q0 -14 -12.5 -42t-29 -56.5t-33 -50t-23.5 -21.5h-1
l-4 3q-2 -2 -8.5 -5t-8.5 -5l-2 -3h-4h-2q-1 2 -3 5l-3.5 3.5t-2.5 1.5zM297 196q0 -18 -7 -32t-16.5 -26.5t-20 -25t-17.5 -25.5q-2 -1 -5.5 -7.5t-8 -14t-8 -14.5t-4.5 -8q-6 -14 -21 -14q-11 0 -15.5 5.5t-19.5 3.5q-2 0 -7 -4.5t-7 -4.5h-10q-22 0 -31 11.5t-12 29
t-2.5 38t-0.5 38.5v3q0 26 10 46.5t26.5 34.5t37.5 21.5t43 7.5q15 0 31.5 -2.5t31 -9.5t24 -19.5t9.5 -31.5z" />
    <glyph glyph-name="questiondown" unicode="&#xbf;" horiz-adv-x="632" 
d="M447.01 888.004q0 -25.998 -10.5 -46.9971q-10.499 -20.998 -27.998 -36.4971t-39.498 -26.499q-21.998 -10.999 -44.9971 -16.999q-5.99902 -2 -12.999 -5.99902q-6.99902 -4 -14.999 -4q-18.999 0 -32.498 10.499l-27.498 22.499h-6q-1 0 -8.49902 10.999
q-7.5 11 -9.5 17.999v17.999q0 29.998 11 53.9971q10.999 23.998 29.998 39.9971t44.4971 24.498q25.498 8.5 53.4971 8.5q15.999 0 32.998 -4q16.998 -4 30.998 -12.499q13.999 -8.49902 22.998 -21.499q9 -12.999 9 -31.998zM414.012 577.023q3.99902 -2 12.499 -7
l17.999 -10.999l17.999 -10.999q8.49902 -5 11.499 -7q4 -3 9.99902 -9.49902l12 -13.499q5.99902 -7 10.499 -13.5q4.5 -6.49902 4.5 -10.499q2 -18.999 -11.5 -38.998q-13.499 -19.998 -34.9971 -41.4971l-46.498 -44.4971q-24.998 -22.999 -46.9971 -48.9971
q-21.998 -25.998 -36.9971 -55.9971q-14.999 -29.998 -14.999 -63.9961q0 -3.99902 0.5 -9.49902t2.49902 -9.99902q2 -4.5 6 -7t10.999 -0.5q2 1 10 10.499l17.499 20.499l17.499 20.999q7.99902 9.99902 10.999 12.999q2 3 6.99902 8.49902q5 5.5 11 11.5l11.499 11.499
t8.49902 7.5q0 -2 3.5 -2t4.5 2q2 0 8 1.49902q5.99902 1.5 12.999 3q6.99902 1.5 13.499 2.5q6.49902 1 7.49902 1h2q31.998 0 51.9971 -9.49902q19.999 -9.5 38.998 -32.498v-20.999q0 -45.9971 -29.999 -81.9951q-29.998 -35.998 -72.4951 -63.4961t-90.4941 -46.4971
t-83.9951 -29.998h-24.999q-74.9951 0 -113.992 36.498q-38.998 36.4971 -38.998 113.492q3 37.998 14.499 76.4961q11.499 38.4971 29.498 74.4951t41.498 68.4961q23.498 32.498 48.4971 57.4961q-5 0 -12 8q-6.99902 7.99902 -12.999 18.999
q-5.99902 10.999 -9.99902 21.998t-4 17.999q0 8.99902 7.5 28.998q7.49902 19.999 17.998 40.498q10.5 20.498 22.499 35.9971t20.999 15.499q7.99902 0 10.999 -1.99902q3 -2 13.999 -2q11.999 0 20.999 2q8.99902 1.99902 19.999 1.99902q25.998 0 37.9971 -6.99902
q11.999 -7 24.999 -30.998z" />
    <glyph glyph-name="Euro" unicode="&#x20ac;" horiz-adv-x="916" 
d="M296 432q0 -30 3 -58l265 10q16 2 28 -10t19.5 -29.5t11 -36.5t3.5 -30v-31q-1 -6 -26 -11.5t-65.5 -10t-91.5 -7.5l-105 -6q5 -11 15 -16t18 -12l16 -10.5t20.5 -12.5t20.5 -10t16 -4q14 1 39 3l55.5 4.5l64 5t64 4.5t55 3t38.5 1q10 0 20 -5t18 -5l4 2q4 2 6 2q1 2 6 3
t7 3h4q-11 -5 -15 -16t-2 -22h6q11 0 17.5 4t14.5 4h3l-9 -17h5l2.5 -7.5t1.5 -7.5q0 -11 -3.5 -21.5t-14.5 -16.5l4 -3q-7 -24 -37.5 -41t-73 -28.5t-92.5 -19t-97 -11t-86 -5t-60 -1.5q-9 0 -28.5 3.5t-41 9t-41 12t-28.5 11.5q-30 17 -54 41t-44 51.5t-37 57t-32 58.5
h-37q-22 0 -45 3.5t-41.5 13t-30.5 26t-12 43.5q0 18 11 29.5t27 19t33.5 13t30.5 12.5h8v46v19l-59 -1q-26 6 -46.5 19t-20.5 39q0 23 37.5 39.5t97.5 29.5q0 3 1 5q4 28 9 48t10 45l25 49q55 88 120.5 143.5t136 87t143.5 43t143 11.5q34 0 72.5 -10t74 -27t65.5 -40.5
t48 -51t20.5 -57.5t-16.5 -60q-3 -5 -27 0l-62.5 12.5t-87 16t-100.5 10.5t-103 -4.5t-94 -27.5t-74.5 -60t-43.5 -101q44 3 84.5 5t74 3.5t58 2t36.5 0.5q13 0 23.5 -12.5t18.5 -30t12.5 -35t4.5 -26.5v-24q-5 -4 -14 -14.5l-16 -18.5z" />
    <glyph glyph-name="sterling" unicode="&#xa3;" horiz-adv-x="916" 
d="M324 516q0 -30 3 -58l265 10q16 2 28 -10t19.5 -29.5t11 -36.5t3.5 -30v-31q-1 -6 -26 -11.5t-65.5 -10t-91.5 -7.5l-105 -6q3 -5 2 -28.5t-1.5 -50.5t-0.5 -49.5t4 -25.5q6 -4 27.5 -2t46 5.5t46 7.5t27.5 4q21 2 54.5 -1.5t70 -8.5l70 -9.5t53.5 -4.5q10 0 20 -5t18 -5
l4 2q4 2 6 2q1 2 6 3t7 3h4q-11 -5 -15 -16t-2 -22h6q11 0 17.5 4t14.5 4h3l-9 -17h5l2.5 -7.5t1.5 -7.5q0 -11 -3.5 -21.5t-14.5 -16.5l4 -3q-12 -15 -34.5 -21.5t-50.5 -8t-60 1t-63 6l-58 6.5t-45 3q-6 0 -26.5 -4t-48.5 -9l-59 -11t-58.5 -10.5t-48 -6t-26.5 2.5
q-20 12 -31 33.5t-17 49t-9 58.5l-6 61.5t-7.5 57.5t-14.5 46l-103 2q-22 0 -45 3.5t-41.5 13t-30.5 26t-12 43.5q0 18 12.5 25.5t30.5 10.5t37 4.5t32 8.5l108 11q10 146 43.5 245t91.5 160t140 87t189 26q52 0 99.5 -18.5t84 -51t58.5 -77.5t22 -99q0 -16 -0.5 -36
t-4.5 -39.5t-11.5 -37.5t-22.5 -29q-1 -1 -3 -2q-1 -1 -3 -1h-1q-24 -9 -36.5 -17t-24 -14t-27.5 -9t-46 -3q-10 32 -9 73.5t-2 79t-19 63.5t-59 28q-47 9 -100.5 -8.5t-98.5 -53t-74 -83.5t-27 -100z" />
    <glyph glyph-name="commaaccent" unicode="&#xf6c3;" horiz-adv-x="620" 
d="M117 -403q0 8 6.5 18t10.5 18q14 27 22 51l17 53l3 3v98q-3 9 -3 16.5v16.5v13.5t3 12.5q2 2 5 6.5t6 9.5t6 11l8 5l-5 2q21 15 50 29t58 14q19 0 34.5 -10t26.5 -24.5t17.5 -31.5t6.5 -31q0 -3 -1.5 -11.5t-3.5 -17.5l-4 -18t-3 -13q-2 -18 -4 -38t-7 -39.5t-14 -38
t-25 -32.5q-2 -2 -11 -8.5t-19 -14.5l-19 -15t-10 -9l-4.5 -4.5t-7.5 -7l-8 -7t-5 -3.5q0 -2 -3 -2.5t-4 -0.5q0 1 -1 2l-3 3h-2q-11 0 -27.5 -1t-29.5 -4q-5 -2 -8.5 -4.5t-9.5 -2.5q-11 0 -19 3.5t-19 3.5z" />
    <glyph glyph-name="macron" unicode="&#xaf;" horiz-adv-x="532" 
d="M96 675q-26 6 -46.5 19t-20.5 39q0 24 25.5 41t65.5 28t88.5 17t95 9t85.5 3.5t59 0.5q13 0 23.5 -12.5t18.5 -30t12.5 -35t4.5 -26.5v-24q-5 -4 -14 -14.5l-16 -18.5z" />
    <glyph glyph-name="macron" unicode="&#x2c9;" horiz-adv-x="532" 
d="M96 675q-26 6 -46.5 19t-20.5 39q0 24 25.5 41t65.5 28t88.5 17t95 9t85.5 3.5t59 0.5q13 0 23.5 -12.5t18.5 -30t12.5 -35t4.5 -26.5v-24q-5 -4 -14 -14.5l-16 -18.5z" />
    <glyph glyph-name="Aacute" unicode="&#xc1;" horiz-adv-x="736" 
d="M160 14q-1 0 -7.5 -2t-7.5 -2q-1 -1 -5.5 -2t-10.5 -1.5l-12 -1t-10 -1.5h-2q-6 0 -7 4.5t-3.5 10t-8 11t-20.5 7.5q-11 2 -17 6.5t-12 12.5v24q0 12 1.5 37t3 56.5t4 66.5t4 66.5t3 57t1.5 37.5q0 5 -0.5 19.5t-0.5 18.5q-2 3 -5.5 16t-3.5 18q0 1 1.5 6.5t2.5 7.5v35
q0 71 -7 139.5t-5 139.5q0 22 2 51t10 55.5t25.5 45t49.5 18.5h100q7 0 17.5 -9.5t15.5 -14.5q0 -3 0.5 -10.5l1 -15.5l1 -16t0.5 -11v-17q14 0 23 8t21 16q14 8 32 10.5t34 2.5q19 0 35.5 -4t32.5 -6q27 -3 42.5 -8t26.5 -14.5t20.5 -24l24.5 -36.5q3 -5 7 -9t8 -8.5
t7 -9.5t3 -12h-5q0 -8 3.5 -20.5t9.5 -20.5q0 -2 4.5 -3.5t4.5 -3.5q8 -11 8.5 -23t9.5 -23q0 -1 -1 -2q-2 -2 -3 -2t-4.5 2t-4.5 2v-2v-2q0 -2 2.5 -8l5.5 -13.5l6 -14.5t5 -11q5 -11 7 -21.5t10 -21.5q2 2 3.5 3t3.5 2h1q20 0 28.5 -7t8.5 -25h32l-28 -15.5t-14 -22.5
q7 0 11 -0.5t7 -0.5t6.5 1t10.5 4l7 -10q-7 5 -12.5 0.5t-10.5 -12.5l-9.5 -15.5t-9.5 -7.5q0 -14 2 -27t2 -27q0 -4 0.5 -8t-5.5 -5l10 -5q7 -85 12 -154q2 -29 4.5 -57.5l4.5 -52t4 -39t3 -19.5q1 -3 1.5 -9.5t2 -13t4 -11.5t6.5 -6v-53q-14 0 -14 -14l-5 14q0 -3 -4 -8.5
t-9 -5.5q-4 0 -5.5 3l-3.5 7t-4.5 7t-7.5 3l-7 -6q-6 3 -8.5 6t-3 5.5t-2 4t-6.5 1.5v-4q1 -2 1 -4.5t1 -5.5q0 -4 1 -7h8q-1 -1 -1 -2v-3q-2 -2 -7 -7.5t-7 -6.5q-2 0 -2 -0.5t-1 -0.5l-1 -1q0 10 -8 17t-8 18h-4q-3 0 -10 -4t-9 -6q-5 13 -16.5 29t-26.5 16v3h-12
q0 3 -2.5 31t-7 68l-9.5 85.5t-10 84t-9 64t-6 25.5q-31 0 -62 -10t-65 -10v6q11 0 24.5 2.5t22.5 7.5h-3h-5q-4 -2 -19 -3.5t-20 -2.5l-4 -4q-6 -10 -25 -12.5t-40 -3.5t-38.5 -4t-21.5 -13q-1 -3 -1.5 -20.5t-1 -42.5t-1 -53t-0.5 -53t-0.5 -42.5t-0.5 -20.5
q-3 -10 -8 -17.5t-9 -15.5q0 -2 1 -12t-1 -12l-2.5 -6t-6.5 -13.5t-7.5 -15l-5.5 -11.5t-4.5 -7.5t-4.5 -7.5q-3 -4 -5 -9h-14v4q0 2 1 4.5t-7 4.5zM663 24q-2 0 -2 -5t2 -5q3 0 3 5t-3 5zM660 44q-5 0 -5 -5t5 -5q2 0 2 5t-2 5zM509 389q-4 0 -4 -5t4 -5q3 0 3 5t-3 5z
M312 404q-3 0 -3 -5t3 -5q5 0 5 5t-5 5zM423 403l14 4h-14v-4zM467 416q-5 0 -5 -4.5t5 -4.5q3 0 3 4.5t-3 4.5zM499 421q-4 0 -4 -4.5t4 -4.5t4 4.5t-4 4.5zM477 429q-5 0 -5 -4t5 -4q3 0 3 4t-3 4zM673 509q-4 0 -4 -4t4 -4t4 4t-4 4zM654 537q-2 0 -2 -4t2 -4q3 0 3 4
t-3 4zM380 755q-17 9 -34 -6t-31 -45t-24.5 -71.5t-14.5 -84.5v-6q1 0 6.5 1t7.5 1q7 1 28.5 3.5l46 5.5t45.5 5t27 3q8 0 10 2.5t2 7.5q4 8 -2 35.5t-17 59t-24.5 58t-25.5 31.5zM617 671q4 -3 8.5 -11t8 -16.5t5.5 -17t2 -13.5q0 -1 -2.5 -3t-4.5 -2q-5 11 -11 25.5
t-6 28.5v9zM296 727q-2 2 -4 -1t0 -4q5 0 4 5zM300 741q-3 0 -3 -5t3 -5q5 0 5 5t-5 5zM292 745q-5 0 -5 -4t5 -4q3 0 3 4t-3 4zM579 731q-4 0 -4 -5t4 -5t4 5t-4 5zM292 788q-5 0 -5 -5t5 -5q3 0 3 5t-3 5zM329 798q-4 0 -4 -5t4 -5q2 0 2 5t-2 5zM565 1207q0 -15 -3.5 -25
t-9.5 -17.5t-14.5 -14.5l-18.5 -15l-28 -25t-28 -26q-19 -17 -37 -40t-38 -39q-14 -10 -35 -11.5t-38 -1.5q-17 5 -25 19.5t-10.5 34.5t1 42t10 42t15.5 35t19 21l1 -1l26.5 29t35.5 35.5t38.5 30.5t34.5 14q15 0 33.5 -5.5t34 -16.5t26 -27t10.5 -38z" />
    <glyph glyph-name="Abreve" unicode="&#x102;" horiz-adv-x="736" 
d="M160 14q-1 0 -7.5 -2t-7.5 -2q-1 -1 -5.5 -2t-10.5 -1.5l-12 -1t-10 -1.5h-2q-6 0 -7 4.5t-3.5 10t-8 11t-20.5 7.5q-11 2 -17 6.5t-12 12.5v24q0 12 1.5 37t3 56.5t4 66.5t4 66.5t3 57t1.5 37.5q0 5 -0.5 19.5t-0.5 18.5q-2 3 -5.5 16t-3.5 18q0 1 1.5 6.5t2.5 7.5v35
q0 71 -7 139.5t-5 139.5q0 22 2 51t10 55.5t25.5 45t49.5 18.5h100q7 0 17.5 -9.5t15.5 -14.5q0 -3 0.5 -10.5l1 -15.5l1 -16t0.5 -11v-17q14 0 23 8t21 16q14 8 32 10.5t34 2.5q19 0 35.5 -4t32.5 -6q27 -3 42.5 -8t26.5 -14.5t20.5 -24l24.5 -36.5q3 -5 7 -9t8 -8.5
t7 -9.5t3 -12h-5q0 -8 3.5 -20.5t9.5 -20.5q0 -2 4.5 -3.5t4.5 -3.5q8 -11 8.5 -23t9.5 -23q0 -1 -1 -2q-2 -2 -3 -2t-4.5 2t-4.5 2v-2v-2q0 -2 2.5 -8l5.5 -13.5l6 -14.5t5 -11q5 -11 7 -21.5t10 -21.5q2 2 3.5 3t3.5 2h1q20 0 28.5 -7t8.5 -25h32l-28 -15.5t-14 -22.5
q7 0 11 -0.5t7 -0.5t6.5 1t10.5 4l7 -10q-7 5 -12.5 0.5t-10.5 -12.5l-9.5 -15.5t-9.5 -7.5q0 -14 2 -27t2 -27q0 -4 0.5 -8t-5.5 -5l10 -5q7 -85 12 -154q2 -29 4.5 -57.5l4.5 -52t4 -39t3 -19.5q1 -3 1.5 -9.5t2 -13t4 -11.5t6.5 -6v-53q-14 0 -14 -14l-5 14q0 -3 -4 -8.5
t-9 -5.5q-4 0 -5.5 3l-3.5 7t-4.5 7t-7.5 3l-7 -6q-6 3 -8.5 6t-3 5.5t-2 4t-6.5 1.5v-4q1 -2 1 -4.5t1 -5.5q0 -4 1 -7h8q-1 -1 -1 -2v-3q-2 -2 -7 -7.5t-7 -6.5q-2 0 -2 -0.5t-1 -0.5l-1 -1q0 10 -8 17t-8 18h-4q-3 0 -10 -4t-9 -6q-5 13 -16.5 29t-26.5 16v3h-12
q0 3 -2.5 31t-7 68l-9.5 85.5t-10 84t-9 64t-6 25.5q-31 0 -62 -10t-65 -10v6q11 0 24.5 2.5t22.5 7.5h-3h-5q-4 -2 -19 -3.5t-20 -2.5l-4 -4q-6 -10 -25 -12.5t-40 -3.5t-38.5 -4t-21.5 -13q-1 -3 -1.5 -20.5t-1 -42.5t-1 -53t-0.5 -53t-0.5 -42.5t-0.5 -20.5
q-3 -10 -8 -17.5t-9 -15.5q0 -2 1 -12t-1 -12l-2.5 -6t-6.5 -13.5t-7.5 -15l-5.5 -11.5t-4.5 -7.5t-4.5 -7.5q-3 -4 -5 -9h-14v4q0 2 1 4.5t-7 4.5zM663 24q-2 0 -2 -5t2 -5q3 0 3 5t-3 5zM660 44q-5 0 -5 -5t5 -5q2 0 2 5t-2 5zM509 389q-4 0 -4 -5t4 -5q3 0 3 5t-3 5z
M312 404q-3 0 -3 -5t3 -5q5 0 5 5t-5 5zM423 403l14 4h-14v-4zM467 416q-5 0 -5 -4.5t5 -4.5q3 0 3 4.5t-3 4.5zM499 421q-4 0 -4 -4.5t4 -4.5t4 4.5t-4 4.5zM477 429q-5 0 -5 -4t5 -4q3 0 3 4t-3 4zM673 509q-4 0 -4 -4t4 -4t4 4t-4 4zM654 537q-2 0 -2 -4t2 -4q3 0 3 4
t-3 4zM380 755q-17 9 -34 -6t-31 -45t-24.5 -71.5t-14.5 -84.5v-6q1 0 6.5 1t7.5 1q7 1 28.5 3.5l46 5.5t45.5 5t27 3q8 0 10 2.5t2 7.5q4 8 -2 35.5t-17 59t-24.5 58t-25.5 31.5zM617 671q4 -3 8.5 -11t8 -16.5t5.5 -17t2 -13.5q0 -1 -2.5 -3t-4.5 -2q-5 11 -11 25.5
t-6 28.5v9zM296 727q-2 2 -4 -1t0 -4q5 0 4 5zM300 741q-3 0 -3 -5t3 -5q5 0 5 5t-5 5zM292 745q-5 0 -5 -4t5 -4q3 0 3 4t-3 4zM579 731q-4 0 -4 -5t4 -5t4 5t-4 5zM292 788q-5 0 -5 -5t5 -5q3 0 3 5t-3 5zM329 798q-4 0 -4 -5t4 -5q2 0 2 5t-2 5zM111 1231q3 36 15 56.5
t31.5 31.5t45.5 14t57 3q25 -18 35 -36t13.5 -36t3.5 -34.5t6.5 -31.5t22.5 -27.5t50 -21.5q26 12 40.5 34t16.5 49v30q3 7 15.5 15.5t28 16t31.5 13t25 5.5q1 0 8 -1.5t9 -1.5q0 -1 1 -1h3q2 -1 4 -1h1q2 0 3 1q2 0 3 1q4 2 7 4q6 4 7 4q7 1 10 0t4.5 -3t3 -5t6.5 -5h17
q5 -2 8 -9t5 -16.5t3.5 -18.5t3.5 -14q-1 -2 -2.5 -8.5t-3 -14t-3 -14t-1.5 -9.5q-2 -18 -7 -31t-12 -25t-16.5 -24l-21.5 -28q-38 -53 -99 -80t-125 -27h-24q-88 11 -140 62t-85 129q-4 10 -5.5 15.5t-1.5 10t1 10.5t2 19z" />
    <glyph glyph-name="Acircumflex" unicode="&#xc2;" horiz-adv-x="736" 
d="M160 14q-1 0 -7.5 -2t-7.5 -2q-1 -1 -5.5 -2t-10.5 -1.5l-12 -1t-10 -1.5h-2q-6 0 -7 4.5t-3.5 10t-8 11t-20.5 7.5q-11 2 -17 6.5t-12 12.5v24q0 12 1.5 37t3 56.5t4 66.5t4 66.5t3 57t1.5 37.5q0 5 -0.5 19.5t-0.5 18.5q-2 3 -5.5 16t-3.5 18q0 1 1.5 6.5t2.5 7.5v35
q0 71 -7 139.5t-5 139.5q0 22 2 51t10 55.5t25.5 45t49.5 18.5h100q7 0 17.5 -9.5t15.5 -14.5q0 -3 0.5 -10.5l1 -15.5l1 -16t0.5 -11v-17q14 0 23 8t21 16q14 8 32 10.5t34 2.5q19 0 35.5 -4t32.5 -6q27 -3 42.5 -8t26.5 -14.5t20.5 -24l24.5 -36.5q3 -5 7 -9t8 -8.5
t7 -9.5t3 -12h-5q0 -8 3.5 -20.5t9.5 -20.5q0 -2 4.5 -3.5t4.5 -3.5q8 -11 8.5 -23t9.5 -23q0 -1 -1 -2q-2 -2 -3 -2t-4.5 2t-4.5 2v-2v-2q0 -2 2.5 -8l5.5 -13.5l6 -14.5t5 -11q5 -11 7 -21.5t10 -21.5q2 2 3.5 3t3.5 2h1q20 0 28.5 -7t8.5 -25h32l-28 -15.5t-14 -22.5
q7 0 11 -0.5t7 -0.5t6.5 1t10.5 4l7 -10q-7 5 -12.5 0.5t-10.5 -12.5l-9.5 -15.5t-9.5 -7.5q0 -14 2 -27t2 -27q0 -4 0.5 -8t-5.5 -5l10 -5q7 -85 12 -154q2 -29 4.5 -57.5l4.5 -52t4 -39t3 -19.5q1 -3 1.5 -9.5t2 -13t4 -11.5t6.5 -6v-53q-14 0 -14 -14l-5 14q0 -3 -4 -8.5
t-9 -5.5q-4 0 -5.5 3l-3.5 7t-4.5 7t-7.5 3l-7 -6q-6 3 -8.5 6t-3 5.5t-2 4t-6.5 1.5v-4q1 -2 1 -4.5t1 -5.5q0 -4 1 -7h8q-1 -1 -1 -2v-3q-2 -2 -7 -7.5t-7 -6.5q-2 0 -2 -0.5t-1 -0.5l-1 -1q0 10 -8 17t-8 18h-4q-3 0 -10 -4t-9 -6q-5 13 -16.5 29t-26.5 16v3h-12
q0 3 -2.5 31t-7 68l-9.5 85.5t-10 84t-9 64t-6 25.5q-31 0 -62 -10t-65 -10v6q11 0 24.5 2.5t22.5 7.5h-3h-5q-4 -2 -19 -3.5t-20 -2.5l-4 -4q-6 -10 -25 -12.5t-40 -3.5t-38.5 -4t-21.5 -13q-1 -3 -1.5 -20.5t-1 -42.5t-1 -53t-0.5 -53t-0.5 -42.5t-0.5 -20.5
q-3 -10 -8 -17.5t-9 -15.5q0 -2 1 -12t-1 -12l-2.5 -6t-6.5 -13.5t-7.5 -15l-5.5 -11.5t-4.5 -7.5t-4.5 -7.5q-3 -4 -5 -9h-14v4q0 2 1 4.5t-7 4.5zM663 24q-2 0 -2 -5t2 -5q3 0 3 5t-3 5zM660 44q-5 0 -5 -5t5 -5q2 0 2 5t-2 5zM509 389q-4 0 -4 -5t4 -5q3 0 3 5t-3 5z
M312 404q-3 0 -3 -5t3 -5q5 0 5 5t-5 5zM423 403l14 4h-14v-4zM467 416q-5 0 -5 -4.5t5 -4.5q3 0 3 4.5t-3 4.5zM499 421q-4 0 -4 -4.5t4 -4.5t4 4.5t-4 4.5zM477 429q-5 0 -5 -4t5 -4q3 0 3 4t-3 4zM673 509q-4 0 -4 -4t4 -4t4 4t-4 4zM654 537q-2 0 -2 -4t2 -4q3 0 3 4
t-3 4zM380 755q-17 9 -34 -6t-31 -45t-24.5 -71.5t-14.5 -84.5v-6q1 0 6.5 1t7.5 1q7 1 28.5 3.5l46 5.5t45.5 5t27 3q8 0 10 2.5t2 7.5q4 8 -2 35.5t-17 59t-24.5 58t-25.5 31.5zM617 671q4 -3 8.5 -11t8 -16.5t5.5 -17t2 -13.5q0 -1 -2.5 -3t-4.5 -2q-5 11 -11 25.5
t-6 28.5v9zM296 727q-2 2 -4 -1t0 -4q5 0 4 5zM300 741q-3 0 -3 -5t3 -5q5 0 5 5t-5 5zM292 745q-5 0 -5 -4t5 -4q3 0 3 4t-3 4zM579 731q-4 0 -4 -5t4 -5t4 5t-4 5zM292 788q-5 0 -5 -5t5 -5q3 0 3 5t-3 5zM329 798q-4 0 -4 -5t4 -5q2 0 2 5t-2 5zM101 1078q-3 23 5.5 42.5
t22.5 36.5t30 33.5t27 33.5q4 5 12 18l17 27t16.5 27l10.5 18q16 11 35.5 22t40.5 19.5t42 14t41 5.5q14 0 35 -14.5t44.5 -37.5t47.5 -51.5t43 -56.5t31 -52.5t12 -39.5q0 -8 -3.5 -12.5t-8 -7.5t-9 -5.5t-7.5 -7.5q-6 -10 -5.5 -15t1 -6.5t-2.5 -1t-18 0.5q0 -3 0.5 -9
t0.5 -9q0 -2 -14 -4t-31.5 -4t-33 -3.5t-19.5 -1.5q-14 0 -28 14t-27 33t-24.5 39t-20.5 31q-10 -33 -24 -55.5t-31.5 -38.5t-37.5 -27.5t-42 -21.5l-65 -7q-4 6 -10.5 9t-13.5 5t-13 4.5t-9 8.5q-2 5 -5.5 13t-5.5 16q-4 9 -6 18z" />
    <glyph glyph-name="Agrave" unicode="&#xc0;" horiz-adv-x="736" 
d="M160 14q-1 0 -7.5 -2t-7.5 -2q-1 -1 -5.5 -2t-10.5 -1.5l-12 -1t-10 -1.5h-2q-6 0 -7 4.5t-3.5 10t-8 11t-20.5 7.5q-11 2 -17 6.5t-12 12.5v24q0 12 1.5 37t3 56.5t4 66.5t4 66.5t3 57t1.5 37.5q0 5 -0.5 19.5t-0.5 18.5q-2 3 -5.5 16t-3.5 18q0 1 1.5 6.5t2.5 7.5v35
q0 71 -7 139.5t-5 139.5q0 22 2 51t10 55.5t25.5 45t49.5 18.5h100q7 0 17.5 -9.5t15.5 -14.5q0 -3 0.5 -10.5l1 -15.5l1 -16t0.5 -11v-17q14 0 23 8t21 16q14 8 32 10.5t34 2.5q19 0 35.5 -4t32.5 -6q27 -3 42.5 -8t26.5 -14.5t20.5 -24l24.5 -36.5q3 -5 7 -9t8 -8.5
t7 -9.5t3 -12h-5q0 -8 3.5 -20.5t9.5 -20.5q0 -2 4.5 -3.5t4.5 -3.5q8 -11 8.5 -23t9.5 -23q0 -1 -1 -2q-2 -2 -3 -2t-4.5 2t-4.5 2v-2v-2q0 -2 2.5 -8l5.5 -13.5l6 -14.5t5 -11q5 -11 7 -21.5t10 -21.5q2 2 3.5 3t3.5 2h1q20 0 28.5 -7t8.5 -25h32l-28 -15.5t-14 -22.5
q7 0 11 -0.5t7 -0.5t6.5 1t10.5 4l7 -10q-7 5 -12.5 0.5t-10.5 -12.5l-9.5 -15.5t-9.5 -7.5q0 -14 2 -27t2 -27q0 -4 0.5 -8t-5.5 -5l10 -5q7 -85 12 -154q2 -29 4.5 -57.5l4.5 -52t4 -39t3 -19.5q1 -3 1.5 -9.5t2 -13t4 -11.5t6.5 -6v-53q-14 0 -14 -14l-5 14q0 -3 -4 -8.5
t-9 -5.5q-4 0 -5.5 3l-3.5 7t-4.5 7t-7.5 3l-7 -6q-6 3 -8.5 6t-3 5.5t-2 4t-6.5 1.5v-4q1 -2 1 -4.5t1 -5.5q0 -4 1 -7h8q-1 -1 -1 -2v-3q-2 -2 -7 -7.5t-7 -6.5q-2 0 -2 -0.5t-1 -0.5l-1 -1q0 10 -8 17t-8 18h-4q-3 0 -10 -4t-9 -6q-5 13 -16.5 29t-26.5 16v3h-12
q0 3 -2.5 31t-7 68l-9.5 85.5t-10 84t-9 64t-6 25.5q-31 0 -62 -10t-65 -10v6q11 0 24.5 2.5t22.5 7.5h-3h-5q-4 -2 -19 -3.5t-20 -2.5l-4 -4q-6 -10 -25 -12.5t-40 -3.5t-38.5 -4t-21.5 -13q-1 -3 -1.5 -20.5t-1 -42.5t-1 -53t-0.5 -53t-0.5 -42.5t-0.5 -20.5
q-3 -10 -8 -17.5t-9 -15.5q0 -2 1 -12t-1 -12l-2.5 -6t-6.5 -13.5t-7.5 -15l-5.5 -11.5t-4.5 -7.5t-4.5 -7.5q-3 -4 -5 -9h-14v4q0 2 1 4.5t-7 4.5zM663 24q-2 0 -2 -5t2 -5q3 0 3 5t-3 5zM660 44q-5 0 -5 -5t5 -5q2 0 2 5t-2 5zM509 389q-4 0 -4 -5t4 -5q3 0 3 5t-3 5z
M312 404q-3 0 -3 -5t3 -5q5 0 5 5t-5 5zM423 403l14 4h-14v-4zM467 416q-5 0 -5 -4.5t5 -4.5q3 0 3 4.5t-3 4.5zM499 421q-4 0 -4 -4.5t4 -4.5t4 4.5t-4 4.5zM477 429q-5 0 -5 -4t5 -4q3 0 3 4t-3 4zM673 509q-4 0 -4 -4t4 -4t4 4t-4 4zM654 537q-2 0 -2 -4t2 -4q3 0 3 4
t-3 4zM380 755q-17 9 -34 -6t-31 -45t-24.5 -71.5t-14.5 -84.5v-6q1 0 6.5 1t7.5 1q7 1 28.5 3.5l46 5.5t45.5 5t27 3q8 0 10 2.5t2 7.5q4 8 -2 35.5t-17 59t-24.5 58t-25.5 31.5zM617 671q4 -3 8.5 -11t8 -16.5t5.5 -17t2 -13.5q0 -1 -2.5 -3t-4.5 -2q-5 11 -11 25.5
t-6 28.5v9zM296 727q-2 2 -4 -1t0 -4q5 0 4 5zM300 741q-3 0 -3 -5t3 -5q5 0 5 5t-5 5zM292 745q-5 0 -5 -4t5 -4q3 0 3 4t-3 4zM579 731q-4 0 -4 -5t4 -5t4 5t-4 5zM292 788q-5 0 -5 -5t5 -5q3 0 3 5t-3 5zM329 798q-4 0 -4 -5t4 -5q2 0 2 5t-2 5zM205 1159q0 19 11 34
t27 24.5t34.5 14.5t34.5 5q15 -1 35 -12.5t39.5 -27t36.5 -32l27 -26.5l2 2q15 -8 28 -33.5t17.5 -54.5t-3 -54t-32.5 -32q-17 0 -38.5 1.5t-35.5 9.5q-21 15 -39.5 35t-38.5 37q-14 12 -28.5 23l-28.5 22q-22 15 -35 26t-13 38z" />
    <glyph glyph-name="Adieresis" unicode="&#xc4;" horiz-adv-x="736" 
d="M160 14q-1 0 -7.5 -2t-7.5 -2q-1 -1 -5.5 -2t-10.5 -1.5l-12 -1t-10 -1.5h-2q-6 0 -7 4.5t-3.5 10t-8 11t-20.5 7.5q-11 2 -17 6.5t-12 12.5v24q0 12 1.5 37t3 56.5t4 66.5t4 66.5t3 57t1.5 37.5q0 5 -0.5 19.5t-0.5 18.5q-2 3 -5.5 16t-3.5 18q0 1 1.5 6.5t2.5 7.5v35
q0 71 -7 139.5t-5 139.5q0 22 2 51t10 55.5t25.5 45t49.5 18.5h100q7 0 17.5 -9.5t15.5 -14.5q0 -3 0.5 -10.5l1 -15.5l1 -16t0.5 -11v-17q14 0 23 8t21 16q14 8 32 10.5t34 2.5q19 0 35.5 -4t32.5 -6q27 -3 42.5 -8t26.5 -14.5t20.5 -24l24.5 -36.5q3 -5 7 -9t8 -8.5
t7 -9.5t3 -12h-5q0 -8 3.5 -20.5t9.5 -20.5q0 -2 4.5 -3.5t4.5 -3.5q8 -11 8.5 -23t9.5 -23q0 -1 -1 -2q-2 -2 -3 -2t-4.5 2t-4.5 2v-2v-2q0 -2 2.5 -8l5.5 -13.5l6 -14.5t5 -11q5 -11 7 -21.5t10 -21.5q2 2 3.5 3t3.5 2h1q20 0 28.5 -7t8.5 -25h32l-28 -15.5t-14 -22.5
q7 0 11 -0.5t7 -0.5t6.5 1t10.5 4l7 -10q-7 5 -12.5 0.5t-10.5 -12.5l-9.5 -15.5t-9.5 -7.5q0 -14 2 -27t2 -27q0 -4 0.5 -8t-5.5 -5l10 -5q7 -85 12 -154q2 -29 4.5 -57.5l4.5 -52t4 -39t3 -19.5q1 -3 1.5 -9.5t2 -13t4 -11.5t6.5 -6v-53q-14 0 -14 -14l-5 14q0 -3 -4 -8.5
t-9 -5.5q-4 0 -5.5 3l-3.5 7t-4.5 7t-7.5 3l-7 -6q-6 3 -8.5 6t-3 5.5t-2 4t-6.5 1.5v-4q1 -2 1 -4.5t1 -5.5q0 -4 1 -7h8q-1 -1 -1 -2v-3q-2 -2 -7 -7.5t-7 -6.5q-2 0 -2 -0.5t-1 -0.5l-1 -1q0 10 -8 17t-8 18h-4q-3 0 -10 -4t-9 -6q-5 13 -16.5 29t-26.5 16v3h-12
q0 3 -2.5 31t-7 68l-9.5 85.5t-10 84t-9 64t-6 25.5q-31 0 -62 -10t-65 -10v6q11 0 24.5 2.5t22.5 7.5h-3h-5q-4 -2 -19 -3.5t-20 -2.5l-4 -4q-6 -10 -25 -12.5t-40 -3.5t-38.5 -4t-21.5 -13q-1 -3 -1.5 -20.5t-1 -42.5t-1 -53t-0.5 -53t-0.5 -42.5t-0.5 -20.5
q-3 -10 -8 -17.5t-9 -15.5q0 -2 1 -12t-1 -12l-2.5 -6t-6.5 -13.5t-7.5 -15l-5.5 -11.5t-4.5 -7.5t-4.5 -7.5q-3 -4 -5 -9h-14v4q0 2 1 4.5t-7 4.5zM663 24q-2 0 -2 -5t2 -5q3 0 3 5t-3 5zM660 44q-5 0 -5 -5t5 -5q2 0 2 5t-2 5zM509 389q-4 0 -4 -5t4 -5q3 0 3 5t-3 5z
M312 404q-3 0 -3 -5t3 -5q5 0 5 5t-5 5zM423 403l14 4h-14v-4zM467 416q-5 0 -5 -4.5t5 -4.5q3 0 3 4.5t-3 4.5zM499 421q-4 0 -4 -4.5t4 -4.5t4 4.5t-4 4.5zM477 429q-5 0 -5 -4t5 -4q3 0 3 4t-3 4zM673 509q-4 0 -4 -4t4 -4t4 4t-4 4zM654 537q-2 0 -2 -4t2 -4q3 0 3 4
t-3 4zM380 755q-17 9 -34 -6t-31 -45t-24.5 -71.5t-14.5 -84.5v-6q1 0 6.5 1t7.5 1q7 1 28.5 3.5l46 5.5t45.5 5t27 3q8 0 10 2.5t2 7.5q4 8 -2 35.5t-17 59t-24.5 58t-25.5 31.5zM617 671q4 -3 8.5 -11t8 -16.5t5.5 -17t2 -13.5q0 -1 -2.5 -3t-4.5 -2q-5 11 -11 25.5
t-6 28.5v9zM296 727q-2 2 -4 -1t0 -4q5 0 4 5zM300 741q-3 0 -3 -5t3 -5q5 0 5 5t-5 5zM292 745q-5 0 -5 -4t5 -4q3 0 3 4t-3 4zM579 731q-4 0 -4 -5t4 -5t4 5t-4 5zM292 788q-5 0 -5 -5t5 -5q3 0 3 5t-3 5zM329 798q-4 0 -4 -5t4 -5q2 0 2 5t-2 5zM122 1031
q-16 9 -28.5 14.5t-21 14t-13 21.5t-4.5 36q0 28 15.5 52.5t39.5 43t52.5 29t55.5 10.5q26 0 42 -12t26 -30t14.5 -39l8.5 -40q0 -2 1.5 -7t3.5 -11l3.5 -10.5t1.5 -5.5q0 -8 -5.5 -20t-8.5 -16q-6 -9 -14.5 -12t-18 -4t-19.5 -0.5t-18 -0.5q-13 -2 -21.5 -9.5t-19.5 -7.5
h-12q-3 0 -12 0.5t-19 1.5t-18 1.5t-11 0.5zM474 1031q-16 9 -28.5 14.5t-21 14t-13 21.5t-4.5 36q0 28 15.5 52.5t39.5 43t52.5 29t55.5 10.5q26 0 42 -12t26 -30t14.5 -39l8.5 -40q0 -2 1.5 -7t3.5 -11l3.5 -10.5t1.5 -5.5q0 -8 -5.5 -20t-8.5 -16q-6 -9 -14.5 -12t-18 -4
t-19.5 -0.5t-18 -0.5q-13 -2 -21.5 -9.5t-19.5 -7.5h-12q-3 0 -12 0.5t-19 1.5t-18 1.5t-11 0.5z" />
    </font>
</defs>
</svg>
